%TF.GenerationSoftware,KiCad,Pcbnew,8.0.1*%
%TF.CreationDate,2024-08-18T09:48:26+02:00*%
%TF.ProjectId,robal_rpi_ioBoard,726f6261-6c5f-4727-9069-5f696f426f61,rev?*%
%TF.SameCoordinates,Original*%
%TF.FileFunction,Profile,NP*%
%FSLAX46Y46*%
G04 Gerber Fmt 4.6, Leading zero omitted, Abs format (unit mm)*
G04 Created by KiCad (PCBNEW 8.0.1) date 2024-08-18 09:48:26*
%MOMM*%
%LPD*%
G01*
G04 APERTURE LIST*
%TA.AperFunction,Profile*%
%ADD10C,0.050000*%
%TD*%
%TA.AperFunction,Profile*%
%ADD11C,0.200000*%
%TD*%
G04 APERTURE END LIST*
D10*
X80350000Y-168000000D02*
G75*
G02*
X77150000Y-168000000I-1600000J0D01*
G01*
X77150000Y-168000000D02*
G75*
G02*
X80350000Y-168000000I1600000J0D01*
G01*
D11*
X97890600Y-107992781D02*
X108859401Y-100680247D01*
X97000001Y-173800002D02*
X97000001Y-109656883D01*
X43164215Y-98172300D02*
X37085786Y-104250729D01*
X36500002Y-105664941D02*
G75*
G02*
X37085766Y-104250709I1999998J41D01*
G01*
X107750002Y-43086514D02*
G75*
G02*
X109749986Y-45086513I-2J-1999986D01*
G01*
X43750001Y-96758090D02*
G75*
G02*
X43164222Y-98172307I-2000001J-10D01*
G01*
X43164215Y-98172300D02*
X43164214Y-98172299D01*
X107750002Y-43086514D02*
X45750000Y-43086514D01*
D10*
X56350000Y-168000000D02*
G75*
G02*
X53150000Y-168000000I-1600000J0D01*
G01*
X53150000Y-168000000D02*
G75*
G02*
X56350000Y-168000000I1600000J0D01*
G01*
D11*
X109750001Y-99016145D02*
G75*
G02*
X108859380Y-100680215I-2000001J45D01*
G01*
X36500001Y-105664941D02*
X36500001Y-173800000D01*
X97000001Y-173800002D02*
G75*
G02*
X95000002Y-175800001I-2000001J2D01*
G01*
X43750001Y-45086513D02*
X43750001Y-96758090D01*
X109750001Y-99016145D02*
X109750001Y-45086513D01*
X38500000Y-175800000D02*
G75*
G02*
X36500000Y-173800000I0J2000000D01*
G01*
X97000001Y-109656883D02*
G75*
G02*
X97890609Y-107992794I1999999J-17D01*
G01*
X36500001Y-105664941D02*
X36500002Y-105664941D01*
X38500000Y-175800000D02*
X95000002Y-175800000D01*
X43750001Y-45086513D02*
G75*
G02*
X45750000Y-43086501I1999999J13D01*
G01*
M02*
