%TF.GenerationSoftware,KiCad,Pcbnew,8.0.1*%
%TF.CreationDate,2024-08-17T14:41:16+02:00*%
%TF.ProjectId,robal_rpi_ioBoard,726f6261-6c5f-4727-9069-5f696f426f61,rev?*%
%TF.SameCoordinates,Original*%
%TF.FileFunction,Paste,Top*%
%TF.FilePolarity,Positive*%
%FSLAX46Y46*%
G04 Gerber Fmt 4.6, Leading zero omitted, Abs format (unit mm)*
G04 Created by KiCad (PCBNEW 8.0.1) date 2024-08-17 14:41:16*
%MOMM*%
%LPD*%
G01*
G04 APERTURE LIST*
G04 Aperture macros list*
%AMRoundRect*
0 Rectangle with rounded corners*
0 $1 Rounding radius*
0 $2 $3 $4 $5 $6 $7 $8 $9 X,Y pos of 4 corners*
0 Add a 4 corners polygon primitive as box body*
4,1,4,$2,$3,$4,$5,$6,$7,$8,$9,$2,$3,0*
0 Add four circle primitives for the rounded corners*
1,1,$1+$1,$2,$3*
1,1,$1+$1,$4,$5*
1,1,$1+$1,$6,$7*
1,1,$1+$1,$8,$9*
0 Add four rect primitives between the rounded corners*
20,1,$1+$1,$2,$3,$4,$5,0*
20,1,$1+$1,$4,$5,$6,$7,0*
20,1,$1+$1,$6,$7,$8,$9,0*
20,1,$1+$1,$8,$9,$2,$3,0*%
G04 Aperture macros list end*
%ADD10RoundRect,0.200000X0.200000X0.275000X-0.200000X0.275000X-0.200000X-0.275000X0.200000X-0.275000X0*%
%ADD11RoundRect,0.218750X-0.256250X0.218750X-0.256250X-0.218750X0.256250X-0.218750X0.256250X0.218750X0*%
%ADD12RoundRect,0.200000X-0.200000X-0.275000X0.200000X-0.275000X0.200000X0.275000X-0.200000X0.275000X0*%
%ADD13RoundRect,0.250000X0.412500X0.925000X-0.412500X0.925000X-0.412500X-0.925000X0.412500X-0.925000X0*%
%ADD14RoundRect,0.200000X-0.275000X0.200000X-0.275000X-0.200000X0.275000X-0.200000X0.275000X0.200000X0*%
%ADD15RoundRect,0.250000X-0.412500X-0.925000X0.412500X-0.925000X0.412500X0.925000X-0.412500X0.925000X0*%
%ADD16RoundRect,0.250000X-0.475000X0.250000X-0.475000X-0.250000X0.475000X-0.250000X0.475000X0.250000X0*%
%ADD17RoundRect,0.250000X1.950000X1.000000X-1.950000X1.000000X-1.950000X-1.000000X1.950000X-1.000000X0*%
%ADD18RoundRect,0.250000X-1.950000X-1.000000X1.950000X-1.000000X1.950000X1.000000X-1.950000X1.000000X0*%
%ADD19RoundRect,0.100000X0.637500X0.100000X-0.637500X0.100000X-0.637500X-0.100000X0.637500X-0.100000X0*%
%ADD20RoundRect,0.250000X0.475000X-0.250000X0.475000X0.250000X-0.475000X0.250000X-0.475000X-0.250000X0*%
%ADD21RoundRect,0.250000X-0.994316X-0.192658X-0.521115X-0.868458X0.994316X0.192658X0.521115X0.868458X0*%
%ADD22RoundRect,0.200000X0.275000X-0.200000X0.275000X0.200000X-0.275000X0.200000X-0.275000X-0.200000X0*%
%ADD23RoundRect,0.100000X-0.637500X-0.100000X0.637500X-0.100000X0.637500X0.100000X-0.637500X0.100000X0*%
G04 APERTURE END LIST*
D10*
%TO.C,R50*%
X48250000Y-73750000D03*
X46600000Y-73750000D03*
%TD*%
D11*
%TO.C,5V1*%
X60000000Y-147175000D03*
X60000000Y-148750000D03*
%TD*%
D12*
%TO.C,R24*%
X76924129Y-150220191D03*
X78574129Y-150220191D03*
%TD*%
%TO.C,R51*%
X75600000Y-107000000D03*
X77250000Y-107000000D03*
%TD*%
D10*
%TO.C,R14*%
X48662155Y-110466823D03*
X47012155Y-110466823D03*
%TD*%
D12*
%TO.C,R38*%
X85023592Y-120721794D03*
X86673592Y-120721794D03*
%TD*%
D10*
%TO.C,R23*%
X77769714Y-152092283D03*
X76119714Y-152092283D03*
%TD*%
D13*
%TO.C,C5*%
X45037500Y-102750000D03*
X41962500Y-102750000D03*
%TD*%
D10*
%TO.C,R15*%
X48662155Y-118086823D03*
X47012155Y-118086823D03*
%TD*%
%TO.C,R13*%
X48989539Y-147781634D03*
X47339539Y-147781634D03*
%TD*%
%TO.C,R20*%
X48662155Y-120626823D03*
X47012155Y-120626823D03*
%TD*%
%TO.C,R3*%
X57000000Y-134000000D03*
X55350000Y-134000000D03*
%TD*%
D14*
%TO.C,R28*%
X60000000Y-150500000D03*
X60000000Y-152150000D03*
%TD*%
%TO.C,R26*%
X56981717Y-150500000D03*
X56981717Y-152150000D03*
%TD*%
%TO.C,R21*%
X98500000Y-56500000D03*
X98500000Y-58150000D03*
%TD*%
D10*
%TO.C,R7*%
X48989539Y-145241634D03*
X47339539Y-145241634D03*
%TD*%
D12*
%TO.C,R39*%
X85023592Y-113101794D03*
X86673592Y-113101794D03*
%TD*%
%TO.C,R37*%
X85163592Y-132803900D03*
X86813592Y-132803900D03*
%TD*%
D10*
%TO.C,R5*%
X48947539Y-130049634D03*
X47297539Y-130049634D03*
%TD*%
D15*
%TO.C,C10*%
X96800000Y-104200000D03*
X99875000Y-104200000D03*
%TD*%
D10*
%TO.C,R12*%
X48989539Y-140209634D03*
X47339539Y-140209634D03*
%TD*%
D16*
%TO.C,C4*%
X74307123Y-150180037D03*
X74307123Y-152080037D03*
%TD*%
D17*
%TO.C,C3*%
X47800000Y-159000000D03*
X39400000Y-159000000D03*
%TD*%
D14*
%TO.C,R4*%
X54000000Y-150500000D03*
X54000000Y-152150000D03*
%TD*%
D12*
%TO.C,R32*%
X85036660Y-123220592D03*
X86686660Y-123220592D03*
%TD*%
%TO.C,R42*%
X85163592Y-130263900D03*
X86813592Y-130263900D03*
%TD*%
D10*
%TO.C,R47*%
X58075000Y-116500000D03*
X56425000Y-116500000D03*
%TD*%
%TO.C,R6*%
X48947539Y-137669634D03*
X47297539Y-137669634D03*
%TD*%
D13*
%TO.C,C2*%
X41252588Y-126566306D03*
X38177588Y-126566306D03*
%TD*%
D10*
%TO.C,R48*%
X58101411Y-119675705D03*
X56451411Y-119675705D03*
%TD*%
D12*
%TO.C,R36*%
X85163592Y-140423900D03*
X86813592Y-140423900D03*
%TD*%
D10*
%TO.C,R10*%
X48704155Y-123166823D03*
X47054155Y-123166823D03*
%TD*%
D11*
%TO.C,6V_1*%
X54000000Y-147212500D03*
X54000000Y-148787500D03*
%TD*%
D10*
%TO.C,R19*%
X48662155Y-113006823D03*
X47012155Y-113006823D03*
%TD*%
D17*
%TO.C,C11*%
X80600000Y-159000000D03*
X72200000Y-159000000D03*
%TD*%
D10*
%TO.C,R17*%
X48947539Y-142749634D03*
X47297539Y-142749634D03*
%TD*%
D18*
%TO.C,C6*%
X86000000Y-159000000D03*
X94400000Y-159000000D03*
%TD*%
D12*
%TO.C,R29*%
X85185675Y-150605891D03*
X86835675Y-150605891D03*
%TD*%
D19*
%TO.C,PCA_2*%
X80083530Y-148282528D03*
X80083530Y-147632528D03*
X80083530Y-146982528D03*
X80083530Y-146332528D03*
X80083530Y-145682528D03*
X80083530Y-145032528D03*
X80083530Y-144382528D03*
X80083530Y-143732528D03*
X80083530Y-143082528D03*
X80083530Y-142432528D03*
X80083530Y-141782528D03*
X80083530Y-141132528D03*
X80083530Y-140482528D03*
X80083530Y-139832528D03*
X74358530Y-139832528D03*
X74358530Y-140482528D03*
X74358530Y-141132528D03*
X74358530Y-141782528D03*
X74358530Y-142432528D03*
X74358530Y-143082528D03*
X74358530Y-143732528D03*
X74358530Y-144382528D03*
X74358530Y-145032528D03*
X74358530Y-145682528D03*
X74358530Y-146332528D03*
X74358530Y-146982528D03*
X74358530Y-147632528D03*
X74358530Y-148282528D03*
%TD*%
D12*
%TO.C,R31*%
X85163592Y-135343900D03*
X86813592Y-135343900D03*
%TD*%
%TO.C,R52*%
X75600000Y-108750000D03*
X77250000Y-108750000D03*
%TD*%
%TO.C,R33*%
X85023592Y-115641794D03*
X86673592Y-115641794D03*
%TD*%
D10*
%TO.C,R9*%
X48662155Y-115546823D03*
X47012155Y-115546823D03*
%TD*%
D11*
%TO.C,3.3V1*%
X57000000Y-147175000D03*
X57000000Y-148750000D03*
%TD*%
D14*
%TO.C,R25*%
X53750000Y-56600000D03*
X53750000Y-58250000D03*
%TD*%
D20*
%TO.C,C1*%
X59803551Y-134197447D03*
X59803551Y-132297447D03*
%TD*%
D12*
%TO.C,R30*%
X85163592Y-143053900D03*
X86813592Y-143053900D03*
%TD*%
D14*
%TO.C,R22*%
X72409503Y-145235815D03*
X72409503Y-146885815D03*
%TD*%
D12*
%TO.C,R49*%
X51675000Y-73750000D03*
X53325000Y-73750000D03*
%TD*%
D21*
%TO.C,C13*%
X101436252Y-100481108D03*
X103200000Y-103000000D03*
%TD*%
D12*
%TO.C,R34*%
X85038042Y-107974393D03*
X86688042Y-107974393D03*
%TD*%
D22*
%TO.C,R45*%
X61000000Y-56400000D03*
X61000000Y-54750000D03*
%TD*%
D12*
%TO.C,R2*%
X56230032Y-132000000D03*
X57880032Y-132000000D03*
%TD*%
D22*
%TO.C,R1*%
X61500000Y-139150000D03*
X61500000Y-137500000D03*
%TD*%
D18*
%TO.C,C12*%
X53800000Y-159000000D03*
X62200000Y-159000000D03*
%TD*%
D12*
%TO.C,R41*%
X85163592Y-137883900D03*
X86813592Y-137883900D03*
%TD*%
%TO.C,R43*%
X85023592Y-118181794D03*
X86673592Y-118181794D03*
%TD*%
D23*
%TO.C,PCA_1*%
X54000000Y-136200000D03*
X54000000Y-136850000D03*
X54000000Y-137500000D03*
X54000000Y-138150000D03*
X54000000Y-138800000D03*
X54000000Y-139450000D03*
X54000000Y-140100000D03*
X54000000Y-140750000D03*
X54000000Y-141400000D03*
X54000000Y-142050000D03*
X54000000Y-142700000D03*
X54000000Y-143350000D03*
X54000000Y-144000000D03*
X54000000Y-144650000D03*
X59725000Y-144650000D03*
X59725000Y-144000000D03*
X59725000Y-143350000D03*
X59725000Y-142700000D03*
X59725000Y-142050000D03*
X59725000Y-141400000D03*
X59725000Y-140750000D03*
X59725000Y-140100000D03*
X59725000Y-139450000D03*
X59725000Y-138800000D03*
X59725000Y-138150000D03*
X59725000Y-137500000D03*
X59725000Y-136850000D03*
X59725000Y-136200000D03*
%TD*%
D15*
%TO.C,C7*%
X66725000Y-146600000D03*
X69800000Y-146600000D03*
%TD*%
D11*
%TO.C,6V_2*%
X63000000Y-147250000D03*
X63000000Y-148825000D03*
%TD*%
D12*
%TO.C,R40*%
X85163592Y-145503900D03*
X86813592Y-145503900D03*
%TD*%
%TO.C,R44*%
X85023592Y-110561794D03*
X86673592Y-110561794D03*
%TD*%
D10*
%TO.C,R46*%
X58075000Y-109250000D03*
X56425000Y-109250000D03*
%TD*%
%TO.C,R53*%
X69500000Y-127250000D03*
X67850000Y-127250000D03*
%TD*%
%TO.C,R16*%
X48989539Y-135129634D03*
X47339539Y-135129634D03*
%TD*%
%TO.C,R8*%
X48662155Y-107926823D03*
X47012155Y-107926823D03*
%TD*%
%TO.C,R18*%
X48989539Y-150369634D03*
X47339539Y-150369634D03*
%TD*%
D12*
%TO.C,R35*%
X85179882Y-148048494D03*
X86829882Y-148048494D03*
%TD*%
D10*
%TO.C,R11*%
X48947539Y-132589634D03*
X47297539Y-132589634D03*
%TD*%
D15*
%TO.C,C9*%
X92212500Y-126815801D03*
X95287500Y-126815801D03*
%TD*%
D14*
%TO.C,R27*%
X63000000Y-150500000D03*
X63000000Y-152150000D03*
%TD*%
M02*
