%TF.GenerationSoftware,KiCad,Pcbnew,8.0.1*%
%TF.CreationDate,2024-08-18T09:48:25+02:00*%
%TF.ProjectId,robal_rpi_ioBoard,726f6261-6c5f-4727-9069-5f696f426f61,rev?*%
%TF.SameCoordinates,Original*%
%TF.FileFunction,Legend,Bot*%
%TF.FilePolarity,Positive*%
%FSLAX46Y46*%
G04 Gerber Fmt 4.6, Leading zero omitted, Abs format (unit mm)*
G04 Created by KiCad (PCBNEW 8.0.1) date 2024-08-18 09:48:25*
%MOMM*%
%LPD*%
G01*
G04 APERTURE LIST*
%ADD10C,0.200000*%
%ADD11C,0.100000*%
%ADD12C,0.300000*%
%ADD13C,0.130000*%
%ADD14C,0.000000*%
%ADD15C,0.120000*%
G04 APERTURE END LIST*
D10*
X72750000Y-130500000D02*
X88406255Y-132436979D01*
X56695882Y-147847941D02*
X45330036Y-145155524D01*
X60934190Y-141375509D02*
X45236291Y-142592503D01*
D11*
X83250000Y-122500000D02*
X73625000Y-122500000D01*
D10*
X58500000Y-127199418D02*
X45250000Y-129750000D01*
D12*
X83250000Y-152750000D02*
X83250000Y-152750000D01*
X83250000Y-151550000D02*
X83250000Y-151550000D01*
X83250000Y-150350000D02*
X83250000Y-150350000D01*
X83250000Y-149150000D02*
X83250000Y-149150000D01*
X83250000Y-147950000D02*
X83250000Y-147950000D01*
X83250000Y-146750000D02*
X83250000Y-146750000D01*
X83250000Y-145550000D02*
X83250000Y-145550000D01*
X83250000Y-144350000D02*
X83250000Y-144350000D01*
X83250000Y-143150000D02*
X83250000Y-143150000D01*
X83250000Y-141950000D02*
X83250000Y-141950000D01*
X83250000Y-140750000D02*
X83250000Y-140750000D01*
X83250000Y-139550000D02*
X83250000Y-139550000D01*
X83250000Y-138350000D02*
X83250000Y-138350000D01*
X83250000Y-137150000D02*
X83250000Y-137150000D01*
X83250000Y-135950000D02*
X83250000Y-135950000D01*
X83250000Y-134750000D02*
X83250000Y-134750000D01*
X83250000Y-133550000D02*
X83250000Y-133550000D01*
X83250000Y-132350000D02*
X83250000Y-132350000D01*
X83250000Y-131150000D02*
X83250000Y-131150000D01*
X83250000Y-129950000D02*
X83250000Y-129950000D01*
X83250000Y-128750000D02*
X83250000Y-128750000D01*
X83250000Y-127550000D02*
X83250000Y-127550000D01*
X83250000Y-126350000D02*
X83250000Y-126350000D01*
X83250000Y-125150000D02*
X83250000Y-125150000D01*
X83250000Y-123950000D02*
X83250000Y-123950000D01*
X83250000Y-122750000D02*
X83250000Y-122750000D01*
D10*
X75509166Y-140348506D02*
X88500000Y-140250000D01*
D11*
X80000000Y-141000000D02*
X81000000Y-140750000D01*
D12*
X77750000Y-129393865D02*
X77750000Y-129393865D01*
X77750000Y-128193865D02*
X77750000Y-128193865D01*
X77750000Y-126993865D02*
X77750000Y-126993865D01*
X77750000Y-125793865D02*
X77750000Y-125793865D01*
X77750000Y-124593865D02*
X77750000Y-124593865D01*
X77750000Y-123393865D02*
X77750000Y-123393865D01*
X77750000Y-122193865D02*
X77750000Y-122193865D01*
X77750000Y-120993865D02*
X77750000Y-120993865D01*
X77750000Y-119793865D02*
X77750000Y-119793865D01*
X77750000Y-118593865D02*
X77750000Y-118593865D01*
X77750000Y-117393865D02*
X77750000Y-117393865D01*
X77750000Y-116193865D02*
X77750000Y-116193865D01*
X77750000Y-114993865D02*
X77750000Y-114993865D01*
X77750000Y-113793865D02*
X77750000Y-113793865D01*
X77750000Y-112593865D02*
X77750000Y-112593865D01*
X77750000Y-111393865D02*
X77750000Y-111393865D01*
X77750000Y-110193865D02*
X77750000Y-110193865D01*
X77750000Y-108993865D02*
X77750000Y-108993865D01*
D10*
X72793822Y-141543257D02*
X88500000Y-143000000D01*
D11*
X81000000Y-115532396D02*
X73750000Y-115500000D01*
D12*
X81000000Y-140750000D02*
X81000000Y-140750000D01*
X81000000Y-139550000D02*
X81000000Y-139550000D01*
X81000000Y-138350000D02*
X81000000Y-138350000D01*
X81000000Y-137150000D02*
X81000000Y-137150000D01*
X81000000Y-135950000D02*
X81000000Y-135950000D01*
X81000000Y-134750000D02*
X81000000Y-134750000D01*
X81000000Y-133550000D02*
X81000000Y-133550000D01*
X81000000Y-132350000D02*
X81000000Y-132350000D01*
X81000000Y-131150000D02*
X81000000Y-131150000D01*
X81000000Y-129950000D02*
X81000000Y-129950000D01*
X81000000Y-128750000D02*
X81000000Y-128750000D01*
X81000000Y-127550000D02*
X81000000Y-127550000D01*
X81000000Y-126350000D02*
X81000000Y-126350000D01*
X81000000Y-125150000D02*
X81000000Y-125150000D01*
X81000000Y-123950000D02*
X81000000Y-123950000D01*
X81000000Y-122750000D02*
X81000000Y-122750000D01*
X81000000Y-121550000D02*
X81000000Y-121550000D01*
X81000000Y-120350000D02*
X81000000Y-120350000D01*
X81000000Y-119150000D02*
X81000000Y-119150000D01*
X81000000Y-117950000D02*
X81000000Y-117950000D01*
X81000000Y-116750000D02*
X81000000Y-116750000D01*
X81000000Y-115550000D02*
X81000000Y-115550000D01*
D11*
X51750000Y-124000000D02*
X60250000Y-124000000D01*
X53500000Y-140860174D02*
X54025532Y-141093378D01*
D10*
X76507241Y-147341830D02*
X88486291Y-145342503D01*
X61000000Y-131250000D02*
X45250000Y-132500000D01*
D11*
X56000000Y-130426254D02*
X56579273Y-130640632D01*
D10*
X71045706Y-131844361D02*
X88406255Y-135186979D01*
X73945693Y-125914051D02*
X88406255Y-129936979D01*
X60596810Y-150803365D02*
X45330036Y-147905524D01*
X62997174Y-151574522D02*
X45330036Y-150405524D01*
X70533486Y-151418466D02*
X88486291Y-150592503D01*
D11*
X77750000Y-129393865D02*
X77264000Y-129698509D01*
D10*
X62750000Y-132000000D02*
X45250000Y-135000000D01*
X58576218Y-140781454D02*
X45236291Y-140092503D01*
X73205383Y-150766783D02*
X88486291Y-147842503D01*
X55233603Y-136976567D02*
X45236291Y-137342503D01*
D12*
X53500000Y-140860174D02*
X53500000Y-140860174D01*
X53500000Y-139660174D02*
X53500000Y-139660174D01*
X53500000Y-138460174D02*
X53500000Y-138460174D01*
X53500000Y-137260174D02*
X53500000Y-137260174D01*
X53500000Y-136060174D02*
X53500000Y-136060174D01*
X53500000Y-134860174D02*
X53500000Y-134860174D01*
X53500000Y-133660174D02*
X53500000Y-133660174D01*
X53500000Y-132460174D02*
X53500000Y-132460174D01*
X53500000Y-131260174D02*
X53500000Y-131260174D01*
X53500000Y-130060174D02*
X53500000Y-130060174D01*
X53500000Y-128860174D02*
X53500000Y-128860174D01*
X53500000Y-127660174D02*
X53500000Y-127660174D01*
X53500000Y-126460174D02*
X53500000Y-126460174D01*
X53500000Y-125260174D02*
X53500000Y-125260174D01*
X53500000Y-124060174D02*
X53500000Y-124060174D01*
X53500000Y-122860174D02*
X53500000Y-122860174D01*
X53500000Y-121660174D02*
X53500000Y-121660174D01*
X53500000Y-120460174D02*
X53500000Y-120460174D01*
X53500000Y-119260174D02*
X53500000Y-119260174D01*
X53500000Y-118060174D02*
X53500000Y-118060174D01*
D11*
X55500000Y-109750000D02*
X60500000Y-109750000D01*
D12*
X52500000Y-152750000D02*
X52500000Y-152750000D01*
X52468706Y-151550408D02*
X52468706Y-151550408D01*
X52437413Y-150350816D02*
X52437413Y-150350816D01*
X52406119Y-149151224D02*
X52406119Y-149151224D01*
X52374825Y-147951632D02*
X52374825Y-147951632D01*
X52343531Y-146752041D02*
X52343531Y-146752041D01*
X52312238Y-145552449D02*
X52312238Y-145552449D01*
X52280944Y-144352857D02*
X52280944Y-144352857D01*
X52249650Y-143153265D02*
X52249650Y-143153265D01*
X52218357Y-141953673D02*
X52218357Y-141953673D01*
X52187063Y-140754081D02*
X52187063Y-140754081D01*
X52155769Y-139554489D02*
X52155769Y-139554489D01*
X52124476Y-138354897D02*
X52124476Y-138354897D01*
X52093182Y-137155305D02*
X52093182Y-137155305D01*
X52061888Y-135955714D02*
X52061888Y-135955714D01*
X52030594Y-134756122D02*
X52030594Y-134756122D01*
X51999301Y-133556530D02*
X51999301Y-133556530D01*
X51968007Y-132356938D02*
X51968007Y-132356938D01*
X51936713Y-131157346D02*
X51936713Y-131157346D01*
X51905420Y-129957754D02*
X51905420Y-129957754D01*
X51874126Y-128758162D02*
X51874126Y-128758162D01*
X51842832Y-127558570D02*
X51842832Y-127558570D01*
X51811539Y-126358978D02*
X51811539Y-126358978D01*
X51780245Y-125159387D02*
X51780245Y-125159387D01*
X56000000Y-130426254D02*
X56000000Y-130426254D01*
X55970990Y-129226605D02*
X55970990Y-129226605D01*
X55941979Y-128026955D02*
X55941979Y-128026955D01*
X55912969Y-126827306D02*
X55912969Y-126827306D01*
X55883959Y-125627657D02*
X55883959Y-125627657D01*
X55854948Y-124428008D02*
X55854948Y-124428008D01*
X55825938Y-123228358D02*
X55825938Y-123228358D01*
X55796928Y-122028709D02*
X55796928Y-122028709D01*
X55767917Y-120829060D02*
X55767917Y-120829060D01*
X55738907Y-119629410D02*
X55738907Y-119629410D01*
X55709897Y-118429761D02*
X55709897Y-118429761D01*
X55680887Y-117230112D02*
X55680887Y-117230112D01*
X55651876Y-116030463D02*
X55651876Y-116030463D01*
X55622866Y-114830813D02*
X55622866Y-114830813D01*
X55593856Y-113631164D02*
X55593856Y-113631164D01*
X55564845Y-112431515D02*
X55564845Y-112431515D01*
X55535835Y-111231865D02*
X55535835Y-111231865D01*
X55506825Y-110032216D02*
X55506825Y-110032216D01*
D10*
X77681440Y-136134293D02*
X88500000Y-137750000D01*
D11*
X53500000Y-117000000D02*
X60500000Y-117000000D01*
X56112518Y-152710940D02*
X52500000Y-152750000D01*
X77750000Y-108500000D02*
X73250000Y-108500000D01*
X77504773Y-152982968D02*
X83250000Y-152750000D01*
D13*
X37885714Y-152947545D02*
X37800000Y-152990402D01*
X37800000Y-152990402D02*
X37671428Y-152990402D01*
X37671428Y-152990402D02*
X37542857Y-152947545D01*
X37542857Y-152947545D02*
X37457142Y-152861831D01*
X37457142Y-152861831D02*
X37414285Y-152776117D01*
X37414285Y-152776117D02*
X37371428Y-152604688D01*
X37371428Y-152604688D02*
X37371428Y-152476117D01*
X37371428Y-152476117D02*
X37414285Y-152304688D01*
X37414285Y-152304688D02*
X37457142Y-152218974D01*
X37457142Y-152218974D02*
X37542857Y-152133260D01*
X37542857Y-152133260D02*
X37671428Y-152090402D01*
X37671428Y-152090402D02*
X37757142Y-152090402D01*
X37757142Y-152090402D02*
X37885714Y-152133260D01*
X37885714Y-152133260D02*
X37928571Y-152176117D01*
X37928571Y-152176117D02*
X37928571Y-152476117D01*
X37928571Y-152476117D02*
X37757142Y-152476117D01*
X38314285Y-152090402D02*
X38314285Y-152990402D01*
X38314285Y-152990402D02*
X38828571Y-152090402D01*
X38828571Y-152090402D02*
X38828571Y-152990402D01*
X39257142Y-152090402D02*
X39257142Y-152990402D01*
X39257142Y-152990402D02*
X39471428Y-152990402D01*
X39471428Y-152990402D02*
X39599999Y-152947545D01*
X39599999Y-152947545D02*
X39685714Y-152861831D01*
X39685714Y-152861831D02*
X39728571Y-152776117D01*
X39728571Y-152776117D02*
X39771428Y-152604688D01*
X39771428Y-152604688D02*
X39771428Y-152476117D01*
X39771428Y-152476117D02*
X39728571Y-152304688D01*
X39728571Y-152304688D02*
X39685714Y-152218974D01*
X39685714Y-152218974D02*
X39599999Y-152133260D01*
X39599999Y-152133260D02*
X39471428Y-152090402D01*
X39471428Y-152090402D02*
X39257142Y-152090402D01*
X41228571Y-152990402D02*
X41057142Y-152990402D01*
X41057142Y-152990402D02*
X40971428Y-152947545D01*
X40971428Y-152947545D02*
X40928571Y-152904688D01*
X40928571Y-152904688D02*
X40842856Y-152776117D01*
X40842856Y-152776117D02*
X40799999Y-152604688D01*
X40799999Y-152604688D02*
X40799999Y-152261831D01*
X40799999Y-152261831D02*
X40842856Y-152176117D01*
X40842856Y-152176117D02*
X40885713Y-152133260D01*
X40885713Y-152133260D02*
X40971428Y-152090402D01*
X40971428Y-152090402D02*
X41142856Y-152090402D01*
X41142856Y-152090402D02*
X41228571Y-152133260D01*
X41228571Y-152133260D02*
X41271428Y-152176117D01*
X41271428Y-152176117D02*
X41314285Y-152261831D01*
X41314285Y-152261831D02*
X41314285Y-152476117D01*
X41314285Y-152476117D02*
X41271428Y-152561831D01*
X41271428Y-152561831D02*
X41228571Y-152604688D01*
X41228571Y-152604688D02*
X41142856Y-152647545D01*
X41142856Y-152647545D02*
X40971428Y-152647545D01*
X40971428Y-152647545D02*
X40885713Y-152604688D01*
X40885713Y-152604688D02*
X40842856Y-152561831D01*
X40842856Y-152561831D02*
X40799999Y-152476117D01*
X41571428Y-152990402D02*
X41871428Y-152090402D01*
X41871428Y-152090402D02*
X42171428Y-152990402D01*
X43114285Y-152133260D02*
X43242857Y-152090402D01*
X43242857Y-152090402D02*
X43457142Y-152090402D01*
X43457142Y-152090402D02*
X43542857Y-152133260D01*
X43542857Y-152133260D02*
X43585714Y-152176117D01*
X43585714Y-152176117D02*
X43628571Y-152261831D01*
X43628571Y-152261831D02*
X43628571Y-152347545D01*
X43628571Y-152347545D02*
X43585714Y-152433260D01*
X43585714Y-152433260D02*
X43542857Y-152476117D01*
X43542857Y-152476117D02*
X43457142Y-152518974D01*
X43457142Y-152518974D02*
X43285714Y-152561831D01*
X43285714Y-152561831D02*
X43199999Y-152604688D01*
X43199999Y-152604688D02*
X43157142Y-152647545D01*
X43157142Y-152647545D02*
X43114285Y-152733260D01*
X43114285Y-152733260D02*
X43114285Y-152818974D01*
X43114285Y-152818974D02*
X43157142Y-152904688D01*
X43157142Y-152904688D02*
X43199999Y-152947545D01*
X43199999Y-152947545D02*
X43285714Y-152990402D01*
X43285714Y-152990402D02*
X43499999Y-152990402D01*
X43499999Y-152990402D02*
X43628571Y-152947545D01*
X38054253Y-105821697D02*
X37968539Y-105864554D01*
X37968539Y-105864554D02*
X37839967Y-105864554D01*
X37839967Y-105864554D02*
X37711396Y-105821697D01*
X37711396Y-105821697D02*
X37625681Y-105735983D01*
X37625681Y-105735983D02*
X37582824Y-105650269D01*
X37582824Y-105650269D02*
X37539967Y-105478840D01*
X37539967Y-105478840D02*
X37539967Y-105350269D01*
X37539967Y-105350269D02*
X37582824Y-105178840D01*
X37582824Y-105178840D02*
X37625681Y-105093126D01*
X37625681Y-105093126D02*
X37711396Y-105007412D01*
X37711396Y-105007412D02*
X37839967Y-104964554D01*
X37839967Y-104964554D02*
X37925681Y-104964554D01*
X37925681Y-104964554D02*
X38054253Y-105007412D01*
X38054253Y-105007412D02*
X38097110Y-105050269D01*
X38097110Y-105050269D02*
X38097110Y-105350269D01*
X38097110Y-105350269D02*
X37925681Y-105350269D01*
X38482824Y-104964554D02*
X38482824Y-105864554D01*
X38482824Y-105864554D02*
X38997110Y-104964554D01*
X38997110Y-104964554D02*
X38997110Y-105864554D01*
X39425681Y-104964554D02*
X39425681Y-105864554D01*
X39425681Y-105864554D02*
X39639967Y-105864554D01*
X39639967Y-105864554D02*
X39768538Y-105821697D01*
X39768538Y-105821697D02*
X39854253Y-105735983D01*
X39854253Y-105735983D02*
X39897110Y-105650269D01*
X39897110Y-105650269D02*
X39939967Y-105478840D01*
X39939967Y-105478840D02*
X39939967Y-105350269D01*
X39939967Y-105350269D02*
X39897110Y-105178840D01*
X39897110Y-105178840D02*
X39854253Y-105093126D01*
X39854253Y-105093126D02*
X39768538Y-105007412D01*
X39768538Y-105007412D02*
X39639967Y-104964554D01*
X39639967Y-104964554D02*
X39425681Y-104964554D01*
X41397110Y-105864554D02*
X41225681Y-105864554D01*
X41225681Y-105864554D02*
X41139967Y-105821697D01*
X41139967Y-105821697D02*
X41097110Y-105778840D01*
X41097110Y-105778840D02*
X41011395Y-105650269D01*
X41011395Y-105650269D02*
X40968538Y-105478840D01*
X40968538Y-105478840D02*
X40968538Y-105135983D01*
X40968538Y-105135983D02*
X41011395Y-105050269D01*
X41011395Y-105050269D02*
X41054252Y-105007412D01*
X41054252Y-105007412D02*
X41139967Y-104964554D01*
X41139967Y-104964554D02*
X41311395Y-104964554D01*
X41311395Y-104964554D02*
X41397110Y-105007412D01*
X41397110Y-105007412D02*
X41439967Y-105050269D01*
X41439967Y-105050269D02*
X41482824Y-105135983D01*
X41482824Y-105135983D02*
X41482824Y-105350269D01*
X41482824Y-105350269D02*
X41439967Y-105435983D01*
X41439967Y-105435983D02*
X41397110Y-105478840D01*
X41397110Y-105478840D02*
X41311395Y-105521697D01*
X41311395Y-105521697D02*
X41139967Y-105521697D01*
X41139967Y-105521697D02*
X41054252Y-105478840D01*
X41054252Y-105478840D02*
X41011395Y-105435983D01*
X41011395Y-105435983D02*
X40968538Y-105350269D01*
X41739967Y-105864554D02*
X42039967Y-104964554D01*
X42039967Y-104964554D02*
X42339967Y-105864554D01*
X43282824Y-105007412D02*
X43411396Y-104964554D01*
X43411396Y-104964554D02*
X43625681Y-104964554D01*
X43625681Y-104964554D02*
X43711396Y-105007412D01*
X43711396Y-105007412D02*
X43754253Y-105050269D01*
X43754253Y-105050269D02*
X43797110Y-105135983D01*
X43797110Y-105135983D02*
X43797110Y-105221697D01*
X43797110Y-105221697D02*
X43754253Y-105307412D01*
X43754253Y-105307412D02*
X43711396Y-105350269D01*
X43711396Y-105350269D02*
X43625681Y-105393126D01*
X43625681Y-105393126D02*
X43454253Y-105435983D01*
X43454253Y-105435983D02*
X43368538Y-105478840D01*
X43368538Y-105478840D02*
X43325681Y-105521697D01*
X43325681Y-105521697D02*
X43282824Y-105607412D01*
X43282824Y-105607412D02*
X43282824Y-105693126D01*
X43282824Y-105693126D02*
X43325681Y-105778840D01*
X43325681Y-105778840D02*
X43368538Y-105821697D01*
X43368538Y-105821697D02*
X43454253Y-105864554D01*
X43454253Y-105864554D02*
X43668538Y-105864554D01*
X43668538Y-105864554D02*
X43797110Y-105821697D01*
D12*
X85714286Y-59305954D02*
X86214286Y-58591668D01*
X86571429Y-59305954D02*
X86571429Y-57805954D01*
X86571429Y-57805954D02*
X86000000Y-57805954D01*
X86000000Y-57805954D02*
X85857143Y-57877383D01*
X85857143Y-57877383D02*
X85785714Y-57948811D01*
X85785714Y-57948811D02*
X85714286Y-58091668D01*
X85714286Y-58091668D02*
X85714286Y-58305954D01*
X85714286Y-58305954D02*
X85785714Y-58448811D01*
X85785714Y-58448811D02*
X85857143Y-58520240D01*
X85857143Y-58520240D02*
X86000000Y-58591668D01*
X86000000Y-58591668D02*
X86571429Y-58591668D01*
X84785714Y-57805954D02*
X84500000Y-57805954D01*
X84500000Y-57805954D02*
X84357143Y-57877383D01*
X84357143Y-57877383D02*
X84214286Y-58020240D01*
X84214286Y-58020240D02*
X84142857Y-58305954D01*
X84142857Y-58305954D02*
X84142857Y-58805954D01*
X84142857Y-58805954D02*
X84214286Y-59091668D01*
X84214286Y-59091668D02*
X84357143Y-59234526D01*
X84357143Y-59234526D02*
X84500000Y-59305954D01*
X84500000Y-59305954D02*
X84785714Y-59305954D01*
X84785714Y-59305954D02*
X84928572Y-59234526D01*
X84928572Y-59234526D02*
X85071429Y-59091668D01*
X85071429Y-59091668D02*
X85142857Y-58805954D01*
X85142857Y-58805954D02*
X85142857Y-58305954D01*
X85142857Y-58305954D02*
X85071429Y-58020240D01*
X85071429Y-58020240D02*
X84928572Y-57877383D01*
X84928572Y-57877383D02*
X84785714Y-57805954D01*
X83000000Y-58520240D02*
X82785714Y-58591668D01*
X82785714Y-58591668D02*
X82714285Y-58663097D01*
X82714285Y-58663097D02*
X82642857Y-58805954D01*
X82642857Y-58805954D02*
X82642857Y-59020240D01*
X82642857Y-59020240D02*
X82714285Y-59163097D01*
X82714285Y-59163097D02*
X82785714Y-59234526D01*
X82785714Y-59234526D02*
X82928571Y-59305954D01*
X82928571Y-59305954D02*
X83500000Y-59305954D01*
X83500000Y-59305954D02*
X83500000Y-57805954D01*
X83500000Y-57805954D02*
X83000000Y-57805954D01*
X83000000Y-57805954D02*
X82857143Y-57877383D01*
X82857143Y-57877383D02*
X82785714Y-57948811D01*
X82785714Y-57948811D02*
X82714285Y-58091668D01*
X82714285Y-58091668D02*
X82714285Y-58234526D01*
X82714285Y-58234526D02*
X82785714Y-58377383D01*
X82785714Y-58377383D02*
X82857143Y-58448811D01*
X82857143Y-58448811D02*
X83000000Y-58520240D01*
X83000000Y-58520240D02*
X83500000Y-58520240D01*
X82071428Y-58877383D02*
X81357143Y-58877383D01*
X82214285Y-59305954D02*
X81714285Y-57805954D01*
X81714285Y-57805954D02*
X81214285Y-59305954D01*
X80000000Y-59305954D02*
X80714286Y-59305954D01*
X80714286Y-59305954D02*
X80714286Y-57805954D01*
X77500000Y-59163097D02*
X77571428Y-59234526D01*
X77571428Y-59234526D02*
X77785714Y-59305954D01*
X77785714Y-59305954D02*
X77928571Y-59305954D01*
X77928571Y-59305954D02*
X78142857Y-59234526D01*
X78142857Y-59234526D02*
X78285714Y-59091668D01*
X78285714Y-59091668D02*
X78357143Y-58948811D01*
X78357143Y-58948811D02*
X78428571Y-58663097D01*
X78428571Y-58663097D02*
X78428571Y-58448811D01*
X78428571Y-58448811D02*
X78357143Y-58163097D01*
X78357143Y-58163097D02*
X78285714Y-58020240D01*
X78285714Y-58020240D02*
X78142857Y-57877383D01*
X78142857Y-57877383D02*
X77928571Y-57805954D01*
X77928571Y-57805954D02*
X77785714Y-57805954D01*
X77785714Y-57805954D02*
X77571428Y-57877383D01*
X77571428Y-57877383D02*
X77500000Y-57948811D01*
X76571428Y-57805954D02*
X76285714Y-57805954D01*
X76285714Y-57805954D02*
X76142857Y-57877383D01*
X76142857Y-57877383D02*
X76000000Y-58020240D01*
X76000000Y-58020240D02*
X75928571Y-58305954D01*
X75928571Y-58305954D02*
X75928571Y-58805954D01*
X75928571Y-58805954D02*
X76000000Y-59091668D01*
X76000000Y-59091668D02*
X76142857Y-59234526D01*
X76142857Y-59234526D02*
X76285714Y-59305954D01*
X76285714Y-59305954D02*
X76571428Y-59305954D01*
X76571428Y-59305954D02*
X76714286Y-59234526D01*
X76714286Y-59234526D02*
X76857143Y-59091668D01*
X76857143Y-59091668D02*
X76928571Y-58805954D01*
X76928571Y-58805954D02*
X76928571Y-58305954D01*
X76928571Y-58305954D02*
X76857143Y-58020240D01*
X76857143Y-58020240D02*
X76714286Y-57877383D01*
X76714286Y-57877383D02*
X76571428Y-57805954D01*
X75285714Y-59305954D02*
X75285714Y-57805954D01*
X75285714Y-57805954D02*
X74428571Y-59305954D01*
X74428571Y-59305954D02*
X74428571Y-57805954D01*
X73928570Y-57805954D02*
X73071428Y-57805954D01*
X73499999Y-59305954D02*
X73499999Y-57805954D01*
X71714285Y-59305954D02*
X72214285Y-58591668D01*
X72571428Y-59305954D02*
X72571428Y-57805954D01*
X72571428Y-57805954D02*
X71999999Y-57805954D01*
X71999999Y-57805954D02*
X71857142Y-57877383D01*
X71857142Y-57877383D02*
X71785713Y-57948811D01*
X71785713Y-57948811D02*
X71714285Y-58091668D01*
X71714285Y-58091668D02*
X71714285Y-58305954D01*
X71714285Y-58305954D02*
X71785713Y-58448811D01*
X71785713Y-58448811D02*
X71857142Y-58520240D01*
X71857142Y-58520240D02*
X71999999Y-58591668D01*
X71999999Y-58591668D02*
X72571428Y-58591668D01*
X70785713Y-57805954D02*
X70499999Y-57805954D01*
X70499999Y-57805954D02*
X70357142Y-57877383D01*
X70357142Y-57877383D02*
X70214285Y-58020240D01*
X70214285Y-58020240D02*
X70142856Y-58305954D01*
X70142856Y-58305954D02*
X70142856Y-58805954D01*
X70142856Y-58805954D02*
X70214285Y-59091668D01*
X70214285Y-59091668D02*
X70357142Y-59234526D01*
X70357142Y-59234526D02*
X70499999Y-59305954D01*
X70499999Y-59305954D02*
X70785713Y-59305954D01*
X70785713Y-59305954D02*
X70928571Y-59234526D01*
X70928571Y-59234526D02*
X71071428Y-59091668D01*
X71071428Y-59091668D02*
X71142856Y-58805954D01*
X71142856Y-58805954D02*
X71142856Y-58305954D01*
X71142856Y-58305954D02*
X71071428Y-58020240D01*
X71071428Y-58020240D02*
X70928571Y-57877383D01*
X70928571Y-57877383D02*
X70785713Y-57805954D01*
X68785713Y-59305954D02*
X69499999Y-59305954D01*
X69499999Y-59305954D02*
X69499999Y-57805954D01*
X67571427Y-59305954D02*
X68285713Y-59305954D01*
X68285713Y-59305954D02*
X68285713Y-57805954D01*
X67071427Y-58520240D02*
X66571427Y-58520240D01*
X66357141Y-59305954D02*
X67071427Y-59305954D01*
X67071427Y-59305954D02*
X67071427Y-57805954D01*
X67071427Y-57805954D02*
X66357141Y-57805954D01*
X64857141Y-59305954D02*
X65357141Y-58591668D01*
X65714284Y-59305954D02*
X65714284Y-57805954D01*
X65714284Y-57805954D02*
X65142855Y-57805954D01*
X65142855Y-57805954D02*
X64999998Y-57877383D01*
X64999998Y-57877383D02*
X64928569Y-57948811D01*
X64928569Y-57948811D02*
X64857141Y-58091668D01*
X64857141Y-58091668D02*
X64857141Y-58305954D01*
X64857141Y-58305954D02*
X64928569Y-58448811D01*
X64928569Y-58448811D02*
X64999998Y-58520240D01*
X64999998Y-58520240D02*
X65142855Y-58591668D01*
X65142855Y-58591668D02*
X65714284Y-58591668D01*
X64571427Y-59448811D02*
X63428569Y-59448811D01*
X62571427Y-58520240D02*
X62357141Y-58591668D01*
X62357141Y-58591668D02*
X62285712Y-58663097D01*
X62285712Y-58663097D02*
X62214284Y-58805954D01*
X62214284Y-58805954D02*
X62214284Y-59020240D01*
X62214284Y-59020240D02*
X62285712Y-59163097D01*
X62285712Y-59163097D02*
X62357141Y-59234526D01*
X62357141Y-59234526D02*
X62499998Y-59305954D01*
X62499998Y-59305954D02*
X63071427Y-59305954D01*
X63071427Y-59305954D02*
X63071427Y-57805954D01*
X63071427Y-57805954D02*
X62571427Y-57805954D01*
X62571427Y-57805954D02*
X62428570Y-57877383D01*
X62428570Y-57877383D02*
X62357141Y-57948811D01*
X62357141Y-57948811D02*
X62285712Y-58091668D01*
X62285712Y-58091668D02*
X62285712Y-58234526D01*
X62285712Y-58234526D02*
X62357141Y-58377383D01*
X62357141Y-58377383D02*
X62428570Y-58448811D01*
X62428570Y-58448811D02*
X62571427Y-58520240D01*
X62571427Y-58520240D02*
X63071427Y-58520240D01*
X61285712Y-57805954D02*
X60999998Y-57805954D01*
X60999998Y-57805954D02*
X60857141Y-57877383D01*
X60857141Y-57877383D02*
X60714284Y-58020240D01*
X60714284Y-58020240D02*
X60642855Y-58305954D01*
X60642855Y-58305954D02*
X60642855Y-58805954D01*
X60642855Y-58805954D02*
X60714284Y-59091668D01*
X60714284Y-59091668D02*
X60857141Y-59234526D01*
X60857141Y-59234526D02*
X60999998Y-59305954D01*
X60999998Y-59305954D02*
X61285712Y-59305954D01*
X61285712Y-59305954D02*
X61428570Y-59234526D01*
X61428570Y-59234526D02*
X61571427Y-59091668D01*
X61571427Y-59091668D02*
X61642855Y-58805954D01*
X61642855Y-58805954D02*
X61642855Y-58305954D01*
X61642855Y-58305954D02*
X61571427Y-58020240D01*
X61571427Y-58020240D02*
X61428570Y-57877383D01*
X61428570Y-57877383D02*
X61285712Y-57805954D01*
X60071426Y-58877383D02*
X59357141Y-58877383D01*
X60214283Y-59305954D02*
X59714283Y-57805954D01*
X59714283Y-57805954D02*
X59214283Y-59305954D01*
X57857141Y-59305954D02*
X58357141Y-58591668D01*
X58714284Y-59305954D02*
X58714284Y-57805954D01*
X58714284Y-57805954D02*
X58142855Y-57805954D01*
X58142855Y-57805954D02*
X57999998Y-57877383D01*
X57999998Y-57877383D02*
X57928569Y-57948811D01*
X57928569Y-57948811D02*
X57857141Y-58091668D01*
X57857141Y-58091668D02*
X57857141Y-58305954D01*
X57857141Y-58305954D02*
X57928569Y-58448811D01*
X57928569Y-58448811D02*
X57999998Y-58520240D01*
X57999998Y-58520240D02*
X58142855Y-58591668D01*
X58142855Y-58591668D02*
X58714284Y-58591668D01*
X57214284Y-59305954D02*
X57214284Y-57805954D01*
X57214284Y-57805954D02*
X56857141Y-57805954D01*
X56857141Y-57805954D02*
X56642855Y-57877383D01*
X56642855Y-57877383D02*
X56499998Y-58020240D01*
X56499998Y-58020240D02*
X56428569Y-58163097D01*
X56428569Y-58163097D02*
X56357141Y-58448811D01*
X56357141Y-58448811D02*
X56357141Y-58663097D01*
X56357141Y-58663097D02*
X56428569Y-58948811D01*
X56428569Y-58948811D02*
X56499998Y-59091668D01*
X56499998Y-59091668D02*
X56642855Y-59234526D01*
X56642855Y-59234526D02*
X56857141Y-59305954D01*
X56857141Y-59305954D02*
X57214284Y-59305954D01*
X79928572Y-61720870D02*
X79928572Y-60220870D01*
X79071429Y-61720870D02*
X79714286Y-60863727D01*
X79071429Y-60220870D02*
X79928572Y-61078013D01*
X78500000Y-61292299D02*
X77785715Y-61292299D01*
X78642857Y-61720870D02*
X78142857Y-60220870D01*
X78142857Y-60220870D02*
X77642857Y-61720870D01*
X77142858Y-61720870D02*
X77142858Y-60220870D01*
X77142858Y-60220870D02*
X76642858Y-61292299D01*
X76642858Y-61292299D02*
X76142858Y-60220870D01*
X76142858Y-60220870D02*
X76142858Y-61720870D01*
X75428572Y-61720870D02*
X75428572Y-60220870D01*
X74000000Y-61720870D02*
X74714286Y-61720870D01*
X74714286Y-61720870D02*
X74714286Y-60220870D01*
X72500000Y-60220870D02*
X72142857Y-61720870D01*
X72142857Y-61720870D02*
X71857143Y-60649442D01*
X71857143Y-60649442D02*
X71571428Y-61720870D01*
X71571428Y-61720870D02*
X71214286Y-60220870D01*
X70642857Y-61720870D02*
X70642857Y-60220870D01*
X69928571Y-61720870D02*
X69928571Y-60220870D01*
X69928571Y-60220870D02*
X69071428Y-61720870D01*
X69071428Y-61720870D02*
X69071428Y-60220870D01*
X68357142Y-61720870D02*
X68357142Y-60220870D01*
X68357142Y-60220870D02*
X67499999Y-61720870D01*
X67499999Y-61720870D02*
X67499999Y-60220870D01*
X66785713Y-61720870D02*
X66785713Y-60220870D01*
X65214284Y-61578013D02*
X65285712Y-61649442D01*
X65285712Y-61649442D02*
X65499998Y-61720870D01*
X65499998Y-61720870D02*
X65642855Y-61720870D01*
X65642855Y-61720870D02*
X65857141Y-61649442D01*
X65857141Y-61649442D02*
X65999998Y-61506584D01*
X65999998Y-61506584D02*
X66071427Y-61363727D01*
X66071427Y-61363727D02*
X66142855Y-61078013D01*
X66142855Y-61078013D02*
X66142855Y-60863727D01*
X66142855Y-60863727D02*
X66071427Y-60578013D01*
X66071427Y-60578013D02*
X65999998Y-60435156D01*
X65999998Y-60435156D02*
X65857141Y-60292299D01*
X65857141Y-60292299D02*
X65642855Y-60220870D01*
X65642855Y-60220870D02*
X65499998Y-60220870D01*
X65499998Y-60220870D02*
X65285712Y-60292299D01*
X65285712Y-60292299D02*
X65214284Y-60363727D01*
X64571427Y-61720870D02*
X64571427Y-60220870D01*
X63714284Y-61720870D02*
X64357141Y-60863727D01*
X63714284Y-60220870D02*
X64571427Y-61078013D01*
X63071427Y-61720870D02*
X63071427Y-60220870D01*
X77714286Y-64135786D02*
X77714286Y-62635786D01*
X76857143Y-64135786D02*
X77500000Y-63278643D01*
X76857143Y-62635786D02*
X77714286Y-63492929D01*
X76214286Y-64135786D02*
X76214286Y-62635786D01*
X76214286Y-62635786D02*
X75357143Y-64135786D01*
X75357143Y-64135786D02*
X75357143Y-62635786D01*
X73785714Y-64135786D02*
X74285714Y-63421500D01*
X74642857Y-64135786D02*
X74642857Y-62635786D01*
X74642857Y-62635786D02*
X74071428Y-62635786D01*
X74071428Y-62635786D02*
X73928571Y-62707215D01*
X73928571Y-62707215D02*
X73857142Y-62778643D01*
X73857142Y-62778643D02*
X73785714Y-62921500D01*
X73785714Y-62921500D02*
X73785714Y-63135786D01*
X73785714Y-63135786D02*
X73857142Y-63278643D01*
X73857142Y-63278643D02*
X73928571Y-63350072D01*
X73928571Y-63350072D02*
X74071428Y-63421500D01*
X74071428Y-63421500D02*
X74642857Y-63421500D01*
X72000000Y-64135786D02*
X72000000Y-62635786D01*
X71142857Y-64135786D02*
X71785714Y-63278643D01*
X71142857Y-62635786D02*
X72000000Y-63492929D01*
X70214285Y-62635786D02*
X69928571Y-62635786D01*
X69928571Y-62635786D02*
X69785714Y-62707215D01*
X69785714Y-62707215D02*
X69642857Y-62850072D01*
X69642857Y-62850072D02*
X69571428Y-63135786D01*
X69571428Y-63135786D02*
X69571428Y-63635786D01*
X69571428Y-63635786D02*
X69642857Y-63921500D01*
X69642857Y-63921500D02*
X69785714Y-64064358D01*
X69785714Y-64064358D02*
X69928571Y-64135786D01*
X69928571Y-64135786D02*
X70214285Y-64135786D01*
X70214285Y-64135786D02*
X70357143Y-64064358D01*
X70357143Y-64064358D02*
X70500000Y-63921500D01*
X70500000Y-63921500D02*
X70571428Y-63635786D01*
X70571428Y-63635786D02*
X70571428Y-63135786D01*
X70571428Y-63135786D02*
X70500000Y-62850072D01*
X70500000Y-62850072D02*
X70357143Y-62707215D01*
X70357143Y-62707215D02*
X70214285Y-62635786D01*
X68928571Y-64135786D02*
X68928571Y-62635786D01*
X68928571Y-62635786D02*
X68071428Y-64135786D01*
X68071428Y-64135786D02*
X68071428Y-62635786D01*
X67428570Y-63707215D02*
X66714285Y-63707215D01*
X67571427Y-64135786D02*
X67071427Y-62635786D01*
X67071427Y-62635786D02*
X66571427Y-64135786D01*
X65214285Y-64135786D02*
X65714285Y-63421500D01*
X66071428Y-64135786D02*
X66071428Y-62635786D01*
X66071428Y-62635786D02*
X65499999Y-62635786D01*
X65499999Y-62635786D02*
X65357142Y-62707215D01*
X65357142Y-62707215D02*
X65285713Y-62778643D01*
X65285713Y-62778643D02*
X65214285Y-62921500D01*
X65214285Y-62921500D02*
X65214285Y-63135786D01*
X65214285Y-63135786D02*
X65285713Y-63278643D01*
X65285713Y-63278643D02*
X65357142Y-63350072D01*
X65357142Y-63350072D02*
X65499999Y-63421500D01*
X65499999Y-63421500D02*
X66071428Y-63421500D01*
X78892855Y-66122131D02*
X78178570Y-66122131D01*
X79035712Y-66550702D02*
X78535712Y-65050702D01*
X78535712Y-65050702D02*
X78035712Y-66550702D01*
X77535713Y-65050702D02*
X77535713Y-66264988D01*
X77535713Y-66264988D02*
X77464284Y-66407845D01*
X77464284Y-66407845D02*
X77392856Y-66479274D01*
X77392856Y-66479274D02*
X77249998Y-66550702D01*
X77249998Y-66550702D02*
X76964284Y-66550702D01*
X76964284Y-66550702D02*
X76821427Y-66479274D01*
X76821427Y-66479274D02*
X76749998Y-66407845D01*
X76749998Y-66407845D02*
X76678570Y-66264988D01*
X76678570Y-66264988D02*
X76678570Y-65050702D01*
X75178569Y-65122131D02*
X75321427Y-65050702D01*
X75321427Y-65050702D02*
X75535712Y-65050702D01*
X75535712Y-65050702D02*
X75749998Y-65122131D01*
X75749998Y-65122131D02*
X75892855Y-65264988D01*
X75892855Y-65264988D02*
X75964284Y-65407845D01*
X75964284Y-65407845D02*
X76035712Y-65693559D01*
X76035712Y-65693559D02*
X76035712Y-65907845D01*
X76035712Y-65907845D02*
X75964284Y-66193559D01*
X75964284Y-66193559D02*
X75892855Y-66336416D01*
X75892855Y-66336416D02*
X75749998Y-66479274D01*
X75749998Y-66479274D02*
X75535712Y-66550702D01*
X75535712Y-66550702D02*
X75392855Y-66550702D01*
X75392855Y-66550702D02*
X75178569Y-66479274D01*
X75178569Y-66479274D02*
X75107141Y-66407845D01*
X75107141Y-66407845D02*
X75107141Y-65907845D01*
X75107141Y-65907845D02*
X75392855Y-65907845D01*
X74464284Y-65050702D02*
X74464284Y-66264988D01*
X74464284Y-66264988D02*
X74392855Y-66407845D01*
X74392855Y-66407845D02*
X74321427Y-66479274D01*
X74321427Y-66479274D02*
X74178569Y-66550702D01*
X74178569Y-66550702D02*
X73892855Y-66550702D01*
X73892855Y-66550702D02*
X73749998Y-66479274D01*
X73749998Y-66479274D02*
X73678569Y-66407845D01*
X73678569Y-66407845D02*
X73607141Y-66264988D01*
X73607141Y-66264988D02*
X73607141Y-65050702D01*
X72964283Y-66479274D02*
X72749998Y-66550702D01*
X72749998Y-66550702D02*
X72392855Y-66550702D01*
X72392855Y-66550702D02*
X72249998Y-66479274D01*
X72249998Y-66479274D02*
X72178569Y-66407845D01*
X72178569Y-66407845D02*
X72107140Y-66264988D01*
X72107140Y-66264988D02*
X72107140Y-66122131D01*
X72107140Y-66122131D02*
X72178569Y-65979274D01*
X72178569Y-65979274D02*
X72249998Y-65907845D01*
X72249998Y-65907845D02*
X72392855Y-65836416D01*
X72392855Y-65836416D02*
X72678569Y-65764988D01*
X72678569Y-65764988D02*
X72821426Y-65693559D01*
X72821426Y-65693559D02*
X72892855Y-65622131D01*
X72892855Y-65622131D02*
X72964283Y-65479274D01*
X72964283Y-65479274D02*
X72964283Y-65336416D01*
X72964283Y-65336416D02*
X72892855Y-65193559D01*
X72892855Y-65193559D02*
X72821426Y-65122131D01*
X72821426Y-65122131D02*
X72678569Y-65050702D01*
X72678569Y-65050702D02*
X72321426Y-65050702D01*
X72321426Y-65050702D02*
X72107140Y-65122131D01*
X71678569Y-65050702D02*
X70821427Y-65050702D01*
X71249998Y-66550702D02*
X71249998Y-65050702D01*
X69249998Y-65193559D02*
X69178570Y-65122131D01*
X69178570Y-65122131D02*
X69035713Y-65050702D01*
X69035713Y-65050702D02*
X68678570Y-65050702D01*
X68678570Y-65050702D02*
X68535713Y-65122131D01*
X68535713Y-65122131D02*
X68464284Y-65193559D01*
X68464284Y-65193559D02*
X68392855Y-65336416D01*
X68392855Y-65336416D02*
X68392855Y-65479274D01*
X68392855Y-65479274D02*
X68464284Y-65693559D01*
X68464284Y-65693559D02*
X69321427Y-66550702D01*
X69321427Y-66550702D02*
X68392855Y-66550702D01*
X67464284Y-65050702D02*
X67321427Y-65050702D01*
X67321427Y-65050702D02*
X67178570Y-65122131D01*
X67178570Y-65122131D02*
X67107142Y-65193559D01*
X67107142Y-65193559D02*
X67035713Y-65336416D01*
X67035713Y-65336416D02*
X66964284Y-65622131D01*
X66964284Y-65622131D02*
X66964284Y-65979274D01*
X66964284Y-65979274D02*
X67035713Y-66264988D01*
X67035713Y-66264988D02*
X67107142Y-66407845D01*
X67107142Y-66407845D02*
X67178570Y-66479274D01*
X67178570Y-66479274D02*
X67321427Y-66550702D01*
X67321427Y-66550702D02*
X67464284Y-66550702D01*
X67464284Y-66550702D02*
X67607142Y-66479274D01*
X67607142Y-66479274D02*
X67678570Y-66407845D01*
X67678570Y-66407845D02*
X67749999Y-66264988D01*
X67749999Y-66264988D02*
X67821427Y-65979274D01*
X67821427Y-65979274D02*
X67821427Y-65622131D01*
X67821427Y-65622131D02*
X67749999Y-65336416D01*
X67749999Y-65336416D02*
X67678570Y-65193559D01*
X67678570Y-65193559D02*
X67607142Y-65122131D01*
X67607142Y-65122131D02*
X67464284Y-65050702D01*
X66392856Y-65193559D02*
X66321428Y-65122131D01*
X66321428Y-65122131D02*
X66178571Y-65050702D01*
X66178571Y-65050702D02*
X65821428Y-65050702D01*
X65821428Y-65050702D02*
X65678571Y-65122131D01*
X65678571Y-65122131D02*
X65607142Y-65193559D01*
X65607142Y-65193559D02*
X65535713Y-65336416D01*
X65535713Y-65336416D02*
X65535713Y-65479274D01*
X65535713Y-65479274D02*
X65607142Y-65693559D01*
X65607142Y-65693559D02*
X66464285Y-66550702D01*
X66464285Y-66550702D02*
X65535713Y-66550702D01*
X64250000Y-65550702D02*
X64250000Y-66550702D01*
X64607142Y-64979274D02*
X64964285Y-66050702D01*
X64964285Y-66050702D02*
X64035714Y-66050702D01*
D13*
X89871428Y-104883260D02*
X90000000Y-104840402D01*
X90000000Y-104840402D02*
X90214285Y-104840402D01*
X90214285Y-104840402D02*
X90300000Y-104883260D01*
X90300000Y-104883260D02*
X90342857Y-104926117D01*
X90342857Y-104926117D02*
X90385714Y-105011831D01*
X90385714Y-105011831D02*
X90385714Y-105097545D01*
X90385714Y-105097545D02*
X90342857Y-105183260D01*
X90342857Y-105183260D02*
X90300000Y-105226117D01*
X90300000Y-105226117D02*
X90214285Y-105268974D01*
X90214285Y-105268974D02*
X90042857Y-105311831D01*
X90042857Y-105311831D02*
X89957142Y-105354688D01*
X89957142Y-105354688D02*
X89914285Y-105397545D01*
X89914285Y-105397545D02*
X89871428Y-105483260D01*
X89871428Y-105483260D02*
X89871428Y-105568974D01*
X89871428Y-105568974D02*
X89914285Y-105654688D01*
X89914285Y-105654688D02*
X89957142Y-105697545D01*
X89957142Y-105697545D02*
X90042857Y-105740402D01*
X90042857Y-105740402D02*
X90257142Y-105740402D01*
X90257142Y-105740402D02*
X90385714Y-105697545D01*
X91842857Y-105740402D02*
X91671428Y-105740402D01*
X91671428Y-105740402D02*
X91585714Y-105697545D01*
X91585714Y-105697545D02*
X91542857Y-105654688D01*
X91542857Y-105654688D02*
X91457142Y-105526117D01*
X91457142Y-105526117D02*
X91414285Y-105354688D01*
X91414285Y-105354688D02*
X91414285Y-105011831D01*
X91414285Y-105011831D02*
X91457142Y-104926117D01*
X91457142Y-104926117D02*
X91499999Y-104883260D01*
X91499999Y-104883260D02*
X91585714Y-104840402D01*
X91585714Y-104840402D02*
X91757142Y-104840402D01*
X91757142Y-104840402D02*
X91842857Y-104883260D01*
X91842857Y-104883260D02*
X91885714Y-104926117D01*
X91885714Y-104926117D02*
X91928571Y-105011831D01*
X91928571Y-105011831D02*
X91928571Y-105226117D01*
X91928571Y-105226117D02*
X91885714Y-105311831D01*
X91885714Y-105311831D02*
X91842857Y-105354688D01*
X91842857Y-105354688D02*
X91757142Y-105397545D01*
X91757142Y-105397545D02*
X91585714Y-105397545D01*
X91585714Y-105397545D02*
X91499999Y-105354688D01*
X91499999Y-105354688D02*
X91457142Y-105311831D01*
X91457142Y-105311831D02*
X91414285Y-105226117D01*
X92185714Y-105740402D02*
X92485714Y-104840402D01*
X92485714Y-104840402D02*
X92785714Y-105740402D01*
X94242857Y-105697545D02*
X94157143Y-105740402D01*
X94157143Y-105740402D02*
X94028571Y-105740402D01*
X94028571Y-105740402D02*
X93900000Y-105697545D01*
X93900000Y-105697545D02*
X93814285Y-105611831D01*
X93814285Y-105611831D02*
X93771428Y-105526117D01*
X93771428Y-105526117D02*
X93728571Y-105354688D01*
X93728571Y-105354688D02*
X93728571Y-105226117D01*
X93728571Y-105226117D02*
X93771428Y-105054688D01*
X93771428Y-105054688D02*
X93814285Y-104968974D01*
X93814285Y-104968974D02*
X93900000Y-104883260D01*
X93900000Y-104883260D02*
X94028571Y-104840402D01*
X94028571Y-104840402D02*
X94114285Y-104840402D01*
X94114285Y-104840402D02*
X94242857Y-104883260D01*
X94242857Y-104883260D02*
X94285714Y-104926117D01*
X94285714Y-104926117D02*
X94285714Y-105226117D01*
X94285714Y-105226117D02*
X94114285Y-105226117D01*
X94671428Y-104840402D02*
X94671428Y-105740402D01*
X94671428Y-105740402D02*
X95185714Y-104840402D01*
X95185714Y-104840402D02*
X95185714Y-105740402D01*
X95614285Y-104840402D02*
X95614285Y-105740402D01*
X95614285Y-105740402D02*
X95828571Y-105740402D01*
X95828571Y-105740402D02*
X95957142Y-105697545D01*
X95957142Y-105697545D02*
X96042857Y-105611831D01*
X96042857Y-105611831D02*
X96085714Y-105526117D01*
X96085714Y-105526117D02*
X96128571Y-105354688D01*
X96128571Y-105354688D02*
X96128571Y-105226117D01*
X96128571Y-105226117D02*
X96085714Y-105054688D01*
X96085714Y-105054688D02*
X96042857Y-104968974D01*
X96042857Y-104968974D02*
X95957142Y-104883260D01*
X95957142Y-104883260D02*
X95828571Y-104840402D01*
X95828571Y-104840402D02*
X95614285Y-104840402D01*
X38135714Y-126947545D02*
X38050000Y-126990402D01*
X38050000Y-126990402D02*
X37921428Y-126990402D01*
X37921428Y-126990402D02*
X37792857Y-126947545D01*
X37792857Y-126947545D02*
X37707142Y-126861831D01*
X37707142Y-126861831D02*
X37664285Y-126776117D01*
X37664285Y-126776117D02*
X37621428Y-126604688D01*
X37621428Y-126604688D02*
X37621428Y-126476117D01*
X37621428Y-126476117D02*
X37664285Y-126304688D01*
X37664285Y-126304688D02*
X37707142Y-126218974D01*
X37707142Y-126218974D02*
X37792857Y-126133260D01*
X37792857Y-126133260D02*
X37921428Y-126090402D01*
X37921428Y-126090402D02*
X38007142Y-126090402D01*
X38007142Y-126090402D02*
X38135714Y-126133260D01*
X38135714Y-126133260D02*
X38178571Y-126176117D01*
X38178571Y-126176117D02*
X38178571Y-126476117D01*
X38178571Y-126476117D02*
X38007142Y-126476117D01*
X38564285Y-126090402D02*
X38564285Y-126990402D01*
X38564285Y-126990402D02*
X39078571Y-126090402D01*
X39078571Y-126090402D02*
X39078571Y-126990402D01*
X39507142Y-126090402D02*
X39507142Y-126990402D01*
X39507142Y-126990402D02*
X39721428Y-126990402D01*
X39721428Y-126990402D02*
X39849999Y-126947545D01*
X39849999Y-126947545D02*
X39935714Y-126861831D01*
X39935714Y-126861831D02*
X39978571Y-126776117D01*
X39978571Y-126776117D02*
X40021428Y-126604688D01*
X40021428Y-126604688D02*
X40021428Y-126476117D01*
X40021428Y-126476117D02*
X39978571Y-126304688D01*
X39978571Y-126304688D02*
X39935714Y-126218974D01*
X39935714Y-126218974D02*
X39849999Y-126133260D01*
X39849999Y-126133260D02*
X39721428Y-126090402D01*
X39721428Y-126090402D02*
X39507142Y-126090402D01*
X41478571Y-126990402D02*
X41307142Y-126990402D01*
X41307142Y-126990402D02*
X41221428Y-126947545D01*
X41221428Y-126947545D02*
X41178571Y-126904688D01*
X41178571Y-126904688D02*
X41092856Y-126776117D01*
X41092856Y-126776117D02*
X41049999Y-126604688D01*
X41049999Y-126604688D02*
X41049999Y-126261831D01*
X41049999Y-126261831D02*
X41092856Y-126176117D01*
X41092856Y-126176117D02*
X41135713Y-126133260D01*
X41135713Y-126133260D02*
X41221428Y-126090402D01*
X41221428Y-126090402D02*
X41392856Y-126090402D01*
X41392856Y-126090402D02*
X41478571Y-126133260D01*
X41478571Y-126133260D02*
X41521428Y-126176117D01*
X41521428Y-126176117D02*
X41564285Y-126261831D01*
X41564285Y-126261831D02*
X41564285Y-126476117D01*
X41564285Y-126476117D02*
X41521428Y-126561831D01*
X41521428Y-126561831D02*
X41478571Y-126604688D01*
X41478571Y-126604688D02*
X41392856Y-126647545D01*
X41392856Y-126647545D02*
X41221428Y-126647545D01*
X41221428Y-126647545D02*
X41135713Y-126604688D01*
X41135713Y-126604688D02*
X41092856Y-126561831D01*
X41092856Y-126561831D02*
X41049999Y-126476117D01*
X41821428Y-126990402D02*
X42121428Y-126090402D01*
X42121428Y-126090402D02*
X42421428Y-126990402D01*
X43364285Y-126133260D02*
X43492857Y-126090402D01*
X43492857Y-126090402D02*
X43707142Y-126090402D01*
X43707142Y-126090402D02*
X43792857Y-126133260D01*
X43792857Y-126133260D02*
X43835714Y-126176117D01*
X43835714Y-126176117D02*
X43878571Y-126261831D01*
X43878571Y-126261831D02*
X43878571Y-126347545D01*
X43878571Y-126347545D02*
X43835714Y-126433260D01*
X43835714Y-126433260D02*
X43792857Y-126476117D01*
X43792857Y-126476117D02*
X43707142Y-126518974D01*
X43707142Y-126518974D02*
X43535714Y-126561831D01*
X43535714Y-126561831D02*
X43449999Y-126604688D01*
X43449999Y-126604688D02*
X43407142Y-126647545D01*
X43407142Y-126647545D02*
X43364285Y-126733260D01*
X43364285Y-126733260D02*
X43364285Y-126818974D01*
X43364285Y-126818974D02*
X43407142Y-126904688D01*
X43407142Y-126904688D02*
X43449999Y-126947545D01*
X43449999Y-126947545D02*
X43535714Y-126990402D01*
X43535714Y-126990402D02*
X43749999Y-126990402D01*
X43749999Y-126990402D02*
X43878571Y-126947545D01*
X89871428Y-126383260D02*
X90000000Y-126340402D01*
X90000000Y-126340402D02*
X90214285Y-126340402D01*
X90214285Y-126340402D02*
X90300000Y-126383260D01*
X90300000Y-126383260D02*
X90342857Y-126426117D01*
X90342857Y-126426117D02*
X90385714Y-126511831D01*
X90385714Y-126511831D02*
X90385714Y-126597545D01*
X90385714Y-126597545D02*
X90342857Y-126683260D01*
X90342857Y-126683260D02*
X90300000Y-126726117D01*
X90300000Y-126726117D02*
X90214285Y-126768974D01*
X90214285Y-126768974D02*
X90042857Y-126811831D01*
X90042857Y-126811831D02*
X89957142Y-126854688D01*
X89957142Y-126854688D02*
X89914285Y-126897545D01*
X89914285Y-126897545D02*
X89871428Y-126983260D01*
X89871428Y-126983260D02*
X89871428Y-127068974D01*
X89871428Y-127068974D02*
X89914285Y-127154688D01*
X89914285Y-127154688D02*
X89957142Y-127197545D01*
X89957142Y-127197545D02*
X90042857Y-127240402D01*
X90042857Y-127240402D02*
X90257142Y-127240402D01*
X90257142Y-127240402D02*
X90385714Y-127197545D01*
X91842857Y-127240402D02*
X91671428Y-127240402D01*
X91671428Y-127240402D02*
X91585714Y-127197545D01*
X91585714Y-127197545D02*
X91542857Y-127154688D01*
X91542857Y-127154688D02*
X91457142Y-127026117D01*
X91457142Y-127026117D02*
X91414285Y-126854688D01*
X91414285Y-126854688D02*
X91414285Y-126511831D01*
X91414285Y-126511831D02*
X91457142Y-126426117D01*
X91457142Y-126426117D02*
X91499999Y-126383260D01*
X91499999Y-126383260D02*
X91585714Y-126340402D01*
X91585714Y-126340402D02*
X91757142Y-126340402D01*
X91757142Y-126340402D02*
X91842857Y-126383260D01*
X91842857Y-126383260D02*
X91885714Y-126426117D01*
X91885714Y-126426117D02*
X91928571Y-126511831D01*
X91928571Y-126511831D02*
X91928571Y-126726117D01*
X91928571Y-126726117D02*
X91885714Y-126811831D01*
X91885714Y-126811831D02*
X91842857Y-126854688D01*
X91842857Y-126854688D02*
X91757142Y-126897545D01*
X91757142Y-126897545D02*
X91585714Y-126897545D01*
X91585714Y-126897545D02*
X91499999Y-126854688D01*
X91499999Y-126854688D02*
X91457142Y-126811831D01*
X91457142Y-126811831D02*
X91414285Y-126726117D01*
X92185714Y-127240402D02*
X92485714Y-126340402D01*
X92485714Y-126340402D02*
X92785714Y-127240402D01*
X94242857Y-127197545D02*
X94157143Y-127240402D01*
X94157143Y-127240402D02*
X94028571Y-127240402D01*
X94028571Y-127240402D02*
X93900000Y-127197545D01*
X93900000Y-127197545D02*
X93814285Y-127111831D01*
X93814285Y-127111831D02*
X93771428Y-127026117D01*
X93771428Y-127026117D02*
X93728571Y-126854688D01*
X93728571Y-126854688D02*
X93728571Y-126726117D01*
X93728571Y-126726117D02*
X93771428Y-126554688D01*
X93771428Y-126554688D02*
X93814285Y-126468974D01*
X93814285Y-126468974D02*
X93900000Y-126383260D01*
X93900000Y-126383260D02*
X94028571Y-126340402D01*
X94028571Y-126340402D02*
X94114285Y-126340402D01*
X94114285Y-126340402D02*
X94242857Y-126383260D01*
X94242857Y-126383260D02*
X94285714Y-126426117D01*
X94285714Y-126426117D02*
X94285714Y-126726117D01*
X94285714Y-126726117D02*
X94114285Y-126726117D01*
X94671428Y-126340402D02*
X94671428Y-127240402D01*
X94671428Y-127240402D02*
X95185714Y-126340402D01*
X95185714Y-126340402D02*
X95185714Y-127240402D01*
X95614285Y-126340402D02*
X95614285Y-127240402D01*
X95614285Y-127240402D02*
X95828571Y-127240402D01*
X95828571Y-127240402D02*
X95957142Y-127197545D01*
X95957142Y-127197545D02*
X96042857Y-127111831D01*
X96042857Y-127111831D02*
X96085714Y-127026117D01*
X96085714Y-127026117D02*
X96128571Y-126854688D01*
X96128571Y-126854688D02*
X96128571Y-126726117D01*
X96128571Y-126726117D02*
X96085714Y-126554688D01*
X96085714Y-126554688D02*
X96042857Y-126468974D01*
X96042857Y-126468974D02*
X95957142Y-126383260D01*
X95957142Y-126383260D02*
X95828571Y-126340402D01*
X95828571Y-126340402D02*
X95614285Y-126340402D01*
X89621428Y-152633260D02*
X89750000Y-152590402D01*
X89750000Y-152590402D02*
X89964285Y-152590402D01*
X89964285Y-152590402D02*
X90050000Y-152633260D01*
X90050000Y-152633260D02*
X90092857Y-152676117D01*
X90092857Y-152676117D02*
X90135714Y-152761831D01*
X90135714Y-152761831D02*
X90135714Y-152847545D01*
X90135714Y-152847545D02*
X90092857Y-152933260D01*
X90092857Y-152933260D02*
X90050000Y-152976117D01*
X90050000Y-152976117D02*
X89964285Y-153018974D01*
X89964285Y-153018974D02*
X89792857Y-153061831D01*
X89792857Y-153061831D02*
X89707142Y-153104688D01*
X89707142Y-153104688D02*
X89664285Y-153147545D01*
X89664285Y-153147545D02*
X89621428Y-153233260D01*
X89621428Y-153233260D02*
X89621428Y-153318974D01*
X89621428Y-153318974D02*
X89664285Y-153404688D01*
X89664285Y-153404688D02*
X89707142Y-153447545D01*
X89707142Y-153447545D02*
X89792857Y-153490402D01*
X89792857Y-153490402D02*
X90007142Y-153490402D01*
X90007142Y-153490402D02*
X90135714Y-153447545D01*
X91592857Y-153490402D02*
X91421428Y-153490402D01*
X91421428Y-153490402D02*
X91335714Y-153447545D01*
X91335714Y-153447545D02*
X91292857Y-153404688D01*
X91292857Y-153404688D02*
X91207142Y-153276117D01*
X91207142Y-153276117D02*
X91164285Y-153104688D01*
X91164285Y-153104688D02*
X91164285Y-152761831D01*
X91164285Y-152761831D02*
X91207142Y-152676117D01*
X91207142Y-152676117D02*
X91249999Y-152633260D01*
X91249999Y-152633260D02*
X91335714Y-152590402D01*
X91335714Y-152590402D02*
X91507142Y-152590402D01*
X91507142Y-152590402D02*
X91592857Y-152633260D01*
X91592857Y-152633260D02*
X91635714Y-152676117D01*
X91635714Y-152676117D02*
X91678571Y-152761831D01*
X91678571Y-152761831D02*
X91678571Y-152976117D01*
X91678571Y-152976117D02*
X91635714Y-153061831D01*
X91635714Y-153061831D02*
X91592857Y-153104688D01*
X91592857Y-153104688D02*
X91507142Y-153147545D01*
X91507142Y-153147545D02*
X91335714Y-153147545D01*
X91335714Y-153147545D02*
X91249999Y-153104688D01*
X91249999Y-153104688D02*
X91207142Y-153061831D01*
X91207142Y-153061831D02*
X91164285Y-152976117D01*
X91935714Y-153490402D02*
X92235714Y-152590402D01*
X92235714Y-152590402D02*
X92535714Y-153490402D01*
X93992857Y-153447545D02*
X93907143Y-153490402D01*
X93907143Y-153490402D02*
X93778571Y-153490402D01*
X93778571Y-153490402D02*
X93650000Y-153447545D01*
X93650000Y-153447545D02*
X93564285Y-153361831D01*
X93564285Y-153361831D02*
X93521428Y-153276117D01*
X93521428Y-153276117D02*
X93478571Y-153104688D01*
X93478571Y-153104688D02*
X93478571Y-152976117D01*
X93478571Y-152976117D02*
X93521428Y-152804688D01*
X93521428Y-152804688D02*
X93564285Y-152718974D01*
X93564285Y-152718974D02*
X93650000Y-152633260D01*
X93650000Y-152633260D02*
X93778571Y-152590402D01*
X93778571Y-152590402D02*
X93864285Y-152590402D01*
X93864285Y-152590402D02*
X93992857Y-152633260D01*
X93992857Y-152633260D02*
X94035714Y-152676117D01*
X94035714Y-152676117D02*
X94035714Y-152976117D01*
X94035714Y-152976117D02*
X93864285Y-152976117D01*
X94421428Y-152590402D02*
X94421428Y-153490402D01*
X94421428Y-153490402D02*
X94935714Y-152590402D01*
X94935714Y-152590402D02*
X94935714Y-153490402D01*
X95364285Y-152590402D02*
X95364285Y-153490402D01*
X95364285Y-153490402D02*
X95578571Y-153490402D01*
X95578571Y-153490402D02*
X95707142Y-153447545D01*
X95707142Y-153447545D02*
X95792857Y-153361831D01*
X95792857Y-153361831D02*
X95835714Y-153276117D01*
X95835714Y-153276117D02*
X95878571Y-153104688D01*
X95878571Y-153104688D02*
X95878571Y-152976117D01*
X95878571Y-152976117D02*
X95835714Y-152804688D01*
X95835714Y-152804688D02*
X95792857Y-152718974D01*
X95792857Y-152718974D02*
X95707142Y-152633260D01*
X95707142Y-152633260D02*
X95578571Y-152590402D01*
X95578571Y-152590402D02*
X95364285Y-152590402D01*
D14*
%TO.C,G\u002A\u002A\u002A*%
G36*
X64677691Y-130571980D02*
G01*
X64846187Y-130689908D01*
X64915930Y-130774241D01*
X64979371Y-130931438D01*
X64965619Y-131086676D01*
X64876923Y-131228654D01*
X64715534Y-131346073D01*
X64613453Y-131386989D01*
X64435306Y-131409193D01*
X64267723Y-131377193D01*
X64122614Y-131300941D01*
X64011886Y-131190388D01*
X63947448Y-131055484D01*
X63941210Y-130906180D01*
X64005079Y-130752427D01*
X64129241Y-130622554D01*
X64300660Y-130539683D01*
X64489663Y-130522365D01*
X64677691Y-130571980D01*
G37*
G36*
X63746676Y-149452266D02*
G01*
X63848542Y-149493274D01*
X63985582Y-149595392D01*
X64082696Y-149725627D01*
X64119579Y-149861688D01*
X64117404Y-149893658D01*
X64065061Y-150034179D01*
X63957627Y-150164084D01*
X63814813Y-150257760D01*
X63694033Y-150297197D01*
X63487826Y-150303454D01*
X63298399Y-150231921D01*
X63136801Y-150085408D01*
X63136128Y-150084551D01*
X63062135Y-149933204D01*
X63069099Y-149776492D01*
X63156722Y-149621405D01*
X63177174Y-149598581D01*
X63339601Y-149483814D01*
X63536608Y-149432985D01*
X63746676Y-149452266D01*
G37*
G36*
X69761919Y-130397402D02*
G01*
X69843828Y-130438502D01*
X69987795Y-130565764D01*
X70061065Y-130734574D01*
X70057688Y-130846142D01*
X69996375Y-130987708D01*
X69887836Y-131111192D01*
X69748900Y-131191935D01*
X69729191Y-131198622D01*
X69581261Y-131236505D01*
X69459806Y-131233379D01*
X69324351Y-131188961D01*
X69271724Y-131163036D01*
X69140175Y-131060796D01*
X69046324Y-130933682D01*
X69010518Y-130806494D01*
X69020603Y-130713774D01*
X69091436Y-130557534D01*
X69216729Y-130439204D01*
X69380737Y-130367358D01*
X69567715Y-130350566D01*
X69761919Y-130397402D01*
G37*
G36*
X70339444Y-149263368D02*
G01*
X70512739Y-149322689D01*
X70664415Y-149441288D01*
X70739976Y-149572762D01*
X70753912Y-149728039D01*
X70705575Y-149880237D01*
X70601346Y-150010028D01*
X70447606Y-150098084D01*
X70427897Y-150104771D01*
X70279967Y-150142654D01*
X70158512Y-150139528D01*
X70023056Y-150095110D01*
X69970429Y-150069185D01*
X69838881Y-149966945D01*
X69745029Y-149839831D01*
X69709223Y-149712642D01*
X69709501Y-149696608D01*
X69750543Y-149527820D01*
X69850081Y-149395550D01*
X69992092Y-149304351D01*
X70160554Y-149258773D01*
X70339444Y-149263368D01*
G37*
G36*
X62165339Y-139654882D02*
G01*
X62334236Y-139729524D01*
X62462524Y-139847853D01*
X62529777Y-139993518D01*
X62532702Y-140012337D01*
X62515210Y-140162725D01*
X62439576Y-140309500D01*
X62321207Y-140421081D01*
X62305720Y-140429895D01*
X62166872Y-140474843D01*
X61988528Y-140492110D01*
X61926454Y-140491659D01*
X61809748Y-140478737D01*
X61722974Y-140437456D01*
X61628900Y-140353462D01*
X61542277Y-140241588D01*
X61490900Y-140086930D01*
X61506831Y-139938095D01*
X61582332Y-139807068D01*
X61709671Y-139705833D01*
X61881111Y-139646376D01*
X62088918Y-139640682D01*
X62165339Y-139654882D01*
G37*
G36*
X72200514Y-139468607D02*
G01*
X72351695Y-139491625D01*
X72468224Y-139530076D01*
X72544233Y-139586327D01*
X72634642Y-139707299D01*
X72687091Y-139846401D01*
X72686085Y-139972191D01*
X72622329Y-140092828D01*
X72516053Y-140211912D01*
X72401295Y-140289591D01*
X72380469Y-140297351D01*
X72218954Y-140323967D01*
X72039289Y-140313309D01*
X71887994Y-140267386D01*
X71799998Y-140211746D01*
X71683271Y-140078738D01*
X71639656Y-139924180D01*
X71671382Y-139761828D01*
X71780680Y-139605437D01*
X71807096Y-139579514D01*
X71899169Y-139505882D01*
X71994420Y-139473142D01*
X72132073Y-139465695D01*
X72200514Y-139468607D01*
G37*
G36*
X67112540Y-135858919D02*
G01*
X67180012Y-135901320D01*
X67279311Y-135981034D01*
X67415396Y-136102517D01*
X67593224Y-136270225D01*
X67817754Y-136488614D01*
X68093945Y-136762140D01*
X68241416Y-136909281D01*
X68470009Y-137138798D01*
X68648921Y-137321327D01*
X68784069Y-137463619D01*
X68881373Y-137572427D01*
X68946752Y-137654503D01*
X68986123Y-137716600D01*
X69005406Y-137765471D01*
X69010518Y-137807868D01*
X68975240Y-137938013D01*
X68879947Y-138032392D01*
X68744963Y-138068284D01*
X68696649Y-138045804D01*
X68592901Y-137966410D01*
X68441743Y-137833360D01*
X68247452Y-137650440D01*
X68014302Y-137421436D01*
X67366505Y-136774588D01*
X67366505Y-141072515D01*
X67366309Y-141586656D01*
X67365622Y-142154194D01*
X67364475Y-142693799D01*
X67362902Y-143200044D01*
X67360937Y-143667503D01*
X67358615Y-144090748D01*
X67355970Y-144464353D01*
X67353036Y-144782892D01*
X67349849Y-145040937D01*
X67346441Y-145233061D01*
X67342848Y-145353839D01*
X67339105Y-145397842D01*
X67304127Y-145409577D01*
X67205776Y-145420875D01*
X67071953Y-145425242D01*
X66832201Y-145425242D01*
X66832201Y-141101106D01*
X66832201Y-136776969D01*
X66181970Y-137422627D01*
X66172096Y-137432429D01*
X65941985Y-137658645D01*
X65760198Y-137830390D01*
X65618609Y-137952471D01*
X65509095Y-138029692D01*
X65423530Y-138066859D01*
X65353790Y-138068776D01*
X65291751Y-138040249D01*
X65229288Y-137986084D01*
X65189461Y-137943412D01*
X65154932Y-137891075D01*
X65142655Y-137834662D01*
X65157186Y-137767491D01*
X65203084Y-137682881D01*
X65284906Y-137574149D01*
X65407210Y-137434613D01*
X65574553Y-137257592D01*
X65791492Y-137036403D01*
X66062586Y-136764365D01*
X66295094Y-136532993D01*
X66527487Y-136305256D01*
X66712463Y-136128989D01*
X66854999Y-135999704D01*
X66960071Y-135912914D01*
X67032655Y-135864131D01*
X67077728Y-135848867D01*
X67112540Y-135858919D01*
G37*
G36*
X71095860Y-130752427D02*
G01*
X71084167Y-130917493D01*
X71013106Y-131241694D01*
X70874638Y-131529362D01*
X70662771Y-131794921D01*
X70635297Y-131822082D01*
X70498244Y-131935597D01*
X70335381Y-132046107D01*
X70168644Y-132140851D01*
X70019972Y-132207070D01*
X69911300Y-132232006D01*
X69878188Y-132233740D01*
X69835075Y-132253349D01*
X69826924Y-132305911D01*
X69853943Y-132405143D01*
X69916340Y-132564759D01*
X70095918Y-133033854D01*
X70311650Y-133694054D01*
X70511609Y-134417393D01*
X70693450Y-135193668D01*
X70854822Y-136012677D01*
X70993380Y-136864216D01*
X71106775Y-137738083D01*
X71106815Y-137738440D01*
X71134421Y-137978039D01*
X71159359Y-138187519D01*
X71180025Y-138353986D01*
X71194821Y-138464544D01*
X71202146Y-138506298D01*
X71203117Y-138506615D01*
X71248346Y-138490795D01*
X71345658Y-138447216D01*
X71475926Y-138384397D01*
X71595758Y-138327611D01*
X71704701Y-138287383D01*
X71816349Y-138264996D01*
X71957188Y-138255322D01*
X72153704Y-138253236D01*
X72340666Y-138255022D01*
X72483940Y-138264120D01*
X72597144Y-138285782D01*
X72707077Y-138325259D01*
X72840537Y-138387803D01*
X73049568Y-138511188D01*
X73321290Y-138749054D01*
X73528466Y-138975737D01*
X73704686Y-138886862D01*
X73762862Y-138857279D01*
X73852436Y-138810520D01*
X73893061Y-138787458D01*
X73889712Y-138772601D01*
X73859494Y-138695745D01*
X73803258Y-138564990D01*
X73726596Y-138393217D01*
X73635102Y-138193309D01*
X73581154Y-138076378D01*
X73494298Y-137886416D01*
X73423677Y-137729780D01*
X73375454Y-137620196D01*
X73355795Y-137571390D01*
X73355821Y-137568811D01*
X73392946Y-137533585D01*
X73478776Y-137480754D01*
X73589459Y-137422276D01*
X73701146Y-137370111D01*
X73789985Y-137336217D01*
X73832127Y-137332553D01*
X73838737Y-137345270D01*
X73874433Y-137419672D01*
X73935075Y-137548540D01*
X74014411Y-137718557D01*
X74106190Y-137916406D01*
X74154284Y-138019560D01*
X74243065Y-138205614D01*
X74318091Y-138357193D01*
X74372624Y-138460839D01*
X74399925Y-138503091D01*
X74405197Y-138503076D01*
X74467885Y-138481068D01*
X74592127Y-138428150D01*
X74768479Y-138348632D01*
X74987500Y-138246826D01*
X75239748Y-138127044D01*
X75515780Y-137993597D01*
X76600392Y-137464793D01*
X76711815Y-136749306D01*
X76743141Y-136550178D01*
X76777441Y-136337090D01*
X76806328Y-136162993D01*
X76827459Y-136041974D01*
X76838489Y-135988121D01*
X76859567Y-135969236D01*
X76941304Y-135962327D01*
X77092063Y-135979796D01*
X77197370Y-135997977D01*
X77301968Y-136020463D01*
X77350258Y-136037043D01*
X77351301Y-136073474D01*
X77341673Y-136179458D01*
X77322168Y-136341404D01*
X77294408Y-136545958D01*
X77260015Y-136779770D01*
X77149898Y-137502623D01*
X77714269Y-138092044D01*
X77719708Y-138097724D01*
X77902090Y-138287726D01*
X78127317Y-138521672D01*
X78381413Y-138785082D01*
X78650402Y-139063482D01*
X78920307Y-139342393D01*
X79177153Y-139607339D01*
X80075665Y-140533211D01*
X79878589Y-140711635D01*
X79681514Y-140890059D01*
X78857499Y-140044301D01*
X78663489Y-139845196D01*
X78409165Y-139584251D01*
X78155415Y-139323954D01*
X77916434Y-139078863D01*
X77706416Y-138863538D01*
X77539558Y-138692538D01*
X77045631Y-138186533D01*
X76963321Y-138699497D01*
X76959851Y-138721006D01*
X76926763Y-138914998D01*
X76896083Y-139076800D01*
X76871098Y-139190049D01*
X76855093Y-139238380D01*
X76851722Y-139240721D01*
X76789980Y-139247951D01*
X76681914Y-139242446D01*
X76557318Y-139227622D01*
X76445988Y-139206892D01*
X76377718Y-139183671D01*
X76368818Y-139167613D01*
X76364611Y-139076263D01*
X76379869Y-138909016D01*
X76414403Y-138668511D01*
X76414926Y-138665235D01*
X76443279Y-138474756D01*
X76463197Y-138315611D01*
X76472864Y-138204362D01*
X76470462Y-138157570D01*
X76469754Y-138157172D01*
X76423564Y-138170892D01*
X76317429Y-138215838D01*
X76163542Y-138285997D01*
X75974093Y-138375355D01*
X75761274Y-138477900D01*
X75537277Y-138587618D01*
X75314292Y-138698495D01*
X75104512Y-138804519D01*
X74920127Y-138899676D01*
X74773330Y-138977952D01*
X74676311Y-139033334D01*
X74641262Y-139059810D01*
X74645664Y-139074305D01*
X74678030Y-139151921D01*
X74736701Y-139283181D01*
X74815541Y-139454477D01*
X74908414Y-139652205D01*
X74955651Y-139752605D01*
X75042494Y-139941552D01*
X75112091Y-140098850D01*
X75158272Y-140210379D01*
X75174865Y-140262015D01*
X75166805Y-140275113D01*
X75105658Y-140319857D01*
X75005358Y-140376890D01*
X74891057Y-140433385D01*
X74787908Y-140476515D01*
X74721061Y-140493451D01*
X74707524Y-140475780D01*
X74663653Y-140395263D01*
X74596475Y-140260890D01*
X74512146Y-140085071D01*
X74416824Y-139880215D01*
X74135539Y-139267227D01*
X73926022Y-139369862D01*
X73716505Y-139472498D01*
X73730145Y-139756611D01*
X73728712Y-139933872D01*
X73728711Y-139934003D01*
X73668661Y-140270561D01*
X73538151Y-140578542D01*
X73343966Y-140849492D01*
X73092888Y-141074955D01*
X72791702Y-141246477D01*
X72447192Y-141355605D01*
X72225696Y-141383830D01*
X71893866Y-141360320D01*
X71551851Y-141257647D01*
X71318913Y-141162739D01*
X71296324Y-141536952D01*
X71292164Y-141610378D01*
X71282031Y-141815354D01*
X71271057Y-142065679D01*
X71260309Y-142336294D01*
X71250858Y-142602139D01*
X71228469Y-143097462D01*
X71160773Y-143992651D01*
X71059505Y-144906867D01*
X70927994Y-145815437D01*
X70769570Y-146693686D01*
X70587563Y-147516941D01*
X70553769Y-147653459D01*
X70512242Y-147816622D01*
X70479853Y-147938538D01*
X70461644Y-147999870D01*
X70467334Y-148039398D01*
X70541861Y-148055663D01*
X70602127Y-148063410D01*
X70748218Y-148112459D01*
X70922400Y-148196147D01*
X71102642Y-148302150D01*
X71266909Y-148418146D01*
X71393168Y-148531810D01*
X71460862Y-148612655D01*
X71579093Y-148782441D01*
X71670515Y-148947488D01*
X71774928Y-149175556D01*
X71980659Y-149151190D01*
X72054737Y-149141731D01*
X72154181Y-149126195D01*
X72198173Y-149115042D01*
X72198745Y-149096690D01*
X72191814Y-149009769D01*
X72176597Y-148864183D01*
X72154590Y-148673919D01*
X72127292Y-148452966D01*
X72109838Y-148311343D01*
X72086756Y-148106670D01*
X72070710Y-147940788D01*
X72063022Y-147827920D01*
X72065012Y-147782291D01*
X72098708Y-147771151D01*
X72189700Y-147752242D01*
X72310006Y-147731334D01*
X72432124Y-147712848D01*
X72528555Y-147701205D01*
X72571796Y-147700825D01*
X72575140Y-147717886D01*
X72587571Y-147802891D01*
X72607125Y-147946860D01*
X72631939Y-148135962D01*
X72660147Y-148356366D01*
X72678352Y-148497403D01*
X72706148Y-148701783D01*
X72730391Y-148867090D01*
X72748966Y-148979148D01*
X72759757Y-149023780D01*
X72765102Y-149024615D01*
X72831938Y-149019833D01*
X72966699Y-149004706D01*
X73159192Y-148980542D01*
X73399221Y-148948652D01*
X73676592Y-148910344D01*
X73981108Y-148866928D01*
X75185101Y-148692718D01*
X75529691Y-148004736D01*
X75874280Y-147316754D01*
X76100328Y-147427619D01*
X76204025Y-147482180D01*
X76292398Y-147537482D01*
X76326375Y-147571504D01*
X76313531Y-147606389D01*
X76269065Y-147704830D01*
X76198513Y-147853476D01*
X76107823Y-148039824D01*
X76002940Y-148251373D01*
X75679505Y-148898220D01*
X76598895Y-150764551D01*
X76645711Y-150859619D01*
X76822204Y-151218643D01*
X76986295Y-151553402D01*
X77134554Y-151856833D01*
X77263549Y-152121876D01*
X77369850Y-152341469D01*
X77450027Y-152508552D01*
X77500649Y-152616063D01*
X77518285Y-152656940D01*
X77496179Y-152679537D01*
X77417882Y-152729536D01*
X77302508Y-152791749D01*
X77206279Y-152839235D01*
X77111071Y-152883572D01*
X77066181Y-152900809D01*
X77049056Y-152873627D01*
X76998650Y-152779637D01*
X76918905Y-152625511D01*
X76813510Y-152418537D01*
X76686155Y-152166003D01*
X76540529Y-151875197D01*
X76380321Y-151553407D01*
X76209220Y-151207921D01*
X75372810Y-149514725D01*
X75130002Y-149997653D01*
X75110490Y-150036340D01*
X75021127Y-150210253D01*
X74945976Y-150351350D01*
X74892431Y-150446003D01*
X74867890Y-150480582D01*
X74834792Y-150468633D01*
X74746052Y-150428854D01*
X74624813Y-150370834D01*
X74401042Y-150261086D01*
X74644770Y-149774880D01*
X74666569Y-149731270D01*
X74751960Y-149557833D01*
X74819092Y-149417277D01*
X74861637Y-149323068D01*
X74873266Y-149288673D01*
X74824353Y-149293383D01*
X74707182Y-149308649D01*
X74537062Y-149332504D01*
X74327423Y-149362911D01*
X74091695Y-149397831D01*
X73843309Y-149435225D01*
X73595692Y-149473055D01*
X73362277Y-149509283D01*
X73156492Y-149541870D01*
X72991768Y-149568778D01*
X72881534Y-149587969D01*
X72867334Y-149591135D01*
X72839220Y-149597403D01*
X72836537Y-149618571D01*
X72839948Y-149709543D01*
X72851516Y-149858740D01*
X72870086Y-150051980D01*
X72894498Y-150275081D01*
X72911059Y-150422672D01*
X72932204Y-150627142D01*
X72947057Y-150792131D01*
X72954395Y-150903602D01*
X72952997Y-150947515D01*
X72917701Y-150957489D01*
X72820561Y-150973391D01*
X72686449Y-150990056D01*
X72437300Y-151017220D01*
X72362698Y-150368723D01*
X72346344Y-150230992D01*
X72319764Y-150024759D01*
X72295495Y-149856757D01*
X72275688Y-149741485D01*
X72262495Y-149693444D01*
X72238621Y-149685162D01*
X72150480Y-149680623D01*
X72025888Y-149687939D01*
X71911182Y-149701597D01*
X71841387Y-149725204D01*
X71809802Y-149774968D01*
X71793487Y-149868737D01*
X71788423Y-149900502D01*
X71727359Y-150107662D01*
X71623350Y-150334006D01*
X71492108Y-150549296D01*
X71349350Y-150723298D01*
X71239861Y-150817888D01*
X71070784Y-150936210D01*
X70901133Y-151031551D01*
X70792268Y-151081275D01*
X70678293Y-151122762D01*
X70563490Y-151146054D01*
X70420753Y-151156219D01*
X70222977Y-151158323D01*
X70080997Y-151157171D01*
X69922490Y-151149619D01*
X69802391Y-151130890D01*
X69694601Y-151096277D01*
X69573023Y-151041071D01*
X69454636Y-150985890D01*
X69361290Y-150947863D01*
X69320526Y-150938735D01*
X69301924Y-150964646D01*
X69245483Y-151047077D01*
X69161417Y-151171461D01*
X69059676Y-151323139D01*
X68903530Y-151546807D01*
X68623339Y-151895659D01*
X68338777Y-152179896D01*
X68039686Y-152410348D01*
X67898420Y-152499394D01*
X67596325Y-152647295D01*
X67296029Y-152729905D01*
X66976052Y-152754167D01*
X66939801Y-152753454D01*
X66586614Y-152701821D01*
X66235055Y-152571035D01*
X65889001Y-152363821D01*
X65552330Y-152082906D01*
X65228918Y-151731013D01*
X64922643Y-151310868D01*
X64677649Y-150936152D01*
X64541780Y-151039784D01*
X64260986Y-151208712D01*
X63935426Y-151317592D01*
X63592591Y-151354507D01*
X63246375Y-151318034D01*
X62910674Y-151206752D01*
X62710593Y-151097047D01*
X62445650Y-150877567D01*
X62237605Y-150601338D01*
X62089271Y-150272428D01*
X62003461Y-149894903D01*
X61998225Y-149855791D01*
X62205910Y-149855791D01*
X62233071Y-150111625D01*
X62298097Y-150325109D01*
X62398583Y-150498507D01*
X62573580Y-150713562D01*
X62779478Y-150902180D01*
X62990479Y-151037804D01*
X63027478Y-151054791D01*
X63256198Y-151126217D01*
X63513657Y-151163241D01*
X63766895Y-151163041D01*
X63982955Y-151122794D01*
X64223003Y-151015206D01*
X64486231Y-150827463D01*
X64709188Y-150590861D01*
X64871855Y-150323401D01*
X64904241Y-150239824D01*
X64956528Y-149988803D01*
X64963949Y-149711742D01*
X64927183Y-149439085D01*
X64846905Y-149201278D01*
X64750173Y-149038704D01*
X64567850Y-148820408D01*
X64351950Y-148631107D01*
X64128508Y-148496349D01*
X64001237Y-148451726D01*
X63760588Y-148409922D01*
X63499150Y-148403231D01*
X63248612Y-148431683D01*
X63040665Y-148495308D01*
X62996341Y-148517245D01*
X62790991Y-148652115D01*
X62591879Y-148829590D01*
X62422735Y-149026263D01*
X62307286Y-149218728D01*
X62264172Y-149338995D01*
X62216362Y-149588089D01*
X62205910Y-149855791D01*
X61998225Y-149855791D01*
X61977326Y-149699676D01*
X61759445Y-149699676D01*
X61541563Y-149699676D01*
X61514607Y-150059304D01*
X61512680Y-150084866D01*
X61496014Y-150298149D01*
X61478116Y-150516488D01*
X61462544Y-150696359D01*
X61437437Y-150973786D01*
X61226971Y-150973157D01*
X61199139Y-150973097D01*
X61085226Y-150970724D01*
X61005409Y-150956333D01*
X60954953Y-150918258D01*
X60929125Y-150844836D01*
X60923190Y-150724402D01*
X60932413Y-150545293D01*
X60952061Y-150295844D01*
X60959618Y-150197579D01*
X60972691Y-149994345D01*
X60979921Y-149827684D01*
X60980766Y-149712691D01*
X60974686Y-149664463D01*
X60968431Y-149661433D01*
X60899456Y-149648710D01*
X60765336Y-149632776D01*
X60577385Y-149614407D01*
X60346913Y-149594380D01*
X60085234Y-149573470D01*
X59803659Y-149552454D01*
X59513500Y-149532107D01*
X59226070Y-149513205D01*
X58952680Y-149496524D01*
X58704642Y-149482841D01*
X58493268Y-149472930D01*
X58329870Y-149467569D01*
X58225762Y-149467533D01*
X58192253Y-149473598D01*
X58199090Y-149484706D01*
X58243952Y-149555762D01*
X58321245Y-149677244D01*
X58422362Y-149835642D01*
X58538696Y-150017446D01*
X58584559Y-150089265D01*
X58695589Y-150265124D01*
X58787476Y-150413472D01*
X58851716Y-150520476D01*
X58879805Y-150572300D01*
X58859916Y-150618226D01*
X58789433Y-150685929D01*
X58690516Y-150759538D01*
X58585606Y-150823896D01*
X58497148Y-150863843D01*
X58447583Y-150864224D01*
X58441274Y-150856285D01*
X58395883Y-150791099D01*
X58318050Y-150674671D01*
X58216754Y-150520521D01*
X58100971Y-150342171D01*
X58057465Y-150275126D01*
X57948993Y-150111220D01*
X57859778Y-149981061D01*
X57798086Y-149896532D01*
X57772183Y-149869518D01*
X57761959Y-149891151D01*
X57723525Y-149980401D01*
X57660310Y-150130371D01*
X57576044Y-150332125D01*
X57474455Y-150576728D01*
X57359272Y-150855244D01*
X57234223Y-151158737D01*
X57143585Y-151378929D01*
X57025569Y-151665070D01*
X56920286Y-151919689D01*
X56831433Y-152133883D01*
X56762705Y-152298747D01*
X56717798Y-152405375D01*
X56700408Y-152444864D01*
X56667295Y-152437975D01*
X56578305Y-152404823D01*
X56454651Y-152352515D01*
X56425235Y-152339326D01*
X56303487Y-152276722D01*
X56245560Y-152225749D01*
X56238841Y-152176098D01*
X56239076Y-152175291D01*
X56260224Y-152118827D01*
X56309063Y-151995728D01*
X56381972Y-151814911D01*
X56475325Y-151585288D01*
X56585499Y-151315774D01*
X56708871Y-151015285D01*
X56841818Y-150692734D01*
X57424617Y-149281423D01*
X57056010Y-148713144D01*
X56687403Y-148144866D01*
X56913828Y-147994528D01*
X57028395Y-147921222D01*
X57114350Y-147871532D01*
X57151193Y-147857451D01*
X57155759Y-147864088D01*
X57194931Y-147924407D01*
X57266902Y-148036620D01*
X57363512Y-148187978D01*
X57476599Y-148365732D01*
X57791065Y-148860753D01*
X59394914Y-148977407D01*
X59487575Y-148984100D01*
X59836572Y-149008450D01*
X60157375Y-149029508D01*
X60441024Y-149046774D01*
X60678556Y-149059753D01*
X60861012Y-149067945D01*
X60979429Y-149070853D01*
X61024848Y-149067978D01*
X61030648Y-149047402D01*
X61044216Y-148958462D01*
X61061821Y-148814883D01*
X61081792Y-148633294D01*
X61102456Y-148430322D01*
X61122143Y-148222593D01*
X61139180Y-148026734D01*
X61151898Y-147859373D01*
X61158624Y-147737136D01*
X61164948Y-147725047D01*
X61226815Y-147700982D01*
X61332882Y-147687767D01*
X61456188Y-147686255D01*
X61569774Y-147697295D01*
X61646679Y-147721738D01*
X61658006Y-147732051D01*
X61673888Y-147771343D01*
X61681014Y-147845443D01*
X61679451Y-147966089D01*
X61669266Y-148145019D01*
X61650526Y-148393972D01*
X61641370Y-148515594D01*
X61628175Y-148728459D01*
X61620717Y-148907150D01*
X61619566Y-149035773D01*
X61625292Y-149098429D01*
X61660734Y-149137895D01*
X61742818Y-149159254D01*
X61888667Y-149165372D01*
X62126355Y-149165372D01*
X62224503Y-148980362D01*
X62331367Y-148817732D01*
X62534529Y-148606636D01*
X62780171Y-148428681D01*
X63046225Y-148299057D01*
X63310622Y-148232947D01*
X63348504Y-148228408D01*
X63461458Y-148212380D01*
X63530135Y-148198865D01*
X63543536Y-148176380D01*
X63540371Y-148092553D01*
X63512426Y-147942061D01*
X63458870Y-147719320D01*
X63362578Y-147321675D01*
X63208578Y-146589932D01*
X63071161Y-145813725D01*
X62952892Y-145013085D01*
X62856335Y-144208045D01*
X62784054Y-143418638D01*
X62738612Y-142664895D01*
X62722575Y-141966850D01*
X62722168Y-141406030D01*
X62465291Y-141487382D01*
X62336995Y-141521786D01*
X62005251Y-141556450D01*
X61680340Y-141518475D01*
X61372295Y-141414528D01*
X61091149Y-141251279D01*
X60846935Y-141035398D01*
X60649687Y-140773552D01*
X60509437Y-140472412D01*
X60436219Y-140138646D01*
X60425785Y-140038819D01*
X60624429Y-140038819D01*
X60672288Y-140342287D01*
X60791301Y-140634523D01*
X60983467Y-140904492D01*
X61084616Y-141004824D01*
X61238591Y-141130520D01*
X61381986Y-141222260D01*
X61474416Y-141265641D01*
X61603222Y-141307508D01*
X61756008Y-141332135D01*
X61961812Y-141345703D01*
X62091398Y-141350222D01*
X62237277Y-141348766D01*
X62349066Y-141332975D01*
X62455558Y-141297905D01*
X62585546Y-141238611D01*
X62736518Y-141155033D01*
X62850958Y-141063699D01*
X63610924Y-141063699D01*
X63611952Y-141507676D01*
X63615886Y-141939700D01*
X63622726Y-142345731D01*
X63632472Y-142711730D01*
X63645123Y-143023658D01*
X63660680Y-143267475D01*
X63662733Y-143292157D01*
X63748456Y-144197706D01*
X63849565Y-145035937D01*
X63968326Y-145820333D01*
X64107004Y-146564380D01*
X64267864Y-147281562D01*
X64453170Y-147985365D01*
X64472749Y-148054199D01*
X64538811Y-148275651D01*
X64594921Y-148438667D01*
X64648318Y-148560351D01*
X64706237Y-148657807D01*
X64775916Y-148748138D01*
X64950601Y-148995897D01*
X65079704Y-149300087D01*
X65137032Y-149637363D01*
X65138278Y-149655788D01*
X65144533Y-149711742D01*
X65155429Y-149809202D01*
X65188776Y-149944050D01*
X65247705Y-150089590D01*
X65341601Y-150275081D01*
X65356689Y-150303285D01*
X65604195Y-150724869D01*
X65860902Y-151088867D01*
X66121677Y-151389321D01*
X66381387Y-151620274D01*
X66634896Y-151775769D01*
X66735238Y-151818357D01*
X66941036Y-151869143D01*
X67138118Y-151855331D01*
X67355713Y-151776971D01*
X67486433Y-151706364D01*
X67750269Y-151507835D01*
X68016457Y-151235865D01*
X68280008Y-150895879D01*
X68535935Y-150493303D01*
X68731068Y-150156671D01*
X68682906Y-149871135D01*
X68659657Y-149656676D01*
X68663644Y-149596925D01*
X68867483Y-149596925D01*
X68867521Y-149649209D01*
X68872526Y-149826224D01*
X68889496Y-149957569D01*
X68923976Y-150072605D01*
X68981511Y-150200693D01*
X69013282Y-150260354D01*
X69159433Y-150467826D01*
X69343650Y-150658255D01*
X69544257Y-150811438D01*
X69739574Y-150907173D01*
X69939306Y-150960662D01*
X70282482Y-150994556D01*
X70605637Y-150948857D01*
X70908099Y-150823700D01*
X71189196Y-150619218D01*
X71318541Y-150474426D01*
X71457453Y-150251713D01*
X71563812Y-150005194D01*
X71621501Y-149766655D01*
X71629234Y-149591135D01*
X71584324Y-149289969D01*
X71474315Y-148996547D01*
X71307632Y-148730849D01*
X71092702Y-148512853D01*
X70836452Y-148353627D01*
X70533684Y-148251876D01*
X70215630Y-148222277D01*
X69896882Y-148266078D01*
X69592031Y-148384526D01*
X69382841Y-148517557D01*
X69145523Y-148747103D01*
X68962285Y-149036476D01*
X68921289Y-149130258D01*
X68888687Y-149249136D01*
X68872281Y-149395647D01*
X68867483Y-149596925D01*
X68663644Y-149596925D01*
X68682554Y-149313496D01*
X68784013Y-148992138D01*
X68964686Y-148690841D01*
X69225225Y-148407844D01*
X69503419Y-148153942D01*
X69647288Y-147601324D01*
X69881292Y-146592220D01*
X70072610Y-145531399D01*
X70220176Y-144433604D01*
X70324209Y-143308654D01*
X70384924Y-142166368D01*
X70402539Y-141016565D01*
X70377272Y-139869064D01*
X70372811Y-139794498D01*
X70798496Y-139794498D01*
X70799209Y-139913864D01*
X70806209Y-140072475D01*
X70825019Y-140191993D01*
X70860882Y-140299749D01*
X70919039Y-140423078D01*
X70941866Y-140466064D01*
X71119026Y-140716932D01*
X71343266Y-140928457D01*
X71488970Y-141016565D01*
X71592618Y-141079241D01*
X71678648Y-141111065D01*
X71896981Y-141158602D01*
X72141412Y-141179757D01*
X72378030Y-141172593D01*
X72572922Y-141135178D01*
X72610316Y-141122385D01*
X72904973Y-140976523D01*
X73150551Y-140773439D01*
X73341644Y-140524434D01*
X73472845Y-140240812D01*
X73538749Y-139933872D01*
X73533949Y-139614917D01*
X73453040Y-139295249D01*
X73354695Y-139094533D01*
X73160146Y-138844270D01*
X72912314Y-138640756D01*
X72625144Y-138494730D01*
X72312579Y-138416930D01*
X72276674Y-138413210D01*
X72016714Y-138423677D01*
X71743578Y-138489341D01*
X71480672Y-138600624D01*
X71251403Y-138747947D01*
X71079177Y-138921729D01*
X71024854Y-138997130D01*
X70911307Y-139181086D01*
X70842209Y-139355155D01*
X70807845Y-139549553D01*
X70798496Y-139794498D01*
X70372811Y-139794498D01*
X70309339Y-138733684D01*
X70198957Y-137620244D01*
X70046344Y-136538563D01*
X69851717Y-135498461D01*
X69615292Y-134509756D01*
X69337288Y-133582268D01*
X69254117Y-133343737D01*
X69154827Y-133078686D01*
X69051079Y-132818340D01*
X68948175Y-132574834D01*
X68851418Y-132360302D01*
X68766111Y-132186880D01*
X68697557Y-132066702D01*
X68651058Y-132011904D01*
X68618544Y-131992776D01*
X68465746Y-131865429D01*
X68311985Y-131686425D01*
X68172997Y-131478647D01*
X68064517Y-131264984D01*
X68002281Y-131068319D01*
X67980074Y-130992549D01*
X67905875Y-130871480D01*
X67772070Y-130734793D01*
X67715579Y-130690776D01*
X68168778Y-130690776D01*
X68168815Y-130743060D01*
X68173821Y-130920075D01*
X68190791Y-131051420D01*
X68225271Y-131166456D01*
X68282805Y-131294544D01*
X68314577Y-131354205D01*
X68460727Y-131561677D01*
X68644945Y-131752106D01*
X68845551Y-131905289D01*
X69040869Y-132001024D01*
X69255368Y-132058063D01*
X69587314Y-132089230D01*
X69901708Y-132042715D01*
X70205758Y-131918006D01*
X70240677Y-131898317D01*
X70497088Y-131703711D01*
X70697283Y-131458543D01*
X70836611Y-131175208D01*
X70910420Y-130866097D01*
X70914061Y-130543606D01*
X70842883Y-130220128D01*
X70796778Y-130112142D01*
X70654537Y-129892471D01*
X70463322Y-129686198D01*
X70244010Y-129514139D01*
X70017476Y-129397110D01*
X69747314Y-129328027D01*
X69425240Y-129318712D01*
X69110204Y-129383619D01*
X68816170Y-129519624D01*
X68557102Y-129723606D01*
X68535870Y-129745087D01*
X68361355Y-129952337D01*
X68248422Y-130163043D01*
X68187440Y-130401193D01*
X68168778Y-130690776D01*
X67715579Y-130690776D01*
X67539294Y-130553417D01*
X67279143Y-130421826D01*
X67023094Y-130371720D01*
X66767966Y-130403047D01*
X66510578Y-130515754D01*
X66247746Y-130709790D01*
X66201827Y-130751302D01*
X66111037Y-130851601D01*
X66099151Y-130875728D01*
X66058160Y-130958936D01*
X66022081Y-131110832D01*
X66015300Y-131145213D01*
X65915926Y-131463023D01*
X65760808Y-131755537D01*
X65561504Y-132004701D01*
X65329572Y-132192463D01*
X65310942Y-132204398D01*
X65238844Y-132261903D01*
X65172364Y-132339642D01*
X65105098Y-132449138D01*
X65030646Y-132601913D01*
X64942604Y-132809490D01*
X64834571Y-133083393D01*
X64740797Y-133334983D01*
X64491676Y-134102764D01*
X64269411Y-134944544D01*
X64074586Y-135857391D01*
X63907783Y-136838377D01*
X63769583Y-137884570D01*
X63660568Y-138993042D01*
X63649397Y-139155879D01*
X63635887Y-139449037D01*
X63625284Y-139800437D01*
X63624557Y-139837835D01*
X63617590Y-140196041D01*
X63612804Y-140621807D01*
X63610924Y-141063699D01*
X62850958Y-141063699D01*
X62991133Y-140951826D01*
X63185871Y-140707425D01*
X63318753Y-140432908D01*
X63387801Y-140139352D01*
X63391036Y-139837835D01*
X63326479Y-139539433D01*
X63192152Y-139255225D01*
X62986076Y-138996286D01*
X62873870Y-138891093D01*
X62694915Y-138760842D01*
X62505351Y-138678553D01*
X62282308Y-138635546D01*
X62002913Y-138623139D01*
X61827883Y-138624626D01*
X61684889Y-138632689D01*
X61578079Y-138652025D01*
X61482986Y-138687313D01*
X61375143Y-138743235D01*
X61104538Y-138933320D01*
X60887779Y-139171370D01*
X60734174Y-139442326D01*
X60645725Y-139735154D01*
X60624429Y-140038819D01*
X60425785Y-140038819D01*
X60410182Y-139889539D01*
X60135023Y-139800918D01*
X60127057Y-139798356D01*
X59988561Y-139754903D01*
X59883956Y-139724038D01*
X59835344Y-139712297D01*
X59821589Y-139731366D01*
X59785549Y-139813831D01*
X59735713Y-139946519D01*
X59678501Y-140113026D01*
X59646556Y-140209129D01*
X59578798Y-140409547D01*
X59515668Y-140592296D01*
X59467558Y-140727124D01*
X59388936Y-140940495D01*
X59144387Y-140852505D01*
X59027928Y-140807385D01*
X58935331Y-140764498D01*
X58899838Y-140738027D01*
X58903215Y-140723660D01*
X58928224Y-140643977D01*
X58973612Y-140508062D01*
X59034624Y-140330040D01*
X59106506Y-140124034D01*
X59144470Y-140015368D01*
X59209738Y-139824555D01*
X59260668Y-139670269D01*
X59292815Y-139566136D01*
X59301733Y-139525781D01*
X59274488Y-139515253D01*
X59177497Y-139480977D01*
X59018900Y-139426059D01*
X58807682Y-139353581D01*
X58552830Y-139266624D01*
X58263327Y-139168270D01*
X57948160Y-139061600D01*
X56606029Y-138608168D01*
X56827668Y-139270341D01*
X56885269Y-139443698D01*
X56949201Y-139639620D01*
X56998930Y-139796150D01*
X57030395Y-139900468D01*
X57039541Y-139939753D01*
X57033296Y-139943360D01*
X56966899Y-139969059D01*
X56857969Y-140004898D01*
X56736284Y-140041773D01*
X56631620Y-140070576D01*
X56573757Y-140082200D01*
X56564903Y-140077028D01*
X56526374Y-140014045D01*
X56470909Y-139889223D01*
X56403682Y-139714843D01*
X56329865Y-139503187D01*
X56295026Y-139400683D01*
X56228585Y-139216670D01*
X56171482Y-139073265D01*
X56128888Y-138983050D01*
X56105977Y-138958607D01*
X56091688Y-138976642D01*
X56032576Y-139054037D01*
X55934094Y-139184199D01*
X55802291Y-139359099D01*
X55643213Y-139570706D01*
X55462909Y-139810991D01*
X55267427Y-140071925D01*
X55140276Y-140241372D01*
X54954733Y-140487085D01*
X54788452Y-140705436D01*
X54647389Y-140888705D01*
X54537502Y-141029171D01*
X54464747Y-141119112D01*
X54435081Y-141150809D01*
X54401684Y-141134531D01*
X54318718Y-141080781D01*
X54208311Y-141002487D01*
X54134072Y-140944792D01*
X54051005Y-140860174D01*
X54042719Y-140807260D01*
X54043692Y-140805998D01*
X54080060Y-140757842D01*
X54159516Y-140652127D01*
X54276392Y-140496409D01*
X54425021Y-140298243D01*
X54599738Y-140065184D01*
X54794875Y-139804787D01*
X55004766Y-139524607D01*
X55930349Y-138288858D01*
X55730534Y-137675092D01*
X55690476Y-137550148D01*
X55629262Y-137350624D01*
X55582160Y-137185774D01*
X55553207Y-137070008D01*
X55546437Y-137017739D01*
X55556640Y-137004481D01*
X55626108Y-136963150D01*
X55735113Y-136922331D01*
X55777672Y-136909452D01*
X55890522Y-136874079D01*
X55961122Y-136850154D01*
X55965619Y-136849323D01*
X56001156Y-136881666D01*
X56051527Y-136981397D01*
X56118540Y-137152610D01*
X56204006Y-137399395D01*
X56393839Y-137968994D01*
X57903716Y-138477806D01*
X57976535Y-138502346D01*
X58308571Y-138614243D01*
X58614842Y-138717464D01*
X58886658Y-138809079D01*
X59115332Y-138886160D01*
X59292174Y-138945778D01*
X59408496Y-138985005D01*
X59455609Y-139000911D01*
X59462346Y-138998374D01*
X59496531Y-138943457D01*
X59547509Y-138828267D01*
X59609580Y-138666430D01*
X59677043Y-138471574D01*
X59692109Y-138426046D01*
X59762103Y-138217504D01*
X59826470Y-138030181D01*
X59878617Y-137883064D01*
X59911950Y-137795138D01*
X59967440Y-137662331D01*
X60214545Y-137745780D01*
X60333120Y-137787284D01*
X60426052Y-137822937D01*
X60461651Y-137841055D01*
X60454412Y-137864670D01*
X60424126Y-137954631D01*
X60374359Y-138099469D01*
X60309584Y-138286184D01*
X60234273Y-138501781D01*
X60178707Y-138664168D01*
X60114987Y-138862095D01*
X60067903Y-139022928D01*
X60041306Y-139133291D01*
X60039046Y-139179811D01*
X60078265Y-139201928D01*
X60176606Y-139244939D01*
X60306890Y-139295404D01*
X60542582Y-139381866D01*
X60610499Y-139249104D01*
X60708897Y-139082673D01*
X60931498Y-138821959D01*
X61200494Y-138620659D01*
X61505211Y-138482982D01*
X61834973Y-138413134D01*
X62179108Y-138415322D01*
X62526942Y-138493753D01*
X62669777Y-138540266D01*
X62755033Y-138560249D01*
X62794666Y-138554104D01*
X62804394Y-138523517D01*
X62806674Y-138471866D01*
X62818640Y-138332977D01*
X62839265Y-138136407D01*
X62866738Y-137896648D01*
X62899252Y-137628190D01*
X62934997Y-137345525D01*
X62972165Y-137063145D01*
X63008947Y-136795540D01*
X63043534Y-136557202D01*
X63074117Y-136362621D01*
X63207281Y-135637758D01*
X63368929Y-134895167D01*
X63549988Y-134179855D01*
X63745829Y-133510066D01*
X63951819Y-132904048D01*
X64009720Y-132741549D01*
X64059526Y-132589458D01*
X64089996Y-132481008D01*
X64096067Y-132432746D01*
X64047134Y-132403758D01*
X63954399Y-132375718D01*
X63834234Y-132331756D01*
X63663802Y-132235084D01*
X63484705Y-132106170D01*
X63320324Y-131962102D01*
X63194039Y-131819968D01*
X63044902Y-131574855D01*
X62926373Y-131242145D01*
X62886570Y-130886730D01*
X62886570Y-130864079D01*
X63060403Y-130864079D01*
X63070248Y-130999029D01*
X63073688Y-131026490D01*
X63153533Y-131338137D01*
X63299092Y-131623455D01*
X63499872Y-131869352D01*
X63745383Y-132062735D01*
X64025131Y-132190514D01*
X64025780Y-132190714D01*
X64332598Y-132258683D01*
X64612731Y-132260596D01*
X64888162Y-132196606D01*
X65111403Y-132102561D01*
X65350219Y-131944609D01*
X65550243Y-131731984D01*
X65726723Y-131451132D01*
X65741000Y-131423604D01*
X65784152Y-131322456D01*
X65809714Y-131214051D01*
X65821952Y-131073452D01*
X65825129Y-130875728D01*
X65823628Y-130704382D01*
X65814708Y-130566161D01*
X65792428Y-130458400D01*
X65750867Y-130353771D01*
X65684104Y-130224952D01*
X65534092Y-129998509D01*
X65297494Y-129768851D01*
X64999962Y-129592243D01*
X64932913Y-129563585D01*
X64802653Y-129524586D01*
X64651217Y-129505324D01*
X64448382Y-129500788D01*
X64447986Y-129500789D01*
X64258381Y-129505852D01*
X64118754Y-129523199D01*
X63997140Y-129559375D01*
X63861570Y-129620923D01*
X63764445Y-129675450D01*
X63610839Y-129783750D01*
X63471080Y-129905868D01*
X63359224Y-130027605D01*
X63289326Y-130134760D01*
X63275439Y-130213132D01*
X63274503Y-130268223D01*
X63239164Y-130384596D01*
X63171829Y-130530763D01*
X63115607Y-130642650D01*
X63072952Y-130757136D01*
X63060403Y-130864079D01*
X62886570Y-130864079D01*
X62886570Y-130607977D01*
X62696717Y-130493302D01*
X62619922Y-130448387D01*
X62534817Y-130403323D01*
X62498197Y-130390850D01*
X62490318Y-130403564D01*
X62447301Y-130474636D01*
X62373608Y-130597042D01*
X62276696Y-130758390D01*
X62164020Y-130946287D01*
X62100127Y-131052262D01*
X61993823Y-131225471D01*
X61906224Y-131364222D01*
X61845035Y-131456412D01*
X61817961Y-131489938D01*
X61784234Y-131475025D01*
X61698388Y-131426723D01*
X61582480Y-131356522D01*
X61367549Y-131222669D01*
X61697526Y-130673096D01*
X61763946Y-130560624D01*
X61863971Y-130382952D01*
X61940035Y-130236856D01*
X61985652Y-130135075D01*
X61994331Y-130090350D01*
X61949312Y-130058971D01*
X61844944Y-129993283D01*
X61691310Y-129899279D01*
X61498388Y-129782845D01*
X61276157Y-129649868D01*
X61034593Y-129506234D01*
X60783675Y-129357830D01*
X60533380Y-129210541D01*
X60293688Y-129070255D01*
X60074574Y-128942857D01*
X59886019Y-128834235D01*
X59737999Y-128750274D01*
X59640492Y-128696861D01*
X59603476Y-128679882D01*
X59601824Y-128700511D01*
X59606398Y-128790521D01*
X59618434Y-128938936D01*
X59636758Y-129131764D01*
X59660194Y-129355016D01*
X59676200Y-129505401D01*
X59696359Y-129710316D01*
X59710603Y-129875657D01*
X59717761Y-129987395D01*
X59716662Y-130031503D01*
X59681122Y-130041988D01*
X59583942Y-130058479D01*
X59449580Y-130075793D01*
X59198365Y-130104214D01*
X59147433Y-129616589D01*
X59127484Y-129433589D01*
X59104911Y-129243013D01*
X59084861Y-129089965D01*
X59070095Y-128996585D01*
X59043689Y-128864205D01*
X57995631Y-129786086D01*
X56947573Y-130707967D01*
X56771362Y-130519024D01*
X56689796Y-130426254D01*
X56626677Y-130342375D01*
X56606961Y-130297946D01*
X56608433Y-130295765D01*
X56651394Y-130253383D01*
X56748336Y-130164185D01*
X56892462Y-130034240D01*
X57076973Y-129869620D01*
X57295069Y-129676394D01*
X57539953Y-129460633D01*
X57804824Y-129228408D01*
X58990878Y-128191005D01*
X58967075Y-128002379D01*
X58956324Y-127915511D01*
X58926724Y-127657187D01*
X58902121Y-127414066D01*
X58883583Y-127199418D01*
X58872177Y-127026512D01*
X58868972Y-126908615D01*
X58875037Y-126858998D01*
X58910000Y-126845875D01*
X59008159Y-126828663D01*
X59141909Y-126815081D01*
X59382249Y-126797697D01*
X59432557Y-127285175D01*
X59452643Y-127469550D01*
X59475021Y-127654488D01*
X59495006Y-127799791D01*
X59509879Y-127884364D01*
X59524970Y-127917386D01*
X59560641Y-127958882D01*
X59623022Y-128012123D01*
X59718461Y-128081312D01*
X59853308Y-128170650D01*
X60033912Y-128284340D01*
X60266622Y-128426585D01*
X60557786Y-128601587D01*
X60913754Y-128813547D01*
X60989974Y-128858753D01*
X61290400Y-129036011D01*
X61566810Y-129197654D01*
X61811454Y-129339248D01*
X62016579Y-129456358D01*
X62174432Y-129544551D01*
X62277261Y-129599390D01*
X62317315Y-129616442D01*
X62335570Y-129593651D01*
X62391273Y-129510170D01*
X62475905Y-129376933D01*
X62581931Y-129205848D01*
X62701813Y-129008826D01*
X63059612Y-128415785D01*
X63271068Y-128543275D01*
X63367182Y-128601503D01*
X63457574Y-128656962D01*
X63498766Y-128683204D01*
X63490681Y-128706986D01*
X63447319Y-128791102D01*
X63372961Y-128924606D01*
X63274170Y-129095773D01*
X63157508Y-129292879D01*
X63066951Y-129446939D01*
X62964341Y-129629532D01*
X62885570Y-129779351D01*
X62837089Y-129884007D01*
X62825345Y-129931110D01*
X62876627Y-129977246D01*
X62965743Y-130031606D01*
X63032763Y-130061952D01*
X63082352Y-130059501D01*
X63134674Y-130012041D01*
X63211984Y-129908442D01*
X63355405Y-129741890D01*
X63611776Y-129541789D01*
X63913078Y-129395911D01*
X64242880Y-129313735D01*
X64256485Y-129311901D01*
X64606544Y-129306588D01*
X64946863Y-129380238D01*
X65268065Y-129529734D01*
X65560775Y-129751957D01*
X65758046Y-129936481D01*
X66037900Y-129767693D01*
X66163251Y-129695744D01*
X66440022Y-129569535D01*
X66708833Y-129499767D01*
X66996602Y-129478317D01*
X67288311Y-129500666D01*
X67599085Y-129585434D01*
X67910302Y-129740542D01*
X68145847Y-129882381D01*
X68424056Y-129604665D01*
X68526792Y-129506568D01*
X68753019Y-129329857D01*
X68982391Y-129215215D01*
X69238470Y-129152715D01*
X69544822Y-129132427D01*
X69579381Y-129132245D01*
X69756428Y-129136210D01*
X69890187Y-129153831D01*
X70014030Y-129191850D01*
X70161327Y-129257011D01*
X70306361Y-129330636D01*
X70440699Y-129407209D01*
X70529563Y-129467358D01*
X70630647Y-129550555D01*
X70784679Y-129426772D01*
X70938711Y-129302989D01*
X70508919Y-128795219D01*
X70412118Y-128680009D01*
X70279857Y-128519500D01*
X70174305Y-128387579D01*
X70104412Y-128295504D01*
X70079126Y-128254532D01*
X70093056Y-128232293D01*
X70153282Y-128169351D01*
X70241634Y-128087273D01*
X70336635Y-128005087D01*
X70416805Y-127941822D01*
X70460669Y-127916504D01*
X70475887Y-127930146D01*
X70536491Y-127996455D01*
X70634312Y-128108419D01*
X70760184Y-128255504D01*
X70904944Y-128427175D01*
X71043099Y-128590769D01*
X71169643Y-128735483D01*
X71259918Y-128829748D01*
X71322044Y-128881177D01*
X71364144Y-128897384D01*
X71394337Y-128885982D01*
X71405960Y-128876198D01*
X71635880Y-128680461D01*
X71875307Y-128472926D01*
X72116266Y-128260865D01*
X72350785Y-128051554D01*
X72570886Y-127852266D01*
X72768598Y-127670275D01*
X72935943Y-127512855D01*
X73064950Y-127387281D01*
X73147641Y-127300827D01*
X73176044Y-127260766D01*
X73172361Y-127224529D01*
X73160936Y-127114400D01*
X73143598Y-126948359D01*
X73121917Y-126741427D01*
X73097462Y-126508625D01*
X73079626Y-126333231D01*
X73060369Y-126126494D01*
X73046953Y-125960268D01*
X73040459Y-125848283D01*
X73041968Y-125804266D01*
X73077719Y-125793880D01*
X73175152Y-125777399D01*
X73309574Y-125760044D01*
X73560249Y-125731556D01*
X73635654Y-126453646D01*
X73657638Y-126656725D01*
X73682541Y-126869543D01*
X73704833Y-127042322D01*
X73722700Y-127161139D01*
X73734332Y-127212073D01*
X73735823Y-127213637D01*
X73784785Y-127247065D01*
X73896655Y-127317474D01*
X74064567Y-127420706D01*
X74281652Y-127552602D01*
X74541042Y-127709005D01*
X74835870Y-127885758D01*
X75159268Y-128078702D01*
X75504369Y-128283679D01*
X75555581Y-128314037D01*
X75898435Y-128517591D01*
X76218998Y-128708438D01*
X76510344Y-128882419D01*
X76765548Y-129035376D01*
X76977684Y-129163150D01*
X77139827Y-129261582D01*
X77245052Y-129326514D01*
X77286434Y-129353787D01*
X77293180Y-129393865D01*
X77265292Y-129482083D01*
X77210278Y-129590176D01*
X77142398Y-129694142D01*
X77075912Y-129769978D01*
X77025081Y-129793683D01*
X76999358Y-129781302D01*
X76907557Y-129730683D01*
X76757861Y-129645281D01*
X76557752Y-129529451D01*
X76314710Y-129387549D01*
X76036217Y-129223933D01*
X75729754Y-129042959D01*
X75402802Y-128848983D01*
X75167031Y-128709108D01*
X74857317Y-128526394D01*
X74574906Y-128360969D01*
X74327004Y-128216987D01*
X74120813Y-128098604D01*
X73963539Y-128009976D01*
X73862385Y-127955257D01*
X73824555Y-127938605D01*
X73824318Y-127938894D01*
X73821851Y-127986663D01*
X73827513Y-128099117D01*
X73840206Y-128259820D01*
X73858834Y-128452331D01*
X73859395Y-128457714D01*
X73877172Y-128650646D01*
X73887762Y-128812387D01*
X73890352Y-128926124D01*
X73884129Y-128975040D01*
X73859579Y-128986777D01*
X73773425Y-129006305D01*
X73655045Y-129023318D01*
X73532713Y-129034755D01*
X73434699Y-129037551D01*
X73389277Y-129028646D01*
X73389196Y-129028508D01*
X73379612Y-128979946D01*
X73364117Y-128866575D01*
X73344833Y-128705158D01*
X73323885Y-128512459D01*
X73323444Y-128508216D01*
X73302688Y-128316963D01*
X73283865Y-128158252D01*
X73269031Y-128048502D01*
X73260241Y-128004133D01*
X73236229Y-128019181D01*
X73157884Y-128081374D01*
X73033350Y-128185005D01*
X72870986Y-128323022D01*
X72679149Y-128488374D01*
X72466197Y-128674010D01*
X71684537Y-129359010D01*
X72118108Y-129871243D01*
X72218763Y-129991508D01*
X72349180Y-130151961D01*
X72451609Y-130283683D01*
X72517459Y-130375524D01*
X72538137Y-130416335D01*
X72515948Y-130444924D01*
X72446083Y-130516146D01*
X72347805Y-130607503D01*
X72291037Y-130657240D01*
X72208696Y-130718842D01*
X72156732Y-130733067D01*
X72117129Y-130707744D01*
X72110981Y-130700948D01*
X72055217Y-130636414D01*
X71961036Y-130525365D01*
X71839930Y-130381401D01*
X71703393Y-130218123D01*
X71668339Y-130176103D01*
X71537340Y-130019424D01*
X71426623Y-129887536D01*
X71346952Y-129793238D01*
X71309094Y-129749330D01*
X71288456Y-129744183D01*
X71217307Y-129775860D01*
X71118715Y-129852246D01*
X70962783Y-129992401D01*
X71034853Y-130197737D01*
X71067726Y-130313023D01*
X71093774Y-130506504D01*
X71094089Y-130543606D01*
X71095860Y-130752427D01*
G37*
G36*
X68237234Y-69301824D02*
G01*
X68237234Y-69494833D01*
X67951607Y-69494833D01*
X67665981Y-69494833D01*
X67652325Y-69323134D01*
X67651457Y-69311866D01*
X67650334Y-69218303D01*
X67672751Y-69159164D01*
X67732112Y-69126554D01*
X67841819Y-69112578D01*
X68015274Y-69109342D01*
X68237234Y-69108815D01*
X68237234Y-69301824D01*
G37*
G36*
X75880395Y-69301824D02*
G01*
X75880395Y-69494833D01*
X75594768Y-69494833D01*
X75309142Y-69494833D01*
X75295110Y-69318402D01*
X75291685Y-69265085D01*
X75290554Y-69170380D01*
X75297656Y-69125393D01*
X75299365Y-69124299D01*
X75351548Y-69116456D01*
X75457731Y-69110915D01*
X75597315Y-69108815D01*
X75880395Y-69108815D01*
X75880395Y-69301824D01*
G37*
G36*
X73515787Y-72524844D02*
G01*
X73575483Y-72609073D01*
X73590463Y-72717947D01*
X73548350Y-72834172D01*
X73491228Y-72894849D01*
X73390578Y-72930395D01*
X73348657Y-72925645D01*
X73259182Y-72873423D01*
X73206207Y-72781838D01*
X73194060Y-72673849D01*
X73227067Y-72572414D01*
X73309556Y-72500491D01*
X73311758Y-72499500D01*
X73423753Y-72482555D01*
X73515787Y-72524844D01*
G37*
G36*
X70199097Y-72525144D02*
G01*
X70283131Y-72582979D01*
X70334135Y-72653352D01*
X70360334Y-72737386D01*
X70340965Y-72807760D01*
X70283131Y-72891793D01*
X70212757Y-72942798D01*
X70128723Y-72968997D01*
X70058350Y-72949628D01*
X69974316Y-72891793D01*
X69923312Y-72821420D01*
X69897113Y-72737386D01*
X69916482Y-72667012D01*
X69974316Y-72582979D01*
X70044690Y-72531974D01*
X70128723Y-72505775D01*
X70199097Y-72525144D01*
G37*
G36*
X79176354Y-69224597D02*
G01*
X79341234Y-69318330D01*
X79470573Y-69465529D01*
X79472788Y-69469185D01*
X79489342Y-69499620D01*
X79503245Y-69535557D01*
X79514730Y-69583515D01*
X79524028Y-69650012D01*
X79531370Y-69741566D01*
X79536988Y-69864695D01*
X79541111Y-70025918D01*
X79543973Y-70231754D01*
X79545804Y-70488720D01*
X79546835Y-70803334D01*
X79547298Y-71182116D01*
X79547424Y-71631582D01*
X79547568Y-73671827D01*
X79405619Y-73547194D01*
X79404831Y-73546502D01*
X79248421Y-73427770D01*
X79089486Y-73352410D01*
X78903934Y-73312336D01*
X78667673Y-73299458D01*
X78347504Y-73297112D01*
X78358859Y-71444225D01*
X78361429Y-71049382D01*
X78364320Y-70684574D01*
X78367561Y-70383870D01*
X78371433Y-70140420D01*
X78376214Y-69947377D01*
X78382183Y-69797894D01*
X78389621Y-69685121D01*
X78398806Y-69602210D01*
X78410018Y-69542314D01*
X78423536Y-69498585D01*
X78439640Y-69464174D01*
X78493069Y-69384750D01*
X78634292Y-69264405D01*
X78806301Y-69197613D01*
X78992516Y-69184351D01*
X79176354Y-69224597D01*
G37*
G36*
X59856070Y-79392880D02*
G01*
X60051148Y-79411095D01*
X60061053Y-79412074D01*
X60245824Y-79430239D01*
X60485459Y-79453671D01*
X60759354Y-79480360D01*
X61046905Y-79508298D01*
X61327508Y-79535479D01*
X61425733Y-79545038D01*
X61660309Y-79568393D01*
X61863033Y-79589318D01*
X62022652Y-79606606D01*
X62127913Y-79619054D01*
X62167566Y-79625455D01*
X62165179Y-79643322D01*
X62139989Y-79714753D01*
X62095874Y-79820128D01*
X62016883Y-80083027D01*
X61995480Y-80369393D01*
X62034768Y-80645906D01*
X62090723Y-80853362D01*
X61873173Y-80827472D01*
X61804375Y-80819480D01*
X61634169Y-80800343D01*
X61395706Y-80774030D01*
X61094247Y-80741114D01*
X60735058Y-80702169D01*
X60323402Y-80657769D01*
X59864543Y-80608488D01*
X59786423Y-80599146D01*
X59618978Y-80572853D01*
X59480390Y-80542948D01*
X59394714Y-80514256D01*
X59245708Y-80400139D01*
X59145659Y-80244411D01*
X59098314Y-80065573D01*
X59103190Y-79879964D01*
X59159804Y-79703920D01*
X59267672Y-79553781D01*
X59426312Y-79445882D01*
X59466507Y-79428539D01*
X59542916Y-79401251D01*
X59620770Y-79386911D01*
X59718882Y-79384470D01*
X59856070Y-79392880D01*
G37*
G36*
X80333280Y-86796435D02*
G01*
X80353093Y-86861928D01*
X80391244Y-86998335D01*
X80446954Y-87202749D01*
X80519443Y-87472262D01*
X80607931Y-87803967D01*
X80711639Y-88194957D01*
X80829788Y-88642324D01*
X80961598Y-89143161D01*
X81002074Y-89300336D01*
X81052649Y-89506730D01*
X81093009Y-89683458D01*
X81119784Y-89815582D01*
X81129607Y-89888163D01*
X81108070Y-90016701D01*
X81026536Y-90177768D01*
X80899738Y-90317112D01*
X80744205Y-90412256D01*
X80707424Y-90425302D01*
X80525435Y-90451712D01*
X80342077Y-90426335D01*
X80180868Y-90355014D01*
X80065327Y-90243594D01*
X80053100Y-90214329D01*
X80020631Y-90116147D01*
X79972957Y-89960577D01*
X79912892Y-89757695D01*
X79843251Y-89517577D01*
X79766848Y-89250300D01*
X79686496Y-88965941D01*
X79605009Y-88674575D01*
X79525201Y-88386279D01*
X79449887Y-88111130D01*
X79381879Y-87859205D01*
X79323992Y-87640579D01*
X79279040Y-87465329D01*
X79249837Y-87343531D01*
X79239197Y-87285263D01*
X79262002Y-87272907D01*
X79343205Y-87257192D01*
X79463036Y-87244728D01*
X79669585Y-87209081D01*
X79933888Y-87096693D01*
X80174140Y-86913116D01*
X80230043Y-86861403D01*
X80298804Y-86805639D01*
X80330963Y-86790958D01*
X80333280Y-86796435D01*
G37*
G36*
X63307868Y-86929504D02*
G01*
X63361684Y-86975155D01*
X63583586Y-87118587D01*
X63826215Y-87218051D01*
X64061539Y-87261212D01*
X64136634Y-87266738D01*
X64226001Y-87280138D01*
X64260969Y-87295858D01*
X64251462Y-87340124D01*
X64224944Y-87437627D01*
X64187341Y-87566071D01*
X64169944Y-87624983D01*
X64127766Y-87771319D01*
X64071371Y-87969601D01*
X64004670Y-88206001D01*
X63931573Y-88466691D01*
X63855991Y-88737842D01*
X63807299Y-88913035D01*
X63734475Y-89174938D01*
X63667547Y-89415510D01*
X63610204Y-89621486D01*
X63566140Y-89779602D01*
X63539046Y-89876596D01*
X63486470Y-90045624D01*
X63420382Y-90197541D01*
X63343542Y-90303337D01*
X63246074Y-90379982D01*
X63235521Y-90386237D01*
X63058264Y-90447290D01*
X62870464Y-90442638D01*
X62688816Y-90378036D01*
X62530015Y-90259241D01*
X62410758Y-90092008D01*
X62400504Y-90072169D01*
X62378443Y-90033263D01*
X62360405Y-89999997D01*
X62347697Y-89965680D01*
X62341626Y-89923621D01*
X62343498Y-89867129D01*
X62354620Y-89789515D01*
X62376298Y-89684088D01*
X62409840Y-89544157D01*
X62456553Y-89363031D01*
X62517743Y-89134021D01*
X62594717Y-88850436D01*
X62688781Y-88505584D01*
X62801243Y-88092777D01*
X63155092Y-86791480D01*
X63307868Y-86929504D01*
G37*
G36*
X65055437Y-86093262D02*
G01*
X64998717Y-86313416D01*
X64873682Y-86524794D01*
X64854627Y-86548490D01*
X64749343Y-86660586D01*
X64633054Y-86742194D01*
X64473556Y-86816820D01*
X64406758Y-86835081D01*
X64263335Y-86850850D01*
X64093768Y-86850680D01*
X64040663Y-86847444D01*
X63892668Y-86828649D01*
X63779986Y-86790955D01*
X63670226Y-86724728D01*
X63615284Y-86684070D01*
X63429474Y-86499301D01*
X63313929Y-86287625D01*
X63265044Y-86042975D01*
X63267013Y-85977099D01*
X63841627Y-85977099D01*
X63854198Y-86108096D01*
X63931376Y-86230478D01*
X63950008Y-86247823D01*
X64080416Y-86315607D01*
X64221061Y-86312573D01*
X64353478Y-86238374D01*
X64396288Y-86193017D01*
X64458641Y-86066066D01*
X64460055Y-85936124D01*
X64406961Y-85821116D01*
X64305794Y-85738965D01*
X64162987Y-85707599D01*
X64112419Y-85711069D01*
X63978650Y-85760720D01*
X63885749Y-85855352D01*
X63841627Y-85977099D01*
X63267013Y-85977099D01*
X63270744Y-85852241D01*
X63337747Y-85611989D01*
X63469164Y-85409166D01*
X63660086Y-85250669D01*
X63905602Y-85143394D01*
X64101173Y-85107682D01*
X64335486Y-85122190D01*
X64548276Y-85194692D01*
X64732861Y-85315650D01*
X64882553Y-85475524D01*
X64990670Y-85664777D01*
X65050526Y-85873869D01*
X65051920Y-85936124D01*
X65055437Y-86093262D01*
G37*
G36*
X80204018Y-86193426D02*
G01*
X80112753Y-86419106D01*
X79957541Y-86611323D01*
X79743306Y-86759498D01*
X79709584Y-86775863D01*
X79456493Y-86855158D01*
X79205608Y-86860697D01*
X78966517Y-86793491D01*
X78748805Y-86654552D01*
X78720869Y-86629767D01*
X78556001Y-86431682D01*
X78460060Y-86211355D01*
X78433762Y-85986689D01*
X79022560Y-85986689D01*
X79046356Y-86133694D01*
X79100927Y-86227277D01*
X79164307Y-86288101D01*
X79295625Y-86325845D01*
X79444203Y-86305141D01*
X79568713Y-86223087D01*
X79568744Y-86223053D01*
X79649195Y-86089597D01*
X79657557Y-85952578D01*
X79596759Y-85826675D01*
X79469727Y-85726570D01*
X79404037Y-85696977D01*
X79325845Y-85689059D01*
X79226609Y-85721422D01*
X79174466Y-85748079D01*
X79067889Y-85852144D01*
X79022560Y-85986689D01*
X78433762Y-85986689D01*
X78432930Y-85979578D01*
X78474494Y-85747145D01*
X78584634Y-85524849D01*
X78763233Y-85323482D01*
X78815713Y-85280290D01*
X79033483Y-85158105D01*
X79274677Y-85108758D01*
X79542348Y-85131494D01*
X79611008Y-85147580D01*
X79725332Y-85190310D01*
X79830100Y-85260590D01*
X79953659Y-85375219D01*
X79971852Y-85393570D01*
X80086855Y-85523637D01*
X80157632Y-85641554D01*
X80201522Y-85775307D01*
X80226410Y-85944865D01*
X80225715Y-85952578D01*
X80204018Y-86193426D01*
G37*
G36*
X83849662Y-79395320D02*
G01*
X83927593Y-79402934D01*
X83989379Y-79416664D01*
X84043089Y-79436271D01*
X84096789Y-79461517D01*
X84163508Y-79498467D01*
X84288913Y-79607446D01*
X84364541Y-79754178D01*
X84400794Y-79955567D01*
X84400216Y-80065103D01*
X84346504Y-80256587D01*
X84231871Y-80415412D01*
X84065981Y-80530276D01*
X83858494Y-80589877D01*
X83795096Y-80597184D01*
X83658589Y-80611978D01*
X83467858Y-80632123D01*
X83235233Y-80656327D01*
X82973042Y-80683302D01*
X82693617Y-80711756D01*
X82442547Y-80737621D01*
X82196820Y-80763855D01*
X81986812Y-80787248D01*
X81822801Y-80806622D01*
X81715066Y-80820798D01*
X81673886Y-80828600D01*
X81671640Y-80830102D01*
X81618390Y-80839802D01*
X81524627Y-80843769D01*
X81441120Y-80839282D01*
X81408441Y-80815246D01*
X81417877Y-80756915D01*
X81434172Y-80701768D01*
X81494318Y-80436280D01*
X81507449Y-80210680D01*
X81473037Y-80006559D01*
X81390553Y-79805507D01*
X81292028Y-79615605D01*
X81568202Y-79591036D01*
X81580130Y-79589969D01*
X81731985Y-79575897D01*
X81933259Y-79556637D01*
X82159136Y-79534585D01*
X82384803Y-79512140D01*
X82591283Y-79491421D01*
X82935493Y-79457332D01*
X83215154Y-79430790D01*
X83438334Y-79411557D01*
X83613100Y-79399393D01*
X83747521Y-79394060D01*
X83849662Y-79395320D01*
G37*
G36*
X64646900Y-69193466D02*
G01*
X64814411Y-69231570D01*
X64940506Y-69303574D01*
X64958445Y-69320182D01*
X65002162Y-69363237D01*
X65038626Y-69408271D01*
X65068494Y-69462123D01*
X65092426Y-69531630D01*
X65111078Y-69623632D01*
X65125108Y-69744966D01*
X65135174Y-69902473D01*
X65141933Y-70102990D01*
X65146045Y-70353357D01*
X65148165Y-70660411D01*
X65148953Y-71030991D01*
X65149065Y-71471936D01*
X65149042Y-73297112D01*
X64830600Y-73299204D01*
X64691404Y-73302489D01*
X64550647Y-73316923D01*
X64435542Y-73348245D01*
X64316724Y-73402348D01*
X64237030Y-73446540D01*
X64130486Y-73515555D01*
X64065812Y-73570453D01*
X64063628Y-73573040D01*
X64042937Y-73588306D01*
X64026950Y-73573335D01*
X64014212Y-73518743D01*
X64003267Y-73415144D01*
X63992657Y-73253154D01*
X63980928Y-73023389D01*
X63976280Y-72904755D01*
X63970289Y-72672858D01*
X63965535Y-72387677D01*
X63962156Y-72063523D01*
X63960287Y-71714703D01*
X63960065Y-71355527D01*
X63961627Y-71000304D01*
X63964590Y-70619054D01*
X63968358Y-70296682D01*
X63974061Y-70036289D01*
X63982907Y-69830168D01*
X63996101Y-69670611D01*
X64014851Y-69549908D01*
X64040363Y-69460351D01*
X64073844Y-69394232D01*
X64116500Y-69343843D01*
X64169540Y-69301475D01*
X64234169Y-69259419D01*
X64302820Y-69226159D01*
X64466771Y-69191063D01*
X64646900Y-69193466D01*
G37*
G36*
X75279158Y-72799535D02*
G01*
X75367439Y-73134106D01*
X75396054Y-73509422D01*
X75389407Y-73716190D01*
X75350808Y-73986651D01*
X75270385Y-74239721D01*
X75139735Y-74508144D01*
X75090404Y-74607111D01*
X75057471Y-74697436D01*
X75057110Y-74742536D01*
X75084563Y-74764391D01*
X75161437Y-74823552D01*
X75262766Y-74900347D01*
X75330705Y-74954722D01*
X75458637Y-75064987D01*
X75606733Y-75198924D01*
X75754840Y-75338586D01*
X76073206Y-75646024D01*
X76758488Y-75186788D01*
X76844281Y-75129283D01*
X77136718Y-74932842D01*
X77372763Y-74772885D01*
X77558653Y-74644393D01*
X77651769Y-74577466D01*
X78274936Y-74577466D01*
X78286720Y-74718374D01*
X78334515Y-74812298D01*
X78430876Y-74881215D01*
X78543414Y-74922909D01*
X78694925Y-74924152D01*
X78821548Y-74859196D01*
X78910330Y-74732072D01*
X78945109Y-74570249D01*
X78913635Y-74427840D01*
X78822269Y-74319622D01*
X78677793Y-74259379D01*
X78536483Y-74258799D01*
X78402221Y-74317315D01*
X78310073Y-74427457D01*
X78274936Y-74577466D01*
X77651769Y-74577466D01*
X77700630Y-74542347D01*
X77804933Y-74461727D01*
X77877800Y-74397513D01*
X77925471Y-74344687D01*
X77954186Y-74298227D01*
X77970184Y-74253116D01*
X77979705Y-74204333D01*
X78025372Y-74065767D01*
X78137725Y-73901495D01*
X78233291Y-73812953D01*
X78426519Y-73707770D01*
X78639623Y-73667779D01*
X78859508Y-73692591D01*
X79073079Y-73781817D01*
X79267242Y-73935067D01*
X79297561Y-73967825D01*
X79381992Y-74093782D01*
X79418708Y-74234206D01*
X79409935Y-74406073D01*
X79371153Y-74570249D01*
X79357899Y-74626359D01*
X79327901Y-74724115D01*
X79243211Y-74942256D01*
X79145544Y-75103018D01*
X79024570Y-75220881D01*
X78869961Y-75310323D01*
X78777359Y-75355447D01*
X78683236Y-75408557D01*
X78637415Y-75444385D01*
X78604905Y-75471459D01*
X78515522Y-75535859D01*
X78378368Y-75630872D01*
X78202229Y-75750483D01*
X77995890Y-75888678D01*
X77768136Y-76039445D01*
X77555854Y-76180539D01*
X77350550Y-76319870D01*
X77176082Y-76441314D01*
X77040946Y-76538855D01*
X76953636Y-76606479D01*
X76922644Y-76638170D01*
X76922685Y-76639427D01*
X76942876Y-76697484D01*
X76991205Y-76796021D01*
X77054761Y-76911525D01*
X77120633Y-77020487D01*
X77175910Y-77099392D01*
X77200889Y-77137593D01*
X77257181Y-77252365D01*
X77323075Y-77411579D01*
X77391325Y-77596209D01*
X77454681Y-77787227D01*
X77505894Y-77965606D01*
X77583639Y-78273360D01*
X77693141Y-78737392D01*
X77776994Y-79139783D01*
X77836401Y-79487099D01*
X77872567Y-79785910D01*
X77886694Y-80042781D01*
X77889772Y-80062626D01*
X77909393Y-80086262D01*
X77954575Y-80100997D01*
X78033838Y-80106812D01*
X78155700Y-80103686D01*
X78328681Y-80091598D01*
X78561298Y-80070529D01*
X78862071Y-80040458D01*
X79508336Y-79974283D01*
X79628190Y-79828878D01*
X79716467Y-79736354D01*
X79916115Y-79600895D01*
X80139013Y-79527288D01*
X80370489Y-79517216D01*
X80595866Y-79572361D01*
X80800470Y-79694408D01*
X80849562Y-79738352D01*
X80991119Y-79924118D01*
X81071434Y-80136483D01*
X81092272Y-80361808D01*
X81069058Y-80503225D01*
X81055396Y-80586450D01*
X80962571Y-80796768D01*
X80815561Y-80979122D01*
X80616129Y-81119870D01*
X80498951Y-81167768D01*
X80313120Y-81211162D01*
X80130341Y-81223421D01*
X79982341Y-81200509D01*
X79888166Y-81182091D01*
X79813890Y-81192596D01*
X79805035Y-81195403D01*
X79733202Y-81208398D01*
X79602336Y-81227693D01*
X79425489Y-81251700D01*
X79215717Y-81278831D01*
X78986071Y-81307496D01*
X78749606Y-81336109D01*
X78580609Y-81355908D01*
X78519375Y-81363082D01*
X78308431Y-81386824D01*
X78129828Y-81405750D01*
X77996620Y-81418270D01*
X77921858Y-81422796D01*
X77912974Y-81457498D01*
X77904732Y-81559945D01*
X77897760Y-81720453D01*
X77892381Y-81929293D01*
X77888916Y-82176742D01*
X77887690Y-82453071D01*
X77887343Y-82694024D01*
X77884839Y-82995730D01*
X77878591Y-83243962D01*
X77867068Y-83452882D01*
X77848737Y-83636652D01*
X77822067Y-83809434D01*
X77785525Y-83985392D01*
X77737579Y-84178688D01*
X77676697Y-84403485D01*
X77551564Y-84855753D01*
X77922286Y-84977664D01*
X78028682Y-85013402D01*
X78171982Y-85064222D01*
X78276340Y-85104625D01*
X78324436Y-85128129D01*
X78327422Y-85155039D01*
X78299824Y-85232050D01*
X78242776Y-85335005D01*
X78213651Y-85382636D01*
X78105542Y-85615545D01*
X78053049Y-85862081D01*
X78050249Y-86147229D01*
X78068531Y-86432104D01*
X77814053Y-86358307D01*
X77803735Y-86355317D01*
X77633028Y-86306055D01*
X77432383Y-86248451D01*
X77243075Y-86194355D01*
X76926576Y-86104200D01*
X76601609Y-86498018D01*
X76505424Y-86611979D01*
X76179273Y-86959253D01*
X75824483Y-87275358D01*
X75417271Y-87582063D01*
X75108359Y-87798524D01*
X75108574Y-88248882D01*
X75111053Y-88409637D01*
X75119683Y-88594865D01*
X75133027Y-88747804D01*
X75149545Y-88846005D01*
X75169216Y-88901492D01*
X75266896Y-89033378D01*
X75419681Y-89114975D01*
X75622371Y-89143017D01*
X75678177Y-89142230D01*
X75787452Y-89130561D01*
X75885215Y-89097259D01*
X75994689Y-89032611D01*
X76139100Y-88926905D01*
X76310929Y-88795745D01*
X76913414Y-88795745D01*
X77017965Y-88796146D01*
X77278028Y-88803034D01*
X77478748Y-88821228D01*
X77633244Y-88854306D01*
X77754631Y-88905845D01*
X77856024Y-88979422D01*
X77950542Y-89078615D01*
X77963301Y-89093798D01*
X78025060Y-89171046D01*
X78073648Y-89244915D01*
X78110682Y-89325480D01*
X78137778Y-89422812D01*
X78156550Y-89546984D01*
X78168615Y-89708069D01*
X78175590Y-89916139D01*
X78179089Y-90181267D01*
X78180728Y-90513526D01*
X78181616Y-90743154D01*
X78183108Y-91048174D01*
X78184863Y-91340547D01*
X78186773Y-91604134D01*
X78188729Y-91822797D01*
X78190623Y-91980395D01*
X78196993Y-92405015D01*
X78309755Y-92469167D01*
X78367756Y-92509122D01*
X78493885Y-92646677D01*
X78591784Y-92823678D01*
X78645188Y-93013723D01*
X78652036Y-93086221D01*
X78629233Y-93331863D01*
X78539435Y-93556337D01*
X78389860Y-93745871D01*
X78187724Y-93886691D01*
X78147072Y-93905023D01*
X77941410Y-93958305D01*
X77724070Y-93962592D01*
X77529383Y-93916336D01*
X77389265Y-93841740D01*
X77215947Y-93689645D01*
X77092734Y-93502753D01*
X77021761Y-93294322D01*
X77005162Y-93077608D01*
X77045073Y-92865868D01*
X77143629Y-92672360D01*
X77302964Y-92510340D01*
X77342364Y-92480404D01*
X77424196Y-92413994D01*
X77467943Y-92372085D01*
X77471416Y-92359746D01*
X77477639Y-92281145D01*
X77481632Y-92141076D01*
X77483574Y-91950204D01*
X77483643Y-91719197D01*
X77482018Y-91458722D01*
X77478879Y-91179447D01*
X77474402Y-90892039D01*
X77468768Y-90607164D01*
X77462155Y-90335490D01*
X77454741Y-90087683D01*
X77446705Y-89874412D01*
X77438225Y-89706343D01*
X77429482Y-89594143D01*
X77420652Y-89548480D01*
X77395292Y-89537380D01*
X77303410Y-89520274D01*
X77164629Y-89505919D01*
X76997577Y-89496598D01*
X76913919Y-89493782D01*
X76765306Y-89490937D01*
X76666538Y-89496439D01*
X76598498Y-89514159D01*
X76542068Y-89547964D01*
X76478132Y-89601724D01*
X76389836Y-89668443D01*
X76166778Y-89771113D01*
X75889227Y-89824520D01*
X75554091Y-89829426D01*
X75526066Y-89827848D01*
X75254828Y-89796404D01*
X75036414Y-89733774D01*
X74851676Y-89632393D01*
X74681464Y-89484697D01*
X74627833Y-89426523D01*
X74443790Y-89158050D01*
X74321666Y-88850793D01*
X74266562Y-88516659D01*
X74265030Y-88490758D01*
X74253955Y-88348046D01*
X74239744Y-88267135D01*
X74218539Y-88234541D01*
X74186480Y-88236777D01*
X74178038Y-88239866D01*
X74099555Y-88264433D01*
X73974186Y-88300587D01*
X73824848Y-88341680D01*
X73525684Y-88422167D01*
X73525684Y-89904654D01*
X73525699Y-89997969D01*
X73526282Y-90376411D01*
X73528131Y-90686553D01*
X73531818Y-90935689D01*
X73537910Y-91131111D01*
X73546979Y-91280115D01*
X73559595Y-91389994D01*
X73576326Y-91468042D01*
X73597744Y-91521552D01*
X73624419Y-91557819D01*
X73656919Y-91584135D01*
X73709876Y-91595159D01*
X73823449Y-91604320D01*
X73980822Y-91610614D01*
X74165258Y-91613087D01*
X74247203Y-91613629D01*
X74525823Y-91625144D01*
X74745395Y-91654324D01*
X74919493Y-91704774D01*
X75061691Y-91780095D01*
X75185562Y-91883891D01*
X75231929Y-91934444D01*
X75357292Y-92138762D01*
X75431405Y-92394206D01*
X75455775Y-92705352D01*
X75446277Y-92888177D01*
X75401524Y-93080802D01*
X75317266Y-93216227D01*
X75190417Y-93301381D01*
X75137974Y-93321235D01*
X75029649Y-93338325D01*
X74905709Y-93313830D01*
X74845696Y-93292274D01*
X74733153Y-93218024D01*
X74659386Y-93102775D01*
X74619020Y-92935592D01*
X74606679Y-92705537D01*
X74606599Y-92670259D01*
X74603141Y-92522124D01*
X74591946Y-92430628D01*
X74569395Y-92378499D01*
X74531869Y-92348471D01*
X74470535Y-92333565D01*
X74347715Y-92320557D01*
X74183373Y-92311750D01*
X73995852Y-92308511D01*
X73893919Y-92308297D01*
X73722607Y-92305269D01*
X73599840Y-92296142D01*
X73506080Y-92277766D01*
X73421790Y-92246986D01*
X73327432Y-92200650D01*
X73249487Y-92156049D01*
X73101318Y-92036801D01*
X72965958Y-91868980D01*
X72811550Y-91645172D01*
X72792249Y-90114303D01*
X72788732Y-89838437D01*
X72784159Y-89504547D01*
X72779724Y-89235896D01*
X72774982Y-89025447D01*
X72769488Y-88866160D01*
X72762794Y-88750998D01*
X72754457Y-88672920D01*
X72744029Y-88624889D01*
X72731065Y-88599866D01*
X72715119Y-88590812D01*
X72695745Y-88590689D01*
X72626393Y-88597241D01*
X72503322Y-88608908D01*
X72357979Y-88622713D01*
X72097416Y-88647482D01*
X72097680Y-90506948D01*
X72097944Y-92366413D01*
X72234940Y-92459719D01*
X72401661Y-92614254D01*
X72514805Y-92808584D01*
X72570168Y-93025465D01*
X72567931Y-93250618D01*
X72508275Y-93469765D01*
X72391383Y-93668628D01*
X72217438Y-93832929D01*
X72125343Y-93892209D01*
X72036244Y-93928890D01*
X71928457Y-93945309D01*
X71772807Y-93949088D01*
X71649788Y-93946891D01*
X71528033Y-93933263D01*
X71432105Y-93900876D01*
X71332541Y-93842603D01*
X71293303Y-93815424D01*
X71110723Y-93640942D01*
X70995841Y-93430060D01*
X70946470Y-93179021D01*
X70944279Y-93080942D01*
X70979299Y-92861352D01*
X71077888Y-92670322D01*
X71246845Y-92492314D01*
X71402584Y-92359007D01*
X71402584Y-90505549D01*
X71402584Y-88652091D01*
X71199924Y-88627749D01*
X71131476Y-88620245D01*
X70985881Y-88608039D01*
X70871809Y-88603071D01*
X70746353Y-88602735D01*
X70746137Y-90021353D01*
X70745831Y-90212569D01*
X70743620Y-90568841D01*
X70739427Y-90883356D01*
X70733434Y-91149026D01*
X70725820Y-91358762D01*
X70716765Y-91505479D01*
X70706450Y-91582087D01*
X70682031Y-91655674D01*
X70565654Y-91872665D01*
X70400682Y-92063278D01*
X70207394Y-92202310D01*
X70149829Y-92231542D01*
X70066698Y-92266997D01*
X69981200Y-92289516D01*
X69874631Y-92302005D01*
X69728283Y-92307368D01*
X69523449Y-92308511D01*
X69517757Y-92308513D01*
X69326977Y-92311796D01*
X69159892Y-92320405D01*
X69034332Y-92333058D01*
X68968131Y-92348471D01*
X68962803Y-92351430D01*
X68926852Y-92383652D01*
X68905808Y-92440446D01*
X68895927Y-92539324D01*
X68893465Y-92697804D01*
X68893062Y-92746865D01*
X68876659Y-92962416D01*
X68832647Y-93117881D01*
X68756082Y-93225015D01*
X68642021Y-93295567D01*
X68591830Y-93312301D01*
X68428495Y-93318291D01*
X68271643Y-93260199D01*
X68144416Y-93145025D01*
X68123888Y-93115373D01*
X68093016Y-93051488D01*
X68076072Y-92969057D01*
X68070082Y-92848580D01*
X68072074Y-92670561D01*
X68089055Y-92417721D01*
X68134771Y-92195839D01*
X68213486Y-92018855D01*
X68330035Y-91871802D01*
X68369191Y-91833759D01*
X68457853Y-91760126D01*
X68552248Y-91706601D01*
X68666670Y-91669307D01*
X68815413Y-91644367D01*
X69012768Y-91627905D01*
X69273031Y-91616043D01*
X69307283Y-91614783D01*
X69542115Y-91604678D01*
X69712498Y-91591007D01*
X69829748Y-91568653D01*
X69905181Y-91532494D01*
X69950113Y-91477412D01*
X69975862Y-91398287D01*
X69993744Y-91290000D01*
X69997749Y-91236826D01*
X70001946Y-91107881D01*
X70005046Y-90919856D01*
X70006975Y-90682908D01*
X70007657Y-90407193D01*
X70007017Y-90102868D01*
X70004978Y-89780091D01*
X69993617Y-88429027D01*
X69819909Y-88385645D01*
X69764700Y-88371478D01*
X69604078Y-88327861D01*
X69448099Y-88282924D01*
X69249997Y-88223585D01*
X69233844Y-88561434D01*
X69212645Y-88773041D01*
X69137957Y-89050328D01*
X69005607Y-89291839D01*
X68808535Y-89513370D01*
X68684034Y-89623357D01*
X68562764Y-89708442D01*
X68436961Y-89764682D01*
X68288510Y-89797841D01*
X68099300Y-89813681D01*
X67851216Y-89817965D01*
X67736594Y-89817443D01*
X67522125Y-89809434D01*
X67360199Y-89788383D01*
X67233866Y-89749909D01*
X67126172Y-89689629D01*
X67020167Y-89603162D01*
X67002831Y-89588962D01*
X66945190Y-89559764D01*
X66857755Y-89540445D01*
X66724732Y-89528349D01*
X66530324Y-89520823D01*
X66386076Y-89518404D01*
X66222970Y-89522202D01*
X66120300Y-89535796D01*
X66068212Y-89560024D01*
X66065051Y-89563797D01*
X66050668Y-89602447D01*
X66038767Y-89678580D01*
X66029026Y-89798816D01*
X66021122Y-89969775D01*
X66014732Y-90198076D01*
X66009535Y-90490339D01*
X66005206Y-90853185D01*
X66003604Y-91017534D01*
X66000750Y-91372588D01*
X66000024Y-91661043D01*
X66002112Y-91890446D01*
X66007705Y-92068340D01*
X66017491Y-92202269D01*
X66032159Y-92299777D01*
X66052398Y-92368409D01*
X66078897Y-92415708D01*
X66112344Y-92449220D01*
X66153429Y-92476488D01*
X66231613Y-92539119D01*
X66339826Y-92675313D01*
X66428872Y-92841981D01*
X66482076Y-93011951D01*
X66490998Y-93080971D01*
X66473481Y-93309220D01*
X66390722Y-93529090D01*
X66249839Y-93718910D01*
X66218135Y-93749559D01*
X66031157Y-93885568D01*
X65827171Y-93953387D01*
X65587330Y-93959872D01*
X65430718Y-93930337D01*
X65231918Y-93837173D01*
X65069731Y-93695615D01*
X64948406Y-93518209D01*
X64872198Y-93317501D01*
X64845358Y-93106037D01*
X64872138Y-92896363D01*
X64956790Y-92701024D01*
X65103567Y-92532566D01*
X65127411Y-92512903D01*
X65210883Y-92450003D01*
X65265548Y-92417664D01*
X65274088Y-92400482D01*
X65285043Y-92323024D01*
X65294245Y-92181128D01*
X65301780Y-91972244D01*
X65307732Y-91693821D01*
X65312186Y-91343307D01*
X65315226Y-90918152D01*
X65316058Y-90757848D01*
X65318143Y-90408153D01*
X65320589Y-90124515D01*
X65323838Y-89898974D01*
X65328331Y-89723570D01*
X65334509Y-89590343D01*
X65342813Y-89491333D01*
X65353685Y-89418580D01*
X65367565Y-89364125D01*
X65384895Y-89320007D01*
X65406115Y-89278267D01*
X65422388Y-89249641D01*
X65508617Y-89123526D01*
X65599124Y-89019753D01*
X65618349Y-89001834D01*
X65713463Y-88925567D01*
X65815909Y-88870322D01*
X65939626Y-88832908D01*
X66098556Y-88810134D01*
X66306641Y-88798810D01*
X66577822Y-88795745D01*
X67159795Y-88795745D01*
X67413489Y-88969453D01*
X67509485Y-89033011D01*
X67631061Y-89100729D01*
X67732696Y-89134184D01*
X67838320Y-89143161D01*
X67964072Y-89132619D01*
X68157814Y-89062154D01*
X68311029Y-88926416D01*
X68334307Y-88894051D01*
X68359951Y-88841373D01*
X68376603Y-88770119D01*
X68386136Y-88665635D01*
X68390425Y-88513269D01*
X68391344Y-88298366D01*
X68391047Y-87772796D01*
X68245942Y-87689972D01*
X68091179Y-87593824D01*
X67807602Y-87385199D01*
X67513435Y-87133603D01*
X67225365Y-86854635D01*
X66960080Y-86563893D01*
X66734268Y-86276976D01*
X66675298Y-86196691D01*
X66616866Y-86122317D01*
X66588723Y-86093617D01*
X66581038Y-86095249D01*
X66515483Y-86112859D01*
X66394688Y-86146741D01*
X66232201Y-86193071D01*
X66041575Y-86248024D01*
X65967040Y-86269518D01*
X65782406Y-86321862D01*
X65629127Y-86364042D01*
X65521442Y-86392189D01*
X65473587Y-86402432D01*
X65465139Y-86391851D01*
X65451464Y-86321819D01*
X65441996Y-86200662D01*
X65438407Y-86045365D01*
X65435455Y-85925341D01*
X65397277Y-85638594D01*
X65313024Y-85405196D01*
X65180185Y-85217087D01*
X65099248Y-85130933D01*
X65197109Y-85093727D01*
X65219057Y-85085724D01*
X65320863Y-85051154D01*
X65464227Y-85004487D01*
X65625452Y-84953481D01*
X65955934Y-84850442D01*
X65900541Y-84709643D01*
X65879355Y-84647986D01*
X65839422Y-84512029D01*
X65793549Y-84339790D01*
X65748030Y-84154193D01*
X65722001Y-84040133D01*
X65699627Y-83929706D01*
X65682506Y-83821383D01*
X65669938Y-83703834D01*
X65661223Y-83565730D01*
X65655663Y-83395740D01*
X65652557Y-83182537D01*
X65651207Y-82914789D01*
X65650912Y-82581169D01*
X65650782Y-82340192D01*
X65649932Y-82059555D01*
X65648481Y-81905319D01*
X66751247Y-81905319D01*
X66751277Y-82168641D01*
X66751467Y-82625123D01*
X66751995Y-83013984D01*
X66753060Y-83341548D01*
X66754861Y-83614144D01*
X66757595Y-83838096D01*
X66761460Y-84019731D01*
X66766656Y-84165375D01*
X66773379Y-84281354D01*
X66781829Y-84373996D01*
X66792203Y-84449625D01*
X66804700Y-84514568D01*
X66819518Y-84575152D01*
X66836855Y-84637702D01*
X66915226Y-84876606D01*
X67052989Y-85211516D01*
X67215358Y-85537747D01*
X67386498Y-85821201D01*
X67435035Y-85890949D01*
X67777327Y-86306704D01*
X68178138Y-86679948D01*
X68629165Y-87005311D01*
X69122107Y-87277427D01*
X69648661Y-87490929D01*
X70200526Y-87640450D01*
X70222220Y-87644865D01*
X70333679Y-87665336D01*
X70447726Y-87681374D01*
X70575017Y-87693455D01*
X70726213Y-87702056D01*
X70911970Y-87707653D01*
X71142949Y-87710723D01*
X71429806Y-87711741D01*
X71783201Y-87711185D01*
X72044325Y-87710081D01*
X72356245Y-87707406D01*
X72608448Y-87702994D01*
X72811190Y-87696359D01*
X72974728Y-87687016D01*
X73109317Y-87674480D01*
X73225214Y-87658265D01*
X73332675Y-87637888D01*
X73407764Y-87621304D01*
X73980714Y-87450647D01*
X74536915Y-87206552D01*
X75069757Y-86891859D01*
X75133975Y-86846977D01*
X75371011Y-86658389D01*
X75622075Y-86429174D01*
X75867414Y-86179147D01*
X76087273Y-85928125D01*
X76261900Y-85695924D01*
X76361198Y-85542195D01*
X76619646Y-85073675D01*
X76829625Y-84584103D01*
X76984063Y-84091571D01*
X77075885Y-83614170D01*
X77085206Y-83498837D01*
X77093327Y-83316143D01*
X77100171Y-83076311D01*
X77105743Y-82788936D01*
X77110044Y-82463613D01*
X77113079Y-82109937D01*
X77114850Y-81737503D01*
X77115360Y-81355908D01*
X77114613Y-80974744D01*
X77112611Y-80603609D01*
X77111172Y-80448105D01*
X79872721Y-80448105D01*
X79890827Y-80588231D01*
X79969589Y-80706310D01*
X80007562Y-80733791D01*
X80130925Y-80779487D01*
X80266761Y-80790047D01*
X80377508Y-80760482D01*
X80405593Y-80742135D01*
X80508119Y-80631835D01*
X80550835Y-80503225D01*
X80538321Y-80373529D01*
X80475158Y-80259970D01*
X80365925Y-80179774D01*
X80215205Y-80150164D01*
X80197275Y-80150646D01*
X80085543Y-80166821D01*
X80007445Y-80198416D01*
X79913523Y-80309342D01*
X79872721Y-80448105D01*
X77111172Y-80448105D01*
X77109358Y-80252097D01*
X77104857Y-79929802D01*
X77099110Y-79646321D01*
X77092122Y-79411249D01*
X77083894Y-79234180D01*
X77074431Y-79124709D01*
X77010644Y-78762660D01*
X76857449Y-78203378D01*
X76644776Y-77674231D01*
X76377186Y-77185891D01*
X76059240Y-76749034D01*
X75921654Y-76595550D01*
X75751029Y-76428027D01*
X75579875Y-76280561D01*
X75420618Y-76163015D01*
X75285686Y-76085255D01*
X75187508Y-76057143D01*
X75076193Y-76082705D01*
X74992761Y-76158010D01*
X74952293Y-76264438D01*
X74957406Y-76383104D01*
X75010716Y-76495126D01*
X75114839Y-76581618D01*
X75117746Y-76583140D01*
X75236606Y-76665213D01*
X75383987Y-76795602D01*
X75545612Y-76959094D01*
X75707203Y-77140477D01*
X75854481Y-77324540D01*
X75973167Y-77496070D01*
X76009435Y-77555426D01*
X76203448Y-77920894D01*
X76357875Y-78310128D01*
X76483119Y-78748688D01*
X76578612Y-79143425D01*
X76564874Y-81470117D01*
X76551136Y-83796808D01*
X76453416Y-84105623D01*
X76451453Y-84111811D01*
X76387889Y-84300458D01*
X76315398Y-84498963D01*
X76249287Y-84665349D01*
X76007146Y-85143961D01*
X75697797Y-85594126D01*
X75332751Y-85999023D01*
X74918457Y-86353824D01*
X74461362Y-86653698D01*
X73967916Y-86893817D01*
X73444566Y-87069349D01*
X72897762Y-87175467D01*
X72804415Y-87185100D01*
X72590514Y-87198361D01*
X72330834Y-87206426D01*
X72039034Y-87209589D01*
X71728775Y-87208139D01*
X71413716Y-87202368D01*
X71107517Y-87192568D01*
X70823839Y-87179029D01*
X70576342Y-87162043D01*
X70378685Y-87141901D01*
X70244529Y-87118895D01*
X70035225Y-87062401D01*
X69488127Y-86867602D01*
X68993669Y-86618159D01*
X68553105Y-86315021D01*
X68167689Y-85959138D01*
X67838677Y-85551458D01*
X67567322Y-85092931D01*
X67528257Y-85014755D01*
X67475853Y-84906874D01*
X67431025Y-84805779D01*
X67393219Y-84705008D01*
X67361878Y-84598101D01*
X67336450Y-84478598D01*
X67316379Y-84340037D01*
X67301111Y-84175958D01*
X67290091Y-83979900D01*
X67282766Y-83745404D01*
X67278580Y-83466007D01*
X67276979Y-83135251D01*
X67277408Y-82746673D01*
X67279314Y-82293814D01*
X67282140Y-81770213D01*
X67282675Y-81674420D01*
X67285579Y-81190305D01*
X67288551Y-80776120D01*
X67289779Y-80642967D01*
X69472492Y-80642967D01*
X69472775Y-80644997D01*
X69501328Y-80692125D01*
X69567542Y-80777543D01*
X69658373Y-80884316D01*
X69690859Y-80921316D01*
X69785604Y-81030140D01*
X69918808Y-81183831D01*
X70082782Y-81373495D01*
X70269842Y-81590237D01*
X70472299Y-81825163D01*
X70682468Y-82069377D01*
X71520683Y-83044073D01*
X70660646Y-83044217D01*
X69800608Y-83044361D01*
X69931769Y-83124323D01*
X69938505Y-83128399D01*
X69987647Y-83157137D01*
X70063035Y-83199907D01*
X70168826Y-83258991D01*
X70309182Y-83336670D01*
X70488262Y-83435225D01*
X70710225Y-83556940D01*
X70979232Y-83704095D01*
X71299443Y-83878971D01*
X71675016Y-84083852D01*
X72110112Y-84321017D01*
X72608891Y-84592750D01*
X72804558Y-84699359D01*
X73022040Y-84817934D01*
X73209427Y-84920188D01*
X73357290Y-85000975D01*
X73456201Y-85055145D01*
X73496733Y-85077551D01*
X73520326Y-85078952D01*
X73521449Y-85042561D01*
X73491419Y-84991535D01*
X73482486Y-84978397D01*
X73438912Y-84907329D01*
X73364219Y-84782386D01*
X73263087Y-84611596D01*
X73140200Y-84402989D01*
X73000238Y-84164594D01*
X72847884Y-83904441D01*
X72687820Y-83630558D01*
X72524728Y-83350976D01*
X72363289Y-83073724D01*
X72208186Y-82806831D01*
X72064101Y-82558326D01*
X71935715Y-82336239D01*
X71827710Y-82148600D01*
X71744769Y-82003437D01*
X71691573Y-81908781D01*
X71672804Y-81872659D01*
X71677792Y-81872138D01*
X71740451Y-81871076D01*
X71867456Y-81870561D01*
X72049369Y-81870585D01*
X72276751Y-81871137D01*
X72540165Y-81872209D01*
X72830172Y-81873792D01*
X72935056Y-81874325D01*
X73218022Y-81874632D01*
X73471851Y-81873284D01*
X73686931Y-81870437D01*
X73853649Y-81866251D01*
X73962393Y-81860883D01*
X74003551Y-81854491D01*
X73998526Y-81829127D01*
X73962522Y-81747964D01*
X73899721Y-81626794D01*
X73817625Y-81480699D01*
X73781950Y-81418922D01*
X73694423Y-81265888D01*
X73579094Y-81063041D01*
X73442237Y-80821466D01*
X73290129Y-80552249D01*
X73129047Y-80266475D01*
X72965265Y-79975228D01*
X72870840Y-79807229D01*
X72707341Y-79516894D01*
X72549897Y-79237965D01*
X72404842Y-78981632D01*
X72278514Y-78759085D01*
X72177247Y-78581513D01*
X72107377Y-78460106D01*
X71899904Y-78103039D01*
X70993095Y-78103039D01*
X70754556Y-78103451D01*
X70517372Y-78105391D01*
X70343146Y-78109351D01*
X70223946Y-78115802D01*
X70151836Y-78125211D01*
X70118884Y-78138047D01*
X70117155Y-78154778D01*
X70125518Y-78168439D01*
X70174772Y-78246519D01*
X70257093Y-78375540D01*
X70365918Y-78545321D01*
X70494680Y-78745677D01*
X70636815Y-78966426D01*
X70785757Y-79197386D01*
X70934942Y-79428373D01*
X71077805Y-79649205D01*
X71207780Y-79849698D01*
X71318303Y-80019669D01*
X71402808Y-80148936D01*
X71411407Y-80162051D01*
X71511937Y-80318962D01*
X71594224Y-80453768D01*
X71649979Y-80552488D01*
X71670913Y-80601143D01*
X71660166Y-80612769D01*
X71612079Y-80623850D01*
X71519413Y-80631420D01*
X71375653Y-80635649D01*
X71174282Y-80636709D01*
X70908784Y-80634771D01*
X70572644Y-80630006D01*
X70513433Y-80629081D01*
X70235688Y-80625982D01*
X69986743Y-80625200D01*
X69776274Y-80626621D01*
X69613958Y-80630132D01*
X69509472Y-80635619D01*
X69472492Y-80642967D01*
X67289779Y-80642967D01*
X67291782Y-80425708D01*
X67295463Y-80132914D01*
X67299783Y-79891580D01*
X67304934Y-79695550D01*
X67311105Y-79538668D01*
X67318488Y-79414776D01*
X67327272Y-79317719D01*
X67337648Y-79241340D01*
X67349806Y-79179481D01*
X67363938Y-79125988D01*
X67507655Y-78740583D01*
X67718104Y-78358153D01*
X67978524Y-78023132D01*
X68281987Y-77745932D01*
X68375986Y-77679200D01*
X68613221Y-77537948D01*
X68873582Y-77411949D01*
X69130320Y-77313433D01*
X69356687Y-77254627D01*
X69384259Y-77250659D01*
X69510211Y-77240427D01*
X69704331Y-77232318D01*
X69968120Y-77226312D01*
X70303079Y-77222391D01*
X70710711Y-77220534D01*
X71192518Y-77220721D01*
X71750000Y-77222932D01*
X73892401Y-77234498D01*
X74183262Y-77376712D01*
X74342221Y-77463712D01*
X74653358Y-77697282D01*
X74920676Y-77991031D01*
X75140237Y-78340185D01*
X75308100Y-78739970D01*
X75397872Y-79010182D01*
X75397872Y-81306991D01*
X75397912Y-81585471D01*
X75397923Y-81854491D01*
X75397930Y-82041141D01*
X75397309Y-82430157D01*
X75395383Y-82759350D01*
X75391488Y-83035552D01*
X75384955Y-83265593D01*
X75375119Y-83456304D01*
X75361313Y-83614516D01*
X75342871Y-83747061D01*
X75319127Y-83860769D01*
X75289415Y-83962471D01*
X75253068Y-84058997D01*
X75209420Y-84157180D01*
X75157805Y-84263849D01*
X75097555Y-84385836D01*
X75084094Y-84412917D01*
X74838562Y-84818502D01*
X74537483Y-85170874D01*
X74182835Y-85468055D01*
X73776596Y-85708064D01*
X73624742Y-85780818D01*
X73484594Y-85842383D01*
X73352179Y-85891024D01*
X73216880Y-85928252D01*
X73068080Y-85955578D01*
X72895164Y-85974515D01*
X72687514Y-85986572D01*
X72434514Y-85993263D01*
X72125549Y-85996098D01*
X71750000Y-85996588D01*
X71425880Y-85995964D01*
X71106690Y-85993190D01*
X70845415Y-85986831D01*
X70631626Y-85975438D01*
X70454893Y-85957561D01*
X70304785Y-85931749D01*
X70170873Y-85896552D01*
X70042725Y-85850520D01*
X69909913Y-85792201D01*
X69762006Y-85720147D01*
X69601036Y-85633300D01*
X69235506Y-85379390D01*
X68926141Y-85077137D01*
X68676888Y-84731632D01*
X68491693Y-84347961D01*
X68374504Y-83931215D01*
X68335579Y-83758891D01*
X68287824Y-83613877D01*
X68239977Y-83531483D01*
X68222451Y-83515586D01*
X68106642Y-83463748D01*
X67982777Y-83475773D01*
X67878550Y-83550226D01*
X67862390Y-83571413D01*
X67828871Y-83639436D01*
X67819532Y-83729056D01*
X67830264Y-83867243D01*
X67878757Y-84154989D01*
X68013241Y-84585572D01*
X68215344Y-84991332D01*
X68479977Y-85365467D01*
X68802052Y-85701178D01*
X69176481Y-85991662D01*
X69598175Y-86230120D01*
X69741553Y-86296117D01*
X69907934Y-86364995D01*
X70068693Y-86419373D01*
X70235661Y-86461149D01*
X70420667Y-86492217D01*
X70635544Y-86514473D01*
X70892122Y-86529814D01*
X71202232Y-86540135D01*
X71577705Y-86547332D01*
X71614158Y-86547874D01*
X72012534Y-86551532D01*
X72346515Y-86549142D01*
X72627788Y-86539555D01*
X72868040Y-86521623D01*
X73078956Y-86494199D01*
X73272224Y-86456133D01*
X73459528Y-86406278D01*
X73652556Y-86343486D01*
X73861282Y-86260347D01*
X74246564Y-86055190D01*
X74617536Y-85793803D01*
X74956844Y-85489130D01*
X75247134Y-85154115D01*
X75314446Y-85059006D01*
X75470816Y-84800253D01*
X75620988Y-84504721D01*
X75751699Y-84199733D01*
X75849688Y-83912614D01*
X75854673Y-83895207D01*
X75872401Y-83831094D01*
X75887429Y-83768556D01*
X75899978Y-83701027D01*
X75910273Y-83621942D01*
X75918536Y-83524737D01*
X75924991Y-83402847D01*
X75929861Y-83249708D01*
X75933369Y-83058753D01*
X75935739Y-82823419D01*
X75937193Y-82537141D01*
X75937956Y-82193353D01*
X75938250Y-81785491D01*
X75938298Y-81306991D01*
X75938319Y-81059263D01*
X75938255Y-80593751D01*
X75937492Y-80195347D01*
X75935359Y-79857214D01*
X75931188Y-79572520D01*
X75924307Y-79334427D01*
X75914048Y-79136102D01*
X75899739Y-78970710D01*
X75880712Y-78831415D01*
X75856297Y-78711383D01*
X75825822Y-78603779D01*
X75788620Y-78501768D01*
X75744018Y-78398515D01*
X75691349Y-78287184D01*
X75629941Y-78160942D01*
X75395313Y-77756232D01*
X75114670Y-77412324D01*
X74790227Y-77130942D01*
X74424107Y-76913617D01*
X74018433Y-76761882D01*
X73575327Y-76677271D01*
X73565834Y-76676262D01*
X73401475Y-76664304D01*
X73171171Y-76654829D01*
X72885348Y-76647857D01*
X72554434Y-76643407D01*
X72188855Y-76641501D01*
X71799037Y-76642158D01*
X71395409Y-76645397D01*
X70988397Y-76651240D01*
X70588427Y-76659705D01*
X70205927Y-76670813D01*
X70104957Y-76674215D01*
X69838879Y-76683689D01*
X69632444Y-76692881D01*
X69472410Y-76703482D01*
X69345538Y-76717177D01*
X69238587Y-76735655D01*
X69138318Y-76760604D01*
X69031489Y-76793711D01*
X68904860Y-76836664D01*
X68779501Y-76881288D01*
X68489567Y-77002042D01*
X68241082Y-77138522D01*
X68008227Y-77306222D01*
X67765183Y-77520637D01*
X67442635Y-77867879D01*
X67167286Y-78266876D01*
X66959991Y-78699974D01*
X66818364Y-79171336D01*
X66817095Y-79177072D01*
X66803416Y-79245925D01*
X66791743Y-79322559D01*
X66781920Y-79413285D01*
X66773794Y-79524416D01*
X66767209Y-79662261D01*
X66762010Y-79833132D01*
X66758042Y-80043340D01*
X66755150Y-80299196D01*
X66753849Y-80502519D01*
X66753180Y-80607011D01*
X66751976Y-80973096D01*
X66751383Y-81403761D01*
X66751247Y-81905319D01*
X65648481Y-81905319D01*
X65647889Y-81842407D01*
X65644195Y-81680712D01*
X65638392Y-81566434D01*
X65630023Y-81491540D01*
X65618630Y-81447992D01*
X65603755Y-81427756D01*
X65584942Y-81422796D01*
X65564131Y-81422194D01*
X65463854Y-81414695D01*
X65311204Y-81399865D01*
X65119093Y-81379270D01*
X64900434Y-81354481D01*
X64668139Y-81327064D01*
X64435120Y-81298588D01*
X64214290Y-81270621D01*
X64018562Y-81244732D01*
X63860847Y-81222488D01*
X63754058Y-81205459D01*
X63711107Y-81195212D01*
X63672553Y-81187043D01*
X63576707Y-81190208D01*
X63449268Y-81206402D01*
X63302658Y-81220966D01*
X63051369Y-81192664D01*
X62826120Y-81091775D01*
X62624990Y-80917626D01*
X62472454Y-80703688D01*
X62387712Y-80474810D01*
X62387363Y-80467151D01*
X62931431Y-80467151D01*
X62956130Y-80599419D01*
X63043864Y-80717228D01*
X63056113Y-80727380D01*
X63194764Y-80795262D01*
X63340734Y-80787809D01*
X63486248Y-80705231D01*
X63553836Y-80631004D01*
X63604356Y-80502519D01*
X63594153Y-80373172D01*
X63529915Y-80259861D01*
X63418329Y-80179484D01*
X63266082Y-80148936D01*
X63165248Y-80163337D01*
X63043017Y-80231137D01*
X62962736Y-80338399D01*
X62931431Y-80467151D01*
X62387363Y-80467151D01*
X62377139Y-80242809D01*
X62441978Y-80013830D01*
X62542579Y-79846185D01*
X62711848Y-79678129D01*
X62915534Y-79564497D01*
X63139369Y-79512731D01*
X63369088Y-79530271D01*
X63534237Y-79581841D01*
X63729994Y-79688888D01*
X63861447Y-79828628D01*
X63865859Y-79835673D01*
X63913284Y-79911231D01*
X63937445Y-79949406D01*
X63958074Y-79955138D01*
X64043063Y-79968600D01*
X64180419Y-79986768D01*
X64355753Y-80007974D01*
X64554676Y-80030551D01*
X64762799Y-80052831D01*
X64965733Y-80073147D01*
X65149088Y-80089831D01*
X65158729Y-80090654D01*
X65314859Y-80105444D01*
X65451030Y-80120756D01*
X65538731Y-80133403D01*
X65638860Y-80152423D01*
X65663563Y-79693010D01*
X65669075Y-79613572D01*
X65697295Y-79368926D01*
X65742405Y-79091131D01*
X65801234Y-78792349D01*
X65870609Y-78484744D01*
X65947358Y-78180478D01*
X66028309Y-77891716D01*
X66110290Y-77630619D01*
X66190129Y-77409351D01*
X66264654Y-77240075D01*
X66330693Y-77134954D01*
X66361714Y-77095024D01*
X66384347Y-77048680D01*
X66397125Y-77016638D01*
X66441190Y-76934876D01*
X66505837Y-76825901D01*
X66556481Y-76734983D01*
X66591968Y-76646956D01*
X66590878Y-76603360D01*
X66554542Y-76578277D01*
X66462429Y-76514652D01*
X66323799Y-76418881D01*
X66147415Y-76297019D01*
X65942041Y-76155121D01*
X65716441Y-75999240D01*
X65520638Y-75864857D01*
X65293155Y-75710991D01*
X65085319Y-75572783D01*
X64908027Y-75457392D01*
X64772173Y-75371980D01*
X64688652Y-75323708D01*
X64643213Y-75300201D01*
X64494392Y-75212279D01*
X64384298Y-75119072D01*
X64299243Y-75003021D01*
X64225537Y-74846567D01*
X64149489Y-74632150D01*
X64135265Y-74587859D01*
X64134559Y-74585152D01*
X64570061Y-74585152D01*
X64592798Y-74690871D01*
X64656915Y-74800472D01*
X64753590Y-74879085D01*
X64890364Y-74920920D01*
X65027617Y-74905331D01*
X65147614Y-74838788D01*
X65232618Y-74727760D01*
X65264894Y-74578715D01*
X65240130Y-74475633D01*
X65159203Y-74361064D01*
X65044023Y-74276096D01*
X64917477Y-74242857D01*
X64813988Y-74264906D01*
X64693484Y-74343287D01*
X64604669Y-74457430D01*
X64570061Y-74585152D01*
X64134559Y-74585152D01*
X64085542Y-74397166D01*
X64074189Y-74249847D01*
X64101834Y-74125807D01*
X64169106Y-74004949D01*
X64284253Y-73877707D01*
X64475094Y-73755091D01*
X64694884Y-73684611D01*
X64923333Y-73672146D01*
X65140151Y-73723575D01*
X65240160Y-73771646D01*
X65386008Y-73883496D01*
X65485118Y-74036344D01*
X65550598Y-74246903D01*
X65564531Y-74281054D01*
X65616616Y-74345824D01*
X65712477Y-74431401D01*
X65859536Y-74544180D01*
X65908061Y-74578715D01*
X66065210Y-74690558D01*
X66084954Y-74704309D01*
X66308965Y-74860879D01*
X66554962Y-75033639D01*
X66794458Y-75202545D01*
X66998965Y-75347551D01*
X67439875Y-75661439D01*
X67693798Y-75404806D01*
X67718224Y-75380311D01*
X67876310Y-75227980D01*
X68047443Y-75071107D01*
X68198632Y-74940063D01*
X68242015Y-74903740D01*
X68348041Y-74811664D01*
X68421835Y-74742615D01*
X68449507Y-74709366D01*
X68449313Y-74707724D01*
X68430116Y-74658359D01*
X68385660Y-74561346D01*
X68324699Y-74435866D01*
X68263425Y-74300014D01*
X68189951Y-74107425D01*
X68136596Y-73934042D01*
X68100038Y-73727057D01*
X68095273Y-73389647D01*
X68148847Y-73046239D01*
X68256765Y-72718449D01*
X68284780Y-72667016D01*
X69560762Y-72667016D01*
X69566301Y-72859397D01*
X69630465Y-73039860D01*
X69750344Y-73192737D01*
X69923022Y-73302361D01*
X69928169Y-73304489D01*
X70130540Y-73352990D01*
X70318152Y-73336198D01*
X70483605Y-73265041D01*
X70619496Y-73150441D01*
X70718425Y-73003327D01*
X70772989Y-72834623D01*
X70775789Y-72655254D01*
X70767342Y-72628414D01*
X72726112Y-72628414D01*
X72726885Y-72655254D01*
X72731650Y-72820795D01*
X72795815Y-73001258D01*
X72915693Y-73154136D01*
X73088371Y-73263759D01*
X73093519Y-73265888D01*
X73295890Y-73314388D01*
X73483502Y-73297597D01*
X73648954Y-73226439D01*
X73784846Y-73111840D01*
X73883774Y-72964725D01*
X73938339Y-72796021D01*
X73941138Y-72616652D01*
X73884771Y-72437544D01*
X73761836Y-72269623D01*
X73658755Y-72184350D01*
X73470598Y-72099201D01*
X73273203Y-72085030D01*
X73079774Y-72141837D01*
X72903513Y-72269623D01*
X72902569Y-72270569D01*
X72782114Y-72439782D01*
X72726112Y-72628414D01*
X70767342Y-72628414D01*
X70719422Y-72476146D01*
X70596487Y-72308224D01*
X70493406Y-72222952D01*
X70305249Y-72137802D01*
X70107854Y-72123631D01*
X69914424Y-72180439D01*
X69738164Y-72308224D01*
X69737220Y-72309170D01*
X69616764Y-72478384D01*
X69560762Y-72667016D01*
X68284780Y-72667016D01*
X68415030Y-72427891D01*
X68445013Y-72383886D01*
X68514229Y-72272994D01*
X68539333Y-72204582D01*
X68522887Y-72164505D01*
X68467455Y-72138616D01*
X68419999Y-72115432D01*
X68313678Y-72034914D01*
X68190053Y-71917801D01*
X68065535Y-71781370D01*
X67956534Y-71642896D01*
X67879462Y-71519652D01*
X67768451Y-71261683D01*
X67686894Y-70970678D01*
X67658207Y-70703784D01*
X67656431Y-70590514D01*
X67643804Y-70526504D01*
X67609427Y-70502266D01*
X67542401Y-70498480D01*
X67426596Y-70498480D01*
X67426596Y-70035258D01*
X67426596Y-69572036D01*
X67928420Y-69572036D01*
X68430243Y-69572036D01*
X68430243Y-70035258D01*
X68430243Y-70498480D01*
X68309107Y-70498480D01*
X68187971Y-70498480D01*
X68214254Y-70759042D01*
X68252733Y-70973381D01*
X68363940Y-71247581D01*
X68541660Y-71482788D01*
X68786543Y-71680045D01*
X68868314Y-71729563D01*
X68958433Y-71765440D01*
X69028706Y-71755150D01*
X69103287Y-71700233D01*
X69223540Y-71608619D01*
X69401892Y-71497927D01*
X69612249Y-71384129D01*
X69833559Y-71278576D01*
X70044770Y-71192618D01*
X70464976Y-71061046D01*
X71027077Y-70946042D01*
X71594879Y-70894935D01*
X72159105Y-70906884D01*
X72710477Y-70981049D01*
X73239718Y-71116590D01*
X73737549Y-71312666D01*
X74194693Y-71568437D01*
X74509546Y-71775581D01*
X74659189Y-71708101D01*
X74800584Y-71629537D01*
X75003496Y-71454938D01*
X75161789Y-71237321D01*
X75264675Y-70992976D01*
X75301368Y-70738198D01*
X75299508Y-70621738D01*
X75288855Y-70542633D01*
X75262739Y-70505515D01*
X75214514Y-70491515D01*
X75186656Y-70485997D01*
X75158438Y-70468230D01*
X75140142Y-70426653D01*
X75128967Y-70347921D01*
X75122114Y-70218688D01*
X75116784Y-70025608D01*
X75105909Y-69572036D01*
X75589656Y-69572036D01*
X76073404Y-69572036D01*
X76073404Y-70035258D01*
X76073404Y-70498480D01*
X75962321Y-70498480D01*
X75851237Y-70498480D01*
X75834939Y-70839367D01*
X75826899Y-70967812D01*
X75805653Y-71131046D01*
X75768104Y-71267401D01*
X75707300Y-71407825D01*
X75676930Y-71464236D01*
X75555778Y-71641529D01*
X75397745Y-71828932D01*
X75223551Y-72003194D01*
X75053916Y-72141061D01*
X74941571Y-72219426D01*
X75079564Y-72420031D01*
X75127638Y-72493407D01*
X75188639Y-72616652D01*
X75279158Y-72799535D01*
G37*
D15*
%TO.C,JP1*%
X65000000Y-89450000D02*
X67000000Y-89450000D01*
X65000000Y-92250000D02*
X65000000Y-89450000D01*
X67000000Y-89450000D02*
X67000000Y-92250000D01*
X67000000Y-92250000D02*
X65000000Y-92250000D01*
%TO.C,JP2*%
X67750000Y-89450000D02*
X69750000Y-89450000D01*
X67750000Y-92250000D02*
X67750000Y-89450000D01*
X69750000Y-89450000D02*
X69750000Y-92250000D01*
X69750000Y-92250000D02*
X67750000Y-92250000D01*
%TD*%
M02*
