M48
; DRILL file {KiCad 8.0.1} date 2024-08-18T09:48:22+0200
; FORMAT={-:-/ absolute / inch / decimal}
; #@! TF.CreationDate,2024-08-18T09:48:22+02:00
; #@! TF.GenerationSoftware,Kicad,Pcbnew,8.0.1
; #@! TF.FileFunction,Plated,1,2,PTH
FMAT,2
INCH
; #@! TA.AperFunction,Plated,PTH,ViaDrill
T1C0.0118
; #@! TA.AperFunction,Plated,PTH,ViaDrill
T2C0.0157
; #@! TA.AperFunction,Plated,PTH,ComponentDrill
T3C0.0295
; #@! TA.AperFunction,Plated,PTH,ComponentDrill
T4C0.0354
; #@! TA.AperFunction,Plated,PTH,ComponentDrill
T5C0.0394
; #@! TA.AperFunction,Plated,PTH,ComponentDrill
T6C0.0400
; #@! TA.AperFunction,Plated,PTH,ComponentDrill
T7C0.0433
; #@! TA.AperFunction,Plated,PTH,ComponentDrill
T8C0.0748
; #@! TA.AperFunction,Plated,PTH,ComponentDrill
T9C0.1083
%
G90
G05
T1
X2.0776Y-5.4288
X2.1524Y-5.3353
X2.186Y-5.9076
X2.1885Y-5.4104
X2.2677Y-6.1024
X2.2792Y-5.0984
X2.2933Y-5.128
X2.3011Y-5.8595
X2.3031Y-5.3346
X2.338Y-5.3237
X2.372Y-5.3248
X2.4173Y-6.0866
X2.4186Y-5.3064
X2.4197Y-5.3402
X2.4241Y-5.891
X2.5Y-6.063
X2.5554Y-5.9064
X2.6083Y-5.6102
X2.6083Y-5.6594
X2.628Y-5.6398
X2.6476Y-5.6102
X2.6476Y-5.6594
X2.7657Y-5.128
X2.8358Y-5.0406
X2.8469Y-5.0713
X3.0118Y-4.8031
X3.0118Y-5.3445
X3.0118Y-5.6102
X3.0217Y-5.8169
X3.0512Y-5.7579
X3.0906Y-5.2657
X3.1594Y-6.0728
X3.1744Y-5.4764
X3.2044Y-5.4792
X3.2047Y-5.4488
T2
X1.4783Y-6.4232
X1.4783Y-6.4724
X1.4798Y-6.3786
X1.5276Y-6.4232
X1.5276Y-6.4724
X1.529Y-6.3786
X1.5906Y-4.0787
X1.5921Y-4.0378
X1.7408Y-6.3686
X1.7408Y-6.4178
X1.7854Y-6.3701
X1.7854Y-6.4193
X1.8309Y-3.3449
X1.8309Y-3.3941
X1.8315Y-4.9145
X1.8315Y-4.9637
X1.8315Y-5.013
X1.8346Y-6.3701
X1.8346Y-6.4193
X1.8602Y-6.0039
X1.8602Y-6.0531
X1.8799Y-2.4114
X1.8799Y-2.4606
X1.8801Y-3.3449
X1.8801Y-3.3941
X1.8807Y-4.9145
X1.8807Y-4.9637
X1.8807Y-5.013
X1.9055Y-6.4232
X1.9055Y-6.4724
X1.907Y-6.3786
X1.9094Y-6.0039
X1.9094Y-6.0531
X1.9291Y-2.4114
X1.9291Y-2.4606
X1.9293Y-3.3449
X1.9293Y-3.3941
X1.9299Y-4.9145
X1.9299Y-4.9637
X1.9299Y-5.013
X1.9464Y-6.4248
X1.9464Y-6.474
X1.9479Y-6.3802
X1.9587Y-6.0039
X1.9587Y-6.0531
X1.972Y-2.9035
X1.9783Y-2.4114
X1.9783Y-2.4606
X1.9785Y-4.9626
X1.9785Y-5.0118
X1.98Y-4.918
X1.9899Y-4.0193
X1.9899Y-4.0685
X1.9899Y-4.1177
X1.9956Y-6.4248
X1.9956Y-6.474
X1.9971Y-6.3802
X2.0277Y-4.9626
X2.0277Y-5.0118
X2.0292Y-4.918
X2.0391Y-4.0193
X2.0391Y-4.0685
X2.0391Y-4.1177
X2.0448Y-6.4248
X2.0448Y-6.474
X2.0463Y-6.3802
X2.0571Y-5.7776
X2.0669Y-5.6988
X2.0883Y-4.0193
X2.0883Y-4.0685
X2.0883Y-4.1177
X2.0941Y-6.4248
X2.0941Y-6.474
X2.0955Y-6.3802
X2.2219Y-1.8473
X2.2219Y-1.8965
X2.2219Y-1.9457
X2.2219Y-1.9949
X2.2298Y-5.5426
X2.2298Y-5.5918
X2.2298Y-5.641
X2.2539Y-2.9035
X2.2657Y-6.2264
X2.2657Y-6.2756
X2.2657Y-6.3681
X2.2657Y-6.4173
X2.2672Y-6.1818
X2.2672Y-6.3235
X2.2711Y-1.8473
X2.2711Y-1.8965
X2.2711Y-1.9457
X2.2711Y-1.9949
X2.279Y-5.4486
X2.279Y-5.5426
X2.279Y-5.5918
X2.279Y-5.641
X2.313Y-2.8445
X2.315Y-6.2264
X2.315Y-6.2756
X2.315Y-6.3681
X2.315Y-6.4173
X2.3164Y-6.1818
X2.3164Y-6.3235
X2.3203Y-1.8473
X2.3203Y-1.8965
X2.3203Y-1.9457
X2.3203Y-1.9949
X2.3363Y-5.1716
X2.3695Y-1.8473
X2.3695Y-1.8965
X2.3695Y-1.9457
X2.3695Y-1.9949
X2.4247Y-5.7373
X2.4315Y-2.3762
X2.4315Y-2.4254
X2.4315Y-2.4746
X2.4739Y-5.7373
X2.4808Y-2.3762
X2.4808Y-2.4254
X2.4808Y-2.4746
X2.5068Y-4.9739
X2.53Y-2.3762
X2.53Y-2.4254
X2.53Y-2.4746
X2.5394Y-4.439
X2.5394Y-5.7382
X2.5394Y-5.8071
X2.5492Y-4.1535
X2.5492Y-4.7146
X2.5689Y-4.9739
X2.5689Y-5.0197
X2.5796Y-3.9618
X2.5796Y-4.011
X2.5886Y-4.439
X2.5984Y-2.6181
X2.5984Y-2.6673
X2.5984Y-4.1535
X2.5984Y-4.7146
X2.6189Y-4.9735
X2.6189Y-5.0227
X2.6289Y-3.9618
X2.6289Y-4.011
X2.6476Y-2.6181
X2.6476Y-2.6673
X2.6673Y-4.1535
X2.6781Y-3.9618
X2.6781Y-4.011
X2.6969Y-2.6181
X2.6969Y-2.6673
X2.7001Y-5.7685
X2.7008Y-5.7165
X2.7008Y-5.811
X2.7165Y-4.1535
X2.7257Y-6.143
X2.7257Y-6.1922
X2.7264Y-3.9612
X2.7264Y-4.0104
X2.7323Y-5.6772
X2.7461Y-1.8406
X2.7461Y-1.8898
X2.7461Y-1.939
X2.7461Y-1.9882
X2.7749Y-6.143
X2.7749Y-6.1922
X2.7756Y-3.9612
X2.7756Y-4.0104
X2.7953Y-1.8406
X2.7953Y-1.8898
X2.7953Y-1.939
X2.7953Y-1.9882
X2.8004Y-2.761
X2.8031Y-5.7673
X2.8031Y-5.8189
X2.8099Y-5.996
X2.8248Y-3.9612
X2.8248Y-4.0104
X2.8364Y-2.9784
X2.8364Y-3.0276
X2.8364Y-3.0768
X2.8374Y-3.1231
X2.8374Y-3.1723
X2.8374Y-3.2215
X2.8393Y-3.2713
X2.8393Y-3.3205
X2.8393Y-3.3698
X2.8445Y-1.8406
X2.8445Y-1.8898
X2.8445Y-1.939
X2.8445Y-1.9882
X2.8591Y-5.996
X2.8856Y-2.9784
X2.8856Y-3.0276
X2.8856Y-3.0768
X2.8867Y-3.1231
X2.8867Y-3.1723
X2.8867Y-3.2215
X2.8885Y-3.2713
X2.8885Y-3.3205
X2.8885Y-3.3698
X2.8937Y-1.8406
X2.8937Y-1.8898
X2.8937Y-1.939
X2.8937Y-1.9882
X2.8986Y-5.3466
X2.8986Y-5.3958
X2.8986Y-5.445
X2.9277Y-6.1366
X2.9277Y-6.1858
X2.9348Y-2.9784
X2.9348Y-3.0276
X2.9348Y-3.0768
X2.9359Y-3.1231
X2.9359Y-3.1723
X2.9359Y-3.2215
X2.9377Y-3.2713
X2.9377Y-3.3205
X2.9377Y-3.3698
X2.9478Y-5.3466
X2.9478Y-5.3958
X2.9478Y-5.445
X2.977Y-6.1366
X2.977Y-6.1858
X2.9782Y-6.2335
X2.9921Y-5.8957
X2.9947Y-5.7399
X3.0118Y-2.6673
X3.0227Y-6.1353
X3.0227Y-6.1845
X3.0719Y-6.1353
X3.0971Y-5.8282
X3.1354Y-2.0956
X3.1354Y-2.1449
X3.1354Y-2.1941
X3.1465Y-6.3634
X3.1465Y-6.4126
X3.1465Y-6.4618
X3.1565Y-5.2959
X3.1565Y-5.3451
X3.1646Y-4.4483
X3.1646Y-4.4975
X3.1646Y-4.5467
X3.1646Y-4.5959
X3.1646Y-4.6503
X3.1646Y-4.6996
X3.1646Y-4.7488
X3.169Y-5.0841
X3.169Y-5.1333
X3.1704Y-5.9482
X3.1846Y-2.0956
X3.1846Y-2.1449
X3.1846Y-2.1941
X3.1896Y-5.8713
X3.1957Y-6.3634
X3.1957Y-6.4126
X3.1957Y-6.4618
X3.2142Y-5.778
X3.2182Y-5.0349
X3.2182Y-5.0841
X3.2182Y-5.1333
X3.2196Y-5.899
X3.2196Y-5.9974
X3.2339Y-2.0956
X3.2339Y-2.1449
X3.2339Y-2.1941
X3.2449Y-6.3634
X3.2449Y-6.4126
X3.2449Y-6.4618
X3.2608Y-5.9781
X3.2674Y-5.0349
X3.2674Y-5.0841
X3.2831Y-2.0956
X3.2831Y-2.1449
X3.2831Y-2.1941
X3.2941Y-6.3634
X3.2941Y-6.4126
X3.2941Y-6.4618
X3.3549Y-2.8751
X3.3549Y-2.9243
X3.4041Y-2.8751
X3.4041Y-2.9243
X3.4533Y-2.8751
X3.4533Y-2.9243
X3.4584Y-4.9401
X3.4584Y-4.9893
X3.4584Y-5.0385
X3.5076Y-4.9401
X3.5076Y-4.9893
X3.5076Y-5.0385
X3.5568Y-4.9401
X3.5568Y-4.9893
X3.5568Y-5.0385
X3.622Y-6.3701
X3.622Y-6.4193
X3.6666Y-6.3715
X3.6666Y-6.4207
X3.685Y-6.1102
X3.685Y-6.1594
X3.7159Y-6.3715
X3.7159Y-6.4207
X3.7296Y-6.1117
X3.7296Y-6.1609
X3.7788Y-6.1117
X3.7788Y-6.1609
X3.8504Y-4.189
X3.8913Y-4.1732
X4.1654Y-3.9764
X4.189Y-3.5728
X4.189Y-3.622
X4.2047Y-3.9685
X4.2441Y-3.5728
X4.2441Y-3.622
T3
X2.4399Y-4.3209
X2.4399Y-4.5965
X2.4399Y-4.8721
X2.5186Y-4.3209
X2.5186Y-4.5965
X2.5186Y-4.8721
X2.7528Y-4.2762
X2.7549Y-4.5571
X2.7549Y-4.8307
X2.8315Y-4.2762
X2.8336Y-4.5571
X2.8336Y-4.8307
X3.2165Y-2.5098
X3.2165Y-2.5886
X3.2165Y-2.6673
X3.2165Y-2.7461
X3.2285Y-3.0415
X3.229Y-3.3067
X3.3072Y-3.0415
X3.3077Y-3.3067
X3.386Y-3.0415
X3.3865Y-3.3067
X3.4647Y-3.0415
X3.4652Y-3.3067
X3.5413Y-2.5098
X3.5413Y-2.5886
X3.5413Y-2.6673
X3.5413Y-2.7461
X3.5435Y-3.0415
X3.5439Y-3.3067
X3.6222Y-3.0415
X3.6227Y-3.3067
X3.8878Y-2.5
X3.8878Y-2.7756
X3.8878Y-3.0413
X3.8878Y-3.3071
X3.9665Y-2.5
X3.9665Y-2.7756
X3.9665Y-3.0413
X3.9665Y-3.3071
X4.0453Y-2.5
X4.0453Y-2.7756
X4.0453Y-3.0413
X4.0453Y-3.3071
X4.124Y-2.5
X4.124Y-2.7756
X4.124Y-3.0413
X4.124Y-3.3071
T4
X1.8602Y-2.2244
X1.9602Y-2.2244
X4.0447Y-2.2244
X4.1447Y-2.2244
T5
X1.5059Y-6.7953
X1.5217Y-4.2486
X1.5217Y-4.3486
X1.5217Y-4.4486
X1.5217Y-4.5486
X1.5217Y-4.6486
X1.5217Y-4.7486
X1.5217Y-4.8486
X1.5217Y-5.1181
X1.5217Y-5.2181
X1.5217Y-5.3181
X1.5217Y-5.4181
X1.5217Y-5.5181
X1.5217Y-5.6181
X1.5217Y-5.7181
X1.5217Y-5.8181
X1.5217Y-5.9181
X1.6217Y-4.2486
X1.6217Y-4.3486
X1.6217Y-4.4486
X1.6217Y-4.5486
X1.6217Y-4.6486
X1.6217Y-4.7486
X1.6217Y-4.8486
X1.6217Y-5.1181
X1.6217Y-5.2181
X1.6217Y-5.3181
X1.6217Y-5.4181
X1.6217Y-5.5181
X1.6217Y-5.6181
X1.6217Y-5.7181
X1.6217Y-5.8181
X1.6217Y-5.9181
X1.7218Y-4.2489
X1.7218Y-4.3489
X1.7218Y-4.4489
X1.7218Y-4.5489
X1.7218Y-4.6489
X1.7218Y-4.7489
X1.7218Y-4.8489
X1.7218Y-5.1186
X1.7218Y-5.2186
X1.7218Y-5.3186
X1.7218Y-5.4186
X1.7218Y-5.5186
X1.7218Y-5.6186
X1.7218Y-5.7186
X1.7218Y-5.8186
X1.7218Y-5.9186
X1.939Y-6.7953
X2.372Y-6.7963
X2.4311Y-2.661
X2.4311Y-2.761
X2.4311Y-2.861
X2.4311Y-2.961
X2.4311Y-3.061
X2.4311Y-3.161
X2.4311Y-3.261
X2.4311Y-3.361
X2.5787Y-2.1555
X2.878Y-2.1555
X2.8839Y-6.7963
X3.3169Y-6.7992
X3.4417Y-2.0768
X3.4417Y-2.1768
X3.4722Y-3.5925
X3.5417Y-2.0768
X3.5417Y-2.1768
X3.5433Y-5.1303
X3.5433Y-5.2303
X3.5433Y-5.3303
X3.5433Y-5.4303
X3.5433Y-5.5303
X3.5433Y-5.6303
X3.5433Y-5.7303
X3.5433Y-5.8303
X3.5433Y-5.9303
X3.5462Y-4.2518
X3.5462Y-4.3518
X3.5462Y-4.4518
X3.5462Y-4.5518
X3.5462Y-4.6518
X3.5462Y-4.7518
X3.5462Y-4.8518
X3.5722Y-3.5925
X3.6417Y-2.0768
X3.6417Y-2.1768
X3.6437Y-5.1302
X3.6437Y-5.2302
X3.6437Y-5.3302
X3.6437Y-5.4302
X3.6437Y-5.5302
X3.6437Y-5.6302
X3.6437Y-5.7302
X3.6437Y-5.8302
X3.6437Y-5.9302
X3.6466Y-4.252
X3.6466Y-4.352
X3.6466Y-4.452
X3.6466Y-4.552
X3.6466Y-4.652
X3.6466Y-4.752
X3.6466Y-4.852
X3.6722Y-3.5925
X3.7437Y-5.1302
X3.7437Y-5.2302
X3.7437Y-5.3302
X3.7437Y-5.4302
X3.7437Y-5.5302
X3.7437Y-5.6302
X3.7437Y-5.7302
X3.7437Y-5.8302
X3.7437Y-5.9302
X3.7466Y-4.252
X3.7466Y-4.352
X3.7466Y-4.452
X3.7466Y-4.552
X3.7466Y-4.652
X3.7466Y-4.752
X3.7466Y-4.852
X3.75Y-6.7992
T6
X1.832Y-3.5279
X1.832Y-3.6279
X1.932Y-3.5279
X1.932Y-3.6279
X2.0721Y-3.769
X2.0721Y-3.869
X2.1721Y-3.769
X2.1721Y-3.869
X2.2721Y-3.769
X2.2721Y-3.869
X2.3721Y-3.769
X2.3721Y-3.869
X2.4721Y-3.769
X2.4721Y-3.869
X2.5721Y-3.769
X2.5721Y-3.869
X2.6721Y-3.769
X2.6721Y-3.869
X2.7721Y-3.769
X2.7721Y-3.869
X2.8721Y-3.769
X2.8721Y-3.869
X2.9721Y-3.769
X2.9721Y-3.869
X3.0721Y-3.769
X3.0721Y-3.869
X3.1721Y-3.769
X3.1721Y-3.869
X3.2721Y-3.769
X3.2721Y-3.869
X3.3721Y-3.769
X3.3721Y-3.869
X3.4721Y-3.769
X3.4721Y-3.869
X3.5721Y-3.769
X3.5721Y-3.869
X3.6721Y-3.769
X3.6721Y-3.869
X3.7721Y-3.769
X3.7721Y-3.869
X3.8721Y-3.769
X3.8721Y-3.869
X3.9721Y-3.769
X3.9721Y-3.869
T7
X1.8406Y-2.5886
X1.8406Y-2.7657
X1.8406Y-3.0512
X1.8406Y-3.2283
X2.0965Y-2.5886
X2.0965Y-2.7657
X2.0965Y-3.0512
X2.0965Y-3.2283
T8
X1.624Y-6.5984
X1.8209Y-6.5984
X2.4902Y-6.5994
X2.628Y-6.5994
X2.7657Y-6.5994
X3.435Y-6.6024
X3.6319Y-6.6024
T9
X1.8804Y-1.8899
X1.8804Y-3.819
X4.1639Y-1.8899
X4.1639Y-3.819
M30
