M48
; DRILL file {KiCad 8.0.1} date 2024-08-17T14:40:09+0200
; FORMAT={-:-/ absolute / inch / decimal}
; #@! TF.CreationDate,2024-08-17T14:40:09+02:00
; #@! TF.GenerationSoftware,Kicad,Pcbnew,8.0.1
; #@! TF.FileFunction,Plated,1,2,PTH
FMAT,2
INCH
; #@! TA.AperFunction,Plated,PTH,ViaDrill
T1C0.0118
; #@! TA.AperFunction,Plated,PTH,ViaDrill
T2C0.0157
; #@! TA.AperFunction,Plated,PTH,ComponentDrill
T3C0.0236
; #@! TA.AperFunction,Plated,PTH,ComponentDrill
T4C0.0295
; #@! TA.AperFunction,Plated,PTH,ComponentDrill
T5C0.0374
; #@! TA.AperFunction,Plated,PTH,ComponentDrill
T6C0.0394
; #@! TA.AperFunction,Plated,PTH,ComponentDrill
T7C0.0472
; #@! TA.AperFunction,Plated,PTH,ComponentDrill
T8C0.0748
; #@! TA.AperFunction,Plated,PTH,ComponentDrill
T9C0.1063
%
G90
G05
T1
X5.5708Y-3.4529
X5.6Y-3.242
X5.6016Y-2.9711
T2
X4.23Y-4.19
X4.29Y-4.19
X4.35Y-4.19
X5.07Y-3.58
X5.07Y-3.63
X5.07Y-3.68
X5.07Y-3.73
X5.07Y-3.78
X5.07Y-3.83
X5.07Y-3.88
X5.07Y-3.93
X5.07Y-3.98
X5.07Y-4.03
X5.12Y-3.58
X5.12Y-3.63
X5.12Y-3.68
X5.12Y-3.73
X5.12Y-3.78
X5.12Y-3.83
X5.12Y-3.88
X5.12Y-3.93
X5.12Y-3.98
X5.12Y-4.03
X5.17Y-3.58
X5.17Y-3.63
X5.17Y-3.68
X5.17Y-3.73
X5.17Y-3.78
X5.17Y-3.83
X5.17Y-3.88
X5.17Y-3.93
X5.17Y-3.98
X5.17Y-4.03
X5.22Y-3.58
X5.22Y-3.73
X5.22Y-3.78
X5.22Y-3.83
X5.22Y-3.88
X5.22Y-3.93
X5.22Y-3.98
X5.22Y-4.03
X5.27Y-3.58
X5.27Y-3.73
X5.27Y-3.78
X5.27Y-3.83
X5.27Y-3.88
X5.27Y-3.93
X5.27Y-3.98
X5.27Y-4.03
X5.32Y-3.58
X5.32Y-3.63
X5.32Y-3.68
X5.32Y-3.73
X5.32Y-3.78
X5.32Y-3.83
X5.32Y-3.88
X5.32Y-3.93
X5.32Y-3.98
X5.32Y-4.03
X5.37Y-3.58
X5.37Y-3.63
X5.37Y-3.68
X5.37Y-3.73
X5.37Y-3.78
X5.37Y-3.83
X5.37Y-3.88
X5.37Y-3.93
X5.37Y-3.98
X5.37Y-4.03
X5.42Y-3.58
X5.42Y-3.63
X5.42Y-3.68
X5.42Y-3.73
X5.42Y-3.78
X5.42Y-3.83
X5.42Y-3.88
X5.42Y-3.93
X5.42Y-3.98
X5.42Y-4.03
X5.47Y-3.58
X5.47Y-3.63
X5.47Y-3.68
X5.47Y-3.73
X5.47Y-3.78
X5.47Y-3.83
X5.47Y-3.88
X5.47Y-3.93
X5.47Y-3.98
X5.47Y-4.03
X5.52Y-3.83
X5.52Y-3.88
X5.52Y-3.93
X5.52Y-3.98
X5.52Y-4.03
X5.52Y-4.07
X5.57Y-3.83
X5.57Y-3.88
X5.57Y-3.93
X5.57Y-3.98
X5.57Y-4.03
X5.57Y-4.07
X5.62Y-3.83
X5.62Y-3.88
X5.62Y-3.93
X5.62Y-3.98
X5.62Y-4.03
X5.62Y-4.07
X5.67Y-3.83
X5.67Y-3.88
X5.67Y-3.93
X5.67Y-3.98
X5.67Y-4.03
X5.67Y-4.07
X5.72Y-3.83
X5.72Y-3.88
X5.72Y-3.93
X5.72Y-3.98
X5.72Y-4.03
X5.72Y-4.07
X5.77Y-3.83
X5.77Y-3.88
X5.77Y-3.93
X5.77Y-3.98
X5.77Y-4.03
X5.77Y-4.07
X5.82Y-3.88
X5.82Y-3.93
X5.82Y-3.98
X5.82Y-4.03
X5.82Y-4.07
X5.87Y-3.93
X5.87Y-3.98
X5.87Y-4.03
X5.87Y-4.07
X6.8787Y-2.8028
X6.8787Y-2.8528
X6.8787Y-2.9028
X6.8787Y-2.9528
X6.8787Y-3.0028
X6.8787Y-3.0528
X6.8787Y-3.1028
X6.8787Y-3.1528
X6.8791Y-2.7059
X6.8791Y-2.7559
X6.9287Y-2.8028
X6.9287Y-2.8528
X6.9287Y-2.9028
X6.9287Y-2.9528
X6.9287Y-3.0028
X6.9287Y-3.0528
X6.9287Y-3.1028
X6.9287Y-3.1528
X6.9291Y-2.7059
X6.9291Y-2.7559
X6.9787Y-2.8028
X6.9787Y-2.8528
X6.9787Y-2.9028
X6.9787Y-2.9528
X6.9787Y-3.0028
X6.9787Y-3.0528
X6.9787Y-3.1028
X6.9787Y-3.1528
X6.9791Y-2.7059
X6.9791Y-2.7559
X6.9987Y-3.6428
X6.9987Y-3.6928
X6.9987Y-3.7428
X6.9987Y-3.7928
X6.9987Y-3.8428
X6.9987Y-3.8928
X7.1082Y-3.3682
X7.1087Y-3.4028
X7.1432Y-3.3678
X7.1453Y-3.4042
X7.1569Y-2.7229
X7.158Y-2.6826
X7.1978Y-2.7208
X7.1994Y-2.6815
T4
X5.5851Y-3.6412
X5.5851Y-3.7199
X5.62Y-4.18
X5.62Y-4.2587
X5.64Y-2.75
X5.64Y-2.8287
X5.84Y-4.18
X5.84Y-4.2587
X5.8617Y-2.7506
X5.8617Y-2.8294
T5
X2.9528Y-3.9173
X2.9528Y-4.0157
X2.9528Y-4.1142
X2.9528Y-4.2126
T6
X2.7353Y-3.1791
X2.7353Y-3.6122
X6.0787Y-3.0128
X6.0987Y-3.9997
X6.5117Y-3.0128
X6.5317Y-3.9997
X7.6971Y-2.9753
X7.6971Y-3.4871
X7.7069Y-3.8709
X7.7069Y-4.304
T7
X3.3691Y-2.8282
X5.2588Y-3.6668
T8
X2.9321Y-3.2972
X2.9321Y-3.4941
X6.1968Y-3.2097
X6.2168Y-3.8028
X6.3936Y-3.2097
X6.4136Y-3.8028
X7.5002Y-3.0934
X7.5002Y-3.2312
X7.5002Y-3.369
X7.5101Y-3.9891
X7.5101Y-4.1859
T9
X3.4015Y-2.1783
X3.4015Y-2.4617
T3
G00X3.1436Y-2.0543
M15
G01X3.1869Y-2.0543
M16
G05
G00X3.1436Y-2.5857
M15
G01X3.1869Y-2.5857
M16
G05
M30
