%TF.GenerationSoftware,KiCad,Pcbnew,8.0.1*%
%TF.CreationDate,2024-08-17T14:40:07+02:00*%
%TF.ProjectId,robal_power_board,726f6261-6c5f-4706-9f77-65725f626f61,rev?*%
%TF.SameCoordinates,Original*%
%TF.FileFunction,Profile,NP*%
%FSLAX46Y46*%
G04 Gerber Fmt 4.6, Leading zero omitted, Abs format (unit mm)*
G04 Created by KiCad (PCBNEW 8.0.1) date 2024-08-17 14:40:07*
%MOMM*%
%LPD*%
G01*
G04 APERTURE LIST*
%TA.AperFunction,Profile*%
%ADD10C,0.050000*%
%TD*%
G04 APERTURE END LIST*
D10*
X203806000Y-93222000D02*
G75*
G02*
X200606000Y-93222000I-1600000J0D01*
G01*
X200606000Y-93222000D02*
G75*
G02*
X203806000Y-93222000I1600000J0D01*
G01*
X205277998Y-109055847D02*
G75*
G02*
X203278000Y-111061506I-1999998J-5653D01*
G01*
X76600000Y-72000000D02*
G75*
G02*
X73400000Y-72000000I-1600000J0D01*
G01*
X73400000Y-72000000D02*
G75*
G02*
X76600000Y-72000000I1600000J0D01*
G01*
X65278000Y-81061500D02*
G75*
G02*
X66692841Y-77647913I4825400J0D01*
G01*
X71845910Y-49657000D02*
X82250000Y-49656553D01*
X205277999Y-109055847D02*
X205277999Y-69055847D01*
X131064000Y-67056000D02*
X203277999Y-67055847D01*
X171600000Y-108072000D02*
G75*
G02*
X168400000Y-108072000I-1600000J0D01*
G01*
X168400000Y-108072000D02*
G75*
G02*
X171600000Y-108072000I1600000J0D01*
G01*
X203278000Y-111061507D02*
X67278000Y-111061507D01*
X69845910Y-51657000D02*
X69845910Y-73786390D01*
X69847802Y-73786390D02*
G75*
G02*
X69397263Y-74946209I-1718102J-10D01*
G01*
X82250000Y-49656553D02*
G75*
G02*
X89052883Y-50929437I309700J-17160147D01*
G01*
X69845910Y-51657000D02*
G75*
G02*
X71845910Y-49657010I1999990J0D01*
G01*
X203806000Y-72072000D02*
G75*
G02*
X200606000Y-72072000I-1600000J0D01*
G01*
X200606000Y-72072000D02*
G75*
G02*
X203806000Y-72072000I1600000J0D01*
G01*
X65278000Y-109061500D02*
X65278000Y-81061500D01*
X69750000Y-51250000D02*
X69750000Y-51250000D01*
X131064000Y-67056000D02*
X89052881Y-50929442D01*
X203277999Y-67055847D02*
G75*
G02*
X205277953Y-69055847I1J-1999953D01*
G01*
X66692852Y-77647924D02*
X69397250Y-74946197D01*
X67278000Y-111061507D02*
G75*
G02*
X65277993Y-109061500I0J2000007D01*
G01*
M02*
