%TF.GenerationSoftware,KiCad,Pcbnew,8.0.1*%
%TF.CreationDate,2024-08-17T14:40:07+02:00*%
%TF.ProjectId,robal_power_board,726f6261-6c5f-4706-9f77-65725f626f61,rev?*%
%TF.SameCoordinates,Original*%
%TF.FileFunction,Legend,Bot*%
%TF.FilePolarity,Positive*%
%FSLAX46Y46*%
G04 Gerber Fmt 4.6, Leading zero omitted, Abs format (unit mm)*
G04 Created by KiCad (PCBNEW 8.0.1) date 2024-08-17 14:40:07*
%MOMM*%
%LPD*%
G01*
G04 APERTURE LIST*
%ADD10C,0.300000*%
%ADD11C,0.000000*%
G04 APERTURE END LIST*
D10*
X187964286Y-91141038D02*
X188464286Y-90426752D01*
X188821429Y-91141038D02*
X188821429Y-89641038D01*
X188821429Y-89641038D02*
X188250000Y-89641038D01*
X188250000Y-89641038D02*
X188107143Y-89712467D01*
X188107143Y-89712467D02*
X188035714Y-89783895D01*
X188035714Y-89783895D02*
X187964286Y-89926752D01*
X187964286Y-89926752D02*
X187964286Y-90141038D01*
X187964286Y-90141038D02*
X188035714Y-90283895D01*
X188035714Y-90283895D02*
X188107143Y-90355324D01*
X188107143Y-90355324D02*
X188250000Y-90426752D01*
X188250000Y-90426752D02*
X188821429Y-90426752D01*
X187035714Y-89641038D02*
X186750000Y-89641038D01*
X186750000Y-89641038D02*
X186607143Y-89712467D01*
X186607143Y-89712467D02*
X186464286Y-89855324D01*
X186464286Y-89855324D02*
X186392857Y-90141038D01*
X186392857Y-90141038D02*
X186392857Y-90641038D01*
X186392857Y-90641038D02*
X186464286Y-90926752D01*
X186464286Y-90926752D02*
X186607143Y-91069610D01*
X186607143Y-91069610D02*
X186750000Y-91141038D01*
X186750000Y-91141038D02*
X187035714Y-91141038D01*
X187035714Y-91141038D02*
X187178572Y-91069610D01*
X187178572Y-91069610D02*
X187321429Y-90926752D01*
X187321429Y-90926752D02*
X187392857Y-90641038D01*
X187392857Y-90641038D02*
X187392857Y-90141038D01*
X187392857Y-90141038D02*
X187321429Y-89855324D01*
X187321429Y-89855324D02*
X187178572Y-89712467D01*
X187178572Y-89712467D02*
X187035714Y-89641038D01*
X185250000Y-90355324D02*
X185035714Y-90426752D01*
X185035714Y-90426752D02*
X184964285Y-90498181D01*
X184964285Y-90498181D02*
X184892857Y-90641038D01*
X184892857Y-90641038D02*
X184892857Y-90855324D01*
X184892857Y-90855324D02*
X184964285Y-90998181D01*
X184964285Y-90998181D02*
X185035714Y-91069610D01*
X185035714Y-91069610D02*
X185178571Y-91141038D01*
X185178571Y-91141038D02*
X185750000Y-91141038D01*
X185750000Y-91141038D02*
X185750000Y-89641038D01*
X185750000Y-89641038D02*
X185250000Y-89641038D01*
X185250000Y-89641038D02*
X185107143Y-89712467D01*
X185107143Y-89712467D02*
X185035714Y-89783895D01*
X185035714Y-89783895D02*
X184964285Y-89926752D01*
X184964285Y-89926752D02*
X184964285Y-90069610D01*
X184964285Y-90069610D02*
X185035714Y-90212467D01*
X185035714Y-90212467D02*
X185107143Y-90283895D01*
X185107143Y-90283895D02*
X185250000Y-90355324D01*
X185250000Y-90355324D02*
X185750000Y-90355324D01*
X184321428Y-90712467D02*
X183607143Y-90712467D01*
X184464285Y-91141038D02*
X183964285Y-89641038D01*
X183964285Y-89641038D02*
X183464285Y-91141038D01*
X182250000Y-91141038D02*
X182964286Y-91141038D01*
X182964286Y-91141038D02*
X182964286Y-89641038D01*
X180607143Y-91141038D02*
X180607143Y-89641038D01*
X180607143Y-89641038D02*
X180035714Y-89641038D01*
X180035714Y-89641038D02*
X179892857Y-89712467D01*
X179892857Y-89712467D02*
X179821428Y-89783895D01*
X179821428Y-89783895D02*
X179750000Y-89926752D01*
X179750000Y-89926752D02*
X179750000Y-90141038D01*
X179750000Y-90141038D02*
X179821428Y-90283895D01*
X179821428Y-90283895D02*
X179892857Y-90355324D01*
X179892857Y-90355324D02*
X180035714Y-90426752D01*
X180035714Y-90426752D02*
X180607143Y-90426752D01*
X178821428Y-89641038D02*
X178535714Y-89641038D01*
X178535714Y-89641038D02*
X178392857Y-89712467D01*
X178392857Y-89712467D02*
X178250000Y-89855324D01*
X178250000Y-89855324D02*
X178178571Y-90141038D01*
X178178571Y-90141038D02*
X178178571Y-90641038D01*
X178178571Y-90641038D02*
X178250000Y-90926752D01*
X178250000Y-90926752D02*
X178392857Y-91069610D01*
X178392857Y-91069610D02*
X178535714Y-91141038D01*
X178535714Y-91141038D02*
X178821428Y-91141038D01*
X178821428Y-91141038D02*
X178964286Y-91069610D01*
X178964286Y-91069610D02*
X179107143Y-90926752D01*
X179107143Y-90926752D02*
X179178571Y-90641038D01*
X179178571Y-90641038D02*
X179178571Y-90141038D01*
X179178571Y-90141038D02*
X179107143Y-89855324D01*
X179107143Y-89855324D02*
X178964286Y-89712467D01*
X178964286Y-89712467D02*
X178821428Y-89641038D01*
X177678571Y-89641038D02*
X177321428Y-91141038D01*
X177321428Y-91141038D02*
X177035714Y-90069610D01*
X177035714Y-90069610D02*
X176749999Y-91141038D01*
X176749999Y-91141038D02*
X176392857Y-89641038D01*
X175821428Y-90355324D02*
X175321428Y-90355324D01*
X175107142Y-91141038D02*
X175821428Y-91141038D01*
X175821428Y-91141038D02*
X175821428Y-89641038D01*
X175821428Y-89641038D02*
X175107142Y-89641038D01*
X173607142Y-91141038D02*
X174107142Y-90426752D01*
X174464285Y-91141038D02*
X174464285Y-89641038D01*
X174464285Y-89641038D02*
X173892856Y-89641038D01*
X173892856Y-89641038D02*
X173749999Y-89712467D01*
X173749999Y-89712467D02*
X173678570Y-89783895D01*
X173678570Y-89783895D02*
X173607142Y-89926752D01*
X173607142Y-89926752D02*
X173607142Y-90141038D01*
X173607142Y-90141038D02*
X173678570Y-90283895D01*
X173678570Y-90283895D02*
X173749999Y-90355324D01*
X173749999Y-90355324D02*
X173892856Y-90426752D01*
X173892856Y-90426752D02*
X174464285Y-90426752D01*
X173321428Y-91283895D02*
X172178570Y-91283895D01*
X171321428Y-90355324D02*
X171107142Y-90426752D01*
X171107142Y-90426752D02*
X171035713Y-90498181D01*
X171035713Y-90498181D02*
X170964285Y-90641038D01*
X170964285Y-90641038D02*
X170964285Y-90855324D01*
X170964285Y-90855324D02*
X171035713Y-90998181D01*
X171035713Y-90998181D02*
X171107142Y-91069610D01*
X171107142Y-91069610D02*
X171249999Y-91141038D01*
X171249999Y-91141038D02*
X171821428Y-91141038D01*
X171821428Y-91141038D02*
X171821428Y-89641038D01*
X171821428Y-89641038D02*
X171321428Y-89641038D01*
X171321428Y-89641038D02*
X171178571Y-89712467D01*
X171178571Y-89712467D02*
X171107142Y-89783895D01*
X171107142Y-89783895D02*
X171035713Y-89926752D01*
X171035713Y-89926752D02*
X171035713Y-90069610D01*
X171035713Y-90069610D02*
X171107142Y-90212467D01*
X171107142Y-90212467D02*
X171178571Y-90283895D01*
X171178571Y-90283895D02*
X171321428Y-90355324D01*
X171321428Y-90355324D02*
X171821428Y-90355324D01*
X170035713Y-89641038D02*
X169749999Y-89641038D01*
X169749999Y-89641038D02*
X169607142Y-89712467D01*
X169607142Y-89712467D02*
X169464285Y-89855324D01*
X169464285Y-89855324D02*
X169392856Y-90141038D01*
X169392856Y-90141038D02*
X169392856Y-90641038D01*
X169392856Y-90641038D02*
X169464285Y-90926752D01*
X169464285Y-90926752D02*
X169607142Y-91069610D01*
X169607142Y-91069610D02*
X169749999Y-91141038D01*
X169749999Y-91141038D02*
X170035713Y-91141038D01*
X170035713Y-91141038D02*
X170178571Y-91069610D01*
X170178571Y-91069610D02*
X170321428Y-90926752D01*
X170321428Y-90926752D02*
X170392856Y-90641038D01*
X170392856Y-90641038D02*
X170392856Y-90141038D01*
X170392856Y-90141038D02*
X170321428Y-89855324D01*
X170321428Y-89855324D02*
X170178571Y-89712467D01*
X170178571Y-89712467D02*
X170035713Y-89641038D01*
X168821427Y-90712467D02*
X168107142Y-90712467D01*
X168964284Y-91141038D02*
X168464284Y-89641038D01*
X168464284Y-89641038D02*
X167964284Y-91141038D01*
X166607142Y-91141038D02*
X167107142Y-90426752D01*
X167464285Y-91141038D02*
X167464285Y-89641038D01*
X167464285Y-89641038D02*
X166892856Y-89641038D01*
X166892856Y-89641038D02*
X166749999Y-89712467D01*
X166749999Y-89712467D02*
X166678570Y-89783895D01*
X166678570Y-89783895D02*
X166607142Y-89926752D01*
X166607142Y-89926752D02*
X166607142Y-90141038D01*
X166607142Y-90141038D02*
X166678570Y-90283895D01*
X166678570Y-90283895D02*
X166749999Y-90355324D01*
X166749999Y-90355324D02*
X166892856Y-90426752D01*
X166892856Y-90426752D02*
X167464285Y-90426752D01*
X165964285Y-91141038D02*
X165964285Y-89641038D01*
X165964285Y-89641038D02*
X165607142Y-89641038D01*
X165607142Y-89641038D02*
X165392856Y-89712467D01*
X165392856Y-89712467D02*
X165249999Y-89855324D01*
X165249999Y-89855324D02*
X165178570Y-89998181D01*
X165178570Y-89998181D02*
X165107142Y-90283895D01*
X165107142Y-90283895D02*
X165107142Y-90498181D01*
X165107142Y-90498181D02*
X165178570Y-90783895D01*
X165178570Y-90783895D02*
X165249999Y-90926752D01*
X165249999Y-90926752D02*
X165392856Y-91069610D01*
X165392856Y-91069610D02*
X165607142Y-91141038D01*
X165607142Y-91141038D02*
X165964285Y-91141038D01*
X179785713Y-93555954D02*
X180285713Y-92841668D01*
X180642856Y-93555954D02*
X180642856Y-92055954D01*
X180642856Y-92055954D02*
X180071427Y-92055954D01*
X180071427Y-92055954D02*
X179928570Y-92127383D01*
X179928570Y-92127383D02*
X179857141Y-92198811D01*
X179857141Y-92198811D02*
X179785713Y-92341668D01*
X179785713Y-92341668D02*
X179785713Y-92555954D01*
X179785713Y-92555954D02*
X179857141Y-92698811D01*
X179857141Y-92698811D02*
X179928570Y-92770240D01*
X179928570Y-92770240D02*
X180071427Y-92841668D01*
X180071427Y-92841668D02*
X180642856Y-92841668D01*
X179142856Y-92770240D02*
X178642856Y-92770240D01*
X178428570Y-93555954D02*
X179142856Y-93555954D01*
X179142856Y-93555954D02*
X179142856Y-92055954D01*
X179142856Y-92055954D02*
X178428570Y-92055954D01*
X177999998Y-92055954D02*
X177499998Y-93555954D01*
X177499998Y-93555954D02*
X176999998Y-92055954D01*
X176857142Y-93698811D02*
X175714284Y-93698811D01*
X175571427Y-92055954D02*
X175071427Y-93555954D01*
X175071427Y-93555954D02*
X174571427Y-92055954D01*
X173285713Y-93555954D02*
X174142856Y-93555954D01*
X173714285Y-93555954D02*
X173714285Y-92055954D01*
X173714285Y-92055954D02*
X173857142Y-92270240D01*
X173857142Y-92270240D02*
X173999999Y-92413097D01*
X173999999Y-92413097D02*
X174142856Y-92484526D01*
X186000001Y-98385786D02*
X186000001Y-96885786D01*
X185142858Y-98385786D02*
X185785715Y-97528643D01*
X185142858Y-96885786D02*
X186000001Y-97742929D01*
X184571429Y-97957215D02*
X183857144Y-97957215D01*
X184714286Y-98385786D02*
X184214286Y-96885786D01*
X184214286Y-96885786D02*
X183714286Y-98385786D01*
X183214287Y-98385786D02*
X183214287Y-96885786D01*
X183214287Y-96885786D02*
X182714287Y-97957215D01*
X182714287Y-97957215D02*
X182214287Y-96885786D01*
X182214287Y-96885786D02*
X182214287Y-98385786D01*
X181500001Y-98385786D02*
X181500001Y-96885786D01*
X180071429Y-98385786D02*
X180785715Y-98385786D01*
X180785715Y-98385786D02*
X180785715Y-96885786D01*
X178571429Y-96885786D02*
X178214286Y-98385786D01*
X178214286Y-98385786D02*
X177928572Y-97314358D01*
X177928572Y-97314358D02*
X177642857Y-98385786D01*
X177642857Y-98385786D02*
X177285715Y-96885786D01*
X176714286Y-98385786D02*
X176714286Y-96885786D01*
X176000000Y-98385786D02*
X176000000Y-96885786D01*
X176000000Y-96885786D02*
X175142857Y-98385786D01*
X175142857Y-98385786D02*
X175142857Y-96885786D01*
X174428571Y-98385786D02*
X174428571Y-96885786D01*
X174428571Y-96885786D02*
X173571428Y-98385786D01*
X173571428Y-98385786D02*
X173571428Y-96885786D01*
X172857142Y-98385786D02*
X172857142Y-96885786D01*
X171285713Y-98242929D02*
X171357141Y-98314358D01*
X171357141Y-98314358D02*
X171571427Y-98385786D01*
X171571427Y-98385786D02*
X171714284Y-98385786D01*
X171714284Y-98385786D02*
X171928570Y-98314358D01*
X171928570Y-98314358D02*
X172071427Y-98171500D01*
X172071427Y-98171500D02*
X172142856Y-98028643D01*
X172142856Y-98028643D02*
X172214284Y-97742929D01*
X172214284Y-97742929D02*
X172214284Y-97528643D01*
X172214284Y-97528643D02*
X172142856Y-97242929D01*
X172142856Y-97242929D02*
X172071427Y-97100072D01*
X172071427Y-97100072D02*
X171928570Y-96957215D01*
X171928570Y-96957215D02*
X171714284Y-96885786D01*
X171714284Y-96885786D02*
X171571427Y-96885786D01*
X171571427Y-96885786D02*
X171357141Y-96957215D01*
X171357141Y-96957215D02*
X171285713Y-97028643D01*
X170642856Y-98385786D02*
X170642856Y-96885786D01*
X169785713Y-98385786D02*
X170428570Y-97528643D01*
X169785713Y-96885786D02*
X170642856Y-97742929D01*
X169142856Y-98385786D02*
X169142856Y-96885786D01*
X183214286Y-100800702D02*
X183214286Y-99300702D01*
X182357143Y-100800702D02*
X183000000Y-99943559D01*
X182357143Y-99300702D02*
X183214286Y-100157845D01*
X181714286Y-100800702D02*
X181714286Y-99300702D01*
X181714286Y-99300702D02*
X180857143Y-100800702D01*
X180857143Y-100800702D02*
X180857143Y-99300702D01*
X179285714Y-100800702D02*
X179785714Y-100086416D01*
X180142857Y-100800702D02*
X180142857Y-99300702D01*
X180142857Y-99300702D02*
X179571428Y-99300702D01*
X179571428Y-99300702D02*
X179428571Y-99372131D01*
X179428571Y-99372131D02*
X179357142Y-99443559D01*
X179357142Y-99443559D02*
X179285714Y-99586416D01*
X179285714Y-99586416D02*
X179285714Y-99800702D01*
X179285714Y-99800702D02*
X179357142Y-99943559D01*
X179357142Y-99943559D02*
X179428571Y-100014988D01*
X179428571Y-100014988D02*
X179571428Y-100086416D01*
X179571428Y-100086416D02*
X180142857Y-100086416D01*
X177500000Y-100800702D02*
X177500000Y-99300702D01*
X176642857Y-100800702D02*
X177285714Y-99943559D01*
X176642857Y-99300702D02*
X177500000Y-100157845D01*
X175714285Y-99300702D02*
X175428571Y-99300702D01*
X175428571Y-99300702D02*
X175285714Y-99372131D01*
X175285714Y-99372131D02*
X175142857Y-99514988D01*
X175142857Y-99514988D02*
X175071428Y-99800702D01*
X175071428Y-99800702D02*
X175071428Y-100300702D01*
X175071428Y-100300702D02*
X175142857Y-100586416D01*
X175142857Y-100586416D02*
X175285714Y-100729274D01*
X175285714Y-100729274D02*
X175428571Y-100800702D01*
X175428571Y-100800702D02*
X175714285Y-100800702D01*
X175714285Y-100800702D02*
X175857143Y-100729274D01*
X175857143Y-100729274D02*
X176000000Y-100586416D01*
X176000000Y-100586416D02*
X176071428Y-100300702D01*
X176071428Y-100300702D02*
X176071428Y-99800702D01*
X176071428Y-99800702D02*
X176000000Y-99514988D01*
X176000000Y-99514988D02*
X175857143Y-99372131D01*
X175857143Y-99372131D02*
X175714285Y-99300702D01*
X174428571Y-100800702D02*
X174428571Y-99300702D01*
X174428571Y-99300702D02*
X173571428Y-100800702D01*
X173571428Y-100800702D02*
X173571428Y-99300702D01*
X172928570Y-100372131D02*
X172214285Y-100372131D01*
X173071427Y-100800702D02*
X172571427Y-99300702D01*
X172571427Y-99300702D02*
X172071427Y-100800702D01*
X170714285Y-100800702D02*
X171214285Y-100086416D01*
X171571428Y-100800702D02*
X171571428Y-99300702D01*
X171571428Y-99300702D02*
X170999999Y-99300702D01*
X170999999Y-99300702D02*
X170857142Y-99372131D01*
X170857142Y-99372131D02*
X170785713Y-99443559D01*
X170785713Y-99443559D02*
X170714285Y-99586416D01*
X170714285Y-99586416D02*
X170714285Y-99800702D01*
X170714285Y-99800702D02*
X170785713Y-99943559D01*
X170785713Y-99943559D02*
X170857142Y-100014988D01*
X170857142Y-100014988D02*
X170999999Y-100086416D01*
X170999999Y-100086416D02*
X171571428Y-100086416D01*
X184392855Y-102787047D02*
X183678570Y-102787047D01*
X184535712Y-103215618D02*
X184035712Y-101715618D01*
X184035712Y-101715618D02*
X183535712Y-103215618D01*
X183035713Y-101715618D02*
X183035713Y-102929904D01*
X183035713Y-102929904D02*
X182964284Y-103072761D01*
X182964284Y-103072761D02*
X182892856Y-103144190D01*
X182892856Y-103144190D02*
X182749998Y-103215618D01*
X182749998Y-103215618D02*
X182464284Y-103215618D01*
X182464284Y-103215618D02*
X182321427Y-103144190D01*
X182321427Y-103144190D02*
X182249998Y-103072761D01*
X182249998Y-103072761D02*
X182178570Y-102929904D01*
X182178570Y-102929904D02*
X182178570Y-101715618D01*
X180678569Y-101787047D02*
X180821427Y-101715618D01*
X180821427Y-101715618D02*
X181035712Y-101715618D01*
X181035712Y-101715618D02*
X181249998Y-101787047D01*
X181249998Y-101787047D02*
X181392855Y-101929904D01*
X181392855Y-101929904D02*
X181464284Y-102072761D01*
X181464284Y-102072761D02*
X181535712Y-102358475D01*
X181535712Y-102358475D02*
X181535712Y-102572761D01*
X181535712Y-102572761D02*
X181464284Y-102858475D01*
X181464284Y-102858475D02*
X181392855Y-103001332D01*
X181392855Y-103001332D02*
X181249998Y-103144190D01*
X181249998Y-103144190D02*
X181035712Y-103215618D01*
X181035712Y-103215618D02*
X180892855Y-103215618D01*
X180892855Y-103215618D02*
X180678569Y-103144190D01*
X180678569Y-103144190D02*
X180607141Y-103072761D01*
X180607141Y-103072761D02*
X180607141Y-102572761D01*
X180607141Y-102572761D02*
X180892855Y-102572761D01*
X179964284Y-101715618D02*
X179964284Y-102929904D01*
X179964284Y-102929904D02*
X179892855Y-103072761D01*
X179892855Y-103072761D02*
X179821427Y-103144190D01*
X179821427Y-103144190D02*
X179678569Y-103215618D01*
X179678569Y-103215618D02*
X179392855Y-103215618D01*
X179392855Y-103215618D02*
X179249998Y-103144190D01*
X179249998Y-103144190D02*
X179178569Y-103072761D01*
X179178569Y-103072761D02*
X179107141Y-102929904D01*
X179107141Y-102929904D02*
X179107141Y-101715618D01*
X178464283Y-103144190D02*
X178249998Y-103215618D01*
X178249998Y-103215618D02*
X177892855Y-103215618D01*
X177892855Y-103215618D02*
X177749998Y-103144190D01*
X177749998Y-103144190D02*
X177678569Y-103072761D01*
X177678569Y-103072761D02*
X177607140Y-102929904D01*
X177607140Y-102929904D02*
X177607140Y-102787047D01*
X177607140Y-102787047D02*
X177678569Y-102644190D01*
X177678569Y-102644190D02*
X177749998Y-102572761D01*
X177749998Y-102572761D02*
X177892855Y-102501332D01*
X177892855Y-102501332D02*
X178178569Y-102429904D01*
X178178569Y-102429904D02*
X178321426Y-102358475D01*
X178321426Y-102358475D02*
X178392855Y-102287047D01*
X178392855Y-102287047D02*
X178464283Y-102144190D01*
X178464283Y-102144190D02*
X178464283Y-102001332D01*
X178464283Y-102001332D02*
X178392855Y-101858475D01*
X178392855Y-101858475D02*
X178321426Y-101787047D01*
X178321426Y-101787047D02*
X178178569Y-101715618D01*
X178178569Y-101715618D02*
X177821426Y-101715618D01*
X177821426Y-101715618D02*
X177607140Y-101787047D01*
X177178569Y-101715618D02*
X176321427Y-101715618D01*
X176749998Y-103215618D02*
X176749998Y-101715618D01*
X174749998Y-101858475D02*
X174678570Y-101787047D01*
X174678570Y-101787047D02*
X174535713Y-101715618D01*
X174535713Y-101715618D02*
X174178570Y-101715618D01*
X174178570Y-101715618D02*
X174035713Y-101787047D01*
X174035713Y-101787047D02*
X173964284Y-101858475D01*
X173964284Y-101858475D02*
X173892855Y-102001332D01*
X173892855Y-102001332D02*
X173892855Y-102144190D01*
X173892855Y-102144190D02*
X173964284Y-102358475D01*
X173964284Y-102358475D02*
X174821427Y-103215618D01*
X174821427Y-103215618D02*
X173892855Y-103215618D01*
X172964284Y-101715618D02*
X172821427Y-101715618D01*
X172821427Y-101715618D02*
X172678570Y-101787047D01*
X172678570Y-101787047D02*
X172607142Y-101858475D01*
X172607142Y-101858475D02*
X172535713Y-102001332D01*
X172535713Y-102001332D02*
X172464284Y-102287047D01*
X172464284Y-102287047D02*
X172464284Y-102644190D01*
X172464284Y-102644190D02*
X172535713Y-102929904D01*
X172535713Y-102929904D02*
X172607142Y-103072761D01*
X172607142Y-103072761D02*
X172678570Y-103144190D01*
X172678570Y-103144190D02*
X172821427Y-103215618D01*
X172821427Y-103215618D02*
X172964284Y-103215618D01*
X172964284Y-103215618D02*
X173107142Y-103144190D01*
X173107142Y-103144190D02*
X173178570Y-103072761D01*
X173178570Y-103072761D02*
X173249999Y-102929904D01*
X173249999Y-102929904D02*
X173321427Y-102644190D01*
X173321427Y-102644190D02*
X173321427Y-102287047D01*
X173321427Y-102287047D02*
X173249999Y-102001332D01*
X173249999Y-102001332D02*
X173178570Y-101858475D01*
X173178570Y-101858475D02*
X173107142Y-101787047D01*
X173107142Y-101787047D02*
X172964284Y-101715618D01*
X171892856Y-101858475D02*
X171821428Y-101787047D01*
X171821428Y-101787047D02*
X171678571Y-101715618D01*
X171678571Y-101715618D02*
X171321428Y-101715618D01*
X171321428Y-101715618D02*
X171178571Y-101787047D01*
X171178571Y-101787047D02*
X171107142Y-101858475D01*
X171107142Y-101858475D02*
X171035713Y-102001332D01*
X171035713Y-102001332D02*
X171035713Y-102144190D01*
X171035713Y-102144190D02*
X171107142Y-102358475D01*
X171107142Y-102358475D02*
X171964285Y-103215618D01*
X171964285Y-103215618D02*
X171035713Y-103215618D01*
X169750000Y-102215618D02*
X169750000Y-103215618D01*
X170107142Y-101644190D02*
X170464285Y-102715618D01*
X170464285Y-102715618D02*
X169535714Y-102715618D01*
X179821427Y-64249757D02*
X179964285Y-64178328D01*
X179964285Y-64178328D02*
X180178570Y-64178328D01*
X180178570Y-64178328D02*
X180392856Y-64249757D01*
X180392856Y-64249757D02*
X180535713Y-64392614D01*
X180535713Y-64392614D02*
X180607142Y-64535471D01*
X180607142Y-64535471D02*
X180678570Y-64821185D01*
X180678570Y-64821185D02*
X180678570Y-65035471D01*
X180678570Y-65035471D02*
X180607142Y-65321185D01*
X180607142Y-65321185D02*
X180535713Y-65464042D01*
X180535713Y-65464042D02*
X180392856Y-65606900D01*
X180392856Y-65606900D02*
X180178570Y-65678328D01*
X180178570Y-65678328D02*
X180035713Y-65678328D01*
X180035713Y-65678328D02*
X179821427Y-65606900D01*
X179821427Y-65606900D02*
X179749999Y-65535471D01*
X179749999Y-65535471D02*
X179749999Y-65035471D01*
X179749999Y-65035471D02*
X180035713Y-65035471D01*
X178892856Y-64178328D02*
X178892856Y-64535471D01*
X179249999Y-64392614D02*
X178892856Y-64535471D01*
X178892856Y-64535471D02*
X178535713Y-64392614D01*
X179107142Y-64821185D02*
X178892856Y-64535471D01*
X178892856Y-64535471D02*
X178678570Y-64821185D01*
X177749999Y-64178328D02*
X177749999Y-64535471D01*
X178107142Y-64392614D02*
X177749999Y-64535471D01*
X177749999Y-64535471D02*
X177392856Y-64392614D01*
X177964285Y-64821185D02*
X177749999Y-64535471D01*
X177749999Y-64535471D02*
X177535713Y-64821185D01*
X176607142Y-64178328D02*
X176607142Y-64535471D01*
X176964285Y-64392614D02*
X176607142Y-64535471D01*
X176607142Y-64535471D02*
X176249999Y-64392614D01*
X176821428Y-64821185D02*
X176607142Y-64535471D01*
X176607142Y-64535471D02*
X176392856Y-64821185D01*
D11*
%TO.C,G\u002A\u002A\u002A*%
G36*
X102176993Y-73295672D02*
G01*
X102148064Y-73324601D01*
X102119134Y-73295672D01*
X102148064Y-73266743D01*
X102176993Y-73295672D01*
G37*
G36*
X103912756Y-75899317D02*
G01*
X103883827Y-75928246D01*
X103854897Y-75899317D01*
X103883827Y-75870387D01*
X103912756Y-75899317D01*
G37*
G36*
X126072665Y-93228018D02*
G01*
X126072665Y-93690888D01*
X125783371Y-93690888D01*
X125494077Y-93690888D01*
X125494077Y-93228018D01*
X125494077Y-92765148D01*
X125783371Y-92765148D01*
X126072665Y-92765148D01*
X126072665Y-93228018D01*
G37*
G36*
X126072665Y-81762339D02*
G01*
X126072500Y-81815584D01*
X126068405Y-82023206D01*
X126059935Y-82174459D01*
X126048586Y-82239673D01*
X126024709Y-82246590D01*
X125912347Y-82251335D01*
X125744827Y-82244849D01*
X125465148Y-82225917D01*
X125484019Y-81767514D01*
X125502889Y-81309112D01*
X125787777Y-81309112D01*
X126072665Y-81309112D01*
X126072665Y-81762339D01*
G37*
G36*
X120881211Y-89713919D02*
G01*
X120989014Y-89837558D01*
X120990498Y-89840858D01*
X121015897Y-90008723D01*
X120952512Y-90146669D01*
X120826264Y-90236145D01*
X120663077Y-90258597D01*
X120488872Y-90195477D01*
X120397926Y-90109858D01*
X120344647Y-89958998D01*
X120351766Y-89896164D01*
X120430040Y-89762053D01*
X120567313Y-89682652D01*
X120729174Y-89664445D01*
X120881211Y-89713919D01*
G37*
G36*
X120739421Y-84751811D02*
G01*
X120865376Y-84838497D01*
X120941825Y-84943977D01*
X120981093Y-85069932D01*
X120952062Y-85175412D01*
X120865376Y-85301367D01*
X120759896Y-85377816D01*
X120633941Y-85417084D01*
X120528460Y-85388053D01*
X120402506Y-85301367D01*
X120326057Y-85195886D01*
X120286788Y-85069932D01*
X120315820Y-84964451D01*
X120402506Y-84838497D01*
X120507986Y-84762048D01*
X120633941Y-84722779D01*
X120739421Y-84751811D01*
G37*
G36*
X122590140Y-97406713D02*
G01*
X123114040Y-97409755D01*
X123675523Y-97413460D01*
X124139416Y-97417463D01*
X124515809Y-97422220D01*
X124814789Y-97428186D01*
X125046445Y-97435816D01*
X125220867Y-97445567D01*
X125348143Y-97457893D01*
X125438362Y-97473252D01*
X125501613Y-97492097D01*
X125547985Y-97514885D01*
X125587566Y-97542072D01*
X125640974Y-97583339D01*
X125837767Y-97781534D01*
X125942568Y-98000148D01*
X125973479Y-98273490D01*
X125973478Y-98275021D01*
X125931701Y-98611749D01*
X125804908Y-98873265D01*
X125589904Y-99066168D01*
X125570820Y-99077782D01*
X125524567Y-99102569D01*
X125469792Y-99123310D01*
X125396749Y-99140365D01*
X125295693Y-99154095D01*
X125156880Y-99164861D01*
X124970564Y-99173021D01*
X124727001Y-99178938D01*
X124416445Y-99182971D01*
X124029151Y-99185481D01*
X123555375Y-99186827D01*
X122985371Y-99187370D01*
X122309395Y-99187472D01*
X119225159Y-99187472D01*
X119341603Y-99057289D01*
X119537492Y-98787443D01*
X119706694Y-98418024D01*
X119795540Y-98029811D01*
X119792580Y-97658322D01*
X119752440Y-97390647D01*
X122590140Y-97406713D01*
G37*
G36*
X101158770Y-74809197D02*
G01*
X101459471Y-74960693D01*
X101724702Y-75177045D01*
X101821474Y-75286397D01*
X102023590Y-75619553D01*
X102118051Y-75974189D01*
X102104619Y-76334949D01*
X101983056Y-76686480D01*
X101753125Y-77013425D01*
X101463321Y-77269525D01*
X101132148Y-77433845D01*
X100772060Y-77489162D01*
X100721583Y-77481969D01*
X100410877Y-77437692D01*
X100076456Y-77286687D01*
X99793255Y-77051596D01*
X99579856Y-76747909D01*
X99454841Y-76391116D01*
X99437903Y-76130687D01*
X100292280Y-76130687D01*
X100323727Y-76315010D01*
X100375192Y-76402110D01*
X100529202Y-76521385D01*
X100721583Y-76566031D01*
X100915341Y-76531249D01*
X101073477Y-76412243D01*
X101174819Y-76220104D01*
X101188090Y-76016378D01*
X101112225Y-75840551D01*
X100958316Y-75717101D01*
X100737452Y-75670511D01*
X100699288Y-75671523D01*
X100527901Y-75700115D01*
X100414344Y-75756760D01*
X100403381Y-75768510D01*
X100322076Y-75928533D01*
X100292280Y-76130687D01*
X99437903Y-76130687D01*
X99433559Y-76063898D01*
X99507325Y-75704200D01*
X99673273Y-75374478D01*
X99918920Y-75092686D01*
X100231782Y-74876783D01*
X100599378Y-74744724D01*
X100854417Y-74734781D01*
X101158770Y-74809197D01*
G37*
G36*
X98894618Y-99015745D02*
G01*
X98940680Y-99296131D01*
X99101613Y-99723309D01*
X99364324Y-100098377D01*
X99446258Y-100191487D01*
X99537758Y-100303673D01*
X99573349Y-100359786D01*
X99565227Y-100367396D01*
X99476847Y-100402729D01*
X99311835Y-100453997D01*
X99096014Y-100512916D01*
X99062998Y-100521439D01*
X98787569Y-100593101D01*
X98515216Y-100664778D01*
X98300456Y-100722132D01*
X97979027Y-100809021D01*
X97314866Y-100987661D01*
X96750723Y-101137874D01*
X96278650Y-101261636D01*
X95890702Y-101360925D01*
X95578931Y-101437718D01*
X95335390Y-101493991D01*
X95152133Y-101531722D01*
X95021212Y-101552888D01*
X94934680Y-101559465D01*
X94641069Y-101508974D01*
X94386678Y-101357268D01*
X94197683Y-101113733D01*
X94117491Y-100913848D01*
X94076104Y-100619118D01*
X94115893Y-100337521D01*
X94231790Y-100096370D01*
X94418723Y-99922978D01*
X94447873Y-99909553D01*
X94586496Y-99861046D01*
X94815401Y-99789953D01*
X95119629Y-99700619D01*
X95484224Y-99597386D01*
X95894229Y-99484599D01*
X96334685Y-99366600D01*
X96500610Y-99322707D01*
X96950090Y-99203562D01*
X97375154Y-99090554D01*
X97758308Y-98988354D01*
X98082055Y-98901637D01*
X98328899Y-98835073D01*
X98481345Y-98793335D01*
X98864740Y-98686248D01*
X98894618Y-99015745D01*
G37*
G36*
X101049581Y-97550496D02*
G01*
X101380661Y-97673666D01*
X101676012Y-97881803D01*
X101915099Y-98171935D01*
X101991064Y-98303109D01*
X102054281Y-98457544D01*
X102083259Y-98630053D01*
X102090205Y-98869248D01*
X102086694Y-99054567D01*
X102064626Y-99239754D01*
X102011497Y-99394214D01*
X101915099Y-99566561D01*
X101694996Y-99834185D01*
X101396830Y-100049239D01*
X101057120Y-100183712D01*
X100752557Y-100221380D01*
X100701400Y-100227707D01*
X100355206Y-100171323D01*
X100333397Y-100163829D01*
X100035642Y-100002369D01*
X99773155Y-99756731D01*
X99571150Y-99456088D01*
X99454841Y-99129613D01*
X99431727Y-98928413D01*
X99445211Y-98805526D01*
X100279741Y-98805526D01*
X100300638Y-98999201D01*
X100436779Y-99191922D01*
X100444334Y-99199428D01*
X100604964Y-99325163D01*
X100752557Y-99354136D01*
X100922369Y-99293738D01*
X101002776Y-99244335D01*
X101144931Y-99083237D01*
X101191554Y-98864869D01*
X101175462Y-98747204D01*
X101079080Y-98582131D01*
X100921841Y-98473221D01*
X100734005Y-98430903D01*
X100545829Y-98465605D01*
X100387571Y-98587757D01*
X100373684Y-98605941D01*
X100279741Y-98805526D01*
X99445211Y-98805526D01*
X99472987Y-98552387D01*
X99618386Y-98194024D01*
X99861026Y-97874637D01*
X100047322Y-97720513D01*
X100362376Y-97570947D01*
X100703307Y-97515266D01*
X101049581Y-97550496D01*
G37*
G36*
X110169488Y-68594753D02*
G01*
X110404339Y-68749507D01*
X110580890Y-68986347D01*
X110583088Y-68990740D01*
X110627213Y-69092752D01*
X110656923Y-69204204D01*
X110672376Y-69342680D01*
X110673733Y-69525760D01*
X110661154Y-69771028D01*
X110634799Y-70096064D01*
X110594827Y-70518451D01*
X110590456Y-70563123D01*
X110553597Y-70943482D01*
X110515363Y-71343503D01*
X110480024Y-71718247D01*
X110451851Y-72022779D01*
X110433556Y-72219123D01*
X110405310Y-72507653D01*
X110379292Y-72757933D01*
X110359421Y-72931449D01*
X110324938Y-73203673D01*
X110117432Y-73092456D01*
X109794502Y-72957310D01*
X109375207Y-72882961D01*
X108960934Y-72917760D01*
X108814784Y-72951649D01*
X108645548Y-72994221D01*
X108547237Y-73023278D01*
X108528133Y-73028753D01*
X108506069Y-73021890D01*
X108492540Y-72985991D01*
X108488164Y-72908775D01*
X108493559Y-72777961D01*
X108509344Y-72581270D01*
X108536134Y-72306420D01*
X108574549Y-71941130D01*
X108625206Y-71473121D01*
X108666323Y-71095009D01*
X108712637Y-70668446D01*
X108757773Y-70252156D01*
X108796048Y-69898520D01*
X108812459Y-69754506D01*
X108864642Y-69392751D01*
X108922050Y-69135134D01*
X108986468Y-68972976D01*
X109116268Y-68800525D01*
X109349726Y-68624970D01*
X109618722Y-68532288D01*
X109899796Y-68522281D01*
X110169488Y-68594753D01*
G37*
G36*
X121557505Y-75822551D02*
G01*
X122336578Y-75825524D01*
X122588724Y-75826833D01*
X123227023Y-75830359D01*
X123762630Y-75833938D01*
X124205169Y-75837971D01*
X124564260Y-75842859D01*
X124849527Y-75849001D01*
X125070591Y-75856799D01*
X125237075Y-75866651D01*
X125358600Y-75878960D01*
X125444789Y-75894123D01*
X125505263Y-75912543D01*
X125549646Y-75934618D01*
X125587559Y-75960750D01*
X125629897Y-75993238D01*
X125836596Y-76197849D01*
X125948264Y-76422394D01*
X125981744Y-76698389D01*
X125970547Y-76856624D01*
X125885884Y-77145800D01*
X125729758Y-77377144D01*
X125516044Y-77526000D01*
X125500623Y-77531792D01*
X125424231Y-77550060D01*
X125306289Y-77565244D01*
X125137526Y-77577594D01*
X124908671Y-77587359D01*
X124610454Y-77594789D01*
X124233606Y-77600134D01*
X123768856Y-77603643D01*
X123206934Y-77605565D01*
X122538569Y-77606150D01*
X119752920Y-77606150D01*
X119792820Y-77340077D01*
X119798004Y-77298442D01*
X119800319Y-77038840D01*
X119763785Y-76775954D01*
X119739183Y-76687746D01*
X119663803Y-76490466D01*
X119566193Y-76287323D01*
X119462071Y-76106871D01*
X119367154Y-75977661D01*
X119297158Y-75928246D01*
X119284115Y-75926331D01*
X119245330Y-75868918D01*
X119257336Y-75861670D01*
X119362971Y-75848301D01*
X119578383Y-75837690D01*
X119904558Y-75829823D01*
X120342480Y-75824687D01*
X120893134Y-75822268D01*
X121557505Y-75822551D01*
G37*
G36*
X110327636Y-101837437D02*
G01*
X110345714Y-101951759D01*
X110369105Y-102140466D01*
X110394375Y-102377208D01*
X110431377Y-102749712D01*
X110495848Y-103403682D01*
X110549272Y-103956735D01*
X110592142Y-104418298D01*
X110624953Y-104797797D01*
X110648196Y-105104658D01*
X110662366Y-105348310D01*
X110667954Y-105538177D01*
X110665455Y-105683688D01*
X110655361Y-105794268D01*
X110638165Y-105879345D01*
X110614362Y-105948344D01*
X110584442Y-106010693D01*
X110425617Y-106231020D01*
X110188417Y-106390181D01*
X109877190Y-106464123D01*
X109862358Y-106465485D01*
X109549742Y-106454772D01*
X109293107Y-106354324D01*
X109064774Y-106153561D01*
X109044691Y-106130734D01*
X108991940Y-106068092D01*
X108949597Y-106004611D01*
X108914880Y-105926007D01*
X108885007Y-105817995D01*
X108857196Y-105666293D01*
X108828666Y-105456616D01*
X108796633Y-105174681D01*
X108758316Y-104806204D01*
X108710932Y-104336902D01*
X108705725Y-104285368D01*
X108663217Y-103874176D01*
X108619550Y-103466442D01*
X108577812Y-103090095D01*
X108541095Y-102773065D01*
X108512488Y-102543280D01*
X108493798Y-102403012D01*
X108464351Y-102183177D01*
X108442704Y-102023087D01*
X108432561Y-101950228D01*
X108431133Y-101924368D01*
X108454743Y-101911630D01*
X108532470Y-101934904D01*
X108690368Y-101999132D01*
X108827023Y-102040329D01*
X109056192Y-102079800D01*
X109296708Y-102097370D01*
X109557839Y-102088645D01*
X109769611Y-102043914D01*
X109992053Y-101949939D01*
X110133647Y-101882964D01*
X110263640Y-101829060D01*
X110321202Y-101815811D01*
X110327636Y-101837437D01*
G37*
G36*
X94939795Y-73384191D02*
G01*
X95075621Y-73408634D01*
X95302126Y-73458993D01*
X95603738Y-73531462D01*
X95964889Y-73622237D01*
X96370008Y-73727512D01*
X96803526Y-73843482D01*
X97180215Y-73945683D01*
X97747507Y-74099705D01*
X98217500Y-74227546D01*
X98599312Y-74331772D01*
X98902059Y-74414952D01*
X99134860Y-74479654D01*
X99306831Y-74528447D01*
X99427090Y-74563897D01*
X99504754Y-74588573D01*
X99548940Y-74605044D01*
X99568766Y-74615876D01*
X99573349Y-74623638D01*
X99561463Y-74642542D01*
X99491959Y-74726499D01*
X99380978Y-74850828D01*
X99191670Y-75093912D01*
X98990217Y-75497801D01*
X98894133Y-75931739D01*
X98888651Y-75989700D01*
X98861435Y-76167889D01*
X98811287Y-76253444D01*
X98716405Y-76264961D01*
X98554989Y-76221037D01*
X98536604Y-76215280D01*
X98404507Y-76176433D01*
X98185515Y-76113882D01*
X97899025Y-76033104D01*
X97564434Y-75939574D01*
X97201139Y-75838770D01*
X97068446Y-75802087D01*
X96467624Y-75635854D01*
X95966479Y-75496551D01*
X95555137Y-75380891D01*
X95223723Y-75285590D01*
X94962362Y-75207360D01*
X94761179Y-75142916D01*
X94610298Y-75088974D01*
X94499845Y-75042246D01*
X94419945Y-74999447D01*
X94360721Y-74957292D01*
X94312300Y-74912495D01*
X94264806Y-74861769D01*
X94229590Y-74822625D01*
X94131397Y-74687751D01*
X94087101Y-74547263D01*
X94076765Y-74346536D01*
X94078150Y-74273018D01*
X94113974Y-74035289D01*
X94208324Y-73840799D01*
X94260176Y-73770206D01*
X94464399Y-73569355D01*
X94694672Y-73432825D01*
X94917208Y-73382460D01*
X94939795Y-73384191D01*
G37*
G36*
X109285116Y-73469270D02*
G01*
X109504894Y-73475593D01*
X109659093Y-73502461D01*
X109793840Y-73563355D01*
X109955265Y-73671754D01*
X110003963Y-73708319D01*
X110269368Y-73984697D01*
X110436165Y-74312510D01*
X110498670Y-74675864D01*
X110451201Y-75058866D01*
X110428179Y-75126244D01*
X110325585Y-75318992D01*
X110182862Y-75512763D01*
X110028584Y-75671764D01*
X109891325Y-75760200D01*
X109890127Y-75760715D01*
X109857995Y-75830287D01*
X109819801Y-76000110D01*
X109777530Y-76255623D01*
X109733167Y-76582263D01*
X109688697Y-76965468D01*
X109646105Y-77390674D01*
X109607376Y-77843319D01*
X109568419Y-78340853D01*
X110284437Y-78375935D01*
X110614134Y-78398782D01*
X111078684Y-78456431D01*
X111463326Y-78537307D01*
X111478513Y-78541438D01*
X111755744Y-78613217D01*
X112040472Y-78681509D01*
X112273349Y-78732046D01*
X112429970Y-78765837D01*
X112629219Y-78816860D01*
X112765148Y-78861326D01*
X112920452Y-78915514D01*
X113103870Y-78964382D01*
X113160389Y-78977960D01*
X113456611Y-79079873D01*
X113828367Y-79251178D01*
X114281934Y-79494699D01*
X114371415Y-79544612D01*
X114565577Y-79648189D01*
X114712591Y-79720036D01*
X114786020Y-79746925D01*
X114806708Y-79730801D01*
X114887198Y-79634583D01*
X115016266Y-79463293D01*
X115184141Y-79230347D01*
X115381054Y-78949159D01*
X115597233Y-78633144D01*
X115705865Y-78472985D01*
X115926374Y-78150353D01*
X116129273Y-77856626D01*
X116302849Y-77608603D01*
X116435387Y-77423080D01*
X116466241Y-77382003D01*
X117403034Y-77382003D01*
X117432574Y-77535044D01*
X117475039Y-77590037D01*
X117602038Y-77678497D01*
X117761055Y-77750188D01*
X117903257Y-77779727D01*
X118013359Y-77754679D01*
X118163957Y-77644054D01*
X118275799Y-77476564D01*
X118319590Y-77286886D01*
X118294699Y-77064260D01*
X118204209Y-76904473D01*
X118032507Y-76797043D01*
X117975839Y-76778275D01*
X117770461Y-76770895D01*
X117580128Y-76840596D01*
X117449497Y-76973835D01*
X117431097Y-77020235D01*
X117403182Y-77189163D01*
X117403034Y-77382003D01*
X116466241Y-77382003D01*
X116515174Y-77316856D01*
X116547002Y-77275727D01*
X116664803Y-77093147D01*
X116745307Y-76923751D01*
X116759772Y-76883446D01*
X116876141Y-76647513D01*
X117040792Y-76455349D01*
X117270558Y-76294754D01*
X117582268Y-76153526D01*
X117992755Y-76019464D01*
X118037884Y-76006460D01*
X118212612Y-75961321D01*
X118333028Y-75952534D01*
X118446372Y-75982873D01*
X118599887Y-76055111D01*
X118828474Y-76208096D01*
X119042440Y-76439494D01*
X119060587Y-76465898D01*
X119143983Y-76603256D01*
X119190982Y-76733890D01*
X119211738Y-76898563D01*
X119216401Y-77138039D01*
X119212433Y-77353202D01*
X119192729Y-77532296D01*
X119148676Y-77668009D01*
X119071754Y-77799289D01*
X118956098Y-77931740D01*
X118756388Y-78085975D01*
X118538247Y-78199056D01*
X118344717Y-78244620D01*
X118344143Y-78244637D01*
X118283733Y-78280478D01*
X118180334Y-78388047D01*
X118029975Y-78572430D01*
X117903257Y-78740064D01*
X117828684Y-78838716D01*
X117572490Y-79191992D01*
X117257420Y-79637344D01*
X116282038Y-81028046D01*
X116739353Y-81501267D01*
X116920043Y-81692895D01*
X117119485Y-81912843D01*
X117310608Y-82130858D01*
X117475684Y-82326340D01*
X117596984Y-82478687D01*
X117656778Y-82567299D01*
X117660381Y-82567560D01*
X117731571Y-82539456D01*
X117874454Y-82472770D01*
X118063806Y-82379162D01*
X118301743Y-82270739D01*
X118588452Y-82160588D01*
X118840319Y-82082942D01*
X119138236Y-82029907D01*
X119648924Y-82021055D01*
X120168614Y-82102031D01*
X120666172Y-82266976D01*
X121110467Y-82510035D01*
X121408586Y-82715105D01*
X121498092Y-82576232D01*
X121575100Y-82473090D01*
X121707901Y-82314697D01*
X121862307Y-82143135D01*
X122191868Y-81849568D01*
X122639357Y-81587493D01*
X123133449Y-81424396D01*
X123657061Y-81367657D01*
X123687624Y-81367586D01*
X123861594Y-81363521D01*
X123951365Y-81342863D01*
X123984797Y-81291018D01*
X123989749Y-81193394D01*
X123989749Y-81019818D01*
X124684055Y-81019818D01*
X125378360Y-81019818D01*
X125378360Y-81771982D01*
X125378360Y-82524146D01*
X124684055Y-82524146D01*
X123989749Y-82524146D01*
X123989749Y-82345140D01*
X123989749Y-82166134D01*
X123685991Y-82205109D01*
X123456943Y-82240415D01*
X123078087Y-82339369D01*
X122773273Y-82489344D01*
X122517418Y-82704561D01*
X122285440Y-82999243D01*
X122206327Y-83118181D01*
X122119662Y-83265143D01*
X122091341Y-83363767D01*
X122116054Y-83443289D01*
X122188488Y-83532945D01*
X122325806Y-83713187D01*
X122491718Y-83980512D01*
X122662285Y-84295808D01*
X122820494Y-84627521D01*
X122949333Y-84944097D01*
X123151387Y-85592443D01*
X123321307Y-86433496D01*
X123395949Y-87282818D01*
X123376580Y-88126441D01*
X123264470Y-88950398D01*
X123060886Y-89740725D01*
X122767098Y-90483454D01*
X122384373Y-91164618D01*
X122072234Y-91636902D01*
X122177575Y-91838819D01*
X122195440Y-91872348D01*
X122458332Y-92247923D01*
X122785288Y-92534224D01*
X123165727Y-92723972D01*
X123589067Y-92809887D01*
X123989749Y-92838555D01*
X123989749Y-92686134D01*
X123989749Y-92533713D01*
X124684055Y-92533713D01*
X125378360Y-92533713D01*
X125378360Y-93287713D01*
X125378360Y-94041713D01*
X124698519Y-94025412D01*
X124018679Y-94009112D01*
X124000371Y-93850000D01*
X123995166Y-93811143D01*
X123965018Y-93731058D01*
X123887441Y-93697611D01*
X123728390Y-93690888D01*
X123445308Y-93674922D01*
X122928573Y-93561199D01*
X122448432Y-93345368D01*
X122021593Y-93035925D01*
X121664767Y-92641370D01*
X121649164Y-92619990D01*
X121529321Y-92459112D01*
X121440369Y-92345394D01*
X121400575Y-92302278D01*
X121361503Y-92323784D01*
X121250583Y-92395388D01*
X121096124Y-92499831D01*
X121012514Y-92555115D01*
X120814904Y-92654256D01*
X120553248Y-92785529D01*
X120046055Y-92920777D01*
X119476765Y-92964928D01*
X119168808Y-92955095D01*
X118762808Y-92897415D01*
X118383221Y-92777049D01*
X117981054Y-92581437D01*
X117836233Y-92504282D01*
X117711881Y-92444581D01*
X117659527Y-92428665D01*
X117517505Y-92623288D01*
X117307410Y-92878689D01*
X117051254Y-93168218D01*
X116768502Y-93469149D01*
X116282925Y-93970644D01*
X117122186Y-95214287D01*
X117292089Y-95466167D01*
X117549727Y-95847871D01*
X117754509Y-96149165D01*
X117914381Y-96379776D01*
X118037286Y-96549432D01*
X118131169Y-96667864D01*
X118203974Y-96744798D01*
X118263646Y-96789964D01*
X118318128Y-96813091D01*
X118375364Y-96823906D01*
X118443300Y-96832139D01*
X118681041Y-96899962D01*
X118913216Y-97058318D01*
X119085031Y-97282105D01*
X119193975Y-97551704D01*
X119237541Y-97847497D01*
X119213217Y-98149864D01*
X119118496Y-98439186D01*
X118950867Y-98695844D01*
X118707821Y-98900220D01*
X118528482Y-98979990D01*
X118313309Y-99007614D01*
X118045923Y-98978123D01*
X117853165Y-98929432D01*
X117702230Y-98891305D01*
X117615909Y-98864194D01*
X117233847Y-98694249D01*
X116944801Y-98466770D01*
X116738729Y-98174287D01*
X116732311Y-98162292D01*
X116664217Y-98048147D01*
X116545609Y-97859004D01*
X116489914Y-97771877D01*
X117393850Y-97771877D01*
X117400190Y-97876406D01*
X117473277Y-98088605D01*
X117625409Y-98217645D01*
X117853165Y-98259891D01*
X118006146Y-98243280D01*
X118192983Y-98148719D01*
X118311497Y-97964794D01*
X118324901Y-97925411D01*
X118342471Y-97704970D01*
X118271426Y-97515565D01*
X118134026Y-97373683D01*
X117952531Y-97295812D01*
X117749202Y-97298438D01*
X117546299Y-97398049D01*
X117470495Y-97468452D01*
X117409578Y-97588881D01*
X117393850Y-97771877D01*
X116489914Y-97771877D01*
X116386772Y-97610526D01*
X116197990Y-97318379D01*
X115989551Y-96998225D01*
X115771738Y-96665730D01*
X115554837Y-96336556D01*
X115349135Y-96026369D01*
X115164916Y-95750832D01*
X115012466Y-95525609D01*
X114902071Y-95366365D01*
X114844015Y-95288764D01*
X114843825Y-95288560D01*
X114778043Y-95293161D01*
X114645808Y-95341776D01*
X114479300Y-95418506D01*
X114310694Y-95507453D01*
X114172168Y-95592718D01*
X114095900Y-95658402D01*
X114034378Y-95705063D01*
X113872513Y-95782538D01*
X113633445Y-95876460D01*
X113336463Y-95980428D01*
X113000854Y-96088043D01*
X112645903Y-96192906D01*
X112290898Y-96288615D01*
X111955125Y-96368771D01*
X111893922Y-96382185D01*
X111416061Y-96483840D01*
X111024224Y-96560309D01*
X110695216Y-96615529D01*
X110405840Y-96653436D01*
X110132899Y-96677964D01*
X110024178Y-96685978D01*
X109801227Y-96707467D01*
X109666655Y-96732532D01*
X109600528Y-96766064D01*
X109582916Y-96812955D01*
X109582938Y-96815106D01*
X109589288Y-96907238D01*
X109605645Y-97093669D01*
X109630173Y-97354805D01*
X109661033Y-97671054D01*
X109696389Y-98022822D01*
X109732656Y-98371729D01*
X109766730Y-98671820D01*
X109796692Y-98888026D01*
X109825887Y-99036987D01*
X109857656Y-99135341D01*
X109895342Y-99199725D01*
X109942289Y-99246778D01*
X110046091Y-99324188D01*
X110115670Y-99359123D01*
X110144772Y-99381957D01*
X110220145Y-99480951D01*
X110315046Y-99631371D01*
X110325929Y-99650129D01*
X110417208Y-99839680D01*
X110462693Y-100031773D01*
X110476218Y-100282282D01*
X110473334Y-100402831D01*
X110407921Y-100753877D01*
X110251659Y-101041387D01*
X109997987Y-101279038D01*
X109947902Y-101313350D01*
X109599291Y-101480461D01*
X109241705Y-101536120D01*
X109018233Y-101501929D01*
X108887707Y-101481958D01*
X108549862Y-101319609D01*
X108240736Y-101050705D01*
X108118014Y-100899174D01*
X107980391Y-100641040D01*
X107918708Y-100348134D01*
X107920268Y-100218231D01*
X108545125Y-100218231D01*
X108558486Y-100283425D01*
X108646787Y-100458587D01*
X108781612Y-100598821D01*
X108822060Y-100624617D01*
X109018233Y-100685693D01*
X109202852Y-100655773D01*
X109359644Y-100555113D01*
X109472332Y-100403971D01*
X109524644Y-100222603D01*
X109500305Y-100031266D01*
X109383040Y-99850217D01*
X109313211Y-99791300D01*
X109112233Y-99709130D01*
X108906770Y-99724258D01*
X108726622Y-99830192D01*
X108601591Y-100020441D01*
X108561160Y-100140439D01*
X108545125Y-100218231D01*
X107920268Y-100218231D01*
X107923043Y-99987235D01*
X107932841Y-99778749D01*
X107927455Y-99571757D01*
X107906597Y-99432547D01*
X107899354Y-99402615D01*
X107875263Y-99257549D01*
X107843574Y-99024351D01*
X107806665Y-98722114D01*
X107766912Y-98369933D01*
X107726691Y-97986902D01*
X107596463Y-96699544D01*
X106387527Y-96699544D01*
X106017822Y-96699544D01*
X105685902Y-96698998D01*
X105201613Y-96694550D01*
X104799601Y-96683582D01*
X104458834Y-96663678D01*
X104158279Y-96632420D01*
X103876903Y-96587390D01*
X103593675Y-96526172D01*
X103287560Y-96446347D01*
X102937527Y-96345499D01*
X102751550Y-96292329D01*
X102597770Y-96252071D01*
X102520568Y-96236674D01*
X102511707Y-96241615D01*
X102465059Y-96321164D01*
X102400418Y-96477704D01*
X102328962Y-96685080D01*
X102315927Y-96726000D01*
X102240000Y-96959555D01*
X102171624Y-97162772D01*
X102124236Y-97295581D01*
X102061871Y-97457677D01*
X101815673Y-97288307D01*
X101600932Y-97161939D01*
X101248614Y-97021497D01*
X100883050Y-96941440D01*
X100536818Y-96928000D01*
X100242491Y-96987406D01*
X100139922Y-97014597D01*
X100094077Y-97001506D01*
X100096482Y-96987086D01*
X100122817Y-96881533D01*
X100173598Y-96694034D01*
X100243079Y-96445555D01*
X100325513Y-96157064D01*
X100357769Y-96044625D01*
X100436211Y-95765311D01*
X100499420Y-95531759D01*
X100541599Y-95365721D01*
X100556948Y-95288952D01*
X100549839Y-95271148D01*
X100475463Y-95187001D01*
X100337379Y-95062642D01*
X100157036Y-94917970D01*
X100101695Y-94874972D01*
X99752495Y-94574520D01*
X99379404Y-94211940D01*
X99012340Y-93818999D01*
X98681218Y-93427466D01*
X98415955Y-93069110D01*
X98097950Y-92595484D01*
X97286336Y-92593528D01*
X97113786Y-92593687D01*
X96789621Y-92600749D01*
X96554178Y-92622124D01*
X96388706Y-92663942D01*
X96274459Y-92732334D01*
X96192686Y-92833429D01*
X96124640Y-92973357D01*
X96112742Y-93002618D01*
X96050386Y-93228570D01*
X96057909Y-93442744D01*
X96140745Y-93674807D01*
X96304328Y-93954426D01*
X96564692Y-94350838D01*
X96564692Y-95267132D01*
X96563003Y-95559337D01*
X96551950Y-95893782D01*
X96525563Y-96148989D01*
X96478101Y-96346353D01*
X96403821Y-96507268D01*
X96296982Y-96653127D01*
X96151840Y-96805324D01*
X96100342Y-96854148D01*
X96004962Y-96932545D01*
X95899733Y-96996454D01*
X95772891Y-97047345D01*
X95612675Y-97086685D01*
X95407322Y-97115944D01*
X95145070Y-97136589D01*
X94814157Y-97150091D01*
X94402820Y-97157916D01*
X93899296Y-97161535D01*
X93291825Y-97162415D01*
X91197136Y-97162415D01*
X91093576Y-97321526D01*
X91093407Y-97321785D01*
X90862388Y-97576193D01*
X90565255Y-97752918D01*
X90227453Y-97845020D01*
X89874428Y-97845558D01*
X89531623Y-97747591D01*
X89496832Y-97730718D01*
X89275779Y-97578946D01*
X89072659Y-97373243D01*
X88916583Y-97147606D01*
X88836664Y-96936029D01*
X88832731Y-96912561D01*
X88806368Y-96763216D01*
X88788091Y-96672108D01*
X88786826Y-96665076D01*
X88790197Y-96563141D01*
X88811995Y-96411744D01*
X88848157Y-96263948D01*
X88997839Y-95942750D01*
X89218746Y-95687875D01*
X89492524Y-95504215D01*
X89800820Y-95396660D01*
X90125281Y-95370104D01*
X90447555Y-95429436D01*
X90749287Y-95579550D01*
X91012124Y-95825338D01*
X91203194Y-96063098D01*
X93299165Y-96063098D01*
X93391109Y-96063089D01*
X93927252Y-96062482D01*
X94360355Y-96060587D01*
X94701410Y-96056930D01*
X94961408Y-96051041D01*
X95151342Y-96042446D01*
X95282202Y-96030675D01*
X95364980Y-96015254D01*
X95410668Y-95995712D01*
X95430256Y-95971578D01*
X95440227Y-95921117D01*
X95453191Y-95767052D01*
X95462078Y-95545986D01*
X95465376Y-95287358D01*
X95465357Y-95247113D01*
X95462828Y-94989221D01*
X95452471Y-94817721D01*
X95429212Y-94706610D01*
X95387971Y-94629883D01*
X95323674Y-94561537D01*
X95187843Y-94386617D01*
X95082958Y-94121356D01*
X95022154Y-93769184D01*
X95002551Y-93318964D01*
X95003995Y-93118561D01*
X95014476Y-92892993D01*
X95040774Y-92720965D01*
X95089457Y-92565361D01*
X95167092Y-92389066D01*
X95316304Y-92128527D01*
X95616852Y-91786322D01*
X95992249Y-91525002D01*
X96431888Y-91351307D01*
X96925165Y-91271976D01*
X97152134Y-91252386D01*
X97318034Y-91219811D01*
X97374715Y-91177821D01*
X97373280Y-91163141D01*
X97349145Y-91052260D01*
X97301393Y-90870897D01*
X97238054Y-90650062D01*
X97101392Y-90190433D01*
X94863896Y-90175287D01*
X92626399Y-90160141D01*
X92483701Y-90302839D01*
X92430886Y-90359834D01*
X92388694Y-90428141D01*
X92362298Y-90521582D01*
X92348009Y-90662801D01*
X92342139Y-90874444D01*
X92341002Y-91179154D01*
X92335191Y-91568987D01*
X92312819Y-91881707D01*
X92267531Y-92124179D01*
X92192980Y-92319300D01*
X92082816Y-92489970D01*
X91930691Y-92659087D01*
X91766753Y-92807756D01*
X91575618Y-92929521D01*
X91356867Y-93004848D01*
X91081610Y-93043166D01*
X90720957Y-93053903D01*
X90545937Y-93051752D01*
X90326054Y-93035977D01*
X90168352Y-93000092D01*
X90039674Y-92938481D01*
X89904706Y-92828412D01*
X89780118Y-92621081D01*
X89747765Y-92385691D01*
X89809630Y-92149724D01*
X89967696Y-91940661D01*
X90015597Y-91898994D01*
X90109683Y-91835418D01*
X90219725Y-91799934D01*
X90378958Y-91784397D01*
X90620617Y-91780663D01*
X90684871Y-91780070D01*
X90909816Y-91770413D01*
X91086514Y-91751473D01*
X91181248Y-91726509D01*
X91203765Y-91703985D01*
X91234639Y-91623769D01*
X91256345Y-91477485D01*
X91270917Y-91248596D01*
X91280389Y-90920567D01*
X91283737Y-90788191D01*
X91303020Y-90417967D01*
X91334448Y-90142659D01*
X91376983Y-89972450D01*
X91386054Y-89951433D01*
X91565615Y-89662934D01*
X91825474Y-89397501D01*
X92133288Y-89188653D01*
X92427790Y-89033257D01*
X94647387Y-89015606D01*
X96866984Y-88997954D01*
X96825588Y-88552736D01*
X96821268Y-88507304D01*
X96798747Y-88298136D01*
X96777755Y-88142566D01*
X96762346Y-88071453D01*
X96706060Y-88064235D01*
X96544958Y-88056812D01*
X96290540Y-88049656D01*
X95954222Y-88042963D01*
X95547417Y-88036926D01*
X95081539Y-88031740D01*
X94568002Y-88027600D01*
X94018220Y-88024700D01*
X91295941Y-88014011D01*
X90993984Y-88330764D01*
X90813386Y-88505244D01*
X90623607Y-88640388D01*
X90431663Y-88716444D01*
X90315380Y-88742665D01*
X89946556Y-88763242D01*
X89615697Y-88691468D01*
X89330652Y-88542038D01*
X89099273Y-88329648D01*
X88929410Y-88068994D01*
X88828913Y-87774770D01*
X88812785Y-87557859D01*
X98189246Y-87557859D01*
X98190892Y-87950388D01*
X98197199Y-88460016D01*
X98209907Y-88884393D01*
X98231053Y-89241838D01*
X98262671Y-89550671D01*
X98306796Y-89829211D01*
X98365463Y-90095778D01*
X98440708Y-90368691D01*
X98534566Y-90666269D01*
X98673995Y-91051878D01*
X99049125Y-91848356D01*
X99518047Y-92584672D01*
X100074035Y-93254909D01*
X100710363Y-93853151D01*
X101420304Y-94373482D01*
X102197134Y-94809983D01*
X103034126Y-95156739D01*
X103924555Y-95407833D01*
X104008037Y-95425247D01*
X104122662Y-95445234D01*
X104250905Y-95461867D01*
X104402975Y-95475403D01*
X104589083Y-95486100D01*
X104819439Y-95494216D01*
X105104251Y-95500007D01*
X105453730Y-95503731D01*
X105878086Y-95505646D01*
X106387527Y-95506010D01*
X106992264Y-95505079D01*
X107702506Y-95503111D01*
X108196316Y-95501385D01*
X108851441Y-95498273D01*
X109407263Y-95494307D01*
X109873651Y-95489214D01*
X110260475Y-95482720D01*
X110577607Y-95474553D01*
X110834915Y-95464440D01*
X111042271Y-95452108D01*
X111209544Y-95437283D01*
X111346606Y-95419692D01*
X111463326Y-95399063D01*
X111718078Y-95343261D01*
X112564013Y-95094344D01*
X113352935Y-94761883D01*
X114066970Y-94353060D01*
X114227859Y-94240463D01*
X114518930Y-94010409D01*
X114805633Y-93754483D01*
X115073238Y-93488529D01*
X115307015Y-93228394D01*
X115492235Y-92989923D01*
X115614169Y-92788962D01*
X115658087Y-92641357D01*
X115653016Y-92596741D01*
X115574270Y-92454491D01*
X115429444Y-92345666D01*
X115256457Y-92302278D01*
X115187103Y-92308930D01*
X115086967Y-92354218D01*
X114974224Y-92459007D01*
X114824424Y-92642557D01*
X114489163Y-93033723D01*
X113928209Y-93541449D01*
X113288789Y-93970337D01*
X112580298Y-94313389D01*
X112573184Y-94316251D01*
X112324446Y-94413248D01*
X112089414Y-94496496D01*
X111857302Y-94566944D01*
X111617328Y-94625543D01*
X111358708Y-94673244D01*
X111070660Y-94710996D01*
X110742401Y-94739749D01*
X110363147Y-94760455D01*
X109922115Y-94774062D01*
X109408521Y-94781522D01*
X108811584Y-94783783D01*
X108120519Y-94781798D01*
X107324543Y-94776515D01*
X104288838Y-94752947D01*
X103710251Y-94597773D01*
X103656290Y-94582883D01*
X103212697Y-94434952D01*
X102737095Y-94238321D01*
X102265929Y-94010448D01*
X101835645Y-93768789D01*
X101482688Y-93530801D01*
X101463241Y-93515919D01*
X100815038Y-92945904D01*
X100250688Y-92297989D01*
X99773783Y-91577577D01*
X99387912Y-90790070D01*
X99096668Y-89940873D01*
X99089968Y-89916389D01*
X99055132Y-89776350D01*
X99027431Y-89631934D01*
X99005790Y-89467237D01*
X98989133Y-89266353D01*
X98976387Y-89013376D01*
X98966477Y-88692399D01*
X98958328Y-88287517D01*
X98950865Y-87782825D01*
X98949237Y-87652251D01*
X98945939Y-87013349D01*
X98953723Y-86469647D01*
X98975148Y-86004081D01*
X99012770Y-85599583D01*
X99069148Y-85239090D01*
X99146837Y-84905534D01*
X99248396Y-84581851D01*
X99376382Y-84250975D01*
X99533352Y-83895839D01*
X99727379Y-83516393D01*
X100128980Y-82898953D01*
X100604504Y-82336552D01*
X101140150Y-81841305D01*
X101722114Y-81425327D01*
X102336593Y-81100732D01*
X102969785Y-80879636D01*
X103109443Y-80858996D01*
X103352220Y-80840651D01*
X103685232Y-80824648D01*
X104095739Y-80810997D01*
X104571002Y-80799711D01*
X105098279Y-80790798D01*
X105664832Y-80784271D01*
X106257919Y-80780140D01*
X106864801Y-80778415D01*
X107472737Y-80779108D01*
X108068988Y-80782229D01*
X108640812Y-80787789D01*
X109175470Y-80795799D01*
X109660222Y-80806270D01*
X110082328Y-80819212D01*
X110429047Y-80834636D01*
X110687639Y-80852553D01*
X110845364Y-80872974D01*
X111221435Y-80970172D01*
X111841130Y-81218875D01*
X112396846Y-81559893D01*
X112881372Y-81986381D01*
X113287496Y-82491499D01*
X113608006Y-83068403D01*
X113835691Y-83710251D01*
X113854987Y-83794228D01*
X113872162Y-83901083D01*
X113886416Y-84036618D01*
X113897984Y-84210504D01*
X113907102Y-84432410D01*
X113914006Y-84712007D01*
X113918932Y-85058967D01*
X113922115Y-85482959D01*
X113923792Y-85993654D01*
X113924198Y-86600723D01*
X113923569Y-87313836D01*
X113922568Y-87992614D01*
X113921324Y-88585150D01*
X113919489Y-89081536D01*
X113916683Y-89491688D01*
X113912529Y-89825520D01*
X113906650Y-90092946D01*
X113898666Y-90303882D01*
X113888201Y-90468241D01*
X113874877Y-90595938D01*
X113858315Y-90696888D01*
X113838137Y-90781006D01*
X113813967Y-90858206D01*
X113785425Y-90938402D01*
X113721444Y-91098173D01*
X113449621Y-91577822D01*
X113082130Y-92004221D01*
X112627819Y-92369838D01*
X112095538Y-92667142D01*
X111494136Y-92888601D01*
X111409555Y-92910999D01*
X111315233Y-92930708D01*
X111204272Y-92947158D01*
X111066766Y-92960639D01*
X110892805Y-92971443D01*
X110672482Y-92979861D01*
X110395890Y-92986184D01*
X110053120Y-92990705D01*
X109634264Y-92993714D01*
X109129414Y-92995502D01*
X108528664Y-92996361D01*
X107822104Y-92996583D01*
X107745515Y-92996584D01*
X107015578Y-92996513D01*
X107011018Y-92996506D01*
X106389834Y-92995557D01*
X105857772Y-92992661D01*
X105408884Y-92986773D01*
X105032663Y-92976839D01*
X104718600Y-92961806D01*
X104456187Y-92940621D01*
X104234914Y-92912231D01*
X104044274Y-92875583D01*
X103873759Y-92829622D01*
X103712859Y-92773297D01*
X103551067Y-92705554D01*
X103377874Y-92625339D01*
X103182772Y-92531600D01*
X102971111Y-92425640D01*
X102675748Y-92253920D01*
X102412053Y-92060213D01*
X102130275Y-91810432D01*
X101713603Y-91369498D01*
X101310557Y-90800715D01*
X101012305Y-90185931D01*
X100977045Y-90066217D01*
X102238649Y-90066217D01*
X102251677Y-90088160D01*
X102284005Y-90068039D01*
X102414833Y-89989926D01*
X102621633Y-89868394D01*
X102888286Y-89712861D01*
X103198673Y-89532743D01*
X103536674Y-89337459D01*
X103936288Y-89106533D01*
X104418786Y-88826727D01*
X104920494Y-88534952D01*
X105401551Y-88254392D01*
X105822096Y-88008230D01*
X106950342Y-87346143D01*
X106965643Y-89100976D01*
X106967352Y-89279266D01*
X106972717Y-89702382D01*
X106979331Y-90080109D01*
X106986833Y-90398380D01*
X106994857Y-90643130D01*
X107003040Y-90800295D01*
X107011018Y-90855809D01*
X107016969Y-90854060D01*
X107097556Y-90814390D01*
X107254340Y-90730336D01*
X107467935Y-90612433D01*
X107718952Y-90471211D01*
X107804736Y-90422543D01*
X108105585Y-90251926D01*
X108412088Y-90078215D01*
X108737831Y-89893719D01*
X109096399Y-89690751D01*
X109501379Y-89461623D01*
X109966354Y-89198645D01*
X110504912Y-88894128D01*
X111130638Y-88540385D01*
X112591572Y-87714521D01*
X112591572Y-86386036D01*
X112591182Y-86107867D01*
X112588542Y-85736819D01*
X112582796Y-85462153D01*
X112573232Y-85271859D01*
X112559138Y-85153929D01*
X112539800Y-85096354D01*
X112514507Y-85087124D01*
X112473528Y-85109451D01*
X112343447Y-85188213D01*
X112140897Y-85314494D01*
X111880109Y-85479336D01*
X111575316Y-85673782D01*
X111240748Y-85888872D01*
X111083864Y-85990048D01*
X110700898Y-86236619D01*
X110319397Y-86481744D01*
X109963285Y-86710074D01*
X109656491Y-86906261D01*
X109422939Y-87054957D01*
X108801822Y-87448866D01*
X108786484Y-85767779D01*
X108771146Y-84086691D01*
X107311085Y-85341742D01*
X107113317Y-85511804D01*
X106753175Y-85821806D01*
X106414128Y-86114036D01*
X106109517Y-86376973D01*
X105852684Y-86599096D01*
X105656970Y-86768885D01*
X105535717Y-86874820D01*
X105519257Y-86889269D01*
X105359721Y-87022613D01*
X105233256Y-87117017D01*
X105165970Y-87152847D01*
X105165906Y-87152847D01*
X105149197Y-87096234D01*
X105139373Y-86933109D01*
X105136535Y-86672446D01*
X105140779Y-86323224D01*
X105152205Y-85894419D01*
X105164393Y-85495034D01*
X105171720Y-85181637D01*
X105173176Y-84960150D01*
X105168333Y-84818494D01*
X105156763Y-84744588D01*
X105138038Y-84726353D01*
X105111730Y-84751708D01*
X105104937Y-84761699D01*
X105032995Y-84879193D01*
X104916644Y-85080166D01*
X104764815Y-85348710D01*
X104586442Y-85668917D01*
X104390458Y-86024877D01*
X104185795Y-86400683D01*
X104149220Y-86468050D01*
X104044469Y-86660350D01*
X103897263Y-86930114D01*
X103716055Y-87261864D01*
X103509303Y-87640121D01*
X103285462Y-88049407D01*
X103052989Y-88474242D01*
X102773948Y-88988198D01*
X102552271Y-89405718D01*
X102389075Y-89724735D01*
X102284492Y-89944989D01*
X102238649Y-90066217D01*
X100977045Y-90066217D01*
X100816455Y-89520980D01*
X100792350Y-89365219D01*
X100766472Y-89075842D01*
X100746879Y-88708354D01*
X100733572Y-88283943D01*
X100726551Y-87823797D01*
X100725817Y-87349101D01*
X100731368Y-86881046D01*
X100743206Y-86440816D01*
X100761330Y-86049601D01*
X100785740Y-85728588D01*
X100816437Y-85498964D01*
X100877607Y-85232980D01*
X101094148Y-84634491D01*
X101403697Y-84082468D01*
X101795034Y-83587973D01*
X102256935Y-83162067D01*
X102778181Y-82815811D01*
X103347549Y-82560265D01*
X103953817Y-82406490D01*
X104213036Y-82351678D01*
X104409083Y-82268751D01*
X104516495Y-82154255D01*
X104549203Y-81998649D01*
X104524912Y-81870975D01*
X104412323Y-81722478D01*
X104229987Y-81635606D01*
X104002264Y-81626916D01*
X103915891Y-81640265D01*
X103341796Y-81762869D01*
X102813440Y-81942261D01*
X102533587Y-82068849D01*
X101956169Y-82418697D01*
X101432124Y-82859591D01*
X100971596Y-83379154D01*
X100584731Y-83965007D01*
X100281674Y-84604775D01*
X100072571Y-85286079D01*
X100049834Y-85419571D01*
X100022361Y-85694295D01*
X100000656Y-86050729D01*
X99984738Y-86469146D01*
X99974629Y-86929819D01*
X99970347Y-87413019D01*
X99971913Y-87899020D01*
X99979347Y-88368095D01*
X99992667Y-88800515D01*
X100011895Y-89176554D01*
X100037049Y-89476484D01*
X100068151Y-89680578D01*
X100076208Y-89715447D01*
X100309541Y-90469454D01*
X100639348Y-91162701D01*
X101060374Y-91789403D01*
X101567364Y-92343775D01*
X102155061Y-92820031D01*
X102818211Y-93212388D01*
X103551559Y-93515059D01*
X103633493Y-93542031D01*
X103824070Y-93600640D01*
X104011988Y-93650208D01*
X104208006Y-93691391D01*
X104422885Y-93724844D01*
X104667385Y-93751224D01*
X104952266Y-93771184D01*
X105288289Y-93785381D01*
X105686214Y-93794471D01*
X106156801Y-93799108D01*
X106710811Y-93799948D01*
X107359003Y-93797646D01*
X108112138Y-93792858D01*
X108488065Y-93790140D01*
X109155030Y-93784733D01*
X109722954Y-93778204D01*
X110202935Y-93769207D01*
X110606071Y-93756395D01*
X110943459Y-93738419D01*
X111226198Y-93713931D01*
X111465385Y-93681585D01*
X111672118Y-93640033D01*
X111857496Y-93587927D01*
X112032616Y-93523920D01*
X112208575Y-93446664D01*
X112396472Y-93354812D01*
X112607405Y-93247015D01*
X112864279Y-93101510D01*
X113325061Y-92771814D01*
X113742120Y-92385779D01*
X114091723Y-91966683D01*
X114350133Y-91537805D01*
X114383909Y-91467248D01*
X114458455Y-91305776D01*
X114521750Y-91152778D01*
X114574651Y-90997906D01*
X114618017Y-90830811D01*
X114652709Y-90641143D01*
X114679583Y-90418554D01*
X114699501Y-90152695D01*
X114713319Y-89833216D01*
X114713680Y-89817073D01*
X119769095Y-89817073D01*
X119794263Y-90098278D01*
X119900919Y-90346268D01*
X120072687Y-90549951D01*
X120293191Y-90698231D01*
X120546055Y-90780016D01*
X120814904Y-90784212D01*
X121083362Y-90699726D01*
X121335053Y-90515463D01*
X121462865Y-90360959D01*
X121590492Y-90078937D01*
X121611732Y-89783070D01*
X121526586Y-89493146D01*
X121335053Y-89228956D01*
X121333635Y-89227541D01*
X121080007Y-89046995D01*
X120797275Y-88963056D01*
X120757046Y-88964214D01*
X120508922Y-88971357D01*
X120238433Y-89067531D01*
X120009291Y-89247212D01*
X119844980Y-89506032D01*
X119841790Y-89513748D01*
X119769095Y-89817073D01*
X114713680Y-89817073D01*
X114721897Y-89449769D01*
X114726095Y-88992004D01*
X114726770Y-88449573D01*
X114724783Y-87812126D01*
X114720991Y-87069314D01*
X114709976Y-85072654D01*
X119711236Y-85072654D01*
X119736404Y-85353859D01*
X119843060Y-85601849D01*
X120014828Y-85805531D01*
X120235332Y-85953812D01*
X120488197Y-86035597D01*
X120757046Y-86039793D01*
X121025503Y-85955306D01*
X121277194Y-85771044D01*
X121405006Y-85616540D01*
X121532633Y-85334518D01*
X121553874Y-85038651D01*
X121468727Y-84748727D01*
X121277194Y-84484537D01*
X121275776Y-84483122D01*
X121022148Y-84302576D01*
X120739416Y-84218637D01*
X120451063Y-84226938D01*
X120180574Y-84323112D01*
X119951432Y-84502793D01*
X119787121Y-84761613D01*
X119783931Y-84769329D01*
X119711236Y-85072654D01*
X114709976Y-85072654D01*
X114703417Y-83883827D01*
X114512603Y-83337065D01*
X114347676Y-82901037D01*
X114150970Y-82480082D01*
X113927650Y-82108779D01*
X113658823Y-81752051D01*
X113504511Y-81575017D01*
X112986464Y-81092313D01*
X112397121Y-80686477D01*
X111757156Y-80370335D01*
X111087244Y-80156713D01*
X111012812Y-80139961D01*
X110905361Y-80118824D01*
X110788567Y-80100866D01*
X110652760Y-80085791D01*
X110488269Y-80073303D01*
X110285423Y-80063107D01*
X110034553Y-80054906D01*
X109725988Y-80048405D01*
X109350057Y-80043308D01*
X109050582Y-80040671D01*
X108897091Y-80039319D01*
X108357418Y-80036143D01*
X107721368Y-80033482D01*
X106979271Y-80031043D01*
X106786652Y-80030462D01*
X106075676Y-80028487D01*
X105468430Y-80027316D01*
X104955297Y-80027210D01*
X104526665Y-80028428D01*
X104172919Y-80031233D01*
X103884446Y-80035883D01*
X103651630Y-80042640D01*
X103464858Y-80051765D01*
X103314516Y-80063517D01*
X103190990Y-80078159D01*
X103084665Y-80095949D01*
X102985928Y-80117150D01*
X102885164Y-80142020D01*
X102775982Y-80171062D01*
X102023854Y-80437730D01*
X101317418Y-80804549D01*
X100663719Y-81263397D01*
X100069802Y-81806150D01*
X99542712Y-82424685D01*
X99089495Y-83110877D01*
X98717196Y-83856603D01*
X98432860Y-84653739D01*
X98243532Y-85494163D01*
X98241027Y-85511206D01*
X98226424Y-85678580D01*
X98213561Y-85940139D01*
X98202924Y-86277364D01*
X98195001Y-86671737D01*
X98190280Y-87104742D01*
X98189246Y-87557859D01*
X88812785Y-87557859D01*
X88805633Y-87461673D01*
X88867419Y-87144397D01*
X89022123Y-86837639D01*
X89277594Y-86556094D01*
X89319035Y-86522030D01*
X89637787Y-86337923D01*
X89980335Y-86258802D01*
X90327071Y-86283668D01*
X90658385Y-86411524D01*
X90954666Y-86641373D01*
X91049922Y-86744159D01*
X91146438Y-86862094D01*
X91183827Y-86928389D01*
X91238581Y-86938669D01*
X91398749Y-86948307D01*
X91653918Y-86956981D01*
X91993664Y-86964501D01*
X92407566Y-86970680D01*
X92885201Y-86975327D01*
X93416145Y-86978253D01*
X93989977Y-86979271D01*
X96796128Y-86979271D01*
X96796128Y-86843112D01*
X96799800Y-86749371D01*
X96813407Y-86563246D01*
X96833607Y-86348371D01*
X96871086Y-85989789D01*
X94678368Y-86003856D01*
X94566594Y-86004567D01*
X94023158Y-86007692D01*
X93580973Y-86009171D01*
X93227821Y-86008485D01*
X92951483Y-86005115D01*
X92739742Y-85998541D01*
X92580378Y-85988244D01*
X92461175Y-85973703D01*
X92369914Y-85954401D01*
X92294377Y-85929817D01*
X92222345Y-85899431D01*
X91920623Y-85727614D01*
X91623946Y-85464806D01*
X91416470Y-85159215D01*
X91368332Y-85045782D01*
X91329727Y-84905637D01*
X91304333Y-84727589D01*
X91288604Y-84485709D01*
X91278993Y-84154068D01*
X91271954Y-83908333D01*
X91253570Y-83606326D01*
X91225769Y-83409090D01*
X91187842Y-83310077D01*
X91155812Y-83281447D01*
X91057195Y-83243966D01*
X90888845Y-83224209D01*
X90627997Y-83218451D01*
X90468579Y-83217568D01*
X90280383Y-83208686D01*
X90154285Y-83183303D01*
X90056999Y-83133066D01*
X89955241Y-83049621D01*
X89839803Y-82930478D01*
X89780403Y-82801351D01*
X89766287Y-82616793D01*
X89776295Y-82456747D01*
X89830412Y-82311095D01*
X89955044Y-82164038D01*
X90004794Y-82115543D01*
X90102623Y-82037817D01*
X90211071Y-81992663D01*
X90365168Y-81968706D01*
X90599943Y-81954566D01*
X90951336Y-81955959D01*
X91350211Y-82018272D01*
X91680068Y-82154059D01*
X91956048Y-82367937D01*
X92087537Y-82514388D01*
X92194006Y-82680892D01*
X92266879Y-82875130D01*
X92311864Y-83118970D01*
X92334669Y-83434286D01*
X92341002Y-83842946D01*
X92340027Y-83970601D01*
X92336275Y-84188129D01*
X92338434Y-84366216D01*
X92356480Y-84508772D01*
X92400391Y-84619707D01*
X92480146Y-84702931D01*
X92605720Y-84762356D01*
X92787092Y-84801891D01*
X93034239Y-84825447D01*
X93357138Y-84836935D01*
X93765768Y-84840264D01*
X94270104Y-84839345D01*
X94880126Y-84838088D01*
X97114351Y-84837680D01*
X97220991Y-84418612D01*
X97239493Y-84345926D01*
X97306245Y-84082000D01*
X97347490Y-83908800D01*
X97365397Y-83808722D01*
X97362135Y-83764163D01*
X97339873Y-83757518D01*
X97300782Y-83771183D01*
X97180678Y-83784538D01*
X96980497Y-83771088D01*
X96736766Y-83735843D01*
X96483633Y-83684769D01*
X96255247Y-83623829D01*
X96085758Y-83558987D01*
X95757141Y-83361333D01*
X95424367Y-83057528D01*
X95180451Y-82688187D01*
X95152775Y-82632303D01*
X95083130Y-82478406D01*
X95039303Y-82340084D01*
X95015526Y-82184522D01*
X95006029Y-81978905D01*
X95005045Y-81690417D01*
X95012652Y-81357856D01*
X95040543Y-81058325D01*
X95095361Y-80821936D01*
X95183850Y-80621018D01*
X95312754Y-80427899D01*
X95348425Y-80380260D01*
X95405279Y-80290353D01*
X95439562Y-80194119D01*
X95455869Y-80064229D01*
X95458794Y-79873354D01*
X95452933Y-79594166D01*
X95436446Y-78965831D01*
X93295672Y-78951180D01*
X91154897Y-78936528D01*
X91058743Y-79106096D01*
X90988148Y-79208203D01*
X90766004Y-79406074D01*
X90480668Y-79549748D01*
X90166319Y-79619560D01*
X90088915Y-79624154D01*
X89718889Y-79586269D01*
X89394189Y-79442810D01*
X89107220Y-79190701D01*
X88918579Y-78920659D01*
X88799656Y-78588053D01*
X88788574Y-78250670D01*
X88883277Y-77922318D01*
X89081706Y-77616804D01*
X89381804Y-77347936D01*
X89412853Y-77326356D01*
X89548196Y-77243620D01*
X89677521Y-77197149D01*
X89841359Y-77176745D01*
X90080244Y-77172210D01*
X90087429Y-77172212D01*
X90327480Y-77177588D01*
X90492565Y-77199522D01*
X90622248Y-77247249D01*
X90756090Y-77330007D01*
X90813272Y-77372619D01*
X90973425Y-77519817D01*
X91087059Y-77662695D01*
X91190369Y-77837585D01*
X93320598Y-77837585D01*
X93707973Y-77837784D01*
X94233673Y-77839522D01*
X94663703Y-77844217D01*
X95010344Y-77853249D01*
X95285875Y-77868001D01*
X95502578Y-77889853D01*
X95672733Y-77920186D01*
X95808618Y-77960382D01*
X95922516Y-78011822D01*
X96026706Y-78075887D01*
X96133468Y-78153958D01*
X96186116Y-78200030D01*
X96327040Y-78367122D01*
X96441199Y-78557203D01*
X96486381Y-78663323D01*
X96520855Y-78780229D01*
X96543554Y-78923101D01*
X96556833Y-79114370D01*
X96563048Y-79376469D01*
X96564555Y-79731830D01*
X96564417Y-80643736D01*
X96334718Y-80981878D01*
X96165414Y-81263332D01*
X96075826Y-81507662D01*
X96065222Y-81735421D01*
X96127749Y-81974678D01*
X96209054Y-82150792D01*
X96314990Y-82284880D01*
X96460952Y-82375783D01*
X96665698Y-82431190D01*
X96947982Y-82458795D01*
X97326559Y-82466287D01*
X98045837Y-82466287D01*
X98411944Y-81937982D01*
X98765896Y-81466564D01*
X99393494Y-80773557D01*
X100100223Y-80143981D01*
X100598169Y-79746254D01*
X100346123Y-78876084D01*
X100294297Y-78696756D01*
X100214925Y-78420361D01*
X100151443Y-78197058D01*
X100109333Y-78046184D01*
X100094077Y-77987078D01*
X100110804Y-77983868D01*
X100210061Y-77994231D01*
X100368907Y-78021557D01*
X100442160Y-78033173D01*
X100694568Y-78050145D01*
X100936293Y-78040253D01*
X101021420Y-78026644D01*
X101276481Y-77958323D01*
X101546689Y-77856344D01*
X101788954Y-77738313D01*
X101960189Y-77621839D01*
X102030523Y-77568436D01*
X102084364Y-77553468D01*
X102102254Y-77595405D01*
X102148495Y-77728895D01*
X102213950Y-77930321D01*
X102290741Y-78175916D01*
X102339198Y-78330775D01*
X102413778Y-78548689D01*
X102471997Y-78679576D01*
X102521959Y-78739874D01*
X102571766Y-78746021D01*
X102575846Y-78744818D01*
X102892966Y-78650743D01*
X103150468Y-78575023D01*
X103365883Y-78515490D01*
X103556737Y-78469973D01*
X103740561Y-78436301D01*
X103934881Y-78412303D01*
X104157228Y-78395810D01*
X104425130Y-78384652D01*
X104756115Y-78376657D01*
X105167711Y-78369655D01*
X105677449Y-78361477D01*
X107586788Y-78329385D01*
X107654062Y-77692938D01*
X107684368Y-77416201D01*
X107727779Y-77037863D01*
X107774994Y-76640604D01*
X107820045Y-76275399D01*
X107857279Y-75945205D01*
X107891096Y-75572213D01*
X107915336Y-75221984D01*
X107926348Y-74940377D01*
X107929730Y-74782662D01*
X108545125Y-74782662D01*
X108569914Y-74910284D01*
X108680459Y-75101619D01*
X108850916Y-75239100D01*
X109050582Y-75291800D01*
X109208754Y-75242128D01*
X109362771Y-75115347D01*
X109479059Y-74947065D01*
X109525057Y-74772891D01*
X109521801Y-74716666D01*
X109452256Y-74525314D01*
X109313352Y-74389427D01*
X109133187Y-74316169D01*
X108939859Y-74312699D01*
X108761466Y-74386181D01*
X108626106Y-74543774D01*
X108567583Y-74680932D01*
X108545125Y-74782662D01*
X107929730Y-74782662D01*
X107930990Y-74723886D01*
X107944554Y-74522659D01*
X107973694Y-74375271D01*
X108025997Y-74246958D01*
X108109047Y-74102954D01*
X108291612Y-73870282D01*
X108567645Y-73644354D01*
X108694908Y-73570525D01*
X108850648Y-73506004D01*
X109023406Y-73476373D01*
X109262310Y-73469248D01*
X109285116Y-73469270D01*
G37*
G36*
X182814084Y-79766624D02*
G01*
X182897478Y-79837421D01*
X182934575Y-79935478D01*
X182918646Y-80042007D01*
X182842964Y-80138223D01*
X182839118Y-80141217D01*
X182758477Y-80192319D01*
X182696172Y-80213428D01*
X182634322Y-80189226D01*
X182557372Y-80124193D01*
X182493508Y-80043496D01*
X182466858Y-79972488D01*
X182476641Y-79927563D01*
X182532883Y-79841579D01*
X182616415Y-79770996D01*
X182700966Y-79741714D01*
X182814084Y-79766624D01*
G37*
G36*
X168721025Y-79742804D02*
G01*
X168822227Y-79785012D01*
X168900730Y-79870602D01*
X168932286Y-79974937D01*
X168909197Y-80053116D01*
X168836678Y-80138223D01*
X168832093Y-80141791D01*
X168753846Y-80192506D01*
X168696429Y-80213428D01*
X168640635Y-80197239D01*
X168557903Y-80138345D01*
X168489230Y-80059718D01*
X168460572Y-79986348D01*
X168467520Y-79943272D01*
X168521646Y-79848327D01*
X168608488Y-79772625D01*
X168702754Y-79741714D01*
X168721025Y-79742804D01*
G37*
G36*
X170095294Y-74549129D02*
G01*
X170109360Y-74553540D01*
X170278682Y-74637125D01*
X170421847Y-74760399D01*
X170515649Y-74903783D01*
X170543375Y-74993825D01*
X170562847Y-75158390D01*
X170553006Y-75322334D01*
X170513954Y-75452730D01*
X170501989Y-75474149D01*
X170407065Y-75598492D01*
X170285676Y-75710066D01*
X170166000Y-75782190D01*
X170054072Y-75812711D01*
X169863575Y-75811422D01*
X169677322Y-75753606D01*
X169510661Y-75647391D01*
X169378942Y-75500906D01*
X169297511Y-75322278D01*
X169279968Y-75132289D01*
X169323623Y-74949377D01*
X169418507Y-74786860D01*
X169553868Y-74655156D01*
X169718953Y-74564687D01*
X169903012Y-74525871D01*
X170095294Y-74549129D01*
G37*
G36*
X178946346Y-75596071D02*
G01*
X178946197Y-76022914D01*
X178945890Y-76483028D01*
X178945326Y-76879785D01*
X178944374Y-77218255D01*
X178942909Y-77503506D01*
X178940800Y-77740609D01*
X178937920Y-77934632D01*
X178934141Y-78090645D01*
X178929334Y-78213717D01*
X178923371Y-78308919D01*
X178916123Y-78381318D01*
X178907463Y-78435985D01*
X178897261Y-78477989D01*
X178885390Y-78512399D01*
X178871722Y-78544285D01*
X178773667Y-78715112D01*
X178594832Y-78907125D01*
X178372258Y-79046014D01*
X178115458Y-79124482D01*
X178087869Y-79129020D01*
X177885742Y-79152503D01*
X177733711Y-79151382D01*
X177640857Y-79125634D01*
X177631917Y-79114225D01*
X177623308Y-79086842D01*
X177615750Y-79039568D01*
X177609151Y-78968013D01*
X177603425Y-78867787D01*
X177598480Y-78734499D01*
X177594229Y-78563760D01*
X177590582Y-78351180D01*
X177587449Y-78092368D01*
X177584742Y-77782935D01*
X177582372Y-77418491D01*
X177580249Y-76994645D01*
X177578284Y-76507008D01*
X177576389Y-75951190D01*
X177566348Y-72811143D01*
X178256746Y-72811143D01*
X178947143Y-72811142D01*
X178946346Y-75596071D01*
G37*
G36*
X182659022Y-75858156D02*
G01*
X182759771Y-76382750D01*
X182793429Y-76934679D01*
X182793429Y-77347567D01*
X181078929Y-77338141D01*
X179364429Y-77328714D01*
X179355016Y-75151571D01*
X179353617Y-74767568D01*
X179353572Y-74747641D01*
X180035715Y-74747641D01*
X180036128Y-74757696D01*
X180068922Y-74846971D01*
X180136759Y-74921075D01*
X180215060Y-74952000D01*
X180247030Y-74954961D01*
X180366502Y-75003571D01*
X180495117Y-75100842D01*
X180618841Y-75232509D01*
X180723641Y-75384308D01*
X180795484Y-75541974D01*
X180802146Y-75561378D01*
X180847289Y-75662913D01*
X180893944Y-75732474D01*
X180934693Y-75761893D01*
X181018021Y-75786571D01*
X181044645Y-75783168D01*
X181131063Y-75737840D01*
X181203041Y-75660547D01*
X181233115Y-75577928D01*
X181230243Y-75553394D01*
X181199607Y-75456441D01*
X181143791Y-75327936D01*
X181073223Y-75188966D01*
X180998329Y-75060615D01*
X180929533Y-74963969D01*
X180846464Y-74879269D01*
X180687609Y-74755274D01*
X180513122Y-74651274D01*
X180352360Y-74586470D01*
X180269324Y-74573001D01*
X180149542Y-74590397D01*
X180066672Y-74651156D01*
X180035715Y-74747641D01*
X179353572Y-74747641D01*
X179352788Y-74396699D01*
X179352541Y-74053330D01*
X179352857Y-73743899D01*
X179353714Y-73474844D01*
X179355092Y-73252605D01*
X179356970Y-73083621D01*
X179359327Y-72974329D01*
X179362144Y-72931168D01*
X179373784Y-72919502D01*
X179428286Y-72915039D01*
X179533457Y-72932771D01*
X179698128Y-72973818D01*
X179750667Y-72988262D01*
X180278148Y-73171510D01*
X180764392Y-73413911D01*
X181212607Y-73717312D01*
X181626002Y-74083561D01*
X181957642Y-74456693D01*
X182257618Y-74894296D01*
X182491524Y-75361727D01*
X182564471Y-75577928D01*
X182659022Y-75858156D01*
G37*
G36*
X176026143Y-75766546D02*
G01*
X176026175Y-76132990D01*
X176025843Y-76489081D01*
X176024766Y-76709615D01*
X176024393Y-76785876D01*
X176021067Y-77030450D01*
X176015107Y-77229877D01*
X176005755Y-77391232D01*
X175992255Y-77521589D01*
X175973847Y-77628022D01*
X175949775Y-77717607D01*
X175919280Y-77797417D01*
X175881605Y-77874528D01*
X175835992Y-77956013D01*
X175781683Y-78048947D01*
X175592949Y-78321368D01*
X175319846Y-78602924D01*
X174999195Y-78836967D01*
X174639076Y-79017750D01*
X174247569Y-79139531D01*
X174021700Y-79174669D01*
X173717198Y-79189486D01*
X173397809Y-79176694D01*
X173091246Y-79137582D01*
X172825217Y-79073438D01*
X172537152Y-78959175D01*
X172190142Y-78754155D01*
X171881862Y-78488655D01*
X171614002Y-78164193D01*
X171388249Y-77782285D01*
X171316937Y-77640013D01*
X171255363Y-77524417D01*
X171208380Y-77452916D01*
X171166537Y-77414198D01*
X171120386Y-77396949D01*
X171060477Y-77389855D01*
X171033932Y-77388993D01*
X170917224Y-77397624D01*
X170764999Y-77420278D01*
X170603180Y-77453355D01*
X170516610Y-77472403D01*
X170085298Y-77527422D01*
X169671104Y-77511943D01*
X169273868Y-77425949D01*
X168893431Y-77269424D01*
X168563476Y-77063309D01*
X168272093Y-76803585D01*
X168033873Y-76503339D01*
X167851153Y-76169387D01*
X167726271Y-75808547D01*
X167661565Y-75427634D01*
X167660206Y-75183335D01*
X168753273Y-75183335D01*
X168784624Y-75439318D01*
X168870221Y-75683181D01*
X169007952Y-75904040D01*
X169195701Y-76091012D01*
X169431355Y-76233214D01*
X169552129Y-76280858D01*
X169833053Y-76343324D01*
X170105337Y-76341166D01*
X170360825Y-76279226D01*
X170591358Y-76162347D01*
X170788778Y-75995371D01*
X170944926Y-75783140D01*
X170946683Y-75778981D01*
X172415715Y-75778981D01*
X172420149Y-75802954D01*
X172452534Y-75891152D01*
X172511172Y-76022524D01*
X172589942Y-76183714D01*
X172682719Y-76361367D01*
X172762052Y-76509556D01*
X172886410Y-76744135D01*
X173023104Y-77003975D01*
X173160399Y-77266752D01*
X173286561Y-77510142D01*
X173302135Y-77540277D01*
X173408526Y-77742775D01*
X173507559Y-77925824D01*
X173592899Y-78078089D01*
X173658213Y-78188236D01*
X173697167Y-78244928D01*
X173786760Y-78305067D01*
X173899247Y-78326141D01*
X173997783Y-78298801D01*
X174032436Y-78263853D01*
X174080722Y-78190463D01*
X174093933Y-78149069D01*
X174092493Y-78090398D01*
X174072265Y-78008346D01*
X174030213Y-77894763D01*
X173963300Y-77741500D01*
X173868490Y-77540406D01*
X173742746Y-77283333D01*
X173694338Y-77183005D01*
X173633739Y-77049282D01*
X173592245Y-76947213D01*
X173576858Y-76893261D01*
X173577714Y-76884929D01*
X173597983Y-76861920D01*
X173654359Y-76847840D01*
X173758974Y-76840786D01*
X173923957Y-76838857D01*
X174006862Y-76837818D01*
X174157168Y-76830504D01*
X174275369Y-76817723D01*
X174341243Y-76801294D01*
X174363996Y-76788711D01*
X174389879Y-76769996D01*
X174407499Y-76745278D01*
X174414909Y-76709615D01*
X174410160Y-76658065D01*
X174391305Y-76585684D01*
X174356397Y-76487530D01*
X174303489Y-76358661D01*
X174230632Y-76194133D01*
X174135880Y-75989004D01*
X174017284Y-75738332D01*
X173872898Y-75437173D01*
X173700774Y-75080586D01*
X173498964Y-74663627D01*
X173447893Y-74558714D01*
X173344195Y-74349163D01*
X173250253Y-74163809D01*
X173195955Y-74059923D01*
X174481930Y-74059923D01*
X174496199Y-74182931D01*
X174567982Y-74292532D01*
X174633802Y-74339242D01*
X174761209Y-74373632D01*
X174887659Y-74352177D01*
X174989367Y-74275820D01*
X174993338Y-74270677D01*
X175052805Y-74142822D01*
X175051799Y-74014083D01*
X174998138Y-73901288D01*
X174899638Y-73821270D01*
X174764118Y-73790857D01*
X174711784Y-73795731D01*
X174596967Y-73847796D01*
X174517934Y-73942036D01*
X174481930Y-74059923D01*
X173195955Y-74059923D01*
X173171423Y-74012986D01*
X173113061Y-73907029D01*
X173080522Y-73856270D01*
X173045652Y-73826729D01*
X172947663Y-73798186D01*
X172842356Y-73817721D01*
X172749617Y-73875074D01*
X172689334Y-73959984D01*
X172681393Y-74062191D01*
X172684449Y-74072178D01*
X172713182Y-74143770D01*
X172766863Y-74266647D01*
X172840608Y-74429952D01*
X172929534Y-74622828D01*
X173028758Y-74834419D01*
X173062822Y-74906665D01*
X173139775Y-75071604D01*
X173157332Y-75109235D01*
X173238781Y-75286920D01*
X173302608Y-75429574D01*
X173344249Y-75527051D01*
X173359143Y-75569204D01*
X173339543Y-75581241D01*
X173256672Y-75594004D01*
X173117409Y-75602229D01*
X172930972Y-75605142D01*
X172774265Y-75606365D01*
X172616485Y-75613769D01*
X172512503Y-75631101D01*
X172451556Y-75661993D01*
X172422881Y-75710076D01*
X172415715Y-75778981D01*
X170946683Y-75778981D01*
X171051646Y-75530498D01*
X171100778Y-75242285D01*
X171101604Y-75071604D01*
X171057543Y-74813761D01*
X170952183Y-74583993D01*
X170780741Y-74369255D01*
X170725524Y-74314514D01*
X170556063Y-74176587D01*
X170380935Y-74088332D01*
X170179256Y-74041352D01*
X169930143Y-74027251D01*
X169884336Y-74027570D01*
X169639405Y-74048452D01*
X169436389Y-74108149D01*
X169254044Y-74215354D01*
X169071121Y-74378760D01*
X169005847Y-74451505D01*
X168861771Y-74678545D01*
X168778284Y-74926117D01*
X168753273Y-75183335D01*
X167660206Y-75183335D01*
X167659373Y-75033464D01*
X167722032Y-74632856D01*
X167851880Y-74232624D01*
X167865592Y-74198566D01*
X167908868Y-74075779D01*
X167931880Y-73983491D01*
X167929881Y-73939547D01*
X167912733Y-73926902D01*
X167834361Y-73874272D01*
X167696418Y-73784312D01*
X167500144Y-73657818D01*
X167246776Y-73495586D01*
X166937554Y-73298414D01*
X166573715Y-73067098D01*
X166083858Y-72756031D01*
X165956858Y-72819816D01*
X165946976Y-72824716D01*
X165804858Y-72874946D01*
X165673968Y-72871180D01*
X165524977Y-72812952D01*
X165489753Y-72792337D01*
X165378309Y-72689824D01*
X165298166Y-72560123D01*
X165267429Y-72430142D01*
X165274339Y-72376292D01*
X165323745Y-72251514D01*
X165405238Y-72130921D01*
X165500382Y-72044994D01*
X165532678Y-72027230D01*
X165686871Y-71982847D01*
X165848142Y-71988706D01*
X165997980Y-72039243D01*
X166117878Y-72128895D01*
X166189327Y-72252096D01*
X166197658Y-72274946D01*
X166236030Y-72334317D01*
X166306998Y-72401278D01*
X166420999Y-72484763D01*
X166588470Y-72593704D01*
X166710048Y-72670783D01*
X166899047Y-72791488D01*
X167115705Y-72930557D01*
X167341818Y-73076301D01*
X167559182Y-73217030D01*
X167589095Y-73236421D01*
X167773372Y-73354666D01*
X167936150Y-73457103D01*
X168067642Y-73537718D01*
X168158064Y-73590498D01*
X168197630Y-73609428D01*
X168228375Y-73598382D01*
X168286022Y-73548437D01*
X168333424Y-73483859D01*
X168346367Y-73433319D01*
X168329684Y-73414164D01*
X168263854Y-73354556D01*
X168157412Y-73264399D01*
X168020150Y-73151936D01*
X167861857Y-73025409D01*
X167821292Y-72993337D01*
X167608242Y-72824498D01*
X167375819Y-72639777D01*
X167149489Y-72459431D01*
X166954715Y-72303718D01*
X166952481Y-72301929D01*
X166704778Y-72103838D01*
X166507034Y-71947107D01*
X166352907Y-71827404D01*
X166236054Y-71740397D01*
X166150132Y-71681757D01*
X166088798Y-71647151D01*
X166045709Y-71632249D01*
X166014523Y-71632720D01*
X165988896Y-71644231D01*
X165918884Y-71671032D01*
X165787430Y-71684701D01*
X165645245Y-71672014D01*
X165525015Y-71633711D01*
X165445712Y-71579797D01*
X165346448Y-71454854D01*
X165295823Y-71304708D01*
X165299002Y-71149083D01*
X165361146Y-71007704D01*
X165397713Y-70963724D01*
X165529873Y-70860465D01*
X165682502Y-70800406D01*
X165830367Y-70794987D01*
X165888986Y-70810723D01*
X166025602Y-70883109D01*
X166134339Y-70988181D01*
X166192956Y-71106812D01*
X166218922Y-71169395D01*
X166300126Y-71267314D01*
X166440552Y-71386102D01*
X166498154Y-71430769D01*
X166617279Y-71524362D01*
X166778256Y-71651649D01*
X166972719Y-71805987D01*
X167192300Y-71980733D01*
X167428635Y-72169246D01*
X167673355Y-72364882D01*
X168682281Y-73172366D01*
X168870783Y-73066949D01*
X168972039Y-73014787D01*
X169136458Y-72940216D01*
X169295143Y-72877482D01*
X169324155Y-72867281D01*
X169384493Y-72847855D01*
X169447016Y-72831976D01*
X169519544Y-72819165D01*
X169609897Y-72808941D01*
X169725896Y-72800825D01*
X169875361Y-72794338D01*
X170066112Y-72788999D01*
X170305970Y-72784328D01*
X170602754Y-72779846D01*
X170964286Y-72775072D01*
X172397572Y-72756714D01*
X172406853Y-72520857D01*
X172413150Y-72404600D01*
X172423674Y-72281603D01*
X172435081Y-72202073D01*
X172438217Y-72190397D01*
X172493676Y-72112598D01*
X172584112Y-72074741D01*
X172686558Y-72076871D01*
X172778047Y-72119035D01*
X172835610Y-72201278D01*
X172842618Y-72230427D01*
X172854005Y-72335913D01*
X172854983Y-72459151D01*
X172852116Y-72567019D01*
X172861962Y-72678679D01*
X172897956Y-72741325D01*
X172970362Y-72768777D01*
X173089446Y-72774857D01*
X173286572Y-72774857D01*
X173286572Y-72487205D01*
X173286889Y-72409807D01*
X173291458Y-72291294D01*
X173305492Y-72217009D01*
X173334047Y-72167758D01*
X173382180Y-72124348D01*
X173401822Y-72109319D01*
X173497349Y-72057617D01*
X173578747Y-72066873D01*
X173669221Y-72138207D01*
X173673506Y-72142525D01*
X173718357Y-72197209D01*
X173743988Y-72261143D01*
X173755574Y-72355403D01*
X173758286Y-72501065D01*
X173758286Y-72774857D01*
X173957858Y-72774857D01*
X174157429Y-72774857D01*
X174161046Y-72548071D01*
X174161950Y-72504971D01*
X174173073Y-72333343D01*
X174198753Y-72216815D01*
X174243666Y-72141335D01*
X174312484Y-72092852D01*
X174321346Y-72088667D01*
X174410129Y-72064396D01*
X174492379Y-72089213D01*
X174540903Y-72117496D01*
X174587727Y-72162209D01*
X174614060Y-72227849D01*
X174625736Y-72331609D01*
X174628588Y-72490684D01*
X174629143Y-72768940D01*
X174855929Y-72844601D01*
X174858979Y-72845621D01*
X175178709Y-72990356D01*
X175463556Y-73194852D01*
X175704278Y-73451024D01*
X175891631Y-73750784D01*
X176026143Y-74022950D01*
X176026143Y-74142822D01*
X176026143Y-75766546D01*
G37*
G36*
X173056863Y-79991758D02*
G01*
X172887522Y-80166957D01*
X172700510Y-80358571D01*
X172595866Y-80465537D01*
X172578602Y-80483378D01*
X172389103Y-80679205D01*
X172222598Y-80855931D01*
X172088189Y-81005266D01*
X171977713Y-81136760D01*
X171883010Y-81259966D01*
X171795918Y-81384433D01*
X171708274Y-81519714D01*
X171576563Y-81735715D01*
X171328689Y-82179890D01*
X171102918Y-82633540D01*
X170914502Y-83066932D01*
X170897492Y-83110700D01*
X170836080Y-83282901D01*
X170771947Y-83480709D01*
X170709518Y-83688433D01*
X170653220Y-83890381D01*
X170607479Y-84070860D01*
X170576722Y-84214178D01*
X170565375Y-84304642D01*
X170565143Y-84386285D01*
X172039932Y-84386285D01*
X173514720Y-84386285D01*
X173874049Y-84386285D01*
X175539739Y-84386285D01*
X177205429Y-84386285D01*
X177205045Y-84250214D01*
X177203425Y-84184607D01*
X177183140Y-83952754D01*
X177141675Y-83668096D01*
X177081589Y-83342128D01*
X177005445Y-82986347D01*
X176915801Y-82612250D01*
X176815218Y-82231333D01*
X176706256Y-81855094D01*
X176591476Y-81495029D01*
X176588509Y-81486184D01*
X176519766Y-81278772D01*
X176459946Y-81093729D01*
X176412674Y-80942633D01*
X176381575Y-80837065D01*
X176370276Y-80788603D01*
X176350721Y-80754090D01*
X176287936Y-80674577D01*
X176189735Y-80560821D01*
X176064186Y-80422141D01*
X175919361Y-80267857D01*
X175914600Y-80262871D01*
X175755344Y-80096757D01*
X175638063Y-79977277D01*
X175555152Y-79898412D01*
X175499007Y-79854143D01*
X175462024Y-79838450D01*
X175436598Y-79845313D01*
X175415125Y-79868714D01*
X175408430Y-79877632D01*
X175357104Y-79944651D01*
X175273575Y-80052708D01*
X175167817Y-80188926D01*
X175049801Y-80340428D01*
X175013880Y-80386774D01*
X174905621Y-80530471D01*
X174818119Y-80652674D01*
X174759575Y-80741666D01*
X174738190Y-80785728D01*
X174729136Y-80826691D01*
X174700538Y-80926829D01*
X174655944Y-81073090D01*
X174598993Y-81253559D01*
X174533325Y-81456324D01*
X174427924Y-81789174D01*
X174243490Y-82437366D01*
X174090329Y-83070445D01*
X173971863Y-83673613D01*
X173891513Y-84232071D01*
X173874049Y-84386285D01*
X173514720Y-84386285D01*
X173491840Y-84105071D01*
X173486808Y-84036077D01*
X173475345Y-83819561D01*
X173465405Y-83547794D01*
X173457122Y-83233102D01*
X173450629Y-82887814D01*
X173446060Y-82524257D01*
X173443549Y-82154758D01*
X173443228Y-81791646D01*
X173445231Y-81447248D01*
X173449693Y-81133892D01*
X173456745Y-80863905D01*
X173466116Y-80599855D01*
X173474842Y-80388477D01*
X173483738Y-80230066D01*
X173493970Y-80114671D01*
X173506706Y-80032337D01*
X173523110Y-79973114D01*
X173544352Y-79927049D01*
X173571596Y-79884190D01*
X173584430Y-79866106D01*
X173664734Y-79769046D01*
X173741457Y-79696546D01*
X173792287Y-79667979D01*
X173890503Y-79627522D01*
X174007540Y-79587685D01*
X174121864Y-79555093D01*
X174211943Y-79536371D01*
X174256242Y-79538146D01*
X174250479Y-79569389D01*
X174219220Y-79648681D01*
X174169064Y-79756910D01*
X174143853Y-79805972D01*
X174061283Y-79929803D01*
X173985336Y-79983024D01*
X173962453Y-79990413D01*
X173862411Y-80060934D01*
X173787663Y-80170766D01*
X173758286Y-80292542D01*
X173765782Y-80352188D01*
X173826207Y-80465748D01*
X173932463Y-80545916D01*
X174066715Y-80576285D01*
X174153622Y-80564534D01*
X174271024Y-80501654D01*
X174348148Y-80399140D01*
X174374484Y-80273717D01*
X174339526Y-80142107D01*
X174334509Y-80130430D01*
X174333135Y-80081775D01*
X174358840Y-80008633D01*
X174416600Y-79899438D01*
X174511391Y-79742627D01*
X174570396Y-79648486D01*
X174649758Y-79529283D01*
X174718566Y-79445875D01*
X174794054Y-79381912D01*
X174893462Y-79321045D01*
X175034026Y-79246927D01*
X175185996Y-79160678D01*
X175405337Y-79012995D01*
X175594004Y-78859820D01*
X175653415Y-78806794D01*
X175751250Y-78726521D01*
X175821199Y-78678643D01*
X175851033Y-78672096D01*
X175856323Y-78682040D01*
X175896017Y-78743597D01*
X175968912Y-78851366D01*
X176068780Y-78996281D01*
X176189391Y-79169276D01*
X176324516Y-79361283D01*
X176785796Y-80013857D01*
X176787492Y-80226128D01*
X176788269Y-80272986D01*
X176797922Y-80384185D01*
X176824159Y-80454371D01*
X176874328Y-80507343D01*
X176904796Y-80529025D01*
X177029575Y-80572423D01*
X177158456Y-80562810D01*
X177273155Y-80507850D01*
X177355384Y-80415206D01*
X177386857Y-80292542D01*
X177369176Y-80203851D01*
X177318776Y-80104466D01*
X177251993Y-80026964D01*
X177185369Y-79995714D01*
X177173564Y-79990127D01*
X177121954Y-79938248D01*
X177043146Y-79840661D01*
X176945525Y-79708079D01*
X176837475Y-79551214D01*
X176832481Y-79543738D01*
X176698248Y-79344400D01*
X176551939Y-79129650D01*
X176410899Y-78924818D01*
X176292473Y-78755235D01*
X176197318Y-78618743D01*
X176117804Y-78501290D01*
X176064041Y-78417950D01*
X176044286Y-78381164D01*
X176047833Y-78368819D01*
X176075425Y-78302586D01*
X176124408Y-78194786D01*
X176187639Y-78061357D01*
X176209406Y-78015411D01*
X176279323Y-77857378D01*
X176337885Y-77710247D01*
X176374219Y-77600857D01*
X176377470Y-77586042D01*
X176389377Y-77486337D01*
X176400216Y-77326275D01*
X176409886Y-77115551D01*
X176418284Y-76863861D01*
X176425308Y-76580897D01*
X176430855Y-76276354D01*
X176434824Y-75959928D01*
X176437112Y-75641311D01*
X176437617Y-75330198D01*
X176436236Y-75036284D01*
X176432868Y-74769263D01*
X176427410Y-74538830D01*
X176419759Y-74354678D01*
X176409815Y-74226501D01*
X176405454Y-74191037D01*
X176325183Y-73829507D01*
X176185069Y-73502806D01*
X175987909Y-73217622D01*
X175932128Y-73150155D01*
X175881741Y-73082358D01*
X175867616Y-73052459D01*
X175906535Y-73033042D01*
X176020752Y-72996750D01*
X176183230Y-72958252D01*
X176378928Y-72920354D01*
X176592804Y-72885864D01*
X176809818Y-72857589D01*
X177014929Y-72838335D01*
X177169143Y-72827368D01*
X177169143Y-76184822D01*
X177169143Y-79542277D01*
X177341500Y-79669210D01*
X177387842Y-79706315D01*
X177509528Y-79830599D01*
X177598229Y-79959428D01*
X177682600Y-80122714D01*
X177660418Y-82009571D01*
X177659260Y-82106226D01*
X177654429Y-82475440D01*
X177649202Y-82827752D01*
X177643735Y-83155209D01*
X177638186Y-83449861D01*
X177632712Y-83703754D01*
X177627469Y-83908936D01*
X177622616Y-84057454D01*
X177618308Y-84141357D01*
X177598379Y-84386285D01*
X179055349Y-84386285D01*
X179175749Y-84386274D01*
X179518180Y-84385996D01*
X179796523Y-84385132D01*
X180017251Y-84383395D01*
X180186837Y-84380499D01*
X180311754Y-84376160D01*
X180398474Y-84370089D01*
X180453472Y-84362003D01*
X180483220Y-84351614D01*
X180494190Y-84338637D01*
X180492857Y-84322785D01*
X180487967Y-84305478D01*
X180466328Y-84220464D01*
X180435508Y-84093082D01*
X180400480Y-83943738D01*
X180375092Y-83839516D01*
X180255223Y-83435534D01*
X180099499Y-83012169D01*
X179914594Y-82582439D01*
X179707181Y-82159364D01*
X179483933Y-81755964D01*
X179251527Y-81385258D01*
X179016634Y-81060268D01*
X178785929Y-80794011D01*
X178760317Y-80767654D01*
X178604968Y-80606041D01*
X178500151Y-80495399D01*
X179143375Y-80495399D01*
X179175357Y-80615519D01*
X179264543Y-80722002D01*
X179370326Y-80780109D01*
X179494426Y-80782503D01*
X179616444Y-80712357D01*
X179695419Y-80611875D01*
X179728485Y-80485047D01*
X179705115Y-80361775D01*
X179629184Y-80259902D01*
X179504567Y-80197272D01*
X179445982Y-80187890D01*
X179319900Y-80207885D01*
X179222722Y-80276113D01*
X179161522Y-80377107D01*
X179143375Y-80495399D01*
X178500151Y-80495399D01*
X178439948Y-80431850D01*
X178272719Y-80253225D01*
X178110744Y-80078309D01*
X177961485Y-79915247D01*
X177914376Y-79863034D01*
X178703584Y-79863034D01*
X178705547Y-79883720D01*
X178744054Y-79945577D01*
X178814928Y-80025575D01*
X178945828Y-80156475D01*
X179064414Y-80027186D01*
X179089254Y-80001041D01*
X179269874Y-79858654D01*
X179463770Y-79780235D01*
X179661666Y-79768160D01*
X179854286Y-79824807D01*
X179874365Y-79835063D01*
X179956334Y-79888486D01*
X180027843Y-79960349D01*
X180093140Y-80059412D01*
X180156475Y-80194435D01*
X180222095Y-80374177D01*
X180256396Y-80485047D01*
X180294250Y-80607398D01*
X180377189Y-80902857D01*
X180479135Y-81304921D01*
X180598860Y-81864586D01*
X180696801Y-82431619D01*
X180770296Y-82987949D01*
X180816678Y-83515504D01*
X180833283Y-83996214D01*
X180834000Y-84386285D01*
X182775286Y-84386285D01*
X183015357Y-84386221D01*
X183410840Y-84385700D01*
X183741971Y-84384540D01*
X184014101Y-84382599D01*
X184232583Y-84379737D01*
X184402769Y-84375814D01*
X184530010Y-84370689D01*
X184619659Y-84364223D01*
X184677067Y-84356274D01*
X184707588Y-84346703D01*
X184716572Y-84335369D01*
X184709276Y-84297644D01*
X184681999Y-84201532D01*
X184639234Y-84066521D01*
X184586004Y-83909011D01*
X184584749Y-83905409D01*
X184474262Y-83619883D01*
X184332409Y-83300218D01*
X184170859Y-82970263D01*
X184001281Y-82653864D01*
X183835342Y-82374869D01*
X183740893Y-82230357D01*
X183607609Y-82036263D01*
X183462010Y-81832655D01*
X183310816Y-81628171D01*
X183160742Y-81431449D01*
X183018508Y-81251126D01*
X182890830Y-81095839D01*
X182784426Y-80974226D01*
X182706013Y-80894924D01*
X182662309Y-80866571D01*
X182597212Y-80858006D01*
X182465694Y-80817505D01*
X182317423Y-80753972D01*
X182177987Y-80678828D01*
X182072972Y-80603495D01*
X182063428Y-80595079D01*
X182020313Y-80561730D01*
X181964356Y-80526505D01*
X181889999Y-80487168D01*
X181791686Y-80441486D01*
X181663860Y-80387224D01*
X181500963Y-80322150D01*
X181297439Y-80244028D01*
X181047732Y-80150625D01*
X180746283Y-80039706D01*
X180387537Y-79909037D01*
X180386512Y-79908666D01*
X182118570Y-79908666D01*
X182119238Y-80083704D01*
X182150534Y-80176900D01*
X182239338Y-80318439D01*
X182360322Y-80443606D01*
X182492339Y-80527262D01*
X182513306Y-80535559D01*
X182702604Y-80571791D01*
X182885210Y-80545132D01*
X183048760Y-80463980D01*
X183180889Y-80336736D01*
X183269233Y-80171799D01*
X183301429Y-79977571D01*
X183294331Y-79880060D01*
X183234122Y-79692383D01*
X183120647Y-79542237D01*
X182963750Y-79437356D01*
X182773274Y-79385474D01*
X182559064Y-79394326D01*
X182553235Y-79395469D01*
X182401329Y-79460677D01*
X182270796Y-79579629D01*
X182172816Y-79734800D01*
X182118570Y-79908666D01*
X180386512Y-79908666D01*
X179965936Y-79756385D01*
X179224873Y-79488573D01*
X178974006Y-79659983D01*
X178934626Y-79687114D01*
X178823092Y-79766598D01*
X178740906Y-79829121D01*
X178703584Y-79863034D01*
X177914376Y-79863034D01*
X177832404Y-79772181D01*
X177730964Y-79657255D01*
X177664628Y-79578614D01*
X177640857Y-79544400D01*
X177643225Y-79537052D01*
X177676598Y-79541806D01*
X177685667Y-79544727D01*
X177754691Y-79547098D01*
X177869997Y-79539780D01*
X178012241Y-79523810D01*
X178232982Y-79482421D01*
X178550175Y-79372152D01*
X178820434Y-79209288D01*
X179041018Y-78995642D01*
X179209184Y-78733023D01*
X179236406Y-78676406D01*
X179284030Y-78561401D01*
X179313458Y-78450682D01*
X179330351Y-78318634D01*
X179340373Y-78139641D01*
X179354670Y-77783702D01*
X181019631Y-77773922D01*
X181171077Y-77773104D01*
X181585564Y-77771776D01*
X181930366Y-77772238D01*
X182207638Y-77774526D01*
X182419539Y-77778679D01*
X182568225Y-77784732D01*
X182655853Y-77792725D01*
X182684582Y-77802693D01*
X182680048Y-77836251D01*
X182653242Y-77933680D01*
X182607103Y-78069699D01*
X182547105Y-78230943D01*
X182478722Y-78404048D01*
X182407426Y-78575648D01*
X182338690Y-78732380D01*
X182277987Y-78860878D01*
X182230791Y-78947777D01*
X182202574Y-78979714D01*
X182201507Y-78979478D01*
X182156889Y-78965383D01*
X182053532Y-78931597D01*
X181900252Y-78881033D01*
X181705866Y-78816607D01*
X181479191Y-78741235D01*
X181229043Y-78657831D01*
X180264883Y-78335947D01*
X180198473Y-78459262D01*
X180192912Y-78469840D01*
X180158530Y-78561590D01*
X180165532Y-78614901D01*
X180166335Y-78615543D01*
X180211039Y-78635756D01*
X180312118Y-78675648D01*
X180458377Y-78731152D01*
X180638621Y-78798201D01*
X180841652Y-78872728D01*
X181056276Y-78950665D01*
X181271297Y-79027945D01*
X181475519Y-79100502D01*
X181657747Y-79164267D01*
X181806785Y-79215174D01*
X181911437Y-79249155D01*
X182004167Y-79248770D01*
X182130044Y-79202654D01*
X182263176Y-79145933D01*
X182483133Y-79088046D01*
X182702151Y-79066789D01*
X182892293Y-79086423D01*
X183096109Y-79157361D01*
X183304470Y-79279720D01*
X183462336Y-79433392D01*
X183462421Y-79433504D01*
X183523252Y-79529894D01*
X183605116Y-79684056D01*
X183703624Y-79885809D01*
X183746123Y-79977571D01*
X183814392Y-80124974D01*
X183933032Y-80391368D01*
X184055158Y-80674811D01*
X184176382Y-80965122D01*
X184292319Y-81252120D01*
X184398581Y-81525625D01*
X184490781Y-81775454D01*
X184564533Y-81991428D01*
X184581005Y-82043223D01*
X184656738Y-82297426D01*
X184733699Y-82579052D01*
X184809181Y-82875970D01*
X184880478Y-83176048D01*
X184944881Y-83467152D01*
X184999685Y-83737149D01*
X185042183Y-83973908D01*
X185069666Y-84165294D01*
X185079429Y-84299177D01*
X185079429Y-84335369D01*
X185079429Y-84386285D01*
X185746695Y-84386285D01*
X185863008Y-84386411D01*
X186073819Y-84387927D01*
X186227892Y-84391930D01*
X186336142Y-84399379D01*
X186409482Y-84411231D01*
X186458826Y-84428445D01*
X186495088Y-84451978D01*
X186530651Y-84489522D01*
X186571847Y-84589381D01*
X186565516Y-84693491D01*
X186510315Y-84773527D01*
X186509334Y-84774136D01*
X186490223Y-84778886D01*
X186449664Y-84783324D01*
X186385433Y-84787458D01*
X186295307Y-84791299D01*
X186177064Y-84794857D01*
X186028482Y-84798141D01*
X185847337Y-84801162D01*
X185631407Y-84803929D01*
X185378468Y-84806452D01*
X185086299Y-84808740D01*
X184752677Y-84810805D01*
X184375379Y-84812655D01*
X183952181Y-84814300D01*
X183480863Y-84815751D01*
X182959200Y-84817017D01*
X182384970Y-84818108D01*
X181755950Y-84819033D01*
X181069918Y-84819804D01*
X180324651Y-84820428D01*
X179517926Y-84820917D01*
X178647520Y-84821281D01*
X177711212Y-84821528D01*
X176706777Y-84821669D01*
X175631994Y-84821714D01*
X175008538Y-84821707D01*
X173996988Y-84821661D01*
X173054180Y-84821558D01*
X172177697Y-84821386D01*
X171365119Y-84821131D01*
X170614030Y-84820779D01*
X169922013Y-84820318D01*
X169286648Y-84819733D01*
X168705519Y-84819012D01*
X168176207Y-84818142D01*
X167696296Y-84817109D01*
X167263366Y-84815899D01*
X166875002Y-84814499D01*
X166528784Y-84812897D01*
X166222295Y-84811077D01*
X165953117Y-84809029D01*
X165718833Y-84806737D01*
X165517025Y-84804188D01*
X165345275Y-84801370D01*
X165201165Y-84798268D01*
X165082278Y-84794871D01*
X164986196Y-84791163D01*
X164910501Y-84787132D01*
X164852776Y-84782764D01*
X164810602Y-84778047D01*
X164781563Y-84772966D01*
X164763239Y-84767509D01*
X164753215Y-84761662D01*
X164707084Y-84699326D01*
X164691111Y-84588699D01*
X164738289Y-84474863D01*
X164742409Y-84469442D01*
X164766410Y-84446881D01*
X164804300Y-84429672D01*
X164865860Y-84416739D01*
X164960868Y-84407009D01*
X165099103Y-84399406D01*
X165290343Y-84392857D01*
X165544367Y-84386285D01*
X166673500Y-84386285D01*
X168437893Y-84386285D01*
X170202286Y-84386285D01*
X170202615Y-83959928D01*
X170205548Y-83792676D01*
X170224566Y-83444734D01*
X170259471Y-83059717D01*
X170308182Y-82658903D01*
X170368616Y-82263571D01*
X170368891Y-82261955D01*
X170415277Y-82011863D01*
X170472836Y-81736265D01*
X170538441Y-81447253D01*
X170608963Y-81156921D01*
X170681276Y-80877362D01*
X170752252Y-80620669D01*
X170800973Y-80458244D01*
X171314866Y-80458244D01*
X171327760Y-80584155D01*
X171383386Y-80683661D01*
X171479328Y-80750325D01*
X171612897Y-80777336D01*
X171742375Y-80741162D01*
X171849404Y-80643389D01*
X171872688Y-80605179D01*
X171904887Y-80483378D01*
X171881371Y-80371277D01*
X171814965Y-80278441D01*
X171718497Y-80214436D01*
X171604794Y-80188828D01*
X171486681Y-80211184D01*
X171376985Y-80291068D01*
X171345236Y-80338565D01*
X171314866Y-80458244D01*
X170800973Y-80458244D01*
X170818764Y-80398935D01*
X170877684Y-80224253D01*
X170925886Y-80108716D01*
X170946844Y-80070810D01*
X171075745Y-79915834D01*
X171240431Y-79810313D01*
X171425417Y-79761689D01*
X171615216Y-79777404D01*
X171681971Y-79800171D01*
X171826512Y-79879616D01*
X171946931Y-79983822D01*
X172019535Y-80094222D01*
X172052537Y-80181023D01*
X172215983Y-80044399D01*
X172287336Y-79982435D01*
X172353782Y-79918553D01*
X172379429Y-79884797D01*
X172361863Y-79852655D01*
X172302832Y-79798262D01*
X172195566Y-79716755D01*
X172033310Y-79602626D01*
X171814190Y-79451669D01*
X171035453Y-79799103D01*
X170964720Y-79830651D01*
X170709105Y-79944523D01*
X170524717Y-80026529D01*
X170451776Y-80058969D01*
X170209725Y-80166445D01*
X169999946Y-80259402D01*
X169839429Y-80330294D01*
X169671982Y-80407738D01*
X169513267Y-80488121D01*
X169386012Y-80559798D01*
X169308029Y-80613281D01*
X169175340Y-80702350D01*
X168989440Y-80785597D01*
X168784462Y-80844999D01*
X168744827Y-80865352D01*
X168657804Y-80940510D01*
X168541760Y-81062475D01*
X168403322Y-81223194D01*
X168249113Y-81414615D01*
X168085758Y-81628684D01*
X167919883Y-81857348D01*
X167758113Y-82092556D01*
X167642270Y-82273697D01*
X167491215Y-82529222D01*
X167337862Y-82807092D01*
X167188047Y-83095327D01*
X167047602Y-83381953D01*
X166922361Y-83654992D01*
X166818157Y-83902467D01*
X166740823Y-84112401D01*
X166696194Y-84272819D01*
X166673500Y-84386285D01*
X165544367Y-84386285D01*
X166299014Y-84368142D01*
X166359665Y-83967873D01*
X166403619Y-83714010D01*
X166488151Y-83318340D01*
X166595816Y-82886670D01*
X166721775Y-82436064D01*
X166861190Y-81983588D01*
X167009223Y-81546305D01*
X167161036Y-81141281D01*
X167182785Y-81086666D01*
X167303965Y-80788595D01*
X167425598Y-80499016D01*
X167543260Y-80227800D01*
X167652528Y-79984819D01*
X167655940Y-79977571D01*
X168097715Y-79977571D01*
X168106304Y-80063510D01*
X168168912Y-80234954D01*
X168279488Y-80386683D01*
X168422903Y-80494643D01*
X168473635Y-80517910D01*
X168595829Y-80559710D01*
X168695046Y-80576257D01*
X168788193Y-80563698D01*
X168941977Y-80506400D01*
X169087154Y-80417306D01*
X169193203Y-80312572D01*
X169251398Y-80193998D01*
X169286679Y-80026529D01*
X169285359Y-79855878D01*
X169244754Y-79713239D01*
X169241882Y-79707759D01*
X169122362Y-79553356D01*
X168962268Y-79446214D01*
X168778361Y-79391410D01*
X168587399Y-79394022D01*
X168406143Y-79459130D01*
X168324795Y-79519142D01*
X168209364Y-79655824D01*
X168128308Y-79817648D01*
X168097715Y-79977571D01*
X167655940Y-79977571D01*
X167748978Y-79779944D01*
X167828187Y-79623048D01*
X167885732Y-79524000D01*
X167990840Y-79390205D01*
X168190834Y-79218718D01*
X168416949Y-79109475D01*
X168660225Y-79064893D01*
X168911702Y-79087393D01*
X169162420Y-79179392D01*
X169233338Y-79214697D01*
X169321747Y-79254508D01*
X169369000Y-79270000D01*
X169369995Y-79269904D01*
X169415870Y-79254638D01*
X169516665Y-79216455D01*
X169661256Y-79159873D01*
X169838518Y-79089410D01*
X170037326Y-79009581D01*
X170246555Y-78924906D01*
X170455081Y-78839899D01*
X170651778Y-78759080D01*
X170825523Y-78686966D01*
X170965189Y-78628072D01*
X171059653Y-78586918D01*
X171097790Y-78568020D01*
X171101886Y-78552981D01*
X171076767Y-78484034D01*
X171007825Y-78370486D01*
X170980058Y-78352632D01*
X170921436Y-78354171D01*
X170820475Y-78378730D01*
X170664710Y-78428414D01*
X170353057Y-78533141D01*
X170241386Y-78226595D01*
X170198660Y-78109954D01*
X170149422Y-77964913D01*
X170133741Y-77870418D01*
X170159404Y-77815689D01*
X170234198Y-77789944D01*
X170365910Y-77782403D01*
X170562329Y-77782285D01*
X170994944Y-77782285D01*
X171034797Y-77903041D01*
X171043945Y-77929085D01*
X171136007Y-78118935D01*
X171274869Y-78331281D01*
X171448229Y-78551498D01*
X171643788Y-78764956D01*
X171849246Y-78957028D01*
X172052302Y-79113087D01*
X172075113Y-79128214D01*
X172313576Y-79264631D01*
X172577742Y-79383219D01*
X172847259Y-79476807D01*
X173101779Y-79538220D01*
X173320949Y-79560285D01*
X173323944Y-79560295D01*
X173399879Y-79568524D01*
X173430783Y-79587500D01*
X173429591Y-79590187D01*
X173394898Y-79632188D01*
X173316948Y-79717619D01*
X173202137Y-79839727D01*
X173159070Y-79884797D01*
X173056863Y-79991758D01*
G37*
%TD*%
M02*
