%TF.GenerationSoftware,KiCad,Pcbnew,8.0.1*%
%TF.CreationDate,2024-08-17T14:40:10+02:00*%
%TF.ProjectId,robal_power_board,726f6261-6c5f-4706-9f77-65725f626f61,rev?*%
%TF.SameCoordinates,Original*%
%TF.FileFunction,Drillmap*%
%TF.FilePolarity,Positive*%
%FSLAX45Y45*%
G04 Gerber Fmt 4.5, Leading zero omitted, Abs format (unit mm)*
G04 Created by KiCad (PCBNEW 8.0.1) date 2024-08-17 14:40:10*
%MOMM*%
%LPD*%
G01*
G04 APERTURE LIST*
%ADD10C,0.050000*%
%ADD11C,0.200000*%
%ADD12C,0.100000*%
%ADD13C,0.120000*%
%ADD14C,0.190000*%
%ADD15C,0.270000*%
G04 APERTURE END LIST*
D10*
X20380600Y-9322200D02*
G75*
G02*
X20060600Y-9322200I-160000J0D01*
G01*
X20060600Y-9322200D02*
G75*
G02*
X20380600Y-9322200I160000J0D01*
G01*
X20527800Y-10905585D02*
G75*
G02*
X20327800Y-11106151I-200000J-565D01*
G01*
X7660000Y-7200000D02*
G75*
G02*
X7340000Y-7200000I-160000J0D01*
G01*
X7340000Y-7200000D02*
G75*
G02*
X7660000Y-7200000I160000J0D01*
G01*
X6527800Y-8106150D02*
G75*
G02*
X6669284Y-7764791I482540J0D01*
G01*
X7184591Y-4965700D02*
X8225000Y-4965655D01*
X20527800Y-10905585D02*
X20527800Y-6905585D01*
X13106400Y-6705600D02*
X20327800Y-6705585D01*
X17160000Y-10807200D02*
G75*
G02*
X16840000Y-10807200I-160000J0D01*
G01*
X16840000Y-10807200D02*
G75*
G02*
X17160000Y-10807200I160000J0D01*
G01*
X20327800Y-11106151D02*
X6727800Y-11106151D01*
X6984591Y-5165700D02*
X6984591Y-7378639D01*
X6984780Y-7378639D02*
G75*
G02*
X6939726Y-7494621I-171810J-1D01*
G01*
X8225000Y-4965655D02*
G75*
G02*
X8905288Y-5092944I30970J-1716015D01*
G01*
X6984591Y-5165700D02*
G75*
G02*
X7184591Y-4965701I199999J0D01*
G01*
X20380600Y-7207200D02*
G75*
G02*
X20060600Y-7207200I-160000J0D01*
G01*
X20060600Y-7207200D02*
G75*
G02*
X20380600Y-7207200I160000J0D01*
G01*
X6527800Y-10906150D02*
X6527800Y-8106150D01*
X6975000Y-5125000D02*
X6975000Y-5125000D01*
X13106400Y-6705600D02*
X8905288Y-5092944D01*
X20327800Y-6705585D02*
G75*
G02*
X20527795Y-6905585I0J-199995D01*
G01*
X6669285Y-7764792D02*
X6939725Y-7494620D01*
X6727800Y-11106151D02*
G75*
G02*
X6527799Y-10906150I0J200001D01*
G01*
D11*
D12*
X14134904Y-8755356D02*
X14164904Y-8785356D01*
X14164904Y-8755356D02*
X14134904Y-8785356D01*
X14209000Y-8219665D02*
X14239000Y-8249665D01*
X14239000Y-8219665D02*
X14209000Y-8249665D01*
X14213186Y-7531550D02*
X14243186Y-7561550D01*
X14243186Y-7531550D02*
X14213186Y-7561550D01*
X10764200Y-10642600D02*
G75*
G02*
X10724200Y-10642600I-20000J0D01*
G01*
X10724200Y-10642600D02*
G75*
G02*
X10764200Y-10642600I20000J0D01*
G01*
X10916600Y-10642600D02*
G75*
G02*
X10876600Y-10642600I-20000J0D01*
G01*
X10876600Y-10642600D02*
G75*
G02*
X10916600Y-10642600I20000J0D01*
G01*
X11069000Y-10642600D02*
G75*
G02*
X11029000Y-10642600I-20000J0D01*
G01*
X11029000Y-10642600D02*
G75*
G02*
X11069000Y-10642600I20000J0D01*
G01*
X12897800Y-9093200D02*
G75*
G02*
X12857800Y-9093200I-20000J0D01*
G01*
X12857800Y-9093200D02*
G75*
G02*
X12897800Y-9093200I20000J0D01*
G01*
X12897800Y-9220200D02*
G75*
G02*
X12857800Y-9220200I-20000J0D01*
G01*
X12857800Y-9220200D02*
G75*
G02*
X12897800Y-9220200I20000J0D01*
G01*
X12897800Y-9347200D02*
G75*
G02*
X12857800Y-9347200I-20000J0D01*
G01*
X12857800Y-9347200D02*
G75*
G02*
X12897800Y-9347200I20000J0D01*
G01*
X12897800Y-9474200D02*
G75*
G02*
X12857800Y-9474200I-20000J0D01*
G01*
X12857800Y-9474200D02*
G75*
G02*
X12897800Y-9474200I20000J0D01*
G01*
X12897800Y-9601200D02*
G75*
G02*
X12857800Y-9601200I-20000J0D01*
G01*
X12857800Y-9601200D02*
G75*
G02*
X12897800Y-9601200I20000J0D01*
G01*
X12897800Y-9728200D02*
G75*
G02*
X12857800Y-9728200I-20000J0D01*
G01*
X12857800Y-9728200D02*
G75*
G02*
X12897800Y-9728200I20000J0D01*
G01*
X12897800Y-9855200D02*
G75*
G02*
X12857800Y-9855200I-20000J0D01*
G01*
X12857800Y-9855200D02*
G75*
G02*
X12897800Y-9855200I20000J0D01*
G01*
X12897800Y-9982200D02*
G75*
G02*
X12857800Y-9982200I-20000J0D01*
G01*
X12857800Y-9982200D02*
G75*
G02*
X12897800Y-9982200I20000J0D01*
G01*
X12897800Y-10109200D02*
G75*
G02*
X12857800Y-10109200I-20000J0D01*
G01*
X12857800Y-10109200D02*
G75*
G02*
X12897800Y-10109200I20000J0D01*
G01*
X12897800Y-10236200D02*
G75*
G02*
X12857800Y-10236200I-20000J0D01*
G01*
X12857800Y-10236200D02*
G75*
G02*
X12897800Y-10236200I20000J0D01*
G01*
X13024800Y-9093200D02*
G75*
G02*
X12984800Y-9093200I-20000J0D01*
G01*
X12984800Y-9093200D02*
G75*
G02*
X13024800Y-9093200I20000J0D01*
G01*
X13024800Y-9220200D02*
G75*
G02*
X12984800Y-9220200I-20000J0D01*
G01*
X12984800Y-9220200D02*
G75*
G02*
X13024800Y-9220200I20000J0D01*
G01*
X13024800Y-9347200D02*
G75*
G02*
X12984800Y-9347200I-20000J0D01*
G01*
X12984800Y-9347200D02*
G75*
G02*
X13024800Y-9347200I20000J0D01*
G01*
X13024800Y-9474200D02*
G75*
G02*
X12984800Y-9474200I-20000J0D01*
G01*
X12984800Y-9474200D02*
G75*
G02*
X13024800Y-9474200I20000J0D01*
G01*
X13024800Y-9601200D02*
G75*
G02*
X12984800Y-9601200I-20000J0D01*
G01*
X12984800Y-9601200D02*
G75*
G02*
X13024800Y-9601200I20000J0D01*
G01*
X13024800Y-9728200D02*
G75*
G02*
X12984800Y-9728200I-20000J0D01*
G01*
X12984800Y-9728200D02*
G75*
G02*
X13024800Y-9728200I20000J0D01*
G01*
X13024800Y-9855200D02*
G75*
G02*
X12984800Y-9855200I-20000J0D01*
G01*
X12984800Y-9855200D02*
G75*
G02*
X13024800Y-9855200I20000J0D01*
G01*
X13024800Y-9982200D02*
G75*
G02*
X12984800Y-9982200I-20000J0D01*
G01*
X12984800Y-9982200D02*
G75*
G02*
X13024800Y-9982200I20000J0D01*
G01*
X13024800Y-10109200D02*
G75*
G02*
X12984800Y-10109200I-20000J0D01*
G01*
X12984800Y-10109200D02*
G75*
G02*
X13024800Y-10109200I20000J0D01*
G01*
X13024800Y-10236200D02*
G75*
G02*
X12984800Y-10236200I-20000J0D01*
G01*
X12984800Y-10236200D02*
G75*
G02*
X13024800Y-10236200I20000J0D01*
G01*
X13151800Y-9093200D02*
G75*
G02*
X13111800Y-9093200I-20000J0D01*
G01*
X13111800Y-9093200D02*
G75*
G02*
X13151800Y-9093200I20000J0D01*
G01*
X13151800Y-9220200D02*
G75*
G02*
X13111800Y-9220200I-20000J0D01*
G01*
X13111800Y-9220200D02*
G75*
G02*
X13151800Y-9220200I20000J0D01*
G01*
X13151800Y-9347200D02*
G75*
G02*
X13111800Y-9347200I-20000J0D01*
G01*
X13111800Y-9347200D02*
G75*
G02*
X13151800Y-9347200I20000J0D01*
G01*
X13151800Y-9474200D02*
G75*
G02*
X13111800Y-9474200I-20000J0D01*
G01*
X13111800Y-9474200D02*
G75*
G02*
X13151800Y-9474200I20000J0D01*
G01*
X13151800Y-9601200D02*
G75*
G02*
X13111800Y-9601200I-20000J0D01*
G01*
X13111800Y-9601200D02*
G75*
G02*
X13151800Y-9601200I20000J0D01*
G01*
X13151800Y-9728200D02*
G75*
G02*
X13111800Y-9728200I-20000J0D01*
G01*
X13111800Y-9728200D02*
G75*
G02*
X13151800Y-9728200I20000J0D01*
G01*
X13151800Y-9855200D02*
G75*
G02*
X13111800Y-9855200I-20000J0D01*
G01*
X13111800Y-9855200D02*
G75*
G02*
X13151800Y-9855200I20000J0D01*
G01*
X13151800Y-9982200D02*
G75*
G02*
X13111800Y-9982200I-20000J0D01*
G01*
X13111800Y-9982200D02*
G75*
G02*
X13151800Y-9982200I20000J0D01*
G01*
X13151800Y-10109200D02*
G75*
G02*
X13111800Y-10109200I-20000J0D01*
G01*
X13111800Y-10109200D02*
G75*
G02*
X13151800Y-10109200I20000J0D01*
G01*
X13151800Y-10236200D02*
G75*
G02*
X13111800Y-10236200I-20000J0D01*
G01*
X13111800Y-10236200D02*
G75*
G02*
X13151800Y-10236200I20000J0D01*
G01*
X13278800Y-9093200D02*
G75*
G02*
X13238800Y-9093200I-20000J0D01*
G01*
X13238800Y-9093200D02*
G75*
G02*
X13278800Y-9093200I20000J0D01*
G01*
X13278800Y-9474200D02*
G75*
G02*
X13238800Y-9474200I-20000J0D01*
G01*
X13238800Y-9474200D02*
G75*
G02*
X13278800Y-9474200I20000J0D01*
G01*
X13278800Y-9601200D02*
G75*
G02*
X13238800Y-9601200I-20000J0D01*
G01*
X13238800Y-9601200D02*
G75*
G02*
X13278800Y-9601200I20000J0D01*
G01*
X13278800Y-9728200D02*
G75*
G02*
X13238800Y-9728200I-20000J0D01*
G01*
X13238800Y-9728200D02*
G75*
G02*
X13278800Y-9728200I20000J0D01*
G01*
X13278800Y-9855200D02*
G75*
G02*
X13238800Y-9855200I-20000J0D01*
G01*
X13238800Y-9855200D02*
G75*
G02*
X13278800Y-9855200I20000J0D01*
G01*
X13278800Y-9982200D02*
G75*
G02*
X13238800Y-9982200I-20000J0D01*
G01*
X13238800Y-9982200D02*
G75*
G02*
X13278800Y-9982200I20000J0D01*
G01*
X13278800Y-10109200D02*
G75*
G02*
X13238800Y-10109200I-20000J0D01*
G01*
X13238800Y-10109200D02*
G75*
G02*
X13278800Y-10109200I20000J0D01*
G01*
X13278800Y-10236200D02*
G75*
G02*
X13238800Y-10236200I-20000J0D01*
G01*
X13238800Y-10236200D02*
G75*
G02*
X13278800Y-10236200I20000J0D01*
G01*
X13405800Y-9093200D02*
G75*
G02*
X13365800Y-9093200I-20000J0D01*
G01*
X13365800Y-9093200D02*
G75*
G02*
X13405800Y-9093200I20000J0D01*
G01*
X13405800Y-9474200D02*
G75*
G02*
X13365800Y-9474200I-20000J0D01*
G01*
X13365800Y-9474200D02*
G75*
G02*
X13405800Y-9474200I20000J0D01*
G01*
X13405800Y-9601200D02*
G75*
G02*
X13365800Y-9601200I-20000J0D01*
G01*
X13365800Y-9601200D02*
G75*
G02*
X13405800Y-9601200I20000J0D01*
G01*
X13405800Y-9728200D02*
G75*
G02*
X13365800Y-9728200I-20000J0D01*
G01*
X13365800Y-9728200D02*
G75*
G02*
X13405800Y-9728200I20000J0D01*
G01*
X13405800Y-9855200D02*
G75*
G02*
X13365800Y-9855200I-20000J0D01*
G01*
X13365800Y-9855200D02*
G75*
G02*
X13405800Y-9855200I20000J0D01*
G01*
X13405800Y-9982200D02*
G75*
G02*
X13365800Y-9982200I-20000J0D01*
G01*
X13365800Y-9982200D02*
G75*
G02*
X13405800Y-9982200I20000J0D01*
G01*
X13405800Y-10109200D02*
G75*
G02*
X13365800Y-10109200I-20000J0D01*
G01*
X13365800Y-10109200D02*
G75*
G02*
X13405800Y-10109200I20000J0D01*
G01*
X13405800Y-10236200D02*
G75*
G02*
X13365800Y-10236200I-20000J0D01*
G01*
X13365800Y-10236200D02*
G75*
G02*
X13405800Y-10236200I20000J0D01*
G01*
X13532800Y-9093200D02*
G75*
G02*
X13492800Y-9093200I-20000J0D01*
G01*
X13492800Y-9093200D02*
G75*
G02*
X13532800Y-9093200I20000J0D01*
G01*
X13532800Y-9220200D02*
G75*
G02*
X13492800Y-9220200I-20000J0D01*
G01*
X13492800Y-9220200D02*
G75*
G02*
X13532800Y-9220200I20000J0D01*
G01*
X13532800Y-9347200D02*
G75*
G02*
X13492800Y-9347200I-20000J0D01*
G01*
X13492800Y-9347200D02*
G75*
G02*
X13532800Y-9347200I20000J0D01*
G01*
X13532800Y-9474200D02*
G75*
G02*
X13492800Y-9474200I-20000J0D01*
G01*
X13492800Y-9474200D02*
G75*
G02*
X13532800Y-9474200I20000J0D01*
G01*
X13532800Y-9601200D02*
G75*
G02*
X13492800Y-9601200I-20000J0D01*
G01*
X13492800Y-9601200D02*
G75*
G02*
X13532800Y-9601200I20000J0D01*
G01*
X13532800Y-9728200D02*
G75*
G02*
X13492800Y-9728200I-20000J0D01*
G01*
X13492800Y-9728200D02*
G75*
G02*
X13532800Y-9728200I20000J0D01*
G01*
X13532800Y-9855200D02*
G75*
G02*
X13492800Y-9855200I-20000J0D01*
G01*
X13492800Y-9855200D02*
G75*
G02*
X13532800Y-9855200I20000J0D01*
G01*
X13532800Y-9982200D02*
G75*
G02*
X13492800Y-9982200I-20000J0D01*
G01*
X13492800Y-9982200D02*
G75*
G02*
X13532800Y-9982200I20000J0D01*
G01*
X13532800Y-10109200D02*
G75*
G02*
X13492800Y-10109200I-20000J0D01*
G01*
X13492800Y-10109200D02*
G75*
G02*
X13532800Y-10109200I20000J0D01*
G01*
X13532800Y-10236200D02*
G75*
G02*
X13492800Y-10236200I-20000J0D01*
G01*
X13492800Y-10236200D02*
G75*
G02*
X13532800Y-10236200I20000J0D01*
G01*
X13659800Y-9093200D02*
G75*
G02*
X13619800Y-9093200I-20000J0D01*
G01*
X13619800Y-9093200D02*
G75*
G02*
X13659800Y-9093200I20000J0D01*
G01*
X13659800Y-9220200D02*
G75*
G02*
X13619800Y-9220200I-20000J0D01*
G01*
X13619800Y-9220200D02*
G75*
G02*
X13659800Y-9220200I20000J0D01*
G01*
X13659800Y-9347200D02*
G75*
G02*
X13619800Y-9347200I-20000J0D01*
G01*
X13619800Y-9347200D02*
G75*
G02*
X13659800Y-9347200I20000J0D01*
G01*
X13659800Y-9474200D02*
G75*
G02*
X13619800Y-9474200I-20000J0D01*
G01*
X13619800Y-9474200D02*
G75*
G02*
X13659800Y-9474200I20000J0D01*
G01*
X13659800Y-9601200D02*
G75*
G02*
X13619800Y-9601200I-20000J0D01*
G01*
X13619800Y-9601200D02*
G75*
G02*
X13659800Y-9601200I20000J0D01*
G01*
X13659800Y-9728200D02*
G75*
G02*
X13619800Y-9728200I-20000J0D01*
G01*
X13619800Y-9728200D02*
G75*
G02*
X13659800Y-9728200I20000J0D01*
G01*
X13659800Y-9855200D02*
G75*
G02*
X13619800Y-9855200I-20000J0D01*
G01*
X13619800Y-9855200D02*
G75*
G02*
X13659800Y-9855200I20000J0D01*
G01*
X13659800Y-9982200D02*
G75*
G02*
X13619800Y-9982200I-20000J0D01*
G01*
X13619800Y-9982200D02*
G75*
G02*
X13659800Y-9982200I20000J0D01*
G01*
X13659800Y-10109200D02*
G75*
G02*
X13619800Y-10109200I-20000J0D01*
G01*
X13619800Y-10109200D02*
G75*
G02*
X13659800Y-10109200I20000J0D01*
G01*
X13659800Y-10236200D02*
G75*
G02*
X13619800Y-10236200I-20000J0D01*
G01*
X13619800Y-10236200D02*
G75*
G02*
X13659800Y-10236200I20000J0D01*
G01*
X13786800Y-9093200D02*
G75*
G02*
X13746800Y-9093200I-20000J0D01*
G01*
X13746800Y-9093200D02*
G75*
G02*
X13786800Y-9093200I20000J0D01*
G01*
X13786800Y-9220200D02*
G75*
G02*
X13746800Y-9220200I-20000J0D01*
G01*
X13746800Y-9220200D02*
G75*
G02*
X13786800Y-9220200I20000J0D01*
G01*
X13786800Y-9347200D02*
G75*
G02*
X13746800Y-9347200I-20000J0D01*
G01*
X13746800Y-9347200D02*
G75*
G02*
X13786800Y-9347200I20000J0D01*
G01*
X13786800Y-9474200D02*
G75*
G02*
X13746800Y-9474200I-20000J0D01*
G01*
X13746800Y-9474200D02*
G75*
G02*
X13786800Y-9474200I20000J0D01*
G01*
X13786800Y-9601200D02*
G75*
G02*
X13746800Y-9601200I-20000J0D01*
G01*
X13746800Y-9601200D02*
G75*
G02*
X13786800Y-9601200I20000J0D01*
G01*
X13786800Y-9728200D02*
G75*
G02*
X13746800Y-9728200I-20000J0D01*
G01*
X13746800Y-9728200D02*
G75*
G02*
X13786800Y-9728200I20000J0D01*
G01*
X13786800Y-9855200D02*
G75*
G02*
X13746800Y-9855200I-20000J0D01*
G01*
X13746800Y-9855200D02*
G75*
G02*
X13786800Y-9855200I20000J0D01*
G01*
X13786800Y-9982200D02*
G75*
G02*
X13746800Y-9982200I-20000J0D01*
G01*
X13746800Y-9982200D02*
G75*
G02*
X13786800Y-9982200I20000J0D01*
G01*
X13786800Y-10109200D02*
G75*
G02*
X13746800Y-10109200I-20000J0D01*
G01*
X13746800Y-10109200D02*
G75*
G02*
X13786800Y-10109200I20000J0D01*
G01*
X13786800Y-10236200D02*
G75*
G02*
X13746800Y-10236200I-20000J0D01*
G01*
X13746800Y-10236200D02*
G75*
G02*
X13786800Y-10236200I20000J0D01*
G01*
X13913800Y-9093200D02*
G75*
G02*
X13873800Y-9093200I-20000J0D01*
G01*
X13873800Y-9093200D02*
G75*
G02*
X13913800Y-9093200I20000J0D01*
G01*
X13913800Y-9220200D02*
G75*
G02*
X13873800Y-9220200I-20000J0D01*
G01*
X13873800Y-9220200D02*
G75*
G02*
X13913800Y-9220200I20000J0D01*
G01*
X13913800Y-9347200D02*
G75*
G02*
X13873800Y-9347200I-20000J0D01*
G01*
X13873800Y-9347200D02*
G75*
G02*
X13913800Y-9347200I20000J0D01*
G01*
X13913800Y-9474200D02*
G75*
G02*
X13873800Y-9474200I-20000J0D01*
G01*
X13873800Y-9474200D02*
G75*
G02*
X13913800Y-9474200I20000J0D01*
G01*
X13913800Y-9601200D02*
G75*
G02*
X13873800Y-9601200I-20000J0D01*
G01*
X13873800Y-9601200D02*
G75*
G02*
X13913800Y-9601200I20000J0D01*
G01*
X13913800Y-9728200D02*
G75*
G02*
X13873800Y-9728200I-20000J0D01*
G01*
X13873800Y-9728200D02*
G75*
G02*
X13913800Y-9728200I20000J0D01*
G01*
X13913800Y-9855200D02*
G75*
G02*
X13873800Y-9855200I-20000J0D01*
G01*
X13873800Y-9855200D02*
G75*
G02*
X13913800Y-9855200I20000J0D01*
G01*
X13913800Y-9982200D02*
G75*
G02*
X13873800Y-9982200I-20000J0D01*
G01*
X13873800Y-9982200D02*
G75*
G02*
X13913800Y-9982200I20000J0D01*
G01*
X13913800Y-10109200D02*
G75*
G02*
X13873800Y-10109200I-20000J0D01*
G01*
X13873800Y-10109200D02*
G75*
G02*
X13913800Y-10109200I20000J0D01*
G01*
X13913800Y-10236200D02*
G75*
G02*
X13873800Y-10236200I-20000J0D01*
G01*
X13873800Y-10236200D02*
G75*
G02*
X13913800Y-10236200I20000J0D01*
G01*
X14040800Y-9728200D02*
G75*
G02*
X14000800Y-9728200I-20000J0D01*
G01*
X14000800Y-9728200D02*
G75*
G02*
X14040800Y-9728200I20000J0D01*
G01*
X14040800Y-9855200D02*
G75*
G02*
X14000800Y-9855200I-20000J0D01*
G01*
X14000800Y-9855200D02*
G75*
G02*
X14040800Y-9855200I20000J0D01*
G01*
X14040800Y-9982200D02*
G75*
G02*
X14000800Y-9982200I-20000J0D01*
G01*
X14000800Y-9982200D02*
G75*
G02*
X14040800Y-9982200I20000J0D01*
G01*
X14040800Y-10109200D02*
G75*
G02*
X14000800Y-10109200I-20000J0D01*
G01*
X14000800Y-10109200D02*
G75*
G02*
X14040800Y-10109200I20000J0D01*
G01*
X14040800Y-10236200D02*
G75*
G02*
X14000800Y-10236200I-20000J0D01*
G01*
X14000800Y-10236200D02*
G75*
G02*
X14040800Y-10236200I20000J0D01*
G01*
X14040800Y-10337800D02*
G75*
G02*
X14000800Y-10337800I-20000J0D01*
G01*
X14000800Y-10337800D02*
G75*
G02*
X14040800Y-10337800I20000J0D01*
G01*
X14167800Y-9728200D02*
G75*
G02*
X14127800Y-9728200I-20000J0D01*
G01*
X14127800Y-9728200D02*
G75*
G02*
X14167800Y-9728200I20000J0D01*
G01*
X14167800Y-9855200D02*
G75*
G02*
X14127800Y-9855200I-20000J0D01*
G01*
X14127800Y-9855200D02*
G75*
G02*
X14167800Y-9855200I20000J0D01*
G01*
X14167800Y-9982200D02*
G75*
G02*
X14127800Y-9982200I-20000J0D01*
G01*
X14127800Y-9982200D02*
G75*
G02*
X14167800Y-9982200I20000J0D01*
G01*
X14167800Y-10109200D02*
G75*
G02*
X14127800Y-10109200I-20000J0D01*
G01*
X14127800Y-10109200D02*
G75*
G02*
X14167800Y-10109200I20000J0D01*
G01*
X14167800Y-10236200D02*
G75*
G02*
X14127800Y-10236200I-20000J0D01*
G01*
X14127800Y-10236200D02*
G75*
G02*
X14167800Y-10236200I20000J0D01*
G01*
X14167800Y-10337800D02*
G75*
G02*
X14127800Y-10337800I-20000J0D01*
G01*
X14127800Y-10337800D02*
G75*
G02*
X14167800Y-10337800I20000J0D01*
G01*
X14294800Y-9728200D02*
G75*
G02*
X14254800Y-9728200I-20000J0D01*
G01*
X14254800Y-9728200D02*
G75*
G02*
X14294800Y-9728200I20000J0D01*
G01*
X14294800Y-9855200D02*
G75*
G02*
X14254800Y-9855200I-20000J0D01*
G01*
X14254800Y-9855200D02*
G75*
G02*
X14294800Y-9855200I20000J0D01*
G01*
X14294800Y-9982200D02*
G75*
G02*
X14254800Y-9982200I-20000J0D01*
G01*
X14254800Y-9982200D02*
G75*
G02*
X14294800Y-9982200I20000J0D01*
G01*
X14294800Y-10109200D02*
G75*
G02*
X14254800Y-10109200I-20000J0D01*
G01*
X14254800Y-10109200D02*
G75*
G02*
X14294800Y-10109200I20000J0D01*
G01*
X14294800Y-10236200D02*
G75*
G02*
X14254800Y-10236200I-20000J0D01*
G01*
X14254800Y-10236200D02*
G75*
G02*
X14294800Y-10236200I20000J0D01*
G01*
X14294800Y-10337800D02*
G75*
G02*
X14254800Y-10337800I-20000J0D01*
G01*
X14254800Y-10337800D02*
G75*
G02*
X14294800Y-10337800I20000J0D01*
G01*
X14421800Y-9728200D02*
G75*
G02*
X14381800Y-9728200I-20000J0D01*
G01*
X14381800Y-9728200D02*
G75*
G02*
X14421800Y-9728200I20000J0D01*
G01*
X14421800Y-9855200D02*
G75*
G02*
X14381800Y-9855200I-20000J0D01*
G01*
X14381800Y-9855200D02*
G75*
G02*
X14421800Y-9855200I20000J0D01*
G01*
X14421800Y-9982200D02*
G75*
G02*
X14381800Y-9982200I-20000J0D01*
G01*
X14381800Y-9982200D02*
G75*
G02*
X14421800Y-9982200I20000J0D01*
G01*
X14421800Y-10109200D02*
G75*
G02*
X14381800Y-10109200I-20000J0D01*
G01*
X14381800Y-10109200D02*
G75*
G02*
X14421800Y-10109200I20000J0D01*
G01*
X14421800Y-10236200D02*
G75*
G02*
X14381800Y-10236200I-20000J0D01*
G01*
X14381800Y-10236200D02*
G75*
G02*
X14421800Y-10236200I20000J0D01*
G01*
X14421800Y-10337800D02*
G75*
G02*
X14381800Y-10337800I-20000J0D01*
G01*
X14381800Y-10337800D02*
G75*
G02*
X14421800Y-10337800I20000J0D01*
G01*
X14548800Y-9728200D02*
G75*
G02*
X14508800Y-9728200I-20000J0D01*
G01*
X14508800Y-9728200D02*
G75*
G02*
X14548800Y-9728200I20000J0D01*
G01*
X14548800Y-9855200D02*
G75*
G02*
X14508800Y-9855200I-20000J0D01*
G01*
X14508800Y-9855200D02*
G75*
G02*
X14548800Y-9855200I20000J0D01*
G01*
X14548800Y-9982200D02*
G75*
G02*
X14508800Y-9982200I-20000J0D01*
G01*
X14508800Y-9982200D02*
G75*
G02*
X14548800Y-9982200I20000J0D01*
G01*
X14548800Y-10109200D02*
G75*
G02*
X14508800Y-10109200I-20000J0D01*
G01*
X14508800Y-10109200D02*
G75*
G02*
X14548800Y-10109200I20000J0D01*
G01*
X14548800Y-10236200D02*
G75*
G02*
X14508800Y-10236200I-20000J0D01*
G01*
X14508800Y-10236200D02*
G75*
G02*
X14548800Y-10236200I20000J0D01*
G01*
X14548800Y-10337800D02*
G75*
G02*
X14508800Y-10337800I-20000J0D01*
G01*
X14508800Y-10337800D02*
G75*
G02*
X14548800Y-10337800I20000J0D01*
G01*
X14675800Y-9728200D02*
G75*
G02*
X14635800Y-9728200I-20000J0D01*
G01*
X14635800Y-9728200D02*
G75*
G02*
X14675800Y-9728200I20000J0D01*
G01*
X14675800Y-9855200D02*
G75*
G02*
X14635800Y-9855200I-20000J0D01*
G01*
X14635800Y-9855200D02*
G75*
G02*
X14675800Y-9855200I20000J0D01*
G01*
X14675800Y-9982200D02*
G75*
G02*
X14635800Y-9982200I-20000J0D01*
G01*
X14635800Y-9982200D02*
G75*
G02*
X14675800Y-9982200I20000J0D01*
G01*
X14675800Y-10109200D02*
G75*
G02*
X14635800Y-10109200I-20000J0D01*
G01*
X14635800Y-10109200D02*
G75*
G02*
X14675800Y-10109200I20000J0D01*
G01*
X14675800Y-10236200D02*
G75*
G02*
X14635800Y-10236200I-20000J0D01*
G01*
X14635800Y-10236200D02*
G75*
G02*
X14675800Y-10236200I20000J0D01*
G01*
X14675800Y-10337800D02*
G75*
G02*
X14635800Y-10337800I-20000J0D01*
G01*
X14635800Y-10337800D02*
G75*
G02*
X14675800Y-10337800I20000J0D01*
G01*
X14802800Y-9855200D02*
G75*
G02*
X14762800Y-9855200I-20000J0D01*
G01*
X14762800Y-9855200D02*
G75*
G02*
X14802800Y-9855200I20000J0D01*
G01*
X14802800Y-9982200D02*
G75*
G02*
X14762800Y-9982200I-20000J0D01*
G01*
X14762800Y-9982200D02*
G75*
G02*
X14802800Y-9982200I20000J0D01*
G01*
X14802800Y-10109200D02*
G75*
G02*
X14762800Y-10109200I-20000J0D01*
G01*
X14762800Y-10109200D02*
G75*
G02*
X14802800Y-10109200I20000J0D01*
G01*
X14802800Y-10236200D02*
G75*
G02*
X14762800Y-10236200I-20000J0D01*
G01*
X14762800Y-10236200D02*
G75*
G02*
X14802800Y-10236200I20000J0D01*
G01*
X14802800Y-10337800D02*
G75*
G02*
X14762800Y-10337800I-20000J0D01*
G01*
X14762800Y-10337800D02*
G75*
G02*
X14802800Y-10337800I20000J0D01*
G01*
X14929800Y-9982200D02*
G75*
G02*
X14889800Y-9982200I-20000J0D01*
G01*
X14889800Y-9982200D02*
G75*
G02*
X14929800Y-9982200I20000J0D01*
G01*
X14929800Y-10109200D02*
G75*
G02*
X14889800Y-10109200I-20000J0D01*
G01*
X14889800Y-10109200D02*
G75*
G02*
X14929800Y-10109200I20000J0D01*
G01*
X14929800Y-10236200D02*
G75*
G02*
X14889800Y-10236200I-20000J0D01*
G01*
X14889800Y-10236200D02*
G75*
G02*
X14929800Y-10236200I20000J0D01*
G01*
X14929800Y-10337800D02*
G75*
G02*
X14889800Y-10337800I-20000J0D01*
G01*
X14889800Y-10337800D02*
G75*
G02*
X14929800Y-10337800I20000J0D01*
G01*
X17491800Y-7119200D02*
G75*
G02*
X17451800Y-7119200I-20000J0D01*
G01*
X17451800Y-7119200D02*
G75*
G02*
X17491800Y-7119200I20000J0D01*
G01*
X17491800Y-7246200D02*
G75*
G02*
X17451800Y-7246200I-20000J0D01*
G01*
X17451800Y-7246200D02*
G75*
G02*
X17491800Y-7246200I20000J0D01*
G01*
X17491800Y-7373200D02*
G75*
G02*
X17451800Y-7373200I-20000J0D01*
G01*
X17451800Y-7373200D02*
G75*
G02*
X17491800Y-7373200I20000J0D01*
G01*
X17491800Y-7500200D02*
G75*
G02*
X17451800Y-7500200I-20000J0D01*
G01*
X17451800Y-7500200D02*
G75*
G02*
X17491800Y-7500200I20000J0D01*
G01*
X17491800Y-7627200D02*
G75*
G02*
X17451800Y-7627200I-20000J0D01*
G01*
X17451800Y-7627200D02*
G75*
G02*
X17491800Y-7627200I20000J0D01*
G01*
X17491800Y-7754200D02*
G75*
G02*
X17451800Y-7754200I-20000J0D01*
G01*
X17451800Y-7754200D02*
G75*
G02*
X17491800Y-7754200I20000J0D01*
G01*
X17491800Y-7881200D02*
G75*
G02*
X17451800Y-7881200I-20000J0D01*
G01*
X17451800Y-7881200D02*
G75*
G02*
X17491800Y-7881200I20000J0D01*
G01*
X17491800Y-8008200D02*
G75*
G02*
X17451800Y-8008200I-20000J0D01*
G01*
X17451800Y-8008200D02*
G75*
G02*
X17491800Y-8008200I20000J0D01*
G01*
X17493000Y-6873000D02*
G75*
G02*
X17453000Y-6873000I-20000J0D01*
G01*
X17453000Y-6873000D02*
G75*
G02*
X17493000Y-6873000I20000J0D01*
G01*
X17493000Y-7000000D02*
G75*
G02*
X17453000Y-7000000I-20000J0D01*
G01*
X17453000Y-7000000D02*
G75*
G02*
X17493000Y-7000000I20000J0D01*
G01*
X17618800Y-7119200D02*
G75*
G02*
X17578800Y-7119200I-20000J0D01*
G01*
X17578800Y-7119200D02*
G75*
G02*
X17618800Y-7119200I20000J0D01*
G01*
X17618800Y-7246200D02*
G75*
G02*
X17578800Y-7246200I-20000J0D01*
G01*
X17578800Y-7246200D02*
G75*
G02*
X17618800Y-7246200I20000J0D01*
G01*
X17618800Y-7373200D02*
G75*
G02*
X17578800Y-7373200I-20000J0D01*
G01*
X17578800Y-7373200D02*
G75*
G02*
X17618800Y-7373200I20000J0D01*
G01*
X17618800Y-7500200D02*
G75*
G02*
X17578800Y-7500200I-20000J0D01*
G01*
X17578800Y-7500200D02*
G75*
G02*
X17618800Y-7500200I20000J0D01*
G01*
X17618800Y-7627200D02*
G75*
G02*
X17578800Y-7627200I-20000J0D01*
G01*
X17578800Y-7627200D02*
G75*
G02*
X17618800Y-7627200I20000J0D01*
G01*
X17618800Y-7754200D02*
G75*
G02*
X17578800Y-7754200I-20000J0D01*
G01*
X17578800Y-7754200D02*
G75*
G02*
X17618800Y-7754200I20000J0D01*
G01*
X17618800Y-7881200D02*
G75*
G02*
X17578800Y-7881200I-20000J0D01*
G01*
X17578800Y-7881200D02*
G75*
G02*
X17618800Y-7881200I20000J0D01*
G01*
X17618800Y-8008200D02*
G75*
G02*
X17578800Y-8008200I-20000J0D01*
G01*
X17578800Y-8008200D02*
G75*
G02*
X17618800Y-8008200I20000J0D01*
G01*
X17620000Y-6873000D02*
G75*
G02*
X17580000Y-6873000I-20000J0D01*
G01*
X17580000Y-6873000D02*
G75*
G02*
X17620000Y-6873000I20000J0D01*
G01*
X17620000Y-7000000D02*
G75*
G02*
X17580000Y-7000000I-20000J0D01*
G01*
X17580000Y-7000000D02*
G75*
G02*
X17620000Y-7000000I20000J0D01*
G01*
X17745800Y-7119200D02*
G75*
G02*
X17705800Y-7119200I-20000J0D01*
G01*
X17705800Y-7119200D02*
G75*
G02*
X17745800Y-7119200I20000J0D01*
G01*
X17745800Y-7246200D02*
G75*
G02*
X17705800Y-7246200I-20000J0D01*
G01*
X17705800Y-7246200D02*
G75*
G02*
X17745800Y-7246200I20000J0D01*
G01*
X17745800Y-7373200D02*
G75*
G02*
X17705800Y-7373200I-20000J0D01*
G01*
X17705800Y-7373200D02*
G75*
G02*
X17745800Y-7373200I20000J0D01*
G01*
X17745800Y-7500200D02*
G75*
G02*
X17705800Y-7500200I-20000J0D01*
G01*
X17705800Y-7500200D02*
G75*
G02*
X17745800Y-7500200I20000J0D01*
G01*
X17745800Y-7627200D02*
G75*
G02*
X17705800Y-7627200I-20000J0D01*
G01*
X17705800Y-7627200D02*
G75*
G02*
X17745800Y-7627200I20000J0D01*
G01*
X17745800Y-7754200D02*
G75*
G02*
X17705800Y-7754200I-20000J0D01*
G01*
X17705800Y-7754200D02*
G75*
G02*
X17745800Y-7754200I20000J0D01*
G01*
X17745800Y-7881200D02*
G75*
G02*
X17705800Y-7881200I-20000J0D01*
G01*
X17705800Y-7881200D02*
G75*
G02*
X17745800Y-7881200I20000J0D01*
G01*
X17745800Y-8008200D02*
G75*
G02*
X17705800Y-8008200I-20000J0D01*
G01*
X17705800Y-8008200D02*
G75*
G02*
X17745800Y-8008200I20000J0D01*
G01*
X17747000Y-6873000D02*
G75*
G02*
X17707000Y-6873000I-20000J0D01*
G01*
X17707000Y-6873000D02*
G75*
G02*
X17747000Y-6873000I20000J0D01*
G01*
X17747000Y-7000000D02*
G75*
G02*
X17707000Y-7000000I-20000J0D01*
G01*
X17707000Y-7000000D02*
G75*
G02*
X17747000Y-7000000I20000J0D01*
G01*
X17796600Y-9252800D02*
G75*
G02*
X17756600Y-9252800I-20000J0D01*
G01*
X17756600Y-9252800D02*
G75*
G02*
X17796600Y-9252800I20000J0D01*
G01*
X17796600Y-9379800D02*
G75*
G02*
X17756600Y-9379800I-20000J0D01*
G01*
X17756600Y-9379800D02*
G75*
G02*
X17796600Y-9379800I20000J0D01*
G01*
X17796600Y-9506800D02*
G75*
G02*
X17756600Y-9506800I-20000J0D01*
G01*
X17756600Y-9506800D02*
G75*
G02*
X17796600Y-9506800I20000J0D01*
G01*
X17796600Y-9633800D02*
G75*
G02*
X17756600Y-9633800I-20000J0D01*
G01*
X17756600Y-9633800D02*
G75*
G02*
X17796600Y-9633800I20000J0D01*
G01*
X17796600Y-9760800D02*
G75*
G02*
X17756600Y-9760800I-20000J0D01*
G01*
X17756600Y-9760800D02*
G75*
G02*
X17796600Y-9760800I20000J0D01*
G01*
X17796600Y-9887800D02*
G75*
G02*
X17756600Y-9887800I-20000J0D01*
G01*
X17756600Y-9887800D02*
G75*
G02*
X17796600Y-9887800I20000J0D01*
G01*
X18074749Y-8555204D02*
G75*
G02*
X18034749Y-8555204I-20000J0D01*
G01*
X18034749Y-8555204D02*
G75*
G02*
X18074749Y-8555204I20000J0D01*
G01*
X18076000Y-8643200D02*
G75*
G02*
X18036000Y-8643200I-20000J0D01*
G01*
X18036000Y-8643200D02*
G75*
G02*
X18076000Y-8643200I20000J0D01*
G01*
X18163628Y-8554184D02*
G75*
G02*
X18123628Y-8554184I-20000J0D01*
G01*
X18123628Y-8554184D02*
G75*
G02*
X18163628Y-8554184I20000J0D01*
G01*
X18169022Y-8646770D02*
G75*
G02*
X18129022Y-8646770I-20000J0D01*
G01*
X18129022Y-8646770D02*
G75*
G02*
X18169022Y-8646770I20000J0D01*
G01*
X18198528Y-6916196D02*
G75*
G02*
X18158528Y-6916196I-20000J0D01*
G01*
X18158528Y-6916196D02*
G75*
G02*
X18198528Y-6916196I20000J0D01*
G01*
X18201225Y-6813723D02*
G75*
G02*
X18161225Y-6813723I-20000J0D01*
G01*
X18161225Y-6813723D02*
G75*
G02*
X18201225Y-6813723I20000J0D01*
G01*
X18302349Y-6910803D02*
G75*
G02*
X18262349Y-6910803I-20000J0D01*
G01*
X18262349Y-6910803D02*
G75*
G02*
X18302349Y-6910803I20000J0D01*
G01*
X18306394Y-6811027D02*
G75*
G02*
X18266394Y-6811027I-20000J0D01*
G01*
X18266394Y-6811027D02*
G75*
G02*
X18306394Y-6811027I20000J0D01*
G01*
X8039800Y-5187800D02*
X8039800Y-5247800D01*
X8009800Y-5217800D02*
X8069800Y-5217800D01*
X7984800Y-5247800D02*
X8094800Y-5247800D01*
X8094800Y-5187800D02*
G75*
G02*
X8094800Y-5247800I0J-30000D01*
G01*
X8094800Y-5187800D02*
X7984800Y-5187800D01*
X7984800Y-5187800D02*
G75*
G03*
X7984800Y-5247800I0J-30000D01*
G01*
X8039800Y-6537800D02*
X8039800Y-6597800D01*
X8009800Y-6567800D02*
X8069800Y-6567800D01*
X7984800Y-6597800D02*
X8094800Y-6597800D01*
X8094800Y-6537800D02*
G75*
G02*
X8094800Y-6597800I0J-30000D01*
G01*
X8094800Y-6537800D02*
X7984800Y-6537800D01*
X7984800Y-6537800D02*
G75*
G03*
X7984800Y-6597800I0J-30000D01*
G01*
X14212749Y-9275189D02*
X14212749Y-9222155D01*
X14159716Y-9222155D01*
X14159716Y-9275189D01*
X14212749Y-9275189D01*
X14212749Y-9475189D02*
X14212749Y-9422155D01*
X14159716Y-9422155D01*
X14159716Y-9475189D01*
X14212749Y-9475189D01*
X14301317Y-10643717D02*
X14301317Y-10590683D01*
X14248283Y-10590683D01*
X14248283Y-10643717D01*
X14301317Y-10643717D01*
X14301317Y-10843717D02*
X14301317Y-10790683D01*
X14248283Y-10790683D01*
X14248283Y-10843717D01*
X14301317Y-10843717D01*
X14352117Y-7011517D02*
X14352117Y-6958483D01*
X14299083Y-6958483D01*
X14299083Y-7011517D01*
X14352117Y-7011517D01*
X14352117Y-7211517D02*
X14352117Y-7158483D01*
X14299083Y-7158483D01*
X14299083Y-7211517D01*
X14352117Y-7211517D01*
X14860117Y-10643717D02*
X14860117Y-10590683D01*
X14807083Y-10590683D01*
X14807083Y-10643717D01*
X14860117Y-10643717D01*
X14860117Y-10843717D02*
X14860117Y-10790683D01*
X14807083Y-10790683D01*
X14807083Y-10843717D01*
X14860117Y-10843717D01*
X14915117Y-7013117D02*
X14915117Y-6960083D01*
X14862083Y-6960083D01*
X14862083Y-7013117D01*
X14915117Y-7013117D01*
X14915117Y-7213117D02*
X14915117Y-7160083D01*
X14862083Y-7160083D01*
X14862083Y-7213117D01*
X14915117Y-7213117D01*
X7500000Y-9997500D02*
X7547500Y-9950000D01*
X7500000Y-9902500D01*
X7452500Y-9950000D01*
X7500000Y-9997500D01*
X7500000Y-10247500D02*
X7547500Y-10200000D01*
X7500000Y-10152500D01*
X7452500Y-10200000D01*
X7500000Y-10247500D01*
X7500000Y-10497500D02*
X7547500Y-10450000D01*
X7500000Y-10402500D01*
X7452500Y-10450000D01*
X7500000Y-10497500D01*
X7500000Y-10747500D02*
X7547500Y-10700000D01*
X7500000Y-10652500D01*
X7452500Y-10700000D01*
X7500000Y-10747500D01*
X6897600Y-8025000D02*
X6997600Y-8125000D01*
X6997600Y-8025000D02*
X6897600Y-8125000D01*
X6997600Y-8075000D02*
G75*
G02*
X6897600Y-8075000I-50000J0D01*
G01*
X6897600Y-8075000D02*
G75*
G02*
X6997600Y-8075000I50000J0D01*
G01*
X6897600Y-9125000D02*
X6997600Y-9225000D01*
X6997600Y-9125000D02*
X6897600Y-9225000D01*
X6997600Y-9175000D02*
G75*
G02*
X6897600Y-9175000I-50000J0D01*
G01*
X6897600Y-9175000D02*
G75*
G02*
X6997600Y-9175000I50000J0D01*
G01*
X15389800Y-7602600D02*
X15489800Y-7702600D01*
X15489800Y-7602600D02*
X15389800Y-7702600D01*
X15489800Y-7652600D02*
G75*
G02*
X15389800Y-7652600I-50000J0D01*
G01*
X15389800Y-7652600D02*
G75*
G02*
X15489800Y-7652600I50000J0D01*
G01*
X15440600Y-10109200D02*
X15540600Y-10209200D01*
X15540600Y-10109200D02*
X15440600Y-10209200D01*
X15540600Y-10159200D02*
G75*
G02*
X15440600Y-10159200I-50000J0D01*
G01*
X15440600Y-10159200D02*
G75*
G02*
X15540600Y-10159200I50000J0D01*
G01*
X16489800Y-7602600D02*
X16589800Y-7702600D01*
X16589800Y-7602600D02*
X16489800Y-7702600D01*
X16589800Y-7652600D02*
G75*
G02*
X16489800Y-7652600I-50000J0D01*
G01*
X16489800Y-7652600D02*
G75*
G02*
X16589800Y-7652600I50000J0D01*
G01*
X16540600Y-10109200D02*
X16640600Y-10209200D01*
X16640600Y-10109200D02*
X16540600Y-10209200D01*
X16640600Y-10159200D02*
G75*
G02*
X16540600Y-10159200I-50000J0D01*
G01*
X16540600Y-10159200D02*
G75*
G02*
X16640600Y-10159200I50000J0D01*
G01*
X19500600Y-7507200D02*
X19600600Y-7607200D01*
X19600600Y-7507200D02*
X19500600Y-7607200D01*
X19600600Y-7557200D02*
G75*
G02*
X19500600Y-7557200I-50000J0D01*
G01*
X19500600Y-7557200D02*
G75*
G02*
X19600600Y-7557200I50000J0D01*
G01*
X19500600Y-8807200D02*
X19600600Y-8907200D01*
X19600600Y-8807200D02*
X19500600Y-8907200D01*
X19600600Y-8857200D02*
G75*
G02*
X19500600Y-8857200I-50000J0D01*
G01*
X19500600Y-8857200D02*
G75*
G02*
X19600600Y-8857200I50000J0D01*
G01*
X19525600Y-9782200D02*
X19625600Y-9882200D01*
X19625600Y-9782200D02*
X19525600Y-9882200D01*
X19625600Y-9832200D02*
G75*
G02*
X19525600Y-9832200I-50000J0D01*
G01*
X19525600Y-9832200D02*
G75*
G02*
X19625600Y-9832200I50000J0D01*
G01*
X19525600Y-10882200D02*
X19625600Y-10982200D01*
X19625600Y-10882200D02*
X19525600Y-10982200D01*
X19625600Y-10932200D02*
G75*
G02*
X19525600Y-10932200I-50000J0D01*
G01*
X19525600Y-10932200D02*
G75*
G02*
X19625600Y-10932200I50000J0D01*
G01*
D13*
X8497400Y-7123600D02*
X8617400Y-7243600D01*
X8617400Y-7123600D02*
X8497400Y-7243600D01*
X8557400Y-7123600D02*
X8557400Y-7243600D01*
X8497400Y-7183600D02*
X8617400Y-7183600D01*
X13297400Y-9253600D02*
X13417400Y-9373600D01*
X13417400Y-9253600D02*
X13297400Y-9373600D01*
X13357400Y-9253600D02*
X13357400Y-9373600D01*
X13297400Y-9313600D02*
X13417400Y-9313600D01*
D14*
X7352600Y-8280000D02*
X7542600Y-8470000D01*
X7542600Y-8280000D02*
X7352600Y-8470000D01*
X7514776Y-8442176D02*
X7514776Y-8307824D01*
X7380424Y-8307824D01*
X7380424Y-8442176D01*
X7514776Y-8442176D01*
X7352600Y-8780000D02*
X7542600Y-8970000D01*
X7542600Y-8780000D02*
X7352600Y-8970000D01*
X7514776Y-8942176D02*
X7514776Y-8807824D01*
X7380424Y-8807824D01*
X7380424Y-8942176D01*
X7514776Y-8942176D01*
X15644800Y-8057600D02*
X15834800Y-8247600D01*
X15834800Y-8057600D02*
X15644800Y-8247600D01*
X15806976Y-8219776D02*
X15806976Y-8085424D01*
X15672624Y-8085424D01*
X15672624Y-8219776D01*
X15806976Y-8219776D01*
X15695600Y-9564200D02*
X15885600Y-9754200D01*
X15885600Y-9564200D02*
X15695600Y-9754200D01*
X15857776Y-9726376D02*
X15857776Y-9592024D01*
X15723424Y-9592024D01*
X15723424Y-9726376D01*
X15857776Y-9726376D01*
X16144800Y-8057600D02*
X16334800Y-8247600D01*
X16334800Y-8057600D02*
X16144800Y-8247600D01*
X16306976Y-8219776D02*
X16306976Y-8085424D01*
X16172624Y-8085424D01*
X16172624Y-8219776D01*
X16306976Y-8219776D01*
X16195600Y-9564200D02*
X16385600Y-9754200D01*
X16385600Y-9564200D02*
X16195600Y-9754200D01*
X16357776Y-9726376D02*
X16357776Y-9592024D01*
X16223424Y-9592024D01*
X16223424Y-9726376D01*
X16357776Y-9726376D01*
X18955600Y-7762200D02*
X19145600Y-7952200D01*
X19145600Y-7762200D02*
X18955600Y-7952200D01*
X19117776Y-7924376D02*
X19117776Y-7790024D01*
X18983424Y-7790024D01*
X18983424Y-7924376D01*
X19117776Y-7924376D01*
X18955600Y-8112200D02*
X19145600Y-8302200D01*
X19145600Y-8112200D02*
X18955600Y-8302200D01*
X19117776Y-8274376D02*
X19117776Y-8140024D01*
X18983424Y-8140024D01*
X18983424Y-8274376D01*
X19117776Y-8274376D01*
X18955600Y-8462200D02*
X19145600Y-8652200D01*
X19145600Y-8462200D02*
X18955600Y-8652200D01*
X19117776Y-8624376D02*
X19117776Y-8490024D01*
X18983424Y-8490024D01*
X18983424Y-8624376D01*
X19117776Y-8624376D01*
X18980600Y-10037200D02*
X19170600Y-10227200D01*
X19170600Y-10037200D02*
X18980600Y-10227200D01*
X19142776Y-10199376D02*
X19142776Y-10065024D01*
X19008424Y-10065024D01*
X19008424Y-10199376D01*
X19142776Y-10199376D01*
X18980600Y-10537200D02*
X19170600Y-10727200D01*
X19170600Y-10537200D02*
X18980600Y-10727200D01*
X19142776Y-10699376D02*
X19142776Y-10565024D01*
X19008424Y-10565024D01*
X19008424Y-10699376D01*
X19142776Y-10699376D01*
D15*
X8504800Y-5397800D02*
X8774800Y-5667800D01*
X8774800Y-5397800D02*
X8504800Y-5667800D01*
X8639800Y-5667800D02*
X8774800Y-5532800D01*
X8639800Y-5397800D01*
X8504800Y-5532800D01*
X8639800Y-5667800D01*
X8504800Y-6117800D02*
X8774800Y-6387800D01*
X8774800Y-6117800D02*
X8504800Y-6387800D01*
X8639800Y-6387800D02*
X8774800Y-6252800D01*
X8639800Y-6117800D01*
X8504800Y-6252800D01*
X8639800Y-6387800D01*
D11*
X6786077Y-11420134D02*
X6786077Y-11220134D01*
X6786077Y-11220134D02*
X6833696Y-11220134D01*
X6833696Y-11220134D02*
X6862267Y-11229658D01*
X6862267Y-11229658D02*
X6881315Y-11248706D01*
X6881315Y-11248706D02*
X6890839Y-11267753D01*
X6890839Y-11267753D02*
X6900362Y-11305849D01*
X6900362Y-11305849D02*
X6900362Y-11334420D01*
X6900362Y-11334420D02*
X6890839Y-11372515D01*
X6890839Y-11372515D02*
X6881315Y-11391563D01*
X6881315Y-11391563D02*
X6862267Y-11410611D01*
X6862267Y-11410611D02*
X6833696Y-11420134D01*
X6833696Y-11420134D02*
X6786077Y-11420134D01*
X6986077Y-11420134D02*
X6986077Y-11286801D01*
X6986077Y-11324896D02*
X6995601Y-11305849D01*
X6995601Y-11305849D02*
X7005124Y-11296325D01*
X7005124Y-11296325D02*
X7024172Y-11286801D01*
X7024172Y-11286801D02*
X7043220Y-11286801D01*
X7109886Y-11420134D02*
X7109886Y-11286801D01*
X7109886Y-11220134D02*
X7100362Y-11229658D01*
X7100362Y-11229658D02*
X7109886Y-11239182D01*
X7109886Y-11239182D02*
X7119410Y-11229658D01*
X7119410Y-11229658D02*
X7109886Y-11220134D01*
X7109886Y-11220134D02*
X7109886Y-11239182D01*
X7233696Y-11420134D02*
X7214648Y-11410611D01*
X7214648Y-11410611D02*
X7205124Y-11391563D01*
X7205124Y-11391563D02*
X7205124Y-11220134D01*
X7338458Y-11420134D02*
X7319410Y-11410611D01*
X7319410Y-11410611D02*
X7309886Y-11391563D01*
X7309886Y-11391563D02*
X7309886Y-11220134D01*
X7567029Y-11420134D02*
X7567029Y-11220134D01*
X7567029Y-11220134D02*
X7633696Y-11362992D01*
X7633696Y-11362992D02*
X7700362Y-11220134D01*
X7700362Y-11220134D02*
X7700362Y-11420134D01*
X7881315Y-11420134D02*
X7881315Y-11315373D01*
X7881315Y-11315373D02*
X7871791Y-11296325D01*
X7871791Y-11296325D02*
X7852743Y-11286801D01*
X7852743Y-11286801D02*
X7814648Y-11286801D01*
X7814648Y-11286801D02*
X7795601Y-11296325D01*
X7881315Y-11410611D02*
X7862267Y-11420134D01*
X7862267Y-11420134D02*
X7814648Y-11420134D01*
X7814648Y-11420134D02*
X7795601Y-11410611D01*
X7795601Y-11410611D02*
X7786077Y-11391563D01*
X7786077Y-11391563D02*
X7786077Y-11372515D01*
X7786077Y-11372515D02*
X7795601Y-11353468D01*
X7795601Y-11353468D02*
X7814648Y-11343944D01*
X7814648Y-11343944D02*
X7862267Y-11343944D01*
X7862267Y-11343944D02*
X7881315Y-11334420D01*
X7976553Y-11286801D02*
X7976553Y-11486801D01*
X7976553Y-11296325D02*
X7995601Y-11286801D01*
X7995601Y-11286801D02*
X8033696Y-11286801D01*
X8033696Y-11286801D02*
X8052743Y-11296325D01*
X8052743Y-11296325D02*
X8062267Y-11305849D01*
X8062267Y-11305849D02*
X8071791Y-11324896D01*
X8071791Y-11324896D02*
X8071791Y-11382039D01*
X8071791Y-11382039D02*
X8062267Y-11401087D01*
X8062267Y-11401087D02*
X8052743Y-11410611D01*
X8052743Y-11410611D02*
X8033696Y-11420134D01*
X8033696Y-11420134D02*
X7995601Y-11420134D01*
X7995601Y-11420134D02*
X7976553Y-11410611D01*
X8157505Y-11401087D02*
X8167029Y-11410611D01*
X8167029Y-11410611D02*
X8157505Y-11420134D01*
X8157505Y-11420134D02*
X8147982Y-11410611D01*
X8147982Y-11410611D02*
X8157505Y-11401087D01*
X8157505Y-11401087D02*
X8157505Y-11420134D01*
X8157505Y-11296325D02*
X8167029Y-11305849D01*
X8167029Y-11305849D02*
X8157505Y-11315373D01*
X8157505Y-11315373D02*
X8147982Y-11305849D01*
X8147982Y-11305849D02*
X8157505Y-11296325D01*
X8157505Y-11296325D02*
X8157505Y-11315373D01*
D12*
X6495300Y-11733651D02*
X6525300Y-11763651D01*
X6525300Y-11733651D02*
X6495300Y-11763651D01*
D11*
X6824172Y-11640134D02*
X6843220Y-11640134D01*
X6843220Y-11640134D02*
X6862267Y-11649658D01*
X6862267Y-11649658D02*
X6871791Y-11659182D01*
X6871791Y-11659182D02*
X6881315Y-11678230D01*
X6881315Y-11678230D02*
X6890839Y-11716325D01*
X6890839Y-11716325D02*
X6890839Y-11763944D01*
X6890839Y-11763944D02*
X6881315Y-11802039D01*
X6881315Y-11802039D02*
X6871791Y-11821087D01*
X6871791Y-11821087D02*
X6862267Y-11830611D01*
X6862267Y-11830611D02*
X6843220Y-11840134D01*
X6843220Y-11840134D02*
X6824172Y-11840134D01*
X6824172Y-11840134D02*
X6805124Y-11830611D01*
X6805124Y-11830611D02*
X6795601Y-11821087D01*
X6795601Y-11821087D02*
X6786077Y-11802039D01*
X6786077Y-11802039D02*
X6776553Y-11763944D01*
X6776553Y-11763944D02*
X6776553Y-11716325D01*
X6776553Y-11716325D02*
X6786077Y-11678230D01*
X6786077Y-11678230D02*
X6795601Y-11659182D01*
X6795601Y-11659182D02*
X6805124Y-11649658D01*
X6805124Y-11649658D02*
X6824172Y-11640134D01*
X6976553Y-11821087D02*
X6986077Y-11830611D01*
X6986077Y-11830611D02*
X6976553Y-11840134D01*
X6976553Y-11840134D02*
X6967029Y-11830611D01*
X6967029Y-11830611D02*
X6976553Y-11821087D01*
X6976553Y-11821087D02*
X6976553Y-11840134D01*
X7052743Y-11640134D02*
X7176553Y-11640134D01*
X7176553Y-11640134D02*
X7109886Y-11716325D01*
X7109886Y-11716325D02*
X7138458Y-11716325D01*
X7138458Y-11716325D02*
X7157505Y-11725849D01*
X7157505Y-11725849D02*
X7167029Y-11735373D01*
X7167029Y-11735373D02*
X7176553Y-11754420D01*
X7176553Y-11754420D02*
X7176553Y-11802039D01*
X7176553Y-11802039D02*
X7167029Y-11821087D01*
X7167029Y-11821087D02*
X7157505Y-11830611D01*
X7157505Y-11830611D02*
X7138458Y-11840134D01*
X7138458Y-11840134D02*
X7081315Y-11840134D01*
X7081315Y-11840134D02*
X7062267Y-11830611D01*
X7062267Y-11830611D02*
X7052743Y-11821087D01*
X7300362Y-11640134D02*
X7319410Y-11640134D01*
X7319410Y-11640134D02*
X7338458Y-11649658D01*
X7338458Y-11649658D02*
X7347982Y-11659182D01*
X7347982Y-11659182D02*
X7357505Y-11678230D01*
X7357505Y-11678230D02*
X7367029Y-11716325D01*
X7367029Y-11716325D02*
X7367029Y-11763944D01*
X7367029Y-11763944D02*
X7357505Y-11802039D01*
X7357505Y-11802039D02*
X7347982Y-11821087D01*
X7347982Y-11821087D02*
X7338458Y-11830611D01*
X7338458Y-11830611D02*
X7319410Y-11840134D01*
X7319410Y-11840134D02*
X7300362Y-11840134D01*
X7300362Y-11840134D02*
X7281315Y-11830611D01*
X7281315Y-11830611D02*
X7271791Y-11821087D01*
X7271791Y-11821087D02*
X7262267Y-11802039D01*
X7262267Y-11802039D02*
X7252743Y-11763944D01*
X7252743Y-11763944D02*
X7252743Y-11716325D01*
X7252743Y-11716325D02*
X7262267Y-11678230D01*
X7262267Y-11678230D02*
X7271791Y-11659182D01*
X7271791Y-11659182D02*
X7281315Y-11649658D01*
X7281315Y-11649658D02*
X7300362Y-11640134D01*
X7490839Y-11640134D02*
X7509886Y-11640134D01*
X7509886Y-11640134D02*
X7528934Y-11649658D01*
X7528934Y-11649658D02*
X7538458Y-11659182D01*
X7538458Y-11659182D02*
X7547982Y-11678230D01*
X7547982Y-11678230D02*
X7557505Y-11716325D01*
X7557505Y-11716325D02*
X7557505Y-11763944D01*
X7557505Y-11763944D02*
X7547982Y-11802039D01*
X7547982Y-11802039D02*
X7538458Y-11821087D01*
X7538458Y-11821087D02*
X7528934Y-11830611D01*
X7528934Y-11830611D02*
X7509886Y-11840134D01*
X7509886Y-11840134D02*
X7490839Y-11840134D01*
X7490839Y-11840134D02*
X7471791Y-11830611D01*
X7471791Y-11830611D02*
X7462267Y-11821087D01*
X7462267Y-11821087D02*
X7452743Y-11802039D01*
X7452743Y-11802039D02*
X7443220Y-11763944D01*
X7443220Y-11763944D02*
X7443220Y-11716325D01*
X7443220Y-11716325D02*
X7452743Y-11678230D01*
X7452743Y-11678230D02*
X7462267Y-11659182D01*
X7462267Y-11659182D02*
X7471791Y-11649658D01*
X7471791Y-11649658D02*
X7490839Y-11640134D01*
X7643220Y-11840134D02*
X7643220Y-11706801D01*
X7643220Y-11725849D02*
X7652743Y-11716325D01*
X7652743Y-11716325D02*
X7671791Y-11706801D01*
X7671791Y-11706801D02*
X7700363Y-11706801D01*
X7700363Y-11706801D02*
X7719410Y-11716325D01*
X7719410Y-11716325D02*
X7728934Y-11735373D01*
X7728934Y-11735373D02*
X7728934Y-11840134D01*
X7728934Y-11735373D02*
X7738458Y-11716325D01*
X7738458Y-11716325D02*
X7757505Y-11706801D01*
X7757505Y-11706801D02*
X7786077Y-11706801D01*
X7786077Y-11706801D02*
X7805124Y-11716325D01*
X7805124Y-11716325D02*
X7814648Y-11735373D01*
X7814648Y-11735373D02*
X7814648Y-11840134D01*
X7909886Y-11840134D02*
X7909886Y-11706801D01*
X7909886Y-11725849D02*
X7919410Y-11716325D01*
X7919410Y-11716325D02*
X7938458Y-11706801D01*
X7938458Y-11706801D02*
X7967029Y-11706801D01*
X7967029Y-11706801D02*
X7986077Y-11716325D01*
X7986077Y-11716325D02*
X7995601Y-11735373D01*
X7995601Y-11735373D02*
X7995601Y-11840134D01*
X7995601Y-11735373D02*
X8005124Y-11716325D01*
X8005124Y-11716325D02*
X8024172Y-11706801D01*
X8024172Y-11706801D02*
X8052743Y-11706801D01*
X8052743Y-11706801D02*
X8071791Y-11716325D01*
X8071791Y-11716325D02*
X8081315Y-11735373D01*
X8081315Y-11735373D02*
X8081315Y-11840134D01*
X8471791Y-11630611D02*
X8300363Y-11887753D01*
X8728934Y-11640134D02*
X8747982Y-11640134D01*
X8747982Y-11640134D02*
X8767029Y-11649658D01*
X8767029Y-11649658D02*
X8776553Y-11659182D01*
X8776553Y-11659182D02*
X8786077Y-11678230D01*
X8786077Y-11678230D02*
X8795601Y-11716325D01*
X8795601Y-11716325D02*
X8795601Y-11763944D01*
X8795601Y-11763944D02*
X8786077Y-11802039D01*
X8786077Y-11802039D02*
X8776553Y-11821087D01*
X8776553Y-11821087D02*
X8767029Y-11830611D01*
X8767029Y-11830611D02*
X8747982Y-11840134D01*
X8747982Y-11840134D02*
X8728934Y-11840134D01*
X8728934Y-11840134D02*
X8709887Y-11830611D01*
X8709887Y-11830611D02*
X8700363Y-11821087D01*
X8700363Y-11821087D02*
X8690839Y-11802039D01*
X8690839Y-11802039D02*
X8681315Y-11763944D01*
X8681315Y-11763944D02*
X8681315Y-11716325D01*
X8681315Y-11716325D02*
X8690839Y-11678230D01*
X8690839Y-11678230D02*
X8700363Y-11659182D01*
X8700363Y-11659182D02*
X8709887Y-11649658D01*
X8709887Y-11649658D02*
X8728934Y-11640134D01*
X8881315Y-11821087D02*
X8890839Y-11830611D01*
X8890839Y-11830611D02*
X8881315Y-11840134D01*
X8881315Y-11840134D02*
X8871791Y-11830611D01*
X8871791Y-11830611D02*
X8881315Y-11821087D01*
X8881315Y-11821087D02*
X8881315Y-11840134D01*
X9014648Y-11640134D02*
X9033696Y-11640134D01*
X9033696Y-11640134D02*
X9052744Y-11649658D01*
X9052744Y-11649658D02*
X9062268Y-11659182D01*
X9062268Y-11659182D02*
X9071791Y-11678230D01*
X9071791Y-11678230D02*
X9081315Y-11716325D01*
X9081315Y-11716325D02*
X9081315Y-11763944D01*
X9081315Y-11763944D02*
X9071791Y-11802039D01*
X9071791Y-11802039D02*
X9062268Y-11821087D01*
X9062268Y-11821087D02*
X9052744Y-11830611D01*
X9052744Y-11830611D02*
X9033696Y-11840134D01*
X9033696Y-11840134D02*
X9014648Y-11840134D01*
X9014648Y-11840134D02*
X8995601Y-11830611D01*
X8995601Y-11830611D02*
X8986077Y-11821087D01*
X8986077Y-11821087D02*
X8976553Y-11802039D01*
X8976553Y-11802039D02*
X8967029Y-11763944D01*
X8967029Y-11763944D02*
X8967029Y-11716325D01*
X8967029Y-11716325D02*
X8976553Y-11678230D01*
X8976553Y-11678230D02*
X8986077Y-11659182D01*
X8986077Y-11659182D02*
X8995601Y-11649658D01*
X8995601Y-11649658D02*
X9014648Y-11640134D01*
X9271791Y-11840134D02*
X9157506Y-11840134D01*
X9214648Y-11840134D02*
X9214648Y-11640134D01*
X9214648Y-11640134D02*
X9195601Y-11668706D01*
X9195601Y-11668706D02*
X9176553Y-11687753D01*
X9176553Y-11687753D02*
X9157506Y-11697277D01*
X9462268Y-11840134D02*
X9347982Y-11840134D01*
X9405125Y-11840134D02*
X9405125Y-11640134D01*
X9405125Y-11640134D02*
X9386077Y-11668706D01*
X9386077Y-11668706D02*
X9367029Y-11687753D01*
X9367029Y-11687753D02*
X9347982Y-11697277D01*
X9576553Y-11725849D02*
X9557506Y-11716325D01*
X9557506Y-11716325D02*
X9547982Y-11706801D01*
X9547982Y-11706801D02*
X9538458Y-11687753D01*
X9538458Y-11687753D02*
X9538458Y-11678230D01*
X9538458Y-11678230D02*
X9547982Y-11659182D01*
X9547982Y-11659182D02*
X9557506Y-11649658D01*
X9557506Y-11649658D02*
X9576553Y-11640134D01*
X9576553Y-11640134D02*
X9614649Y-11640134D01*
X9614649Y-11640134D02*
X9633696Y-11649658D01*
X9633696Y-11649658D02*
X9643220Y-11659182D01*
X9643220Y-11659182D02*
X9652744Y-11678230D01*
X9652744Y-11678230D02*
X9652744Y-11687753D01*
X9652744Y-11687753D02*
X9643220Y-11706801D01*
X9643220Y-11706801D02*
X9633696Y-11716325D01*
X9633696Y-11716325D02*
X9614649Y-11725849D01*
X9614649Y-11725849D02*
X9576553Y-11725849D01*
X9576553Y-11725849D02*
X9557506Y-11735373D01*
X9557506Y-11735373D02*
X9547982Y-11744896D01*
X9547982Y-11744896D02*
X9538458Y-11763944D01*
X9538458Y-11763944D02*
X9538458Y-11802039D01*
X9538458Y-11802039D02*
X9547982Y-11821087D01*
X9547982Y-11821087D02*
X9557506Y-11830611D01*
X9557506Y-11830611D02*
X9576553Y-11840134D01*
X9576553Y-11840134D02*
X9614649Y-11840134D01*
X9614649Y-11840134D02*
X9633696Y-11830611D01*
X9633696Y-11830611D02*
X9643220Y-11821087D01*
X9643220Y-11821087D02*
X9652744Y-11802039D01*
X9652744Y-11802039D02*
X9652744Y-11763944D01*
X9652744Y-11763944D02*
X9643220Y-11744896D01*
X9643220Y-11744896D02*
X9633696Y-11735373D01*
X9633696Y-11735373D02*
X9614649Y-11725849D01*
X9728934Y-11640134D02*
X9728934Y-11678230D01*
X9805125Y-11640134D02*
X9805125Y-11678230D01*
X10100363Y-11916325D02*
X10090839Y-11906801D01*
X10090839Y-11906801D02*
X10071791Y-11878230D01*
X10071791Y-11878230D02*
X10062268Y-11859182D01*
X10062268Y-11859182D02*
X10052744Y-11830611D01*
X10052744Y-11830611D02*
X10043220Y-11782992D01*
X10043220Y-11782992D02*
X10043220Y-11744896D01*
X10043220Y-11744896D02*
X10052744Y-11697277D01*
X10052744Y-11697277D02*
X10062268Y-11668706D01*
X10062268Y-11668706D02*
X10071791Y-11649658D01*
X10071791Y-11649658D02*
X10090839Y-11621087D01*
X10090839Y-11621087D02*
X10100363Y-11611563D01*
X10157506Y-11640134D02*
X10281315Y-11640134D01*
X10281315Y-11640134D02*
X10214649Y-11716325D01*
X10214649Y-11716325D02*
X10243220Y-11716325D01*
X10243220Y-11716325D02*
X10262268Y-11725849D01*
X10262268Y-11725849D02*
X10271791Y-11735373D01*
X10271791Y-11735373D02*
X10281315Y-11754420D01*
X10281315Y-11754420D02*
X10281315Y-11802039D01*
X10281315Y-11802039D02*
X10271791Y-11821087D01*
X10271791Y-11821087D02*
X10262268Y-11830611D01*
X10262268Y-11830611D02*
X10243220Y-11840134D01*
X10243220Y-11840134D02*
X10186077Y-11840134D01*
X10186077Y-11840134D02*
X10167030Y-11830611D01*
X10167030Y-11830611D02*
X10157506Y-11821087D01*
X10519411Y-11840134D02*
X10519411Y-11640134D01*
X10605125Y-11840134D02*
X10605125Y-11735373D01*
X10605125Y-11735373D02*
X10595601Y-11716325D01*
X10595601Y-11716325D02*
X10576553Y-11706801D01*
X10576553Y-11706801D02*
X10547982Y-11706801D01*
X10547982Y-11706801D02*
X10528934Y-11716325D01*
X10528934Y-11716325D02*
X10519411Y-11725849D01*
X10728934Y-11840134D02*
X10709887Y-11830611D01*
X10709887Y-11830611D02*
X10700363Y-11821087D01*
X10700363Y-11821087D02*
X10690839Y-11802039D01*
X10690839Y-11802039D02*
X10690839Y-11744896D01*
X10690839Y-11744896D02*
X10700363Y-11725849D01*
X10700363Y-11725849D02*
X10709887Y-11716325D01*
X10709887Y-11716325D02*
X10728934Y-11706801D01*
X10728934Y-11706801D02*
X10757506Y-11706801D01*
X10757506Y-11706801D02*
X10776553Y-11716325D01*
X10776553Y-11716325D02*
X10786077Y-11725849D01*
X10786077Y-11725849D02*
X10795601Y-11744896D01*
X10795601Y-11744896D02*
X10795601Y-11802039D01*
X10795601Y-11802039D02*
X10786077Y-11821087D01*
X10786077Y-11821087D02*
X10776553Y-11830611D01*
X10776553Y-11830611D02*
X10757506Y-11840134D01*
X10757506Y-11840134D02*
X10728934Y-11840134D01*
X10909887Y-11840134D02*
X10890839Y-11830611D01*
X10890839Y-11830611D02*
X10881315Y-11811563D01*
X10881315Y-11811563D02*
X10881315Y-11640134D01*
X11062268Y-11830611D02*
X11043220Y-11840134D01*
X11043220Y-11840134D02*
X11005125Y-11840134D01*
X11005125Y-11840134D02*
X10986077Y-11830611D01*
X10986077Y-11830611D02*
X10976553Y-11811563D01*
X10976553Y-11811563D02*
X10976553Y-11735373D01*
X10976553Y-11735373D02*
X10986077Y-11716325D01*
X10986077Y-11716325D02*
X11005125Y-11706801D01*
X11005125Y-11706801D02*
X11043220Y-11706801D01*
X11043220Y-11706801D02*
X11062268Y-11716325D01*
X11062268Y-11716325D02*
X11071792Y-11735373D01*
X11071792Y-11735373D02*
X11071792Y-11754420D01*
X11071792Y-11754420D02*
X10976553Y-11773468D01*
X11147982Y-11830611D02*
X11167030Y-11840134D01*
X11167030Y-11840134D02*
X11205125Y-11840134D01*
X11205125Y-11840134D02*
X11224172Y-11830611D01*
X11224172Y-11830611D02*
X11233696Y-11811563D01*
X11233696Y-11811563D02*
X11233696Y-11802039D01*
X11233696Y-11802039D02*
X11224172Y-11782992D01*
X11224172Y-11782992D02*
X11205125Y-11773468D01*
X11205125Y-11773468D02*
X11176553Y-11773468D01*
X11176553Y-11773468D02*
X11157506Y-11763944D01*
X11157506Y-11763944D02*
X11147982Y-11744896D01*
X11147982Y-11744896D02*
X11147982Y-11735373D01*
X11147982Y-11735373D02*
X11157506Y-11716325D01*
X11157506Y-11716325D02*
X11176553Y-11706801D01*
X11176553Y-11706801D02*
X11205125Y-11706801D01*
X11205125Y-11706801D02*
X11224172Y-11716325D01*
X11300363Y-11916325D02*
X11309887Y-11906801D01*
X11309887Y-11906801D02*
X11328934Y-11878230D01*
X11328934Y-11878230D02*
X11338458Y-11859182D01*
X11338458Y-11859182D02*
X11347982Y-11830611D01*
X11347982Y-11830611D02*
X11357506Y-11782992D01*
X11357506Y-11782992D02*
X11357506Y-11744896D01*
X11357506Y-11744896D02*
X11347982Y-11697277D01*
X11347982Y-11697277D02*
X11338458Y-11668706D01*
X11338458Y-11668706D02*
X11328934Y-11649658D01*
X11328934Y-11649658D02*
X11309887Y-11621087D01*
X11309887Y-11621087D02*
X11300363Y-11611563D01*
D12*
X6525300Y-12012651D02*
G75*
G02*
X6485300Y-12012651I-20000J0D01*
G01*
X6485300Y-12012651D02*
G75*
G02*
X6525300Y-12012651I20000J0D01*
G01*
D11*
X6824172Y-11904134D02*
X6843220Y-11904134D01*
X6843220Y-11904134D02*
X6862267Y-11913658D01*
X6862267Y-11913658D02*
X6871791Y-11923182D01*
X6871791Y-11923182D02*
X6881315Y-11942230D01*
X6881315Y-11942230D02*
X6890839Y-11980325D01*
X6890839Y-11980325D02*
X6890839Y-12027944D01*
X6890839Y-12027944D02*
X6881315Y-12066039D01*
X6881315Y-12066039D02*
X6871791Y-12085087D01*
X6871791Y-12085087D02*
X6862267Y-12094611D01*
X6862267Y-12094611D02*
X6843220Y-12104134D01*
X6843220Y-12104134D02*
X6824172Y-12104134D01*
X6824172Y-12104134D02*
X6805124Y-12094611D01*
X6805124Y-12094611D02*
X6795601Y-12085087D01*
X6795601Y-12085087D02*
X6786077Y-12066039D01*
X6786077Y-12066039D02*
X6776553Y-12027944D01*
X6776553Y-12027944D02*
X6776553Y-11980325D01*
X6776553Y-11980325D02*
X6786077Y-11942230D01*
X6786077Y-11942230D02*
X6795601Y-11923182D01*
X6795601Y-11923182D02*
X6805124Y-11913658D01*
X6805124Y-11913658D02*
X6824172Y-11904134D01*
X6976553Y-12085087D02*
X6986077Y-12094611D01*
X6986077Y-12094611D02*
X6976553Y-12104134D01*
X6976553Y-12104134D02*
X6967029Y-12094611D01*
X6967029Y-12094611D02*
X6976553Y-12085087D01*
X6976553Y-12085087D02*
X6976553Y-12104134D01*
X7157505Y-11970801D02*
X7157505Y-12104134D01*
X7109886Y-11894611D02*
X7062267Y-12037468D01*
X7062267Y-12037468D02*
X7186077Y-12037468D01*
X7300362Y-11904134D02*
X7319410Y-11904134D01*
X7319410Y-11904134D02*
X7338458Y-11913658D01*
X7338458Y-11913658D02*
X7347982Y-11923182D01*
X7347982Y-11923182D02*
X7357505Y-11942230D01*
X7357505Y-11942230D02*
X7367029Y-11980325D01*
X7367029Y-11980325D02*
X7367029Y-12027944D01*
X7367029Y-12027944D02*
X7357505Y-12066039D01*
X7357505Y-12066039D02*
X7347982Y-12085087D01*
X7347982Y-12085087D02*
X7338458Y-12094611D01*
X7338458Y-12094611D02*
X7319410Y-12104134D01*
X7319410Y-12104134D02*
X7300362Y-12104134D01*
X7300362Y-12104134D02*
X7281315Y-12094611D01*
X7281315Y-12094611D02*
X7271791Y-12085087D01*
X7271791Y-12085087D02*
X7262267Y-12066039D01*
X7262267Y-12066039D02*
X7252743Y-12027944D01*
X7252743Y-12027944D02*
X7252743Y-11980325D01*
X7252743Y-11980325D02*
X7262267Y-11942230D01*
X7262267Y-11942230D02*
X7271791Y-11923182D01*
X7271791Y-11923182D02*
X7281315Y-11913658D01*
X7281315Y-11913658D02*
X7300362Y-11904134D01*
X7490839Y-11904134D02*
X7509886Y-11904134D01*
X7509886Y-11904134D02*
X7528934Y-11913658D01*
X7528934Y-11913658D02*
X7538458Y-11923182D01*
X7538458Y-11923182D02*
X7547982Y-11942230D01*
X7547982Y-11942230D02*
X7557505Y-11980325D01*
X7557505Y-11980325D02*
X7557505Y-12027944D01*
X7557505Y-12027944D02*
X7547982Y-12066039D01*
X7547982Y-12066039D02*
X7538458Y-12085087D01*
X7538458Y-12085087D02*
X7528934Y-12094611D01*
X7528934Y-12094611D02*
X7509886Y-12104134D01*
X7509886Y-12104134D02*
X7490839Y-12104134D01*
X7490839Y-12104134D02*
X7471791Y-12094611D01*
X7471791Y-12094611D02*
X7462267Y-12085087D01*
X7462267Y-12085087D02*
X7452743Y-12066039D01*
X7452743Y-12066039D02*
X7443220Y-12027944D01*
X7443220Y-12027944D02*
X7443220Y-11980325D01*
X7443220Y-11980325D02*
X7452743Y-11942230D01*
X7452743Y-11942230D02*
X7462267Y-11923182D01*
X7462267Y-11923182D02*
X7471791Y-11913658D01*
X7471791Y-11913658D02*
X7490839Y-11904134D01*
X7643220Y-12104134D02*
X7643220Y-11970801D01*
X7643220Y-11989849D02*
X7652743Y-11980325D01*
X7652743Y-11980325D02*
X7671791Y-11970801D01*
X7671791Y-11970801D02*
X7700363Y-11970801D01*
X7700363Y-11970801D02*
X7719410Y-11980325D01*
X7719410Y-11980325D02*
X7728934Y-11999373D01*
X7728934Y-11999373D02*
X7728934Y-12104134D01*
X7728934Y-11999373D02*
X7738458Y-11980325D01*
X7738458Y-11980325D02*
X7757505Y-11970801D01*
X7757505Y-11970801D02*
X7786077Y-11970801D01*
X7786077Y-11970801D02*
X7805124Y-11980325D01*
X7805124Y-11980325D02*
X7814648Y-11999373D01*
X7814648Y-11999373D02*
X7814648Y-12104134D01*
X7909886Y-12104134D02*
X7909886Y-11970801D01*
X7909886Y-11989849D02*
X7919410Y-11980325D01*
X7919410Y-11980325D02*
X7938458Y-11970801D01*
X7938458Y-11970801D02*
X7967029Y-11970801D01*
X7967029Y-11970801D02*
X7986077Y-11980325D01*
X7986077Y-11980325D02*
X7995601Y-11999373D01*
X7995601Y-11999373D02*
X7995601Y-12104134D01*
X7995601Y-11999373D02*
X8005124Y-11980325D01*
X8005124Y-11980325D02*
X8024172Y-11970801D01*
X8024172Y-11970801D02*
X8052743Y-11970801D01*
X8052743Y-11970801D02*
X8071791Y-11980325D01*
X8071791Y-11980325D02*
X8081315Y-11999373D01*
X8081315Y-11999373D02*
X8081315Y-12104134D01*
X8471791Y-11894611D02*
X8300363Y-12151753D01*
X8728934Y-11904134D02*
X8747982Y-11904134D01*
X8747982Y-11904134D02*
X8767029Y-11913658D01*
X8767029Y-11913658D02*
X8776553Y-11923182D01*
X8776553Y-11923182D02*
X8786077Y-11942230D01*
X8786077Y-11942230D02*
X8795601Y-11980325D01*
X8795601Y-11980325D02*
X8795601Y-12027944D01*
X8795601Y-12027944D02*
X8786077Y-12066039D01*
X8786077Y-12066039D02*
X8776553Y-12085087D01*
X8776553Y-12085087D02*
X8767029Y-12094611D01*
X8767029Y-12094611D02*
X8747982Y-12104134D01*
X8747982Y-12104134D02*
X8728934Y-12104134D01*
X8728934Y-12104134D02*
X8709887Y-12094611D01*
X8709887Y-12094611D02*
X8700363Y-12085087D01*
X8700363Y-12085087D02*
X8690839Y-12066039D01*
X8690839Y-12066039D02*
X8681315Y-12027944D01*
X8681315Y-12027944D02*
X8681315Y-11980325D01*
X8681315Y-11980325D02*
X8690839Y-11942230D01*
X8690839Y-11942230D02*
X8700363Y-11923182D01*
X8700363Y-11923182D02*
X8709887Y-11913658D01*
X8709887Y-11913658D02*
X8728934Y-11904134D01*
X8881315Y-12085087D02*
X8890839Y-12094611D01*
X8890839Y-12094611D02*
X8881315Y-12104134D01*
X8881315Y-12104134D02*
X8871791Y-12094611D01*
X8871791Y-12094611D02*
X8881315Y-12085087D01*
X8881315Y-12085087D02*
X8881315Y-12104134D01*
X9014648Y-11904134D02*
X9033696Y-11904134D01*
X9033696Y-11904134D02*
X9052744Y-11913658D01*
X9052744Y-11913658D02*
X9062268Y-11923182D01*
X9062268Y-11923182D02*
X9071791Y-11942230D01*
X9071791Y-11942230D02*
X9081315Y-11980325D01*
X9081315Y-11980325D02*
X9081315Y-12027944D01*
X9081315Y-12027944D02*
X9071791Y-12066039D01*
X9071791Y-12066039D02*
X9062268Y-12085087D01*
X9062268Y-12085087D02*
X9052744Y-12094611D01*
X9052744Y-12094611D02*
X9033696Y-12104134D01*
X9033696Y-12104134D02*
X9014648Y-12104134D01*
X9014648Y-12104134D02*
X8995601Y-12094611D01*
X8995601Y-12094611D02*
X8986077Y-12085087D01*
X8986077Y-12085087D02*
X8976553Y-12066039D01*
X8976553Y-12066039D02*
X8967029Y-12027944D01*
X8967029Y-12027944D02*
X8967029Y-11980325D01*
X8967029Y-11980325D02*
X8976553Y-11942230D01*
X8976553Y-11942230D02*
X8986077Y-11923182D01*
X8986077Y-11923182D02*
X8995601Y-11913658D01*
X8995601Y-11913658D02*
X9014648Y-11904134D01*
X9271791Y-12104134D02*
X9157506Y-12104134D01*
X9214648Y-12104134D02*
X9214648Y-11904134D01*
X9214648Y-11904134D02*
X9195601Y-11932706D01*
X9195601Y-11932706D02*
X9176553Y-11951753D01*
X9176553Y-11951753D02*
X9157506Y-11961277D01*
X9452744Y-11904134D02*
X9357506Y-11904134D01*
X9357506Y-11904134D02*
X9347982Y-11999373D01*
X9347982Y-11999373D02*
X9357506Y-11989849D01*
X9357506Y-11989849D02*
X9376553Y-11980325D01*
X9376553Y-11980325D02*
X9424172Y-11980325D01*
X9424172Y-11980325D02*
X9443220Y-11989849D01*
X9443220Y-11989849D02*
X9452744Y-11999373D01*
X9452744Y-11999373D02*
X9462268Y-12018420D01*
X9462268Y-12018420D02*
X9462268Y-12066039D01*
X9462268Y-12066039D02*
X9452744Y-12085087D01*
X9452744Y-12085087D02*
X9443220Y-12094611D01*
X9443220Y-12094611D02*
X9424172Y-12104134D01*
X9424172Y-12104134D02*
X9376553Y-12104134D01*
X9376553Y-12104134D02*
X9357506Y-12094611D01*
X9357506Y-12094611D02*
X9347982Y-12085087D01*
X9528934Y-11904134D02*
X9662268Y-11904134D01*
X9662268Y-11904134D02*
X9576553Y-12104134D01*
X9728934Y-11904134D02*
X9728934Y-11942230D01*
X9805125Y-11904134D02*
X9805125Y-11942230D01*
X10100363Y-12180325D02*
X10090839Y-12170801D01*
X10090839Y-12170801D02*
X10071791Y-12142230D01*
X10071791Y-12142230D02*
X10062268Y-12123182D01*
X10062268Y-12123182D02*
X10052744Y-12094611D01*
X10052744Y-12094611D02*
X10043220Y-12046992D01*
X10043220Y-12046992D02*
X10043220Y-12008896D01*
X10043220Y-12008896D02*
X10052744Y-11961277D01*
X10052744Y-11961277D02*
X10062268Y-11932706D01*
X10062268Y-11932706D02*
X10071791Y-11913658D01*
X10071791Y-11913658D02*
X10090839Y-11885087D01*
X10090839Y-11885087D02*
X10100363Y-11875563D01*
X10281315Y-12104134D02*
X10167030Y-12104134D01*
X10224172Y-12104134D02*
X10224172Y-11904134D01*
X10224172Y-11904134D02*
X10205125Y-11932706D01*
X10205125Y-11932706D02*
X10186077Y-11951753D01*
X10186077Y-11951753D02*
X10167030Y-11961277D01*
X10347982Y-11904134D02*
X10481315Y-11904134D01*
X10481315Y-11904134D02*
X10395601Y-12104134D01*
X10586077Y-11989849D02*
X10567030Y-11980325D01*
X10567030Y-11980325D02*
X10557506Y-11970801D01*
X10557506Y-11970801D02*
X10547982Y-11951753D01*
X10547982Y-11951753D02*
X10547982Y-11942230D01*
X10547982Y-11942230D02*
X10557506Y-11923182D01*
X10557506Y-11923182D02*
X10567030Y-11913658D01*
X10567030Y-11913658D02*
X10586077Y-11904134D01*
X10586077Y-11904134D02*
X10624172Y-11904134D01*
X10624172Y-11904134D02*
X10643220Y-11913658D01*
X10643220Y-11913658D02*
X10652744Y-11923182D01*
X10652744Y-11923182D02*
X10662268Y-11942230D01*
X10662268Y-11942230D02*
X10662268Y-11951753D01*
X10662268Y-11951753D02*
X10652744Y-11970801D01*
X10652744Y-11970801D02*
X10643220Y-11980325D01*
X10643220Y-11980325D02*
X10624172Y-11989849D01*
X10624172Y-11989849D02*
X10586077Y-11989849D01*
X10586077Y-11989849D02*
X10567030Y-11999373D01*
X10567030Y-11999373D02*
X10557506Y-12008896D01*
X10557506Y-12008896D02*
X10547982Y-12027944D01*
X10547982Y-12027944D02*
X10547982Y-12066039D01*
X10547982Y-12066039D02*
X10557506Y-12085087D01*
X10557506Y-12085087D02*
X10567030Y-12094611D01*
X10567030Y-12094611D02*
X10586077Y-12104134D01*
X10586077Y-12104134D02*
X10624172Y-12104134D01*
X10624172Y-12104134D02*
X10643220Y-12094611D01*
X10643220Y-12094611D02*
X10652744Y-12085087D01*
X10652744Y-12085087D02*
X10662268Y-12066039D01*
X10662268Y-12066039D02*
X10662268Y-12027944D01*
X10662268Y-12027944D02*
X10652744Y-12008896D01*
X10652744Y-12008896D02*
X10643220Y-11999373D01*
X10643220Y-11999373D02*
X10624172Y-11989849D01*
X10900363Y-12104134D02*
X10900363Y-11904134D01*
X10986077Y-12104134D02*
X10986077Y-11999373D01*
X10986077Y-11999373D02*
X10976553Y-11980325D01*
X10976553Y-11980325D02*
X10957506Y-11970801D01*
X10957506Y-11970801D02*
X10928934Y-11970801D01*
X10928934Y-11970801D02*
X10909887Y-11980325D01*
X10909887Y-11980325D02*
X10900363Y-11989849D01*
X11109887Y-12104134D02*
X11090839Y-12094611D01*
X11090839Y-12094611D02*
X11081315Y-12085087D01*
X11081315Y-12085087D02*
X11071792Y-12066039D01*
X11071792Y-12066039D02*
X11071792Y-12008896D01*
X11071792Y-12008896D02*
X11081315Y-11989849D01*
X11081315Y-11989849D02*
X11090839Y-11980325D01*
X11090839Y-11980325D02*
X11109887Y-11970801D01*
X11109887Y-11970801D02*
X11138458Y-11970801D01*
X11138458Y-11970801D02*
X11157506Y-11980325D01*
X11157506Y-11980325D02*
X11167030Y-11989849D01*
X11167030Y-11989849D02*
X11176553Y-12008896D01*
X11176553Y-12008896D02*
X11176553Y-12066039D01*
X11176553Y-12066039D02*
X11167030Y-12085087D01*
X11167030Y-12085087D02*
X11157506Y-12094611D01*
X11157506Y-12094611D02*
X11138458Y-12104134D01*
X11138458Y-12104134D02*
X11109887Y-12104134D01*
X11290839Y-12104134D02*
X11271791Y-12094611D01*
X11271791Y-12094611D02*
X11262268Y-12075563D01*
X11262268Y-12075563D02*
X11262268Y-11904134D01*
X11443220Y-12094611D02*
X11424172Y-12104134D01*
X11424172Y-12104134D02*
X11386077Y-12104134D01*
X11386077Y-12104134D02*
X11367030Y-12094611D01*
X11367030Y-12094611D02*
X11357506Y-12075563D01*
X11357506Y-12075563D02*
X11357506Y-11999373D01*
X11357506Y-11999373D02*
X11367030Y-11980325D01*
X11367030Y-11980325D02*
X11386077Y-11970801D01*
X11386077Y-11970801D02*
X11424172Y-11970801D01*
X11424172Y-11970801D02*
X11443220Y-11980325D01*
X11443220Y-11980325D02*
X11452744Y-11999373D01*
X11452744Y-11999373D02*
X11452744Y-12018420D01*
X11452744Y-12018420D02*
X11357506Y-12037468D01*
X11528934Y-12094611D02*
X11547982Y-12104134D01*
X11547982Y-12104134D02*
X11586077Y-12104134D01*
X11586077Y-12104134D02*
X11605125Y-12094611D01*
X11605125Y-12094611D02*
X11614649Y-12075563D01*
X11614649Y-12075563D02*
X11614649Y-12066039D01*
X11614649Y-12066039D02*
X11605125Y-12046992D01*
X11605125Y-12046992D02*
X11586077Y-12037468D01*
X11586077Y-12037468D02*
X11557506Y-12037468D01*
X11557506Y-12037468D02*
X11538458Y-12027944D01*
X11538458Y-12027944D02*
X11528934Y-12008896D01*
X11528934Y-12008896D02*
X11528934Y-11999373D01*
X11528934Y-11999373D02*
X11538458Y-11980325D01*
X11538458Y-11980325D02*
X11557506Y-11970801D01*
X11557506Y-11970801D02*
X11586077Y-11970801D01*
X11586077Y-11970801D02*
X11605125Y-11980325D01*
X11681315Y-12180325D02*
X11690839Y-12170801D01*
X11690839Y-12170801D02*
X11709887Y-12142230D01*
X11709887Y-12142230D02*
X11719411Y-12123182D01*
X11719411Y-12123182D02*
X11728934Y-12094611D01*
X11728934Y-12094611D02*
X11738458Y-12046992D01*
X11738458Y-12046992D02*
X11738458Y-12008896D01*
X11738458Y-12008896D02*
X11728934Y-11961277D01*
X11728934Y-11961277D02*
X11719411Y-11932706D01*
X11719411Y-11932706D02*
X11709887Y-11913658D01*
X11709887Y-11913658D02*
X11690839Y-11885087D01*
X11690839Y-11885087D02*
X11681315Y-11875563D01*
D12*
X6495300Y-12246651D02*
X6495300Y-12306651D01*
X6465300Y-12276651D02*
X6525300Y-12276651D01*
D11*
X6824172Y-12168134D02*
X6843220Y-12168134D01*
X6843220Y-12168134D02*
X6862267Y-12177658D01*
X6862267Y-12177658D02*
X6871791Y-12187182D01*
X6871791Y-12187182D02*
X6881315Y-12206230D01*
X6881315Y-12206230D02*
X6890839Y-12244325D01*
X6890839Y-12244325D02*
X6890839Y-12291944D01*
X6890839Y-12291944D02*
X6881315Y-12330039D01*
X6881315Y-12330039D02*
X6871791Y-12349087D01*
X6871791Y-12349087D02*
X6862267Y-12358611D01*
X6862267Y-12358611D02*
X6843220Y-12368134D01*
X6843220Y-12368134D02*
X6824172Y-12368134D01*
X6824172Y-12368134D02*
X6805124Y-12358611D01*
X6805124Y-12358611D02*
X6795601Y-12349087D01*
X6795601Y-12349087D02*
X6786077Y-12330039D01*
X6786077Y-12330039D02*
X6776553Y-12291944D01*
X6776553Y-12291944D02*
X6776553Y-12244325D01*
X6776553Y-12244325D02*
X6786077Y-12206230D01*
X6786077Y-12206230D02*
X6795601Y-12187182D01*
X6795601Y-12187182D02*
X6805124Y-12177658D01*
X6805124Y-12177658D02*
X6824172Y-12168134D01*
X6976553Y-12349087D02*
X6986077Y-12358611D01*
X6986077Y-12358611D02*
X6976553Y-12368134D01*
X6976553Y-12368134D02*
X6967029Y-12358611D01*
X6967029Y-12358611D02*
X6976553Y-12349087D01*
X6976553Y-12349087D02*
X6976553Y-12368134D01*
X7157505Y-12168134D02*
X7119410Y-12168134D01*
X7119410Y-12168134D02*
X7100362Y-12177658D01*
X7100362Y-12177658D02*
X7090839Y-12187182D01*
X7090839Y-12187182D02*
X7071791Y-12215753D01*
X7071791Y-12215753D02*
X7062267Y-12253849D01*
X7062267Y-12253849D02*
X7062267Y-12330039D01*
X7062267Y-12330039D02*
X7071791Y-12349087D01*
X7071791Y-12349087D02*
X7081315Y-12358611D01*
X7081315Y-12358611D02*
X7100362Y-12368134D01*
X7100362Y-12368134D02*
X7138458Y-12368134D01*
X7138458Y-12368134D02*
X7157505Y-12358611D01*
X7157505Y-12358611D02*
X7167029Y-12349087D01*
X7167029Y-12349087D02*
X7176553Y-12330039D01*
X7176553Y-12330039D02*
X7176553Y-12282420D01*
X7176553Y-12282420D02*
X7167029Y-12263373D01*
X7167029Y-12263373D02*
X7157505Y-12253849D01*
X7157505Y-12253849D02*
X7138458Y-12244325D01*
X7138458Y-12244325D02*
X7100362Y-12244325D01*
X7100362Y-12244325D02*
X7081315Y-12253849D01*
X7081315Y-12253849D02*
X7071791Y-12263373D01*
X7071791Y-12263373D02*
X7062267Y-12282420D01*
X7300362Y-12168134D02*
X7319410Y-12168134D01*
X7319410Y-12168134D02*
X7338458Y-12177658D01*
X7338458Y-12177658D02*
X7347982Y-12187182D01*
X7347982Y-12187182D02*
X7357505Y-12206230D01*
X7357505Y-12206230D02*
X7367029Y-12244325D01*
X7367029Y-12244325D02*
X7367029Y-12291944D01*
X7367029Y-12291944D02*
X7357505Y-12330039D01*
X7357505Y-12330039D02*
X7347982Y-12349087D01*
X7347982Y-12349087D02*
X7338458Y-12358611D01*
X7338458Y-12358611D02*
X7319410Y-12368134D01*
X7319410Y-12368134D02*
X7300362Y-12368134D01*
X7300362Y-12368134D02*
X7281315Y-12358611D01*
X7281315Y-12358611D02*
X7271791Y-12349087D01*
X7271791Y-12349087D02*
X7262267Y-12330039D01*
X7262267Y-12330039D02*
X7252743Y-12291944D01*
X7252743Y-12291944D02*
X7252743Y-12244325D01*
X7252743Y-12244325D02*
X7262267Y-12206230D01*
X7262267Y-12206230D02*
X7271791Y-12187182D01*
X7271791Y-12187182D02*
X7281315Y-12177658D01*
X7281315Y-12177658D02*
X7300362Y-12168134D01*
X7490839Y-12168134D02*
X7509886Y-12168134D01*
X7509886Y-12168134D02*
X7528934Y-12177658D01*
X7528934Y-12177658D02*
X7538458Y-12187182D01*
X7538458Y-12187182D02*
X7547982Y-12206230D01*
X7547982Y-12206230D02*
X7557505Y-12244325D01*
X7557505Y-12244325D02*
X7557505Y-12291944D01*
X7557505Y-12291944D02*
X7547982Y-12330039D01*
X7547982Y-12330039D02*
X7538458Y-12349087D01*
X7538458Y-12349087D02*
X7528934Y-12358611D01*
X7528934Y-12358611D02*
X7509886Y-12368134D01*
X7509886Y-12368134D02*
X7490839Y-12368134D01*
X7490839Y-12368134D02*
X7471791Y-12358611D01*
X7471791Y-12358611D02*
X7462267Y-12349087D01*
X7462267Y-12349087D02*
X7452743Y-12330039D01*
X7452743Y-12330039D02*
X7443220Y-12291944D01*
X7443220Y-12291944D02*
X7443220Y-12244325D01*
X7443220Y-12244325D02*
X7452743Y-12206230D01*
X7452743Y-12206230D02*
X7462267Y-12187182D01*
X7462267Y-12187182D02*
X7471791Y-12177658D01*
X7471791Y-12177658D02*
X7490839Y-12168134D01*
X7643220Y-12368134D02*
X7643220Y-12234801D01*
X7643220Y-12253849D02*
X7652743Y-12244325D01*
X7652743Y-12244325D02*
X7671791Y-12234801D01*
X7671791Y-12234801D02*
X7700363Y-12234801D01*
X7700363Y-12234801D02*
X7719410Y-12244325D01*
X7719410Y-12244325D02*
X7728934Y-12263373D01*
X7728934Y-12263373D02*
X7728934Y-12368134D01*
X7728934Y-12263373D02*
X7738458Y-12244325D01*
X7738458Y-12244325D02*
X7757505Y-12234801D01*
X7757505Y-12234801D02*
X7786077Y-12234801D01*
X7786077Y-12234801D02*
X7805124Y-12244325D01*
X7805124Y-12244325D02*
X7814648Y-12263373D01*
X7814648Y-12263373D02*
X7814648Y-12368134D01*
X7909886Y-12368134D02*
X7909886Y-12234801D01*
X7909886Y-12253849D02*
X7919410Y-12244325D01*
X7919410Y-12244325D02*
X7938458Y-12234801D01*
X7938458Y-12234801D02*
X7967029Y-12234801D01*
X7967029Y-12234801D02*
X7986077Y-12244325D01*
X7986077Y-12244325D02*
X7995601Y-12263373D01*
X7995601Y-12263373D02*
X7995601Y-12368134D01*
X7995601Y-12263373D02*
X8005124Y-12244325D01*
X8005124Y-12244325D02*
X8024172Y-12234801D01*
X8024172Y-12234801D02*
X8052743Y-12234801D01*
X8052743Y-12234801D02*
X8071791Y-12244325D01*
X8071791Y-12244325D02*
X8081315Y-12263373D01*
X8081315Y-12263373D02*
X8081315Y-12368134D01*
X8471791Y-12158611D02*
X8300363Y-12415753D01*
X8728934Y-12168134D02*
X8747982Y-12168134D01*
X8747982Y-12168134D02*
X8767029Y-12177658D01*
X8767029Y-12177658D02*
X8776553Y-12187182D01*
X8776553Y-12187182D02*
X8786077Y-12206230D01*
X8786077Y-12206230D02*
X8795601Y-12244325D01*
X8795601Y-12244325D02*
X8795601Y-12291944D01*
X8795601Y-12291944D02*
X8786077Y-12330039D01*
X8786077Y-12330039D02*
X8776553Y-12349087D01*
X8776553Y-12349087D02*
X8767029Y-12358611D01*
X8767029Y-12358611D02*
X8747982Y-12368134D01*
X8747982Y-12368134D02*
X8728934Y-12368134D01*
X8728934Y-12368134D02*
X8709887Y-12358611D01*
X8709887Y-12358611D02*
X8700363Y-12349087D01*
X8700363Y-12349087D02*
X8690839Y-12330039D01*
X8690839Y-12330039D02*
X8681315Y-12291944D01*
X8681315Y-12291944D02*
X8681315Y-12244325D01*
X8681315Y-12244325D02*
X8690839Y-12206230D01*
X8690839Y-12206230D02*
X8700363Y-12187182D01*
X8700363Y-12187182D02*
X8709887Y-12177658D01*
X8709887Y-12177658D02*
X8728934Y-12168134D01*
X8881315Y-12349087D02*
X8890839Y-12358611D01*
X8890839Y-12358611D02*
X8881315Y-12368134D01*
X8881315Y-12368134D02*
X8871791Y-12358611D01*
X8871791Y-12358611D02*
X8881315Y-12349087D01*
X8881315Y-12349087D02*
X8881315Y-12368134D01*
X9014648Y-12168134D02*
X9033696Y-12168134D01*
X9033696Y-12168134D02*
X9052744Y-12177658D01*
X9052744Y-12177658D02*
X9062268Y-12187182D01*
X9062268Y-12187182D02*
X9071791Y-12206230D01*
X9071791Y-12206230D02*
X9081315Y-12244325D01*
X9081315Y-12244325D02*
X9081315Y-12291944D01*
X9081315Y-12291944D02*
X9071791Y-12330039D01*
X9071791Y-12330039D02*
X9062268Y-12349087D01*
X9062268Y-12349087D02*
X9052744Y-12358611D01*
X9052744Y-12358611D02*
X9033696Y-12368134D01*
X9033696Y-12368134D02*
X9014648Y-12368134D01*
X9014648Y-12368134D02*
X8995601Y-12358611D01*
X8995601Y-12358611D02*
X8986077Y-12349087D01*
X8986077Y-12349087D02*
X8976553Y-12330039D01*
X8976553Y-12330039D02*
X8967029Y-12291944D01*
X8967029Y-12291944D02*
X8967029Y-12244325D01*
X8967029Y-12244325D02*
X8976553Y-12206230D01*
X8976553Y-12206230D02*
X8986077Y-12187182D01*
X8986077Y-12187182D02*
X8995601Y-12177658D01*
X8995601Y-12177658D02*
X9014648Y-12168134D01*
X9157506Y-12187182D02*
X9167029Y-12177658D01*
X9167029Y-12177658D02*
X9186077Y-12168134D01*
X9186077Y-12168134D02*
X9233696Y-12168134D01*
X9233696Y-12168134D02*
X9252744Y-12177658D01*
X9252744Y-12177658D02*
X9262268Y-12187182D01*
X9262268Y-12187182D02*
X9271791Y-12206230D01*
X9271791Y-12206230D02*
X9271791Y-12225277D01*
X9271791Y-12225277D02*
X9262268Y-12253849D01*
X9262268Y-12253849D02*
X9147982Y-12368134D01*
X9147982Y-12368134D02*
X9271791Y-12368134D01*
X9338458Y-12168134D02*
X9462268Y-12168134D01*
X9462268Y-12168134D02*
X9395601Y-12244325D01*
X9395601Y-12244325D02*
X9424172Y-12244325D01*
X9424172Y-12244325D02*
X9443220Y-12253849D01*
X9443220Y-12253849D02*
X9452744Y-12263373D01*
X9452744Y-12263373D02*
X9462268Y-12282420D01*
X9462268Y-12282420D02*
X9462268Y-12330039D01*
X9462268Y-12330039D02*
X9452744Y-12349087D01*
X9452744Y-12349087D02*
X9443220Y-12358611D01*
X9443220Y-12358611D02*
X9424172Y-12368134D01*
X9424172Y-12368134D02*
X9367029Y-12368134D01*
X9367029Y-12368134D02*
X9347982Y-12358611D01*
X9347982Y-12358611D02*
X9338458Y-12349087D01*
X9633696Y-12168134D02*
X9595601Y-12168134D01*
X9595601Y-12168134D02*
X9576553Y-12177658D01*
X9576553Y-12177658D02*
X9567029Y-12187182D01*
X9567029Y-12187182D02*
X9547982Y-12215753D01*
X9547982Y-12215753D02*
X9538458Y-12253849D01*
X9538458Y-12253849D02*
X9538458Y-12330039D01*
X9538458Y-12330039D02*
X9547982Y-12349087D01*
X9547982Y-12349087D02*
X9557506Y-12358611D01*
X9557506Y-12358611D02*
X9576553Y-12368134D01*
X9576553Y-12368134D02*
X9614649Y-12368134D01*
X9614649Y-12368134D02*
X9633696Y-12358611D01*
X9633696Y-12358611D02*
X9643220Y-12349087D01*
X9643220Y-12349087D02*
X9652744Y-12330039D01*
X9652744Y-12330039D02*
X9652744Y-12282420D01*
X9652744Y-12282420D02*
X9643220Y-12263373D01*
X9643220Y-12263373D02*
X9633696Y-12253849D01*
X9633696Y-12253849D02*
X9614649Y-12244325D01*
X9614649Y-12244325D02*
X9576553Y-12244325D01*
X9576553Y-12244325D02*
X9557506Y-12253849D01*
X9557506Y-12253849D02*
X9547982Y-12263373D01*
X9547982Y-12263373D02*
X9538458Y-12282420D01*
X9728934Y-12168134D02*
X9728934Y-12206230D01*
X9805125Y-12168134D02*
X9805125Y-12206230D01*
X10100363Y-12444325D02*
X10090839Y-12434801D01*
X10090839Y-12434801D02*
X10071791Y-12406230D01*
X10071791Y-12406230D02*
X10062268Y-12387182D01*
X10062268Y-12387182D02*
X10052744Y-12358611D01*
X10052744Y-12358611D02*
X10043220Y-12310992D01*
X10043220Y-12310992D02*
X10043220Y-12272896D01*
X10043220Y-12272896D02*
X10052744Y-12225277D01*
X10052744Y-12225277D02*
X10062268Y-12196706D01*
X10062268Y-12196706D02*
X10071791Y-12177658D01*
X10071791Y-12177658D02*
X10090839Y-12149087D01*
X10090839Y-12149087D02*
X10100363Y-12139563D01*
X10214649Y-12168134D02*
X10233696Y-12168134D01*
X10233696Y-12168134D02*
X10252744Y-12177658D01*
X10252744Y-12177658D02*
X10262268Y-12187182D01*
X10262268Y-12187182D02*
X10271791Y-12206230D01*
X10271791Y-12206230D02*
X10281315Y-12244325D01*
X10281315Y-12244325D02*
X10281315Y-12291944D01*
X10281315Y-12291944D02*
X10271791Y-12330039D01*
X10271791Y-12330039D02*
X10262268Y-12349087D01*
X10262268Y-12349087D02*
X10252744Y-12358611D01*
X10252744Y-12358611D02*
X10233696Y-12368134D01*
X10233696Y-12368134D02*
X10214649Y-12368134D01*
X10214649Y-12368134D02*
X10195601Y-12358611D01*
X10195601Y-12358611D02*
X10186077Y-12349087D01*
X10186077Y-12349087D02*
X10176553Y-12330039D01*
X10176553Y-12330039D02*
X10167030Y-12291944D01*
X10167030Y-12291944D02*
X10167030Y-12244325D01*
X10167030Y-12244325D02*
X10176553Y-12206230D01*
X10176553Y-12206230D02*
X10186077Y-12187182D01*
X10186077Y-12187182D02*
X10195601Y-12177658D01*
X10195601Y-12177658D02*
X10214649Y-12168134D01*
X10519411Y-12368134D02*
X10519411Y-12168134D01*
X10605125Y-12368134D02*
X10605125Y-12263373D01*
X10605125Y-12263373D02*
X10595601Y-12244325D01*
X10595601Y-12244325D02*
X10576553Y-12234801D01*
X10576553Y-12234801D02*
X10547982Y-12234801D01*
X10547982Y-12234801D02*
X10528934Y-12244325D01*
X10528934Y-12244325D02*
X10519411Y-12253849D01*
X10728934Y-12368134D02*
X10709887Y-12358611D01*
X10709887Y-12358611D02*
X10700363Y-12349087D01*
X10700363Y-12349087D02*
X10690839Y-12330039D01*
X10690839Y-12330039D02*
X10690839Y-12272896D01*
X10690839Y-12272896D02*
X10700363Y-12253849D01*
X10700363Y-12253849D02*
X10709887Y-12244325D01*
X10709887Y-12244325D02*
X10728934Y-12234801D01*
X10728934Y-12234801D02*
X10757506Y-12234801D01*
X10757506Y-12234801D02*
X10776553Y-12244325D01*
X10776553Y-12244325D02*
X10786077Y-12253849D01*
X10786077Y-12253849D02*
X10795601Y-12272896D01*
X10795601Y-12272896D02*
X10795601Y-12330039D01*
X10795601Y-12330039D02*
X10786077Y-12349087D01*
X10786077Y-12349087D02*
X10776553Y-12358611D01*
X10776553Y-12358611D02*
X10757506Y-12368134D01*
X10757506Y-12368134D02*
X10728934Y-12368134D01*
X10909887Y-12368134D02*
X10890839Y-12358611D01*
X10890839Y-12358611D02*
X10881315Y-12339563D01*
X10881315Y-12339563D02*
X10881315Y-12168134D01*
X11062268Y-12358611D02*
X11043220Y-12368134D01*
X11043220Y-12368134D02*
X11005125Y-12368134D01*
X11005125Y-12368134D02*
X10986077Y-12358611D01*
X10986077Y-12358611D02*
X10976553Y-12339563D01*
X10976553Y-12339563D02*
X10976553Y-12263373D01*
X10976553Y-12263373D02*
X10986077Y-12244325D01*
X10986077Y-12244325D02*
X11005125Y-12234801D01*
X11005125Y-12234801D02*
X11043220Y-12234801D01*
X11043220Y-12234801D02*
X11062268Y-12244325D01*
X11062268Y-12244325D02*
X11071792Y-12263373D01*
X11071792Y-12263373D02*
X11071792Y-12282420D01*
X11071792Y-12282420D02*
X10976553Y-12301468D01*
X11147982Y-12358611D02*
X11167030Y-12368134D01*
X11167030Y-12368134D02*
X11205125Y-12368134D01*
X11205125Y-12368134D02*
X11224172Y-12358611D01*
X11224172Y-12358611D02*
X11233696Y-12339563D01*
X11233696Y-12339563D02*
X11233696Y-12330039D01*
X11233696Y-12330039D02*
X11224172Y-12310992D01*
X11224172Y-12310992D02*
X11205125Y-12301468D01*
X11205125Y-12301468D02*
X11176553Y-12301468D01*
X11176553Y-12301468D02*
X11157506Y-12291944D01*
X11157506Y-12291944D02*
X11147982Y-12272896D01*
X11147982Y-12272896D02*
X11147982Y-12263373D01*
X11147982Y-12263373D02*
X11157506Y-12244325D01*
X11157506Y-12244325D02*
X11176553Y-12234801D01*
X11176553Y-12234801D02*
X11205125Y-12234801D01*
X11205125Y-12234801D02*
X11224172Y-12244325D01*
X11471792Y-12291944D02*
X11624173Y-12291944D01*
X11547982Y-12368134D02*
X11547982Y-12215753D01*
X11862268Y-12187182D02*
X11871792Y-12177658D01*
X11871792Y-12177658D02*
X11890839Y-12168134D01*
X11890839Y-12168134D02*
X11938458Y-12168134D01*
X11938458Y-12168134D02*
X11957506Y-12177658D01*
X11957506Y-12177658D02*
X11967030Y-12187182D01*
X11967030Y-12187182D02*
X11976553Y-12206230D01*
X11976553Y-12206230D02*
X11976553Y-12225277D01*
X11976553Y-12225277D02*
X11967030Y-12253849D01*
X11967030Y-12253849D02*
X11852744Y-12368134D01*
X11852744Y-12368134D02*
X11976553Y-12368134D01*
X12205125Y-12358611D02*
X12224173Y-12368134D01*
X12224173Y-12368134D02*
X12262268Y-12368134D01*
X12262268Y-12368134D02*
X12281315Y-12358611D01*
X12281315Y-12358611D02*
X12290839Y-12339563D01*
X12290839Y-12339563D02*
X12290839Y-12330039D01*
X12290839Y-12330039D02*
X12281315Y-12310992D01*
X12281315Y-12310992D02*
X12262268Y-12301468D01*
X12262268Y-12301468D02*
X12233696Y-12301468D01*
X12233696Y-12301468D02*
X12214649Y-12291944D01*
X12214649Y-12291944D02*
X12205125Y-12272896D01*
X12205125Y-12272896D02*
X12205125Y-12263373D01*
X12205125Y-12263373D02*
X12214649Y-12244325D01*
X12214649Y-12244325D02*
X12233696Y-12234801D01*
X12233696Y-12234801D02*
X12262268Y-12234801D01*
X12262268Y-12234801D02*
X12281315Y-12244325D01*
X12405125Y-12368134D02*
X12386077Y-12358611D01*
X12386077Y-12358611D02*
X12376554Y-12339563D01*
X12376554Y-12339563D02*
X12376554Y-12168134D01*
X12509887Y-12368134D02*
X12490839Y-12358611D01*
X12490839Y-12358611D02*
X12481315Y-12349087D01*
X12481315Y-12349087D02*
X12471792Y-12330039D01*
X12471792Y-12330039D02*
X12471792Y-12272896D01*
X12471792Y-12272896D02*
X12481315Y-12253849D01*
X12481315Y-12253849D02*
X12490839Y-12244325D01*
X12490839Y-12244325D02*
X12509887Y-12234801D01*
X12509887Y-12234801D02*
X12538458Y-12234801D01*
X12538458Y-12234801D02*
X12557506Y-12244325D01*
X12557506Y-12244325D02*
X12567030Y-12253849D01*
X12567030Y-12253849D02*
X12576554Y-12272896D01*
X12576554Y-12272896D02*
X12576554Y-12330039D01*
X12576554Y-12330039D02*
X12567030Y-12349087D01*
X12567030Y-12349087D02*
X12557506Y-12358611D01*
X12557506Y-12358611D02*
X12538458Y-12368134D01*
X12538458Y-12368134D02*
X12509887Y-12368134D01*
X12633696Y-12234801D02*
X12709887Y-12234801D01*
X12662268Y-12168134D02*
X12662268Y-12339563D01*
X12662268Y-12339563D02*
X12671792Y-12358611D01*
X12671792Y-12358611D02*
X12690839Y-12368134D01*
X12690839Y-12368134D02*
X12709887Y-12368134D01*
X12767030Y-12358611D02*
X12786077Y-12368134D01*
X12786077Y-12368134D02*
X12824173Y-12368134D01*
X12824173Y-12368134D02*
X12843220Y-12358611D01*
X12843220Y-12358611D02*
X12852744Y-12339563D01*
X12852744Y-12339563D02*
X12852744Y-12330039D01*
X12852744Y-12330039D02*
X12843220Y-12310992D01*
X12843220Y-12310992D02*
X12824173Y-12301468D01*
X12824173Y-12301468D02*
X12795601Y-12301468D01*
X12795601Y-12301468D02*
X12776554Y-12291944D01*
X12776554Y-12291944D02*
X12767030Y-12272896D01*
X12767030Y-12272896D02*
X12767030Y-12263373D01*
X12767030Y-12263373D02*
X12776554Y-12244325D01*
X12776554Y-12244325D02*
X12795601Y-12234801D01*
X12795601Y-12234801D02*
X12824173Y-12234801D01*
X12824173Y-12234801D02*
X12843220Y-12244325D01*
X12919411Y-12444325D02*
X12928935Y-12434801D01*
X12928935Y-12434801D02*
X12947982Y-12406230D01*
X12947982Y-12406230D02*
X12957506Y-12387182D01*
X12957506Y-12387182D02*
X12967030Y-12358611D01*
X12967030Y-12358611D02*
X12976554Y-12310992D01*
X12976554Y-12310992D02*
X12976554Y-12272896D01*
X12976554Y-12272896D02*
X12967030Y-12225277D01*
X12967030Y-12225277D02*
X12957506Y-12196706D01*
X12957506Y-12196706D02*
X12947982Y-12177658D01*
X12947982Y-12177658D02*
X12928935Y-12149087D01*
X12928935Y-12149087D02*
X12919411Y-12139563D01*
D12*
X6514317Y-12567167D02*
X6514317Y-12514134D01*
X6461283Y-12514134D01*
X6461283Y-12567167D01*
X6514317Y-12567167D01*
D11*
X6824172Y-12432134D02*
X6843220Y-12432134D01*
X6843220Y-12432134D02*
X6862267Y-12441658D01*
X6862267Y-12441658D02*
X6871791Y-12451182D01*
X6871791Y-12451182D02*
X6881315Y-12470230D01*
X6881315Y-12470230D02*
X6890839Y-12508325D01*
X6890839Y-12508325D02*
X6890839Y-12555944D01*
X6890839Y-12555944D02*
X6881315Y-12594039D01*
X6881315Y-12594039D02*
X6871791Y-12613087D01*
X6871791Y-12613087D02*
X6862267Y-12622611D01*
X6862267Y-12622611D02*
X6843220Y-12632134D01*
X6843220Y-12632134D02*
X6824172Y-12632134D01*
X6824172Y-12632134D02*
X6805124Y-12622611D01*
X6805124Y-12622611D02*
X6795601Y-12613087D01*
X6795601Y-12613087D02*
X6786077Y-12594039D01*
X6786077Y-12594039D02*
X6776553Y-12555944D01*
X6776553Y-12555944D02*
X6776553Y-12508325D01*
X6776553Y-12508325D02*
X6786077Y-12470230D01*
X6786077Y-12470230D02*
X6795601Y-12451182D01*
X6795601Y-12451182D02*
X6805124Y-12441658D01*
X6805124Y-12441658D02*
X6824172Y-12432134D01*
X6976553Y-12613087D02*
X6986077Y-12622611D01*
X6986077Y-12622611D02*
X6976553Y-12632134D01*
X6976553Y-12632134D02*
X6967029Y-12622611D01*
X6967029Y-12622611D02*
X6976553Y-12613087D01*
X6976553Y-12613087D02*
X6976553Y-12632134D01*
X7052743Y-12432134D02*
X7186077Y-12432134D01*
X7186077Y-12432134D02*
X7100362Y-12632134D01*
X7357505Y-12432134D02*
X7262267Y-12432134D01*
X7262267Y-12432134D02*
X7252743Y-12527373D01*
X7252743Y-12527373D02*
X7262267Y-12517849D01*
X7262267Y-12517849D02*
X7281315Y-12508325D01*
X7281315Y-12508325D02*
X7328934Y-12508325D01*
X7328934Y-12508325D02*
X7347982Y-12517849D01*
X7347982Y-12517849D02*
X7357505Y-12527373D01*
X7357505Y-12527373D02*
X7367029Y-12546420D01*
X7367029Y-12546420D02*
X7367029Y-12594039D01*
X7367029Y-12594039D02*
X7357505Y-12613087D01*
X7357505Y-12613087D02*
X7347982Y-12622611D01*
X7347982Y-12622611D02*
X7328934Y-12632134D01*
X7328934Y-12632134D02*
X7281315Y-12632134D01*
X7281315Y-12632134D02*
X7262267Y-12622611D01*
X7262267Y-12622611D02*
X7252743Y-12613087D01*
X7490839Y-12432134D02*
X7509886Y-12432134D01*
X7509886Y-12432134D02*
X7528934Y-12441658D01*
X7528934Y-12441658D02*
X7538458Y-12451182D01*
X7538458Y-12451182D02*
X7547982Y-12470230D01*
X7547982Y-12470230D02*
X7557505Y-12508325D01*
X7557505Y-12508325D02*
X7557505Y-12555944D01*
X7557505Y-12555944D02*
X7547982Y-12594039D01*
X7547982Y-12594039D02*
X7538458Y-12613087D01*
X7538458Y-12613087D02*
X7528934Y-12622611D01*
X7528934Y-12622611D02*
X7509886Y-12632134D01*
X7509886Y-12632134D02*
X7490839Y-12632134D01*
X7490839Y-12632134D02*
X7471791Y-12622611D01*
X7471791Y-12622611D02*
X7462267Y-12613087D01*
X7462267Y-12613087D02*
X7452743Y-12594039D01*
X7452743Y-12594039D02*
X7443220Y-12555944D01*
X7443220Y-12555944D02*
X7443220Y-12508325D01*
X7443220Y-12508325D02*
X7452743Y-12470230D01*
X7452743Y-12470230D02*
X7462267Y-12451182D01*
X7462267Y-12451182D02*
X7471791Y-12441658D01*
X7471791Y-12441658D02*
X7490839Y-12432134D01*
X7643220Y-12632134D02*
X7643220Y-12498801D01*
X7643220Y-12517849D02*
X7652743Y-12508325D01*
X7652743Y-12508325D02*
X7671791Y-12498801D01*
X7671791Y-12498801D02*
X7700363Y-12498801D01*
X7700363Y-12498801D02*
X7719410Y-12508325D01*
X7719410Y-12508325D02*
X7728934Y-12527373D01*
X7728934Y-12527373D02*
X7728934Y-12632134D01*
X7728934Y-12527373D02*
X7738458Y-12508325D01*
X7738458Y-12508325D02*
X7757505Y-12498801D01*
X7757505Y-12498801D02*
X7786077Y-12498801D01*
X7786077Y-12498801D02*
X7805124Y-12508325D01*
X7805124Y-12508325D02*
X7814648Y-12527373D01*
X7814648Y-12527373D02*
X7814648Y-12632134D01*
X7909886Y-12632134D02*
X7909886Y-12498801D01*
X7909886Y-12517849D02*
X7919410Y-12508325D01*
X7919410Y-12508325D02*
X7938458Y-12498801D01*
X7938458Y-12498801D02*
X7967029Y-12498801D01*
X7967029Y-12498801D02*
X7986077Y-12508325D01*
X7986077Y-12508325D02*
X7995601Y-12527373D01*
X7995601Y-12527373D02*
X7995601Y-12632134D01*
X7995601Y-12527373D02*
X8005124Y-12508325D01*
X8005124Y-12508325D02*
X8024172Y-12498801D01*
X8024172Y-12498801D02*
X8052743Y-12498801D01*
X8052743Y-12498801D02*
X8071791Y-12508325D01*
X8071791Y-12508325D02*
X8081315Y-12527373D01*
X8081315Y-12527373D02*
X8081315Y-12632134D01*
X8471791Y-12422611D02*
X8300363Y-12679753D01*
X8728934Y-12432134D02*
X8747982Y-12432134D01*
X8747982Y-12432134D02*
X8767029Y-12441658D01*
X8767029Y-12441658D02*
X8776553Y-12451182D01*
X8776553Y-12451182D02*
X8786077Y-12470230D01*
X8786077Y-12470230D02*
X8795601Y-12508325D01*
X8795601Y-12508325D02*
X8795601Y-12555944D01*
X8795601Y-12555944D02*
X8786077Y-12594039D01*
X8786077Y-12594039D02*
X8776553Y-12613087D01*
X8776553Y-12613087D02*
X8767029Y-12622611D01*
X8767029Y-12622611D02*
X8747982Y-12632134D01*
X8747982Y-12632134D02*
X8728934Y-12632134D01*
X8728934Y-12632134D02*
X8709887Y-12622611D01*
X8709887Y-12622611D02*
X8700363Y-12613087D01*
X8700363Y-12613087D02*
X8690839Y-12594039D01*
X8690839Y-12594039D02*
X8681315Y-12555944D01*
X8681315Y-12555944D02*
X8681315Y-12508325D01*
X8681315Y-12508325D02*
X8690839Y-12470230D01*
X8690839Y-12470230D02*
X8700363Y-12451182D01*
X8700363Y-12451182D02*
X8709887Y-12441658D01*
X8709887Y-12441658D02*
X8728934Y-12432134D01*
X8881315Y-12613087D02*
X8890839Y-12622611D01*
X8890839Y-12622611D02*
X8881315Y-12632134D01*
X8881315Y-12632134D02*
X8871791Y-12622611D01*
X8871791Y-12622611D02*
X8881315Y-12613087D01*
X8881315Y-12613087D02*
X8881315Y-12632134D01*
X9014648Y-12432134D02*
X9033696Y-12432134D01*
X9033696Y-12432134D02*
X9052744Y-12441658D01*
X9052744Y-12441658D02*
X9062268Y-12451182D01*
X9062268Y-12451182D02*
X9071791Y-12470230D01*
X9071791Y-12470230D02*
X9081315Y-12508325D01*
X9081315Y-12508325D02*
X9081315Y-12555944D01*
X9081315Y-12555944D02*
X9071791Y-12594039D01*
X9071791Y-12594039D02*
X9062268Y-12613087D01*
X9062268Y-12613087D02*
X9052744Y-12622611D01*
X9052744Y-12622611D02*
X9033696Y-12632134D01*
X9033696Y-12632134D02*
X9014648Y-12632134D01*
X9014648Y-12632134D02*
X8995601Y-12622611D01*
X8995601Y-12622611D02*
X8986077Y-12613087D01*
X8986077Y-12613087D02*
X8976553Y-12594039D01*
X8976553Y-12594039D02*
X8967029Y-12555944D01*
X8967029Y-12555944D02*
X8967029Y-12508325D01*
X8967029Y-12508325D02*
X8976553Y-12470230D01*
X8976553Y-12470230D02*
X8986077Y-12451182D01*
X8986077Y-12451182D02*
X8995601Y-12441658D01*
X8995601Y-12441658D02*
X9014648Y-12432134D01*
X9157506Y-12451182D02*
X9167029Y-12441658D01*
X9167029Y-12441658D02*
X9186077Y-12432134D01*
X9186077Y-12432134D02*
X9233696Y-12432134D01*
X9233696Y-12432134D02*
X9252744Y-12441658D01*
X9252744Y-12441658D02*
X9262268Y-12451182D01*
X9262268Y-12451182D02*
X9271791Y-12470230D01*
X9271791Y-12470230D02*
X9271791Y-12489277D01*
X9271791Y-12489277D02*
X9262268Y-12517849D01*
X9262268Y-12517849D02*
X9147982Y-12632134D01*
X9147982Y-12632134D02*
X9271791Y-12632134D01*
X9367029Y-12632134D02*
X9405125Y-12632134D01*
X9405125Y-12632134D02*
X9424172Y-12622611D01*
X9424172Y-12622611D02*
X9433696Y-12613087D01*
X9433696Y-12613087D02*
X9452744Y-12584515D01*
X9452744Y-12584515D02*
X9462268Y-12546420D01*
X9462268Y-12546420D02*
X9462268Y-12470230D01*
X9462268Y-12470230D02*
X9452744Y-12451182D01*
X9452744Y-12451182D02*
X9443220Y-12441658D01*
X9443220Y-12441658D02*
X9424172Y-12432134D01*
X9424172Y-12432134D02*
X9386077Y-12432134D01*
X9386077Y-12432134D02*
X9367029Y-12441658D01*
X9367029Y-12441658D02*
X9357506Y-12451182D01*
X9357506Y-12451182D02*
X9347982Y-12470230D01*
X9347982Y-12470230D02*
X9347982Y-12517849D01*
X9347982Y-12517849D02*
X9357506Y-12536896D01*
X9357506Y-12536896D02*
X9367029Y-12546420D01*
X9367029Y-12546420D02*
X9386077Y-12555944D01*
X9386077Y-12555944D02*
X9424172Y-12555944D01*
X9424172Y-12555944D02*
X9443220Y-12546420D01*
X9443220Y-12546420D02*
X9452744Y-12536896D01*
X9452744Y-12536896D02*
X9462268Y-12517849D01*
X9643220Y-12432134D02*
X9547982Y-12432134D01*
X9547982Y-12432134D02*
X9538458Y-12527373D01*
X9538458Y-12527373D02*
X9547982Y-12517849D01*
X9547982Y-12517849D02*
X9567029Y-12508325D01*
X9567029Y-12508325D02*
X9614649Y-12508325D01*
X9614649Y-12508325D02*
X9633696Y-12517849D01*
X9633696Y-12517849D02*
X9643220Y-12527373D01*
X9643220Y-12527373D02*
X9652744Y-12546420D01*
X9652744Y-12546420D02*
X9652744Y-12594039D01*
X9652744Y-12594039D02*
X9643220Y-12613087D01*
X9643220Y-12613087D02*
X9633696Y-12622611D01*
X9633696Y-12622611D02*
X9614649Y-12632134D01*
X9614649Y-12632134D02*
X9567029Y-12632134D01*
X9567029Y-12632134D02*
X9547982Y-12622611D01*
X9547982Y-12622611D02*
X9538458Y-12613087D01*
X9728934Y-12432134D02*
X9728934Y-12470230D01*
X9805125Y-12432134D02*
X9805125Y-12470230D01*
X10100363Y-12708325D02*
X10090839Y-12698801D01*
X10090839Y-12698801D02*
X10071791Y-12670230D01*
X10071791Y-12670230D02*
X10062268Y-12651182D01*
X10062268Y-12651182D02*
X10052744Y-12622611D01*
X10052744Y-12622611D02*
X10043220Y-12574992D01*
X10043220Y-12574992D02*
X10043220Y-12536896D01*
X10043220Y-12536896D02*
X10052744Y-12489277D01*
X10052744Y-12489277D02*
X10062268Y-12460706D01*
X10062268Y-12460706D02*
X10071791Y-12441658D01*
X10071791Y-12441658D02*
X10090839Y-12413087D01*
X10090839Y-12413087D02*
X10100363Y-12403563D01*
X10281315Y-12632134D02*
X10167030Y-12632134D01*
X10224172Y-12632134D02*
X10224172Y-12432134D01*
X10224172Y-12432134D02*
X10205125Y-12460706D01*
X10205125Y-12460706D02*
X10186077Y-12479753D01*
X10186077Y-12479753D02*
X10167030Y-12489277D01*
X10405125Y-12432134D02*
X10424172Y-12432134D01*
X10424172Y-12432134D02*
X10443220Y-12441658D01*
X10443220Y-12441658D02*
X10452744Y-12451182D01*
X10452744Y-12451182D02*
X10462268Y-12470230D01*
X10462268Y-12470230D02*
X10471791Y-12508325D01*
X10471791Y-12508325D02*
X10471791Y-12555944D01*
X10471791Y-12555944D02*
X10462268Y-12594039D01*
X10462268Y-12594039D02*
X10452744Y-12613087D01*
X10452744Y-12613087D02*
X10443220Y-12622611D01*
X10443220Y-12622611D02*
X10424172Y-12632134D01*
X10424172Y-12632134D02*
X10405125Y-12632134D01*
X10405125Y-12632134D02*
X10386077Y-12622611D01*
X10386077Y-12622611D02*
X10376553Y-12613087D01*
X10376553Y-12613087D02*
X10367030Y-12594039D01*
X10367030Y-12594039D02*
X10357506Y-12555944D01*
X10357506Y-12555944D02*
X10357506Y-12508325D01*
X10357506Y-12508325D02*
X10367030Y-12470230D01*
X10367030Y-12470230D02*
X10376553Y-12451182D01*
X10376553Y-12451182D02*
X10386077Y-12441658D01*
X10386077Y-12441658D02*
X10405125Y-12432134D01*
X10709887Y-12632134D02*
X10709887Y-12432134D01*
X10795601Y-12632134D02*
X10795601Y-12527373D01*
X10795601Y-12527373D02*
X10786077Y-12508325D01*
X10786077Y-12508325D02*
X10767030Y-12498801D01*
X10767030Y-12498801D02*
X10738458Y-12498801D01*
X10738458Y-12498801D02*
X10719411Y-12508325D01*
X10719411Y-12508325D02*
X10709887Y-12517849D01*
X10919411Y-12632134D02*
X10900363Y-12622611D01*
X10900363Y-12622611D02*
X10890839Y-12613087D01*
X10890839Y-12613087D02*
X10881315Y-12594039D01*
X10881315Y-12594039D02*
X10881315Y-12536896D01*
X10881315Y-12536896D02*
X10890839Y-12517849D01*
X10890839Y-12517849D02*
X10900363Y-12508325D01*
X10900363Y-12508325D02*
X10919411Y-12498801D01*
X10919411Y-12498801D02*
X10947982Y-12498801D01*
X10947982Y-12498801D02*
X10967030Y-12508325D01*
X10967030Y-12508325D02*
X10976553Y-12517849D01*
X10976553Y-12517849D02*
X10986077Y-12536896D01*
X10986077Y-12536896D02*
X10986077Y-12594039D01*
X10986077Y-12594039D02*
X10976553Y-12613087D01*
X10976553Y-12613087D02*
X10967030Y-12622611D01*
X10967030Y-12622611D02*
X10947982Y-12632134D01*
X10947982Y-12632134D02*
X10919411Y-12632134D01*
X11100363Y-12632134D02*
X11081315Y-12622611D01*
X11081315Y-12622611D02*
X11071792Y-12603563D01*
X11071792Y-12603563D02*
X11071792Y-12432134D01*
X11252744Y-12622611D02*
X11233696Y-12632134D01*
X11233696Y-12632134D02*
X11195601Y-12632134D01*
X11195601Y-12632134D02*
X11176553Y-12622611D01*
X11176553Y-12622611D02*
X11167030Y-12603563D01*
X11167030Y-12603563D02*
X11167030Y-12527373D01*
X11167030Y-12527373D02*
X11176553Y-12508325D01*
X11176553Y-12508325D02*
X11195601Y-12498801D01*
X11195601Y-12498801D02*
X11233696Y-12498801D01*
X11233696Y-12498801D02*
X11252744Y-12508325D01*
X11252744Y-12508325D02*
X11262268Y-12527373D01*
X11262268Y-12527373D02*
X11262268Y-12546420D01*
X11262268Y-12546420D02*
X11167030Y-12565468D01*
X11338458Y-12622611D02*
X11357506Y-12632134D01*
X11357506Y-12632134D02*
X11395601Y-12632134D01*
X11395601Y-12632134D02*
X11414649Y-12622611D01*
X11414649Y-12622611D02*
X11424172Y-12603563D01*
X11424172Y-12603563D02*
X11424172Y-12594039D01*
X11424172Y-12594039D02*
X11414649Y-12574992D01*
X11414649Y-12574992D02*
X11395601Y-12565468D01*
X11395601Y-12565468D02*
X11367030Y-12565468D01*
X11367030Y-12565468D02*
X11347982Y-12555944D01*
X11347982Y-12555944D02*
X11338458Y-12536896D01*
X11338458Y-12536896D02*
X11338458Y-12527373D01*
X11338458Y-12527373D02*
X11347982Y-12508325D01*
X11347982Y-12508325D02*
X11367030Y-12498801D01*
X11367030Y-12498801D02*
X11395601Y-12498801D01*
X11395601Y-12498801D02*
X11414649Y-12508325D01*
X11490839Y-12708325D02*
X11500363Y-12698801D01*
X11500363Y-12698801D02*
X11519411Y-12670230D01*
X11519411Y-12670230D02*
X11528934Y-12651182D01*
X11528934Y-12651182D02*
X11538458Y-12622611D01*
X11538458Y-12622611D02*
X11547982Y-12574992D01*
X11547982Y-12574992D02*
X11547982Y-12536896D01*
X11547982Y-12536896D02*
X11538458Y-12489277D01*
X11538458Y-12489277D02*
X11528934Y-12460706D01*
X11528934Y-12460706D02*
X11519411Y-12441658D01*
X11519411Y-12441658D02*
X11500363Y-12413087D01*
X11500363Y-12413087D02*
X11490839Y-12403563D01*
D12*
X6477800Y-12852151D02*
X6525300Y-12804651D01*
X6477800Y-12757151D01*
X6430300Y-12804651D01*
X6477800Y-12852151D01*
D11*
X6824172Y-12696134D02*
X6843220Y-12696134D01*
X6843220Y-12696134D02*
X6862267Y-12705658D01*
X6862267Y-12705658D02*
X6871791Y-12715182D01*
X6871791Y-12715182D02*
X6881315Y-12734230D01*
X6881315Y-12734230D02*
X6890839Y-12772325D01*
X6890839Y-12772325D02*
X6890839Y-12819944D01*
X6890839Y-12819944D02*
X6881315Y-12858039D01*
X6881315Y-12858039D02*
X6871791Y-12877087D01*
X6871791Y-12877087D02*
X6862267Y-12886611D01*
X6862267Y-12886611D02*
X6843220Y-12896134D01*
X6843220Y-12896134D02*
X6824172Y-12896134D01*
X6824172Y-12896134D02*
X6805124Y-12886611D01*
X6805124Y-12886611D02*
X6795601Y-12877087D01*
X6795601Y-12877087D02*
X6786077Y-12858039D01*
X6786077Y-12858039D02*
X6776553Y-12819944D01*
X6776553Y-12819944D02*
X6776553Y-12772325D01*
X6776553Y-12772325D02*
X6786077Y-12734230D01*
X6786077Y-12734230D02*
X6795601Y-12715182D01*
X6795601Y-12715182D02*
X6805124Y-12705658D01*
X6805124Y-12705658D02*
X6824172Y-12696134D01*
X6976553Y-12877087D02*
X6986077Y-12886611D01*
X6986077Y-12886611D02*
X6976553Y-12896134D01*
X6976553Y-12896134D02*
X6967029Y-12886611D01*
X6967029Y-12886611D02*
X6976553Y-12877087D01*
X6976553Y-12877087D02*
X6976553Y-12896134D01*
X7081315Y-12896134D02*
X7119410Y-12896134D01*
X7119410Y-12896134D02*
X7138458Y-12886611D01*
X7138458Y-12886611D02*
X7147982Y-12877087D01*
X7147982Y-12877087D02*
X7167029Y-12848515D01*
X7167029Y-12848515D02*
X7176553Y-12810420D01*
X7176553Y-12810420D02*
X7176553Y-12734230D01*
X7176553Y-12734230D02*
X7167029Y-12715182D01*
X7167029Y-12715182D02*
X7157505Y-12705658D01*
X7157505Y-12705658D02*
X7138458Y-12696134D01*
X7138458Y-12696134D02*
X7100362Y-12696134D01*
X7100362Y-12696134D02*
X7081315Y-12705658D01*
X7081315Y-12705658D02*
X7071791Y-12715182D01*
X7071791Y-12715182D02*
X7062267Y-12734230D01*
X7062267Y-12734230D02*
X7062267Y-12781849D01*
X7062267Y-12781849D02*
X7071791Y-12800896D01*
X7071791Y-12800896D02*
X7081315Y-12810420D01*
X7081315Y-12810420D02*
X7100362Y-12819944D01*
X7100362Y-12819944D02*
X7138458Y-12819944D01*
X7138458Y-12819944D02*
X7157505Y-12810420D01*
X7157505Y-12810420D02*
X7167029Y-12800896D01*
X7167029Y-12800896D02*
X7176553Y-12781849D01*
X7357505Y-12696134D02*
X7262267Y-12696134D01*
X7262267Y-12696134D02*
X7252743Y-12791373D01*
X7252743Y-12791373D02*
X7262267Y-12781849D01*
X7262267Y-12781849D02*
X7281315Y-12772325D01*
X7281315Y-12772325D02*
X7328934Y-12772325D01*
X7328934Y-12772325D02*
X7347982Y-12781849D01*
X7347982Y-12781849D02*
X7357505Y-12791373D01*
X7357505Y-12791373D02*
X7367029Y-12810420D01*
X7367029Y-12810420D02*
X7367029Y-12858039D01*
X7367029Y-12858039D02*
X7357505Y-12877087D01*
X7357505Y-12877087D02*
X7347982Y-12886611D01*
X7347982Y-12886611D02*
X7328934Y-12896134D01*
X7328934Y-12896134D02*
X7281315Y-12896134D01*
X7281315Y-12896134D02*
X7262267Y-12886611D01*
X7262267Y-12886611D02*
X7252743Y-12877087D01*
X7490839Y-12696134D02*
X7509886Y-12696134D01*
X7509886Y-12696134D02*
X7528934Y-12705658D01*
X7528934Y-12705658D02*
X7538458Y-12715182D01*
X7538458Y-12715182D02*
X7547982Y-12734230D01*
X7547982Y-12734230D02*
X7557505Y-12772325D01*
X7557505Y-12772325D02*
X7557505Y-12819944D01*
X7557505Y-12819944D02*
X7547982Y-12858039D01*
X7547982Y-12858039D02*
X7538458Y-12877087D01*
X7538458Y-12877087D02*
X7528934Y-12886611D01*
X7528934Y-12886611D02*
X7509886Y-12896134D01*
X7509886Y-12896134D02*
X7490839Y-12896134D01*
X7490839Y-12896134D02*
X7471791Y-12886611D01*
X7471791Y-12886611D02*
X7462267Y-12877087D01*
X7462267Y-12877087D02*
X7452743Y-12858039D01*
X7452743Y-12858039D02*
X7443220Y-12819944D01*
X7443220Y-12819944D02*
X7443220Y-12772325D01*
X7443220Y-12772325D02*
X7452743Y-12734230D01*
X7452743Y-12734230D02*
X7462267Y-12715182D01*
X7462267Y-12715182D02*
X7471791Y-12705658D01*
X7471791Y-12705658D02*
X7490839Y-12696134D01*
X7643220Y-12896134D02*
X7643220Y-12762801D01*
X7643220Y-12781849D02*
X7652743Y-12772325D01*
X7652743Y-12772325D02*
X7671791Y-12762801D01*
X7671791Y-12762801D02*
X7700363Y-12762801D01*
X7700363Y-12762801D02*
X7719410Y-12772325D01*
X7719410Y-12772325D02*
X7728934Y-12791373D01*
X7728934Y-12791373D02*
X7728934Y-12896134D01*
X7728934Y-12791373D02*
X7738458Y-12772325D01*
X7738458Y-12772325D02*
X7757505Y-12762801D01*
X7757505Y-12762801D02*
X7786077Y-12762801D01*
X7786077Y-12762801D02*
X7805124Y-12772325D01*
X7805124Y-12772325D02*
X7814648Y-12791373D01*
X7814648Y-12791373D02*
X7814648Y-12896134D01*
X7909886Y-12896134D02*
X7909886Y-12762801D01*
X7909886Y-12781849D02*
X7919410Y-12772325D01*
X7919410Y-12772325D02*
X7938458Y-12762801D01*
X7938458Y-12762801D02*
X7967029Y-12762801D01*
X7967029Y-12762801D02*
X7986077Y-12772325D01*
X7986077Y-12772325D02*
X7995601Y-12791373D01*
X7995601Y-12791373D02*
X7995601Y-12896134D01*
X7995601Y-12791373D02*
X8005124Y-12772325D01*
X8005124Y-12772325D02*
X8024172Y-12762801D01*
X8024172Y-12762801D02*
X8052743Y-12762801D01*
X8052743Y-12762801D02*
X8071791Y-12772325D01*
X8071791Y-12772325D02*
X8081315Y-12791373D01*
X8081315Y-12791373D02*
X8081315Y-12896134D01*
X8471791Y-12686611D02*
X8300363Y-12943753D01*
X8728934Y-12696134D02*
X8747982Y-12696134D01*
X8747982Y-12696134D02*
X8767029Y-12705658D01*
X8767029Y-12705658D02*
X8776553Y-12715182D01*
X8776553Y-12715182D02*
X8786077Y-12734230D01*
X8786077Y-12734230D02*
X8795601Y-12772325D01*
X8795601Y-12772325D02*
X8795601Y-12819944D01*
X8795601Y-12819944D02*
X8786077Y-12858039D01*
X8786077Y-12858039D02*
X8776553Y-12877087D01*
X8776553Y-12877087D02*
X8767029Y-12886611D01*
X8767029Y-12886611D02*
X8747982Y-12896134D01*
X8747982Y-12896134D02*
X8728934Y-12896134D01*
X8728934Y-12896134D02*
X8709887Y-12886611D01*
X8709887Y-12886611D02*
X8700363Y-12877087D01*
X8700363Y-12877087D02*
X8690839Y-12858039D01*
X8690839Y-12858039D02*
X8681315Y-12819944D01*
X8681315Y-12819944D02*
X8681315Y-12772325D01*
X8681315Y-12772325D02*
X8690839Y-12734230D01*
X8690839Y-12734230D02*
X8700363Y-12715182D01*
X8700363Y-12715182D02*
X8709887Y-12705658D01*
X8709887Y-12705658D02*
X8728934Y-12696134D01*
X8881315Y-12877087D02*
X8890839Y-12886611D01*
X8890839Y-12886611D02*
X8881315Y-12896134D01*
X8881315Y-12896134D02*
X8871791Y-12886611D01*
X8871791Y-12886611D02*
X8881315Y-12877087D01*
X8881315Y-12877087D02*
X8881315Y-12896134D01*
X9014648Y-12696134D02*
X9033696Y-12696134D01*
X9033696Y-12696134D02*
X9052744Y-12705658D01*
X9052744Y-12705658D02*
X9062268Y-12715182D01*
X9062268Y-12715182D02*
X9071791Y-12734230D01*
X9071791Y-12734230D02*
X9081315Y-12772325D01*
X9081315Y-12772325D02*
X9081315Y-12819944D01*
X9081315Y-12819944D02*
X9071791Y-12858039D01*
X9071791Y-12858039D02*
X9062268Y-12877087D01*
X9062268Y-12877087D02*
X9052744Y-12886611D01*
X9052744Y-12886611D02*
X9033696Y-12896134D01*
X9033696Y-12896134D02*
X9014648Y-12896134D01*
X9014648Y-12896134D02*
X8995601Y-12886611D01*
X8995601Y-12886611D02*
X8986077Y-12877087D01*
X8986077Y-12877087D02*
X8976553Y-12858039D01*
X8976553Y-12858039D02*
X8967029Y-12819944D01*
X8967029Y-12819944D02*
X8967029Y-12772325D01*
X8967029Y-12772325D02*
X8976553Y-12734230D01*
X8976553Y-12734230D02*
X8986077Y-12715182D01*
X8986077Y-12715182D02*
X8995601Y-12705658D01*
X8995601Y-12705658D02*
X9014648Y-12696134D01*
X9147982Y-12696134D02*
X9271791Y-12696134D01*
X9271791Y-12696134D02*
X9205125Y-12772325D01*
X9205125Y-12772325D02*
X9233696Y-12772325D01*
X9233696Y-12772325D02*
X9252744Y-12781849D01*
X9252744Y-12781849D02*
X9262268Y-12791373D01*
X9262268Y-12791373D02*
X9271791Y-12810420D01*
X9271791Y-12810420D02*
X9271791Y-12858039D01*
X9271791Y-12858039D02*
X9262268Y-12877087D01*
X9262268Y-12877087D02*
X9252744Y-12886611D01*
X9252744Y-12886611D02*
X9233696Y-12896134D01*
X9233696Y-12896134D02*
X9176553Y-12896134D01*
X9176553Y-12896134D02*
X9157506Y-12886611D01*
X9157506Y-12886611D02*
X9147982Y-12877087D01*
X9338458Y-12696134D02*
X9471791Y-12696134D01*
X9471791Y-12696134D02*
X9386077Y-12896134D01*
X9633696Y-12762801D02*
X9633696Y-12896134D01*
X9586077Y-12686611D02*
X9538458Y-12829468D01*
X9538458Y-12829468D02*
X9662268Y-12829468D01*
X9728934Y-12696134D02*
X9728934Y-12734230D01*
X9805125Y-12696134D02*
X9805125Y-12734230D01*
X10100363Y-12972325D02*
X10090839Y-12962801D01*
X10090839Y-12962801D02*
X10071791Y-12934230D01*
X10071791Y-12934230D02*
X10062268Y-12915182D01*
X10062268Y-12915182D02*
X10052744Y-12886611D01*
X10052744Y-12886611D02*
X10043220Y-12838992D01*
X10043220Y-12838992D02*
X10043220Y-12800896D01*
X10043220Y-12800896D02*
X10052744Y-12753277D01*
X10052744Y-12753277D02*
X10062268Y-12724706D01*
X10062268Y-12724706D02*
X10071791Y-12705658D01*
X10071791Y-12705658D02*
X10090839Y-12677087D01*
X10090839Y-12677087D02*
X10100363Y-12667563D01*
X10262268Y-12762801D02*
X10262268Y-12896134D01*
X10214649Y-12686611D02*
X10167030Y-12829468D01*
X10167030Y-12829468D02*
X10290839Y-12829468D01*
X10519411Y-12896134D02*
X10519411Y-12696134D01*
X10605125Y-12896134D02*
X10605125Y-12791373D01*
X10605125Y-12791373D02*
X10595601Y-12772325D01*
X10595601Y-12772325D02*
X10576553Y-12762801D01*
X10576553Y-12762801D02*
X10547982Y-12762801D01*
X10547982Y-12762801D02*
X10528934Y-12772325D01*
X10528934Y-12772325D02*
X10519411Y-12781849D01*
X10728934Y-12896134D02*
X10709887Y-12886611D01*
X10709887Y-12886611D02*
X10700363Y-12877087D01*
X10700363Y-12877087D02*
X10690839Y-12858039D01*
X10690839Y-12858039D02*
X10690839Y-12800896D01*
X10690839Y-12800896D02*
X10700363Y-12781849D01*
X10700363Y-12781849D02*
X10709887Y-12772325D01*
X10709887Y-12772325D02*
X10728934Y-12762801D01*
X10728934Y-12762801D02*
X10757506Y-12762801D01*
X10757506Y-12762801D02*
X10776553Y-12772325D01*
X10776553Y-12772325D02*
X10786077Y-12781849D01*
X10786077Y-12781849D02*
X10795601Y-12800896D01*
X10795601Y-12800896D02*
X10795601Y-12858039D01*
X10795601Y-12858039D02*
X10786077Y-12877087D01*
X10786077Y-12877087D02*
X10776553Y-12886611D01*
X10776553Y-12886611D02*
X10757506Y-12896134D01*
X10757506Y-12896134D02*
X10728934Y-12896134D01*
X10909887Y-12896134D02*
X10890839Y-12886611D01*
X10890839Y-12886611D02*
X10881315Y-12867563D01*
X10881315Y-12867563D02*
X10881315Y-12696134D01*
X11062268Y-12886611D02*
X11043220Y-12896134D01*
X11043220Y-12896134D02*
X11005125Y-12896134D01*
X11005125Y-12896134D02*
X10986077Y-12886611D01*
X10986077Y-12886611D02*
X10976553Y-12867563D01*
X10976553Y-12867563D02*
X10976553Y-12791373D01*
X10976553Y-12791373D02*
X10986077Y-12772325D01*
X10986077Y-12772325D02*
X11005125Y-12762801D01*
X11005125Y-12762801D02*
X11043220Y-12762801D01*
X11043220Y-12762801D02*
X11062268Y-12772325D01*
X11062268Y-12772325D02*
X11071792Y-12791373D01*
X11071792Y-12791373D02*
X11071792Y-12810420D01*
X11071792Y-12810420D02*
X10976553Y-12829468D01*
X11147982Y-12886611D02*
X11167030Y-12896134D01*
X11167030Y-12896134D02*
X11205125Y-12896134D01*
X11205125Y-12896134D02*
X11224172Y-12886611D01*
X11224172Y-12886611D02*
X11233696Y-12867563D01*
X11233696Y-12867563D02*
X11233696Y-12858039D01*
X11233696Y-12858039D02*
X11224172Y-12838992D01*
X11224172Y-12838992D02*
X11205125Y-12829468D01*
X11205125Y-12829468D02*
X11176553Y-12829468D01*
X11176553Y-12829468D02*
X11157506Y-12819944D01*
X11157506Y-12819944D02*
X11147982Y-12800896D01*
X11147982Y-12800896D02*
X11147982Y-12791373D01*
X11147982Y-12791373D02*
X11157506Y-12772325D01*
X11157506Y-12772325D02*
X11176553Y-12762801D01*
X11176553Y-12762801D02*
X11205125Y-12762801D01*
X11205125Y-12762801D02*
X11224172Y-12772325D01*
X11300363Y-12972325D02*
X11309887Y-12962801D01*
X11309887Y-12962801D02*
X11328934Y-12934230D01*
X11328934Y-12934230D02*
X11338458Y-12915182D01*
X11338458Y-12915182D02*
X11347982Y-12886611D01*
X11347982Y-12886611D02*
X11357506Y-12838992D01*
X11357506Y-12838992D02*
X11357506Y-12800896D01*
X11357506Y-12800896D02*
X11347982Y-12753277D01*
X11347982Y-12753277D02*
X11338458Y-12724706D01*
X11338458Y-12724706D02*
X11328934Y-12705658D01*
X11328934Y-12705658D02*
X11309887Y-12677087D01*
X11309887Y-12677087D02*
X11300363Y-12667563D01*
D12*
X6425300Y-13018651D02*
X6525300Y-13118651D01*
X6525300Y-13018651D02*
X6425300Y-13118651D01*
X6525300Y-13068651D02*
G75*
G02*
X6425300Y-13068651I-50000J0D01*
G01*
X6425300Y-13068651D02*
G75*
G02*
X6525300Y-13068651I50000J0D01*
G01*
D11*
X6890839Y-13160134D02*
X6776553Y-13160134D01*
X6833696Y-13160134D02*
X6833696Y-12960134D01*
X6833696Y-12960134D02*
X6814648Y-12988706D01*
X6814648Y-12988706D02*
X6795601Y-13007753D01*
X6795601Y-13007753D02*
X6776553Y-13017277D01*
X6976553Y-13141087D02*
X6986077Y-13150611D01*
X6986077Y-13150611D02*
X6976553Y-13160134D01*
X6976553Y-13160134D02*
X6967029Y-13150611D01*
X6967029Y-13150611D02*
X6976553Y-13141087D01*
X6976553Y-13141087D02*
X6976553Y-13160134D01*
X7109886Y-12960134D02*
X7128934Y-12960134D01*
X7128934Y-12960134D02*
X7147982Y-12969658D01*
X7147982Y-12969658D02*
X7157505Y-12979182D01*
X7157505Y-12979182D02*
X7167029Y-12998230D01*
X7167029Y-12998230D02*
X7176553Y-13036325D01*
X7176553Y-13036325D02*
X7176553Y-13083944D01*
X7176553Y-13083944D02*
X7167029Y-13122039D01*
X7167029Y-13122039D02*
X7157505Y-13141087D01*
X7157505Y-13141087D02*
X7147982Y-13150611D01*
X7147982Y-13150611D02*
X7128934Y-13160134D01*
X7128934Y-13160134D02*
X7109886Y-13160134D01*
X7109886Y-13160134D02*
X7090839Y-13150611D01*
X7090839Y-13150611D02*
X7081315Y-13141087D01*
X7081315Y-13141087D02*
X7071791Y-13122039D01*
X7071791Y-13122039D02*
X7062267Y-13083944D01*
X7062267Y-13083944D02*
X7062267Y-13036325D01*
X7062267Y-13036325D02*
X7071791Y-12998230D01*
X7071791Y-12998230D02*
X7081315Y-12979182D01*
X7081315Y-12979182D02*
X7090839Y-12969658D01*
X7090839Y-12969658D02*
X7109886Y-12960134D01*
X7300362Y-12960134D02*
X7319410Y-12960134D01*
X7319410Y-12960134D02*
X7338458Y-12969658D01*
X7338458Y-12969658D02*
X7347982Y-12979182D01*
X7347982Y-12979182D02*
X7357505Y-12998230D01*
X7357505Y-12998230D02*
X7367029Y-13036325D01*
X7367029Y-13036325D02*
X7367029Y-13083944D01*
X7367029Y-13083944D02*
X7357505Y-13122039D01*
X7357505Y-13122039D02*
X7347982Y-13141087D01*
X7347982Y-13141087D02*
X7338458Y-13150611D01*
X7338458Y-13150611D02*
X7319410Y-13160134D01*
X7319410Y-13160134D02*
X7300362Y-13160134D01*
X7300362Y-13160134D02*
X7281315Y-13150611D01*
X7281315Y-13150611D02*
X7271791Y-13141087D01*
X7271791Y-13141087D02*
X7262267Y-13122039D01*
X7262267Y-13122039D02*
X7252743Y-13083944D01*
X7252743Y-13083944D02*
X7252743Y-13036325D01*
X7252743Y-13036325D02*
X7262267Y-12998230D01*
X7262267Y-12998230D02*
X7271791Y-12979182D01*
X7271791Y-12979182D02*
X7281315Y-12969658D01*
X7281315Y-12969658D02*
X7300362Y-12960134D01*
X7490839Y-12960134D02*
X7509886Y-12960134D01*
X7509886Y-12960134D02*
X7528934Y-12969658D01*
X7528934Y-12969658D02*
X7538458Y-12979182D01*
X7538458Y-12979182D02*
X7547982Y-12998230D01*
X7547982Y-12998230D02*
X7557505Y-13036325D01*
X7557505Y-13036325D02*
X7557505Y-13083944D01*
X7557505Y-13083944D02*
X7547982Y-13122039D01*
X7547982Y-13122039D02*
X7538458Y-13141087D01*
X7538458Y-13141087D02*
X7528934Y-13150611D01*
X7528934Y-13150611D02*
X7509886Y-13160134D01*
X7509886Y-13160134D02*
X7490839Y-13160134D01*
X7490839Y-13160134D02*
X7471791Y-13150611D01*
X7471791Y-13150611D02*
X7462267Y-13141087D01*
X7462267Y-13141087D02*
X7452743Y-13122039D01*
X7452743Y-13122039D02*
X7443220Y-13083944D01*
X7443220Y-13083944D02*
X7443220Y-13036325D01*
X7443220Y-13036325D02*
X7452743Y-12998230D01*
X7452743Y-12998230D02*
X7462267Y-12979182D01*
X7462267Y-12979182D02*
X7471791Y-12969658D01*
X7471791Y-12969658D02*
X7490839Y-12960134D01*
X7643220Y-13160134D02*
X7643220Y-13026801D01*
X7643220Y-13045849D02*
X7652743Y-13036325D01*
X7652743Y-13036325D02*
X7671791Y-13026801D01*
X7671791Y-13026801D02*
X7700363Y-13026801D01*
X7700363Y-13026801D02*
X7719410Y-13036325D01*
X7719410Y-13036325D02*
X7728934Y-13055373D01*
X7728934Y-13055373D02*
X7728934Y-13160134D01*
X7728934Y-13055373D02*
X7738458Y-13036325D01*
X7738458Y-13036325D02*
X7757505Y-13026801D01*
X7757505Y-13026801D02*
X7786077Y-13026801D01*
X7786077Y-13026801D02*
X7805124Y-13036325D01*
X7805124Y-13036325D02*
X7814648Y-13055373D01*
X7814648Y-13055373D02*
X7814648Y-13160134D01*
X7909886Y-13160134D02*
X7909886Y-13026801D01*
X7909886Y-13045849D02*
X7919410Y-13036325D01*
X7919410Y-13036325D02*
X7938458Y-13026801D01*
X7938458Y-13026801D02*
X7967029Y-13026801D01*
X7967029Y-13026801D02*
X7986077Y-13036325D01*
X7986077Y-13036325D02*
X7995601Y-13055373D01*
X7995601Y-13055373D02*
X7995601Y-13160134D01*
X7995601Y-13055373D02*
X8005124Y-13036325D01*
X8005124Y-13036325D02*
X8024172Y-13026801D01*
X8024172Y-13026801D02*
X8052743Y-13026801D01*
X8052743Y-13026801D02*
X8071791Y-13036325D01*
X8071791Y-13036325D02*
X8081315Y-13055373D01*
X8081315Y-13055373D02*
X8081315Y-13160134D01*
X8471791Y-12950611D02*
X8300363Y-13207753D01*
X8728934Y-12960134D02*
X8747982Y-12960134D01*
X8747982Y-12960134D02*
X8767029Y-12969658D01*
X8767029Y-12969658D02*
X8776553Y-12979182D01*
X8776553Y-12979182D02*
X8786077Y-12998230D01*
X8786077Y-12998230D02*
X8795601Y-13036325D01*
X8795601Y-13036325D02*
X8795601Y-13083944D01*
X8795601Y-13083944D02*
X8786077Y-13122039D01*
X8786077Y-13122039D02*
X8776553Y-13141087D01*
X8776553Y-13141087D02*
X8767029Y-13150611D01*
X8767029Y-13150611D02*
X8747982Y-13160134D01*
X8747982Y-13160134D02*
X8728934Y-13160134D01*
X8728934Y-13160134D02*
X8709887Y-13150611D01*
X8709887Y-13150611D02*
X8700363Y-13141087D01*
X8700363Y-13141087D02*
X8690839Y-13122039D01*
X8690839Y-13122039D02*
X8681315Y-13083944D01*
X8681315Y-13083944D02*
X8681315Y-13036325D01*
X8681315Y-13036325D02*
X8690839Y-12998230D01*
X8690839Y-12998230D02*
X8700363Y-12979182D01*
X8700363Y-12979182D02*
X8709887Y-12969658D01*
X8709887Y-12969658D02*
X8728934Y-12960134D01*
X8881315Y-13141087D02*
X8890839Y-13150611D01*
X8890839Y-13150611D02*
X8881315Y-13160134D01*
X8881315Y-13160134D02*
X8871791Y-13150611D01*
X8871791Y-13150611D02*
X8881315Y-13141087D01*
X8881315Y-13141087D02*
X8881315Y-13160134D01*
X9014648Y-12960134D02*
X9033696Y-12960134D01*
X9033696Y-12960134D02*
X9052744Y-12969658D01*
X9052744Y-12969658D02*
X9062268Y-12979182D01*
X9062268Y-12979182D02*
X9071791Y-12998230D01*
X9071791Y-12998230D02*
X9081315Y-13036325D01*
X9081315Y-13036325D02*
X9081315Y-13083944D01*
X9081315Y-13083944D02*
X9071791Y-13122039D01*
X9071791Y-13122039D02*
X9062268Y-13141087D01*
X9062268Y-13141087D02*
X9052744Y-13150611D01*
X9052744Y-13150611D02*
X9033696Y-13160134D01*
X9033696Y-13160134D02*
X9014648Y-13160134D01*
X9014648Y-13160134D02*
X8995601Y-13150611D01*
X8995601Y-13150611D02*
X8986077Y-13141087D01*
X8986077Y-13141087D02*
X8976553Y-13122039D01*
X8976553Y-13122039D02*
X8967029Y-13083944D01*
X8967029Y-13083944D02*
X8967029Y-13036325D01*
X8967029Y-13036325D02*
X8976553Y-12998230D01*
X8976553Y-12998230D02*
X8986077Y-12979182D01*
X8986077Y-12979182D02*
X8995601Y-12969658D01*
X8995601Y-12969658D02*
X9014648Y-12960134D01*
X9147982Y-12960134D02*
X9271791Y-12960134D01*
X9271791Y-12960134D02*
X9205125Y-13036325D01*
X9205125Y-13036325D02*
X9233696Y-13036325D01*
X9233696Y-13036325D02*
X9252744Y-13045849D01*
X9252744Y-13045849D02*
X9262268Y-13055373D01*
X9262268Y-13055373D02*
X9271791Y-13074420D01*
X9271791Y-13074420D02*
X9271791Y-13122039D01*
X9271791Y-13122039D02*
X9262268Y-13141087D01*
X9262268Y-13141087D02*
X9252744Y-13150611D01*
X9252744Y-13150611D02*
X9233696Y-13160134D01*
X9233696Y-13160134D02*
X9176553Y-13160134D01*
X9176553Y-13160134D02*
X9157506Y-13150611D01*
X9157506Y-13150611D02*
X9147982Y-13141087D01*
X9367029Y-13160134D02*
X9405125Y-13160134D01*
X9405125Y-13160134D02*
X9424172Y-13150611D01*
X9424172Y-13150611D02*
X9433696Y-13141087D01*
X9433696Y-13141087D02*
X9452744Y-13112515D01*
X9452744Y-13112515D02*
X9462268Y-13074420D01*
X9462268Y-13074420D02*
X9462268Y-12998230D01*
X9462268Y-12998230D02*
X9452744Y-12979182D01*
X9452744Y-12979182D02*
X9443220Y-12969658D01*
X9443220Y-12969658D02*
X9424172Y-12960134D01*
X9424172Y-12960134D02*
X9386077Y-12960134D01*
X9386077Y-12960134D02*
X9367029Y-12969658D01*
X9367029Y-12969658D02*
X9357506Y-12979182D01*
X9357506Y-12979182D02*
X9347982Y-12998230D01*
X9347982Y-12998230D02*
X9347982Y-13045849D01*
X9347982Y-13045849D02*
X9357506Y-13064896D01*
X9357506Y-13064896D02*
X9367029Y-13074420D01*
X9367029Y-13074420D02*
X9386077Y-13083944D01*
X9386077Y-13083944D02*
X9424172Y-13083944D01*
X9424172Y-13083944D02*
X9443220Y-13074420D01*
X9443220Y-13074420D02*
X9452744Y-13064896D01*
X9452744Y-13064896D02*
X9462268Y-13045849D01*
X9633696Y-13026801D02*
X9633696Y-13160134D01*
X9586077Y-12950611D02*
X9538458Y-13093468D01*
X9538458Y-13093468D02*
X9662268Y-13093468D01*
X9728934Y-12960134D02*
X9728934Y-12998230D01*
X9805125Y-12960134D02*
X9805125Y-12998230D01*
X10100363Y-13236325D02*
X10090839Y-13226801D01*
X10090839Y-13226801D02*
X10071791Y-13198230D01*
X10071791Y-13198230D02*
X10062268Y-13179182D01*
X10062268Y-13179182D02*
X10052744Y-13150611D01*
X10052744Y-13150611D02*
X10043220Y-13102992D01*
X10043220Y-13102992D02*
X10043220Y-13064896D01*
X10043220Y-13064896D02*
X10052744Y-13017277D01*
X10052744Y-13017277D02*
X10062268Y-12988706D01*
X10062268Y-12988706D02*
X10071791Y-12969658D01*
X10071791Y-12969658D02*
X10090839Y-12941087D01*
X10090839Y-12941087D02*
X10100363Y-12931563D01*
X10281315Y-13160134D02*
X10167030Y-13160134D01*
X10224172Y-13160134D02*
X10224172Y-12960134D01*
X10224172Y-12960134D02*
X10205125Y-12988706D01*
X10205125Y-12988706D02*
X10186077Y-13007753D01*
X10186077Y-13007753D02*
X10167030Y-13017277D01*
X10405125Y-12960134D02*
X10424172Y-12960134D01*
X10424172Y-12960134D02*
X10443220Y-12969658D01*
X10443220Y-12969658D02*
X10452744Y-12979182D01*
X10452744Y-12979182D02*
X10462268Y-12998230D01*
X10462268Y-12998230D02*
X10471791Y-13036325D01*
X10471791Y-13036325D02*
X10471791Y-13083944D01*
X10471791Y-13083944D02*
X10462268Y-13122039D01*
X10462268Y-13122039D02*
X10452744Y-13141087D01*
X10452744Y-13141087D02*
X10443220Y-13150611D01*
X10443220Y-13150611D02*
X10424172Y-13160134D01*
X10424172Y-13160134D02*
X10405125Y-13160134D01*
X10405125Y-13160134D02*
X10386077Y-13150611D01*
X10386077Y-13150611D02*
X10376553Y-13141087D01*
X10376553Y-13141087D02*
X10367030Y-13122039D01*
X10367030Y-13122039D02*
X10357506Y-13083944D01*
X10357506Y-13083944D02*
X10357506Y-13036325D01*
X10357506Y-13036325D02*
X10367030Y-12998230D01*
X10367030Y-12998230D02*
X10376553Y-12979182D01*
X10376553Y-12979182D02*
X10386077Y-12969658D01*
X10386077Y-12969658D02*
X10405125Y-12960134D01*
X10709887Y-13160134D02*
X10709887Y-12960134D01*
X10795601Y-13160134D02*
X10795601Y-13055373D01*
X10795601Y-13055373D02*
X10786077Y-13036325D01*
X10786077Y-13036325D02*
X10767030Y-13026801D01*
X10767030Y-13026801D02*
X10738458Y-13026801D01*
X10738458Y-13026801D02*
X10719411Y-13036325D01*
X10719411Y-13036325D02*
X10709887Y-13045849D01*
X10919411Y-13160134D02*
X10900363Y-13150611D01*
X10900363Y-13150611D02*
X10890839Y-13141087D01*
X10890839Y-13141087D02*
X10881315Y-13122039D01*
X10881315Y-13122039D02*
X10881315Y-13064896D01*
X10881315Y-13064896D02*
X10890839Y-13045849D01*
X10890839Y-13045849D02*
X10900363Y-13036325D01*
X10900363Y-13036325D02*
X10919411Y-13026801D01*
X10919411Y-13026801D02*
X10947982Y-13026801D01*
X10947982Y-13026801D02*
X10967030Y-13036325D01*
X10967030Y-13036325D02*
X10976553Y-13045849D01*
X10976553Y-13045849D02*
X10986077Y-13064896D01*
X10986077Y-13064896D02*
X10986077Y-13122039D01*
X10986077Y-13122039D02*
X10976553Y-13141087D01*
X10976553Y-13141087D02*
X10967030Y-13150611D01*
X10967030Y-13150611D02*
X10947982Y-13160134D01*
X10947982Y-13160134D02*
X10919411Y-13160134D01*
X11100363Y-13160134D02*
X11081315Y-13150611D01*
X11081315Y-13150611D02*
X11071792Y-13131563D01*
X11071792Y-13131563D02*
X11071792Y-12960134D01*
X11252744Y-13150611D02*
X11233696Y-13160134D01*
X11233696Y-13160134D02*
X11195601Y-13160134D01*
X11195601Y-13160134D02*
X11176553Y-13150611D01*
X11176553Y-13150611D02*
X11167030Y-13131563D01*
X11167030Y-13131563D02*
X11167030Y-13055373D01*
X11167030Y-13055373D02*
X11176553Y-13036325D01*
X11176553Y-13036325D02*
X11195601Y-13026801D01*
X11195601Y-13026801D02*
X11233696Y-13026801D01*
X11233696Y-13026801D02*
X11252744Y-13036325D01*
X11252744Y-13036325D02*
X11262268Y-13055373D01*
X11262268Y-13055373D02*
X11262268Y-13074420D01*
X11262268Y-13074420D02*
X11167030Y-13093468D01*
X11338458Y-13150611D02*
X11357506Y-13160134D01*
X11357506Y-13160134D02*
X11395601Y-13160134D01*
X11395601Y-13160134D02*
X11414649Y-13150611D01*
X11414649Y-13150611D02*
X11424172Y-13131563D01*
X11424172Y-13131563D02*
X11424172Y-13122039D01*
X11424172Y-13122039D02*
X11414649Y-13102992D01*
X11414649Y-13102992D02*
X11395601Y-13093468D01*
X11395601Y-13093468D02*
X11367030Y-13093468D01*
X11367030Y-13093468D02*
X11347982Y-13083944D01*
X11347982Y-13083944D02*
X11338458Y-13064896D01*
X11338458Y-13064896D02*
X11338458Y-13055373D01*
X11338458Y-13055373D02*
X11347982Y-13036325D01*
X11347982Y-13036325D02*
X11367030Y-13026801D01*
X11367030Y-13026801D02*
X11395601Y-13026801D01*
X11395601Y-13026801D02*
X11414649Y-13036325D01*
X11490839Y-13236325D02*
X11500363Y-13226801D01*
X11500363Y-13226801D02*
X11519411Y-13198230D01*
X11519411Y-13198230D02*
X11528934Y-13179182D01*
X11528934Y-13179182D02*
X11538458Y-13150611D01*
X11538458Y-13150611D02*
X11547982Y-13102992D01*
X11547982Y-13102992D02*
X11547982Y-13064896D01*
X11547982Y-13064896D02*
X11538458Y-13017277D01*
X11538458Y-13017277D02*
X11528934Y-12988706D01*
X11528934Y-12988706D02*
X11519411Y-12969658D01*
X11519411Y-12969658D02*
X11500363Y-12941087D01*
X11500363Y-12941087D02*
X11490839Y-12931563D01*
D13*
X6405300Y-13272651D02*
X6525300Y-13392651D01*
X6525300Y-13272651D02*
X6405300Y-13392651D01*
X6465300Y-13272651D02*
X6465300Y-13392651D01*
X6405300Y-13332651D02*
X6525300Y-13332651D01*
D11*
X6890839Y-13424134D02*
X6776553Y-13424134D01*
X6833696Y-13424134D02*
X6833696Y-13224134D01*
X6833696Y-13224134D02*
X6814648Y-13252706D01*
X6814648Y-13252706D02*
X6795601Y-13271753D01*
X6795601Y-13271753D02*
X6776553Y-13281277D01*
X6976553Y-13405087D02*
X6986077Y-13414611D01*
X6986077Y-13414611D02*
X6976553Y-13424134D01*
X6976553Y-13424134D02*
X6967029Y-13414611D01*
X6967029Y-13414611D02*
X6976553Y-13405087D01*
X6976553Y-13405087D02*
X6976553Y-13424134D01*
X7062267Y-13243182D02*
X7071791Y-13233658D01*
X7071791Y-13233658D02*
X7090839Y-13224134D01*
X7090839Y-13224134D02*
X7138458Y-13224134D01*
X7138458Y-13224134D02*
X7157505Y-13233658D01*
X7157505Y-13233658D02*
X7167029Y-13243182D01*
X7167029Y-13243182D02*
X7176553Y-13262230D01*
X7176553Y-13262230D02*
X7176553Y-13281277D01*
X7176553Y-13281277D02*
X7167029Y-13309849D01*
X7167029Y-13309849D02*
X7052743Y-13424134D01*
X7052743Y-13424134D02*
X7176553Y-13424134D01*
X7300362Y-13224134D02*
X7319410Y-13224134D01*
X7319410Y-13224134D02*
X7338458Y-13233658D01*
X7338458Y-13233658D02*
X7347982Y-13243182D01*
X7347982Y-13243182D02*
X7357505Y-13262230D01*
X7357505Y-13262230D02*
X7367029Y-13300325D01*
X7367029Y-13300325D02*
X7367029Y-13347944D01*
X7367029Y-13347944D02*
X7357505Y-13386039D01*
X7357505Y-13386039D02*
X7347982Y-13405087D01*
X7347982Y-13405087D02*
X7338458Y-13414611D01*
X7338458Y-13414611D02*
X7319410Y-13424134D01*
X7319410Y-13424134D02*
X7300362Y-13424134D01*
X7300362Y-13424134D02*
X7281315Y-13414611D01*
X7281315Y-13414611D02*
X7271791Y-13405087D01*
X7271791Y-13405087D02*
X7262267Y-13386039D01*
X7262267Y-13386039D02*
X7252743Y-13347944D01*
X7252743Y-13347944D02*
X7252743Y-13300325D01*
X7252743Y-13300325D02*
X7262267Y-13262230D01*
X7262267Y-13262230D02*
X7271791Y-13243182D01*
X7271791Y-13243182D02*
X7281315Y-13233658D01*
X7281315Y-13233658D02*
X7300362Y-13224134D01*
X7490839Y-13224134D02*
X7509886Y-13224134D01*
X7509886Y-13224134D02*
X7528934Y-13233658D01*
X7528934Y-13233658D02*
X7538458Y-13243182D01*
X7538458Y-13243182D02*
X7547982Y-13262230D01*
X7547982Y-13262230D02*
X7557505Y-13300325D01*
X7557505Y-13300325D02*
X7557505Y-13347944D01*
X7557505Y-13347944D02*
X7547982Y-13386039D01*
X7547982Y-13386039D02*
X7538458Y-13405087D01*
X7538458Y-13405087D02*
X7528934Y-13414611D01*
X7528934Y-13414611D02*
X7509886Y-13424134D01*
X7509886Y-13424134D02*
X7490839Y-13424134D01*
X7490839Y-13424134D02*
X7471791Y-13414611D01*
X7471791Y-13414611D02*
X7462267Y-13405087D01*
X7462267Y-13405087D02*
X7452743Y-13386039D01*
X7452743Y-13386039D02*
X7443220Y-13347944D01*
X7443220Y-13347944D02*
X7443220Y-13300325D01*
X7443220Y-13300325D02*
X7452743Y-13262230D01*
X7452743Y-13262230D02*
X7462267Y-13243182D01*
X7462267Y-13243182D02*
X7471791Y-13233658D01*
X7471791Y-13233658D02*
X7490839Y-13224134D01*
X7643220Y-13424134D02*
X7643220Y-13290801D01*
X7643220Y-13309849D02*
X7652743Y-13300325D01*
X7652743Y-13300325D02*
X7671791Y-13290801D01*
X7671791Y-13290801D02*
X7700363Y-13290801D01*
X7700363Y-13290801D02*
X7719410Y-13300325D01*
X7719410Y-13300325D02*
X7728934Y-13319373D01*
X7728934Y-13319373D02*
X7728934Y-13424134D01*
X7728934Y-13319373D02*
X7738458Y-13300325D01*
X7738458Y-13300325D02*
X7757505Y-13290801D01*
X7757505Y-13290801D02*
X7786077Y-13290801D01*
X7786077Y-13290801D02*
X7805124Y-13300325D01*
X7805124Y-13300325D02*
X7814648Y-13319373D01*
X7814648Y-13319373D02*
X7814648Y-13424134D01*
X7909886Y-13424134D02*
X7909886Y-13290801D01*
X7909886Y-13309849D02*
X7919410Y-13300325D01*
X7919410Y-13300325D02*
X7938458Y-13290801D01*
X7938458Y-13290801D02*
X7967029Y-13290801D01*
X7967029Y-13290801D02*
X7986077Y-13300325D01*
X7986077Y-13300325D02*
X7995601Y-13319373D01*
X7995601Y-13319373D02*
X7995601Y-13424134D01*
X7995601Y-13319373D02*
X8005124Y-13300325D01*
X8005124Y-13300325D02*
X8024172Y-13290801D01*
X8024172Y-13290801D02*
X8052743Y-13290801D01*
X8052743Y-13290801D02*
X8071791Y-13300325D01*
X8071791Y-13300325D02*
X8081315Y-13319373D01*
X8081315Y-13319373D02*
X8081315Y-13424134D01*
X8471791Y-13214611D02*
X8300363Y-13471753D01*
X8728934Y-13224134D02*
X8747982Y-13224134D01*
X8747982Y-13224134D02*
X8767029Y-13233658D01*
X8767029Y-13233658D02*
X8776553Y-13243182D01*
X8776553Y-13243182D02*
X8786077Y-13262230D01*
X8786077Y-13262230D02*
X8795601Y-13300325D01*
X8795601Y-13300325D02*
X8795601Y-13347944D01*
X8795601Y-13347944D02*
X8786077Y-13386039D01*
X8786077Y-13386039D02*
X8776553Y-13405087D01*
X8776553Y-13405087D02*
X8767029Y-13414611D01*
X8767029Y-13414611D02*
X8747982Y-13424134D01*
X8747982Y-13424134D02*
X8728934Y-13424134D01*
X8728934Y-13424134D02*
X8709887Y-13414611D01*
X8709887Y-13414611D02*
X8700363Y-13405087D01*
X8700363Y-13405087D02*
X8690839Y-13386039D01*
X8690839Y-13386039D02*
X8681315Y-13347944D01*
X8681315Y-13347944D02*
X8681315Y-13300325D01*
X8681315Y-13300325D02*
X8690839Y-13262230D01*
X8690839Y-13262230D02*
X8700363Y-13243182D01*
X8700363Y-13243182D02*
X8709887Y-13233658D01*
X8709887Y-13233658D02*
X8728934Y-13224134D01*
X8881315Y-13405087D02*
X8890839Y-13414611D01*
X8890839Y-13414611D02*
X8881315Y-13424134D01*
X8881315Y-13424134D02*
X8871791Y-13414611D01*
X8871791Y-13414611D02*
X8881315Y-13405087D01*
X8881315Y-13405087D02*
X8881315Y-13424134D01*
X9014648Y-13224134D02*
X9033696Y-13224134D01*
X9033696Y-13224134D02*
X9052744Y-13233658D01*
X9052744Y-13233658D02*
X9062268Y-13243182D01*
X9062268Y-13243182D02*
X9071791Y-13262230D01*
X9071791Y-13262230D02*
X9081315Y-13300325D01*
X9081315Y-13300325D02*
X9081315Y-13347944D01*
X9081315Y-13347944D02*
X9071791Y-13386039D01*
X9071791Y-13386039D02*
X9062268Y-13405087D01*
X9062268Y-13405087D02*
X9052744Y-13414611D01*
X9052744Y-13414611D02*
X9033696Y-13424134D01*
X9033696Y-13424134D02*
X9014648Y-13424134D01*
X9014648Y-13424134D02*
X8995601Y-13414611D01*
X8995601Y-13414611D02*
X8986077Y-13405087D01*
X8986077Y-13405087D02*
X8976553Y-13386039D01*
X8976553Y-13386039D02*
X8967029Y-13347944D01*
X8967029Y-13347944D02*
X8967029Y-13300325D01*
X8967029Y-13300325D02*
X8976553Y-13262230D01*
X8976553Y-13262230D02*
X8986077Y-13243182D01*
X8986077Y-13243182D02*
X8995601Y-13233658D01*
X8995601Y-13233658D02*
X9014648Y-13224134D01*
X9252744Y-13290801D02*
X9252744Y-13424134D01*
X9205125Y-13214611D02*
X9157506Y-13357468D01*
X9157506Y-13357468D02*
X9281315Y-13357468D01*
X9338458Y-13224134D02*
X9471791Y-13224134D01*
X9471791Y-13224134D02*
X9386077Y-13424134D01*
X9538458Y-13243182D02*
X9547982Y-13233658D01*
X9547982Y-13233658D02*
X9567029Y-13224134D01*
X9567029Y-13224134D02*
X9614649Y-13224134D01*
X9614649Y-13224134D02*
X9633696Y-13233658D01*
X9633696Y-13233658D02*
X9643220Y-13243182D01*
X9643220Y-13243182D02*
X9652744Y-13262230D01*
X9652744Y-13262230D02*
X9652744Y-13281277D01*
X9652744Y-13281277D02*
X9643220Y-13309849D01*
X9643220Y-13309849D02*
X9528934Y-13424134D01*
X9528934Y-13424134D02*
X9652744Y-13424134D01*
X9728934Y-13224134D02*
X9728934Y-13262230D01*
X9805125Y-13224134D02*
X9805125Y-13262230D01*
X10100363Y-13500325D02*
X10090839Y-13490801D01*
X10090839Y-13490801D02*
X10071791Y-13462230D01*
X10071791Y-13462230D02*
X10062268Y-13443182D01*
X10062268Y-13443182D02*
X10052744Y-13414611D01*
X10052744Y-13414611D02*
X10043220Y-13366992D01*
X10043220Y-13366992D02*
X10043220Y-13328896D01*
X10043220Y-13328896D02*
X10052744Y-13281277D01*
X10052744Y-13281277D02*
X10062268Y-13252706D01*
X10062268Y-13252706D02*
X10071791Y-13233658D01*
X10071791Y-13233658D02*
X10090839Y-13205087D01*
X10090839Y-13205087D02*
X10100363Y-13195563D01*
X10167030Y-13243182D02*
X10176553Y-13233658D01*
X10176553Y-13233658D02*
X10195601Y-13224134D01*
X10195601Y-13224134D02*
X10243220Y-13224134D01*
X10243220Y-13224134D02*
X10262268Y-13233658D01*
X10262268Y-13233658D02*
X10271791Y-13243182D01*
X10271791Y-13243182D02*
X10281315Y-13262230D01*
X10281315Y-13262230D02*
X10281315Y-13281277D01*
X10281315Y-13281277D02*
X10271791Y-13309849D01*
X10271791Y-13309849D02*
X10157506Y-13424134D01*
X10157506Y-13424134D02*
X10281315Y-13424134D01*
X10519411Y-13424134D02*
X10519411Y-13224134D01*
X10605125Y-13424134D02*
X10605125Y-13319373D01*
X10605125Y-13319373D02*
X10595601Y-13300325D01*
X10595601Y-13300325D02*
X10576553Y-13290801D01*
X10576553Y-13290801D02*
X10547982Y-13290801D01*
X10547982Y-13290801D02*
X10528934Y-13300325D01*
X10528934Y-13300325D02*
X10519411Y-13309849D01*
X10728934Y-13424134D02*
X10709887Y-13414611D01*
X10709887Y-13414611D02*
X10700363Y-13405087D01*
X10700363Y-13405087D02*
X10690839Y-13386039D01*
X10690839Y-13386039D02*
X10690839Y-13328896D01*
X10690839Y-13328896D02*
X10700363Y-13309849D01*
X10700363Y-13309849D02*
X10709887Y-13300325D01*
X10709887Y-13300325D02*
X10728934Y-13290801D01*
X10728934Y-13290801D02*
X10757506Y-13290801D01*
X10757506Y-13290801D02*
X10776553Y-13300325D01*
X10776553Y-13300325D02*
X10786077Y-13309849D01*
X10786077Y-13309849D02*
X10795601Y-13328896D01*
X10795601Y-13328896D02*
X10795601Y-13386039D01*
X10795601Y-13386039D02*
X10786077Y-13405087D01*
X10786077Y-13405087D02*
X10776553Y-13414611D01*
X10776553Y-13414611D02*
X10757506Y-13424134D01*
X10757506Y-13424134D02*
X10728934Y-13424134D01*
X10909887Y-13424134D02*
X10890839Y-13414611D01*
X10890839Y-13414611D02*
X10881315Y-13395563D01*
X10881315Y-13395563D02*
X10881315Y-13224134D01*
X11062268Y-13414611D02*
X11043220Y-13424134D01*
X11043220Y-13424134D02*
X11005125Y-13424134D01*
X11005125Y-13424134D02*
X10986077Y-13414611D01*
X10986077Y-13414611D02*
X10976553Y-13395563D01*
X10976553Y-13395563D02*
X10976553Y-13319373D01*
X10976553Y-13319373D02*
X10986077Y-13300325D01*
X10986077Y-13300325D02*
X11005125Y-13290801D01*
X11005125Y-13290801D02*
X11043220Y-13290801D01*
X11043220Y-13290801D02*
X11062268Y-13300325D01*
X11062268Y-13300325D02*
X11071792Y-13319373D01*
X11071792Y-13319373D02*
X11071792Y-13338420D01*
X11071792Y-13338420D02*
X10976553Y-13357468D01*
X11147982Y-13414611D02*
X11167030Y-13424134D01*
X11167030Y-13424134D02*
X11205125Y-13424134D01*
X11205125Y-13424134D02*
X11224172Y-13414611D01*
X11224172Y-13414611D02*
X11233696Y-13395563D01*
X11233696Y-13395563D02*
X11233696Y-13386039D01*
X11233696Y-13386039D02*
X11224172Y-13366992D01*
X11224172Y-13366992D02*
X11205125Y-13357468D01*
X11205125Y-13357468D02*
X11176553Y-13357468D01*
X11176553Y-13357468D02*
X11157506Y-13347944D01*
X11157506Y-13347944D02*
X11147982Y-13328896D01*
X11147982Y-13328896D02*
X11147982Y-13319373D01*
X11147982Y-13319373D02*
X11157506Y-13300325D01*
X11157506Y-13300325D02*
X11176553Y-13290801D01*
X11176553Y-13290801D02*
X11205125Y-13290801D01*
X11205125Y-13290801D02*
X11224172Y-13300325D01*
X11300363Y-13500325D02*
X11309887Y-13490801D01*
X11309887Y-13490801D02*
X11328934Y-13462230D01*
X11328934Y-13462230D02*
X11338458Y-13443182D01*
X11338458Y-13443182D02*
X11347982Y-13414611D01*
X11347982Y-13414611D02*
X11357506Y-13366992D01*
X11357506Y-13366992D02*
X11357506Y-13328896D01*
X11357506Y-13328896D02*
X11347982Y-13281277D01*
X11347982Y-13281277D02*
X11338458Y-13252706D01*
X11338458Y-13252706D02*
X11328934Y-13233658D01*
X11328934Y-13233658D02*
X11309887Y-13205087D01*
X11309887Y-13205087D02*
X11300363Y-13195563D01*
D14*
X6335300Y-13501651D02*
X6525300Y-13691651D01*
X6525300Y-13501651D02*
X6335300Y-13691651D01*
X6497476Y-13663826D02*
X6497476Y-13529475D01*
X6363124Y-13529475D01*
X6363124Y-13663826D01*
X6497476Y-13663826D01*
D11*
X6890839Y-13688134D02*
X6776553Y-13688134D01*
X6833696Y-13688134D02*
X6833696Y-13488134D01*
X6833696Y-13488134D02*
X6814648Y-13516706D01*
X6814648Y-13516706D02*
X6795601Y-13535753D01*
X6795601Y-13535753D02*
X6776553Y-13545277D01*
X6976553Y-13669087D02*
X6986077Y-13678611D01*
X6986077Y-13678611D02*
X6976553Y-13688134D01*
X6976553Y-13688134D02*
X6967029Y-13678611D01*
X6967029Y-13678611D02*
X6976553Y-13669087D01*
X6976553Y-13669087D02*
X6976553Y-13688134D01*
X7081315Y-13688134D02*
X7119410Y-13688134D01*
X7119410Y-13688134D02*
X7138458Y-13678611D01*
X7138458Y-13678611D02*
X7147982Y-13669087D01*
X7147982Y-13669087D02*
X7167029Y-13640515D01*
X7167029Y-13640515D02*
X7176553Y-13602420D01*
X7176553Y-13602420D02*
X7176553Y-13526230D01*
X7176553Y-13526230D02*
X7167029Y-13507182D01*
X7167029Y-13507182D02*
X7157505Y-13497658D01*
X7157505Y-13497658D02*
X7138458Y-13488134D01*
X7138458Y-13488134D02*
X7100362Y-13488134D01*
X7100362Y-13488134D02*
X7081315Y-13497658D01*
X7081315Y-13497658D02*
X7071791Y-13507182D01*
X7071791Y-13507182D02*
X7062267Y-13526230D01*
X7062267Y-13526230D02*
X7062267Y-13573849D01*
X7062267Y-13573849D02*
X7071791Y-13592896D01*
X7071791Y-13592896D02*
X7081315Y-13602420D01*
X7081315Y-13602420D02*
X7100362Y-13611944D01*
X7100362Y-13611944D02*
X7138458Y-13611944D01*
X7138458Y-13611944D02*
X7157505Y-13602420D01*
X7157505Y-13602420D02*
X7167029Y-13592896D01*
X7167029Y-13592896D02*
X7176553Y-13573849D01*
X7300362Y-13488134D02*
X7319410Y-13488134D01*
X7319410Y-13488134D02*
X7338458Y-13497658D01*
X7338458Y-13497658D02*
X7347982Y-13507182D01*
X7347982Y-13507182D02*
X7357505Y-13526230D01*
X7357505Y-13526230D02*
X7367029Y-13564325D01*
X7367029Y-13564325D02*
X7367029Y-13611944D01*
X7367029Y-13611944D02*
X7357505Y-13650039D01*
X7357505Y-13650039D02*
X7347982Y-13669087D01*
X7347982Y-13669087D02*
X7338458Y-13678611D01*
X7338458Y-13678611D02*
X7319410Y-13688134D01*
X7319410Y-13688134D02*
X7300362Y-13688134D01*
X7300362Y-13688134D02*
X7281315Y-13678611D01*
X7281315Y-13678611D02*
X7271791Y-13669087D01*
X7271791Y-13669087D02*
X7262267Y-13650039D01*
X7262267Y-13650039D02*
X7252743Y-13611944D01*
X7252743Y-13611944D02*
X7252743Y-13564325D01*
X7252743Y-13564325D02*
X7262267Y-13526230D01*
X7262267Y-13526230D02*
X7271791Y-13507182D01*
X7271791Y-13507182D02*
X7281315Y-13497658D01*
X7281315Y-13497658D02*
X7300362Y-13488134D01*
X7490839Y-13488134D02*
X7509886Y-13488134D01*
X7509886Y-13488134D02*
X7528934Y-13497658D01*
X7528934Y-13497658D02*
X7538458Y-13507182D01*
X7538458Y-13507182D02*
X7547982Y-13526230D01*
X7547982Y-13526230D02*
X7557505Y-13564325D01*
X7557505Y-13564325D02*
X7557505Y-13611944D01*
X7557505Y-13611944D02*
X7547982Y-13650039D01*
X7547982Y-13650039D02*
X7538458Y-13669087D01*
X7538458Y-13669087D02*
X7528934Y-13678611D01*
X7528934Y-13678611D02*
X7509886Y-13688134D01*
X7509886Y-13688134D02*
X7490839Y-13688134D01*
X7490839Y-13688134D02*
X7471791Y-13678611D01*
X7471791Y-13678611D02*
X7462267Y-13669087D01*
X7462267Y-13669087D02*
X7452743Y-13650039D01*
X7452743Y-13650039D02*
X7443220Y-13611944D01*
X7443220Y-13611944D02*
X7443220Y-13564325D01*
X7443220Y-13564325D02*
X7452743Y-13526230D01*
X7452743Y-13526230D02*
X7462267Y-13507182D01*
X7462267Y-13507182D02*
X7471791Y-13497658D01*
X7471791Y-13497658D02*
X7490839Y-13488134D01*
X7643220Y-13688134D02*
X7643220Y-13554801D01*
X7643220Y-13573849D02*
X7652743Y-13564325D01*
X7652743Y-13564325D02*
X7671791Y-13554801D01*
X7671791Y-13554801D02*
X7700363Y-13554801D01*
X7700363Y-13554801D02*
X7719410Y-13564325D01*
X7719410Y-13564325D02*
X7728934Y-13583373D01*
X7728934Y-13583373D02*
X7728934Y-13688134D01*
X7728934Y-13583373D02*
X7738458Y-13564325D01*
X7738458Y-13564325D02*
X7757505Y-13554801D01*
X7757505Y-13554801D02*
X7786077Y-13554801D01*
X7786077Y-13554801D02*
X7805124Y-13564325D01*
X7805124Y-13564325D02*
X7814648Y-13583373D01*
X7814648Y-13583373D02*
X7814648Y-13688134D01*
X7909886Y-13688134D02*
X7909886Y-13554801D01*
X7909886Y-13573849D02*
X7919410Y-13564325D01*
X7919410Y-13564325D02*
X7938458Y-13554801D01*
X7938458Y-13554801D02*
X7967029Y-13554801D01*
X7967029Y-13554801D02*
X7986077Y-13564325D01*
X7986077Y-13564325D02*
X7995601Y-13583373D01*
X7995601Y-13583373D02*
X7995601Y-13688134D01*
X7995601Y-13583373D02*
X8005124Y-13564325D01*
X8005124Y-13564325D02*
X8024172Y-13554801D01*
X8024172Y-13554801D02*
X8052743Y-13554801D01*
X8052743Y-13554801D02*
X8071791Y-13564325D01*
X8071791Y-13564325D02*
X8081315Y-13583373D01*
X8081315Y-13583373D02*
X8081315Y-13688134D01*
X8471791Y-13478611D02*
X8300363Y-13735753D01*
X8728934Y-13488134D02*
X8747982Y-13488134D01*
X8747982Y-13488134D02*
X8767029Y-13497658D01*
X8767029Y-13497658D02*
X8776553Y-13507182D01*
X8776553Y-13507182D02*
X8786077Y-13526230D01*
X8786077Y-13526230D02*
X8795601Y-13564325D01*
X8795601Y-13564325D02*
X8795601Y-13611944D01*
X8795601Y-13611944D02*
X8786077Y-13650039D01*
X8786077Y-13650039D02*
X8776553Y-13669087D01*
X8776553Y-13669087D02*
X8767029Y-13678611D01*
X8767029Y-13678611D02*
X8747982Y-13688134D01*
X8747982Y-13688134D02*
X8728934Y-13688134D01*
X8728934Y-13688134D02*
X8709887Y-13678611D01*
X8709887Y-13678611D02*
X8700363Y-13669087D01*
X8700363Y-13669087D02*
X8690839Y-13650039D01*
X8690839Y-13650039D02*
X8681315Y-13611944D01*
X8681315Y-13611944D02*
X8681315Y-13564325D01*
X8681315Y-13564325D02*
X8690839Y-13526230D01*
X8690839Y-13526230D02*
X8700363Y-13507182D01*
X8700363Y-13507182D02*
X8709887Y-13497658D01*
X8709887Y-13497658D02*
X8728934Y-13488134D01*
X8881315Y-13669087D02*
X8890839Y-13678611D01*
X8890839Y-13678611D02*
X8881315Y-13688134D01*
X8881315Y-13688134D02*
X8871791Y-13678611D01*
X8871791Y-13678611D02*
X8881315Y-13669087D01*
X8881315Y-13669087D02*
X8881315Y-13688134D01*
X9014648Y-13488134D02*
X9033696Y-13488134D01*
X9033696Y-13488134D02*
X9052744Y-13497658D01*
X9052744Y-13497658D02*
X9062268Y-13507182D01*
X9062268Y-13507182D02*
X9071791Y-13526230D01*
X9071791Y-13526230D02*
X9081315Y-13564325D01*
X9081315Y-13564325D02*
X9081315Y-13611944D01*
X9081315Y-13611944D02*
X9071791Y-13650039D01*
X9071791Y-13650039D02*
X9062268Y-13669087D01*
X9062268Y-13669087D02*
X9052744Y-13678611D01*
X9052744Y-13678611D02*
X9033696Y-13688134D01*
X9033696Y-13688134D02*
X9014648Y-13688134D01*
X9014648Y-13688134D02*
X8995601Y-13678611D01*
X8995601Y-13678611D02*
X8986077Y-13669087D01*
X8986077Y-13669087D02*
X8976553Y-13650039D01*
X8976553Y-13650039D02*
X8967029Y-13611944D01*
X8967029Y-13611944D02*
X8967029Y-13564325D01*
X8967029Y-13564325D02*
X8976553Y-13526230D01*
X8976553Y-13526230D02*
X8986077Y-13507182D01*
X8986077Y-13507182D02*
X8995601Y-13497658D01*
X8995601Y-13497658D02*
X9014648Y-13488134D01*
X9147982Y-13488134D02*
X9281315Y-13488134D01*
X9281315Y-13488134D02*
X9195601Y-13688134D01*
X9443220Y-13554801D02*
X9443220Y-13688134D01*
X9395601Y-13478611D02*
X9347982Y-13621468D01*
X9347982Y-13621468D02*
X9471791Y-13621468D01*
X9576553Y-13573849D02*
X9557506Y-13564325D01*
X9557506Y-13564325D02*
X9547982Y-13554801D01*
X9547982Y-13554801D02*
X9538458Y-13535753D01*
X9538458Y-13535753D02*
X9538458Y-13526230D01*
X9538458Y-13526230D02*
X9547982Y-13507182D01*
X9547982Y-13507182D02*
X9557506Y-13497658D01*
X9557506Y-13497658D02*
X9576553Y-13488134D01*
X9576553Y-13488134D02*
X9614649Y-13488134D01*
X9614649Y-13488134D02*
X9633696Y-13497658D01*
X9633696Y-13497658D02*
X9643220Y-13507182D01*
X9643220Y-13507182D02*
X9652744Y-13526230D01*
X9652744Y-13526230D02*
X9652744Y-13535753D01*
X9652744Y-13535753D02*
X9643220Y-13554801D01*
X9643220Y-13554801D02*
X9633696Y-13564325D01*
X9633696Y-13564325D02*
X9614649Y-13573849D01*
X9614649Y-13573849D02*
X9576553Y-13573849D01*
X9576553Y-13573849D02*
X9557506Y-13583373D01*
X9557506Y-13583373D02*
X9547982Y-13592896D01*
X9547982Y-13592896D02*
X9538458Y-13611944D01*
X9538458Y-13611944D02*
X9538458Y-13650039D01*
X9538458Y-13650039D02*
X9547982Y-13669087D01*
X9547982Y-13669087D02*
X9557506Y-13678611D01*
X9557506Y-13678611D02*
X9576553Y-13688134D01*
X9576553Y-13688134D02*
X9614649Y-13688134D01*
X9614649Y-13688134D02*
X9633696Y-13678611D01*
X9633696Y-13678611D02*
X9643220Y-13669087D01*
X9643220Y-13669087D02*
X9652744Y-13650039D01*
X9652744Y-13650039D02*
X9652744Y-13611944D01*
X9652744Y-13611944D02*
X9643220Y-13592896D01*
X9643220Y-13592896D02*
X9633696Y-13583373D01*
X9633696Y-13583373D02*
X9614649Y-13573849D01*
X9728934Y-13488134D02*
X9728934Y-13526230D01*
X9805125Y-13488134D02*
X9805125Y-13526230D01*
X10100363Y-13764325D02*
X10090839Y-13754801D01*
X10090839Y-13754801D02*
X10071791Y-13726230D01*
X10071791Y-13726230D02*
X10062268Y-13707182D01*
X10062268Y-13707182D02*
X10052744Y-13678611D01*
X10052744Y-13678611D02*
X10043220Y-13630992D01*
X10043220Y-13630992D02*
X10043220Y-13592896D01*
X10043220Y-13592896D02*
X10052744Y-13545277D01*
X10052744Y-13545277D02*
X10062268Y-13516706D01*
X10062268Y-13516706D02*
X10071791Y-13497658D01*
X10071791Y-13497658D02*
X10090839Y-13469087D01*
X10090839Y-13469087D02*
X10100363Y-13459563D01*
X10281315Y-13688134D02*
X10167030Y-13688134D01*
X10224172Y-13688134D02*
X10224172Y-13488134D01*
X10224172Y-13488134D02*
X10205125Y-13516706D01*
X10205125Y-13516706D02*
X10186077Y-13535753D01*
X10186077Y-13535753D02*
X10167030Y-13545277D01*
X10471791Y-13688134D02*
X10357506Y-13688134D01*
X10414649Y-13688134D02*
X10414649Y-13488134D01*
X10414649Y-13488134D02*
X10395601Y-13516706D01*
X10395601Y-13516706D02*
X10376553Y-13535753D01*
X10376553Y-13535753D02*
X10357506Y-13545277D01*
X10709887Y-13688134D02*
X10709887Y-13488134D01*
X10795601Y-13688134D02*
X10795601Y-13583373D01*
X10795601Y-13583373D02*
X10786077Y-13564325D01*
X10786077Y-13564325D02*
X10767030Y-13554801D01*
X10767030Y-13554801D02*
X10738458Y-13554801D01*
X10738458Y-13554801D02*
X10719411Y-13564325D01*
X10719411Y-13564325D02*
X10709887Y-13573849D01*
X10919411Y-13688134D02*
X10900363Y-13678611D01*
X10900363Y-13678611D02*
X10890839Y-13669087D01*
X10890839Y-13669087D02*
X10881315Y-13650039D01*
X10881315Y-13650039D02*
X10881315Y-13592896D01*
X10881315Y-13592896D02*
X10890839Y-13573849D01*
X10890839Y-13573849D02*
X10900363Y-13564325D01*
X10900363Y-13564325D02*
X10919411Y-13554801D01*
X10919411Y-13554801D02*
X10947982Y-13554801D01*
X10947982Y-13554801D02*
X10967030Y-13564325D01*
X10967030Y-13564325D02*
X10976553Y-13573849D01*
X10976553Y-13573849D02*
X10986077Y-13592896D01*
X10986077Y-13592896D02*
X10986077Y-13650039D01*
X10986077Y-13650039D02*
X10976553Y-13669087D01*
X10976553Y-13669087D02*
X10967030Y-13678611D01*
X10967030Y-13678611D02*
X10947982Y-13688134D01*
X10947982Y-13688134D02*
X10919411Y-13688134D01*
X11100363Y-13688134D02*
X11081315Y-13678611D01*
X11081315Y-13678611D02*
X11071792Y-13659563D01*
X11071792Y-13659563D02*
X11071792Y-13488134D01*
X11252744Y-13678611D02*
X11233696Y-13688134D01*
X11233696Y-13688134D02*
X11195601Y-13688134D01*
X11195601Y-13688134D02*
X11176553Y-13678611D01*
X11176553Y-13678611D02*
X11167030Y-13659563D01*
X11167030Y-13659563D02*
X11167030Y-13583373D01*
X11167030Y-13583373D02*
X11176553Y-13564325D01*
X11176553Y-13564325D02*
X11195601Y-13554801D01*
X11195601Y-13554801D02*
X11233696Y-13554801D01*
X11233696Y-13554801D02*
X11252744Y-13564325D01*
X11252744Y-13564325D02*
X11262268Y-13583373D01*
X11262268Y-13583373D02*
X11262268Y-13602420D01*
X11262268Y-13602420D02*
X11167030Y-13621468D01*
X11338458Y-13678611D02*
X11357506Y-13688134D01*
X11357506Y-13688134D02*
X11395601Y-13688134D01*
X11395601Y-13688134D02*
X11414649Y-13678611D01*
X11414649Y-13678611D02*
X11424172Y-13659563D01*
X11424172Y-13659563D02*
X11424172Y-13650039D01*
X11424172Y-13650039D02*
X11414649Y-13630992D01*
X11414649Y-13630992D02*
X11395601Y-13621468D01*
X11395601Y-13621468D02*
X11367030Y-13621468D01*
X11367030Y-13621468D02*
X11347982Y-13611944D01*
X11347982Y-13611944D02*
X11338458Y-13592896D01*
X11338458Y-13592896D02*
X11338458Y-13583373D01*
X11338458Y-13583373D02*
X11347982Y-13564325D01*
X11347982Y-13564325D02*
X11367030Y-13554801D01*
X11367030Y-13554801D02*
X11395601Y-13554801D01*
X11395601Y-13554801D02*
X11414649Y-13564325D01*
X11490839Y-13764325D02*
X11500363Y-13754801D01*
X11500363Y-13754801D02*
X11519411Y-13726230D01*
X11519411Y-13726230D02*
X11528934Y-13707182D01*
X11528934Y-13707182D02*
X11538458Y-13678611D01*
X11538458Y-13678611D02*
X11547982Y-13630992D01*
X11547982Y-13630992D02*
X11547982Y-13592896D01*
X11547982Y-13592896D02*
X11538458Y-13545277D01*
X11538458Y-13545277D02*
X11528934Y-13516706D01*
X11528934Y-13516706D02*
X11519411Y-13497658D01*
X11519411Y-13497658D02*
X11500363Y-13469087D01*
X11500363Y-13469087D02*
X11490839Y-13459563D01*
X6325300Y-13806651D02*
X6525300Y-14006651D01*
X6525300Y-13806651D02*
X6325300Y-14006651D01*
X6425300Y-14006651D02*
X6525300Y-13906651D01*
X6425300Y-13806651D01*
X6325300Y-13906651D01*
X6425300Y-14006651D01*
X6776553Y-13817182D02*
X6786077Y-13807658D01*
X6786077Y-13807658D02*
X6805124Y-13798134D01*
X6805124Y-13798134D02*
X6852743Y-13798134D01*
X6852743Y-13798134D02*
X6871791Y-13807658D01*
X6871791Y-13807658D02*
X6881315Y-13817182D01*
X6881315Y-13817182D02*
X6890839Y-13836230D01*
X6890839Y-13836230D02*
X6890839Y-13855277D01*
X6890839Y-13855277D02*
X6881315Y-13883849D01*
X6881315Y-13883849D02*
X6767029Y-13998134D01*
X6767029Y-13998134D02*
X6890839Y-13998134D01*
X6976553Y-13979087D02*
X6986077Y-13988611D01*
X6986077Y-13988611D02*
X6976553Y-13998134D01*
X6976553Y-13998134D02*
X6967029Y-13988611D01*
X6967029Y-13988611D02*
X6976553Y-13979087D01*
X6976553Y-13979087D02*
X6976553Y-13998134D01*
X7052743Y-13798134D02*
X7186077Y-13798134D01*
X7186077Y-13798134D02*
X7100362Y-13998134D01*
X7300362Y-13798134D02*
X7319410Y-13798134D01*
X7319410Y-13798134D02*
X7338458Y-13807658D01*
X7338458Y-13807658D02*
X7347982Y-13817182D01*
X7347982Y-13817182D02*
X7357505Y-13836230D01*
X7357505Y-13836230D02*
X7367029Y-13874325D01*
X7367029Y-13874325D02*
X7367029Y-13921944D01*
X7367029Y-13921944D02*
X7357505Y-13960039D01*
X7357505Y-13960039D02*
X7347982Y-13979087D01*
X7347982Y-13979087D02*
X7338458Y-13988611D01*
X7338458Y-13988611D02*
X7319410Y-13998134D01*
X7319410Y-13998134D02*
X7300362Y-13998134D01*
X7300362Y-13998134D02*
X7281315Y-13988611D01*
X7281315Y-13988611D02*
X7271791Y-13979087D01*
X7271791Y-13979087D02*
X7262267Y-13960039D01*
X7262267Y-13960039D02*
X7252743Y-13921944D01*
X7252743Y-13921944D02*
X7252743Y-13874325D01*
X7252743Y-13874325D02*
X7262267Y-13836230D01*
X7262267Y-13836230D02*
X7271791Y-13817182D01*
X7271791Y-13817182D02*
X7281315Y-13807658D01*
X7281315Y-13807658D02*
X7300362Y-13798134D01*
X7490839Y-13798134D02*
X7509886Y-13798134D01*
X7509886Y-13798134D02*
X7528934Y-13807658D01*
X7528934Y-13807658D02*
X7538458Y-13817182D01*
X7538458Y-13817182D02*
X7547982Y-13836230D01*
X7547982Y-13836230D02*
X7557505Y-13874325D01*
X7557505Y-13874325D02*
X7557505Y-13921944D01*
X7557505Y-13921944D02*
X7547982Y-13960039D01*
X7547982Y-13960039D02*
X7538458Y-13979087D01*
X7538458Y-13979087D02*
X7528934Y-13988611D01*
X7528934Y-13988611D02*
X7509886Y-13998134D01*
X7509886Y-13998134D02*
X7490839Y-13998134D01*
X7490839Y-13998134D02*
X7471791Y-13988611D01*
X7471791Y-13988611D02*
X7462267Y-13979087D01*
X7462267Y-13979087D02*
X7452743Y-13960039D01*
X7452743Y-13960039D02*
X7443220Y-13921944D01*
X7443220Y-13921944D02*
X7443220Y-13874325D01*
X7443220Y-13874325D02*
X7452743Y-13836230D01*
X7452743Y-13836230D02*
X7462267Y-13817182D01*
X7462267Y-13817182D02*
X7471791Y-13807658D01*
X7471791Y-13807658D02*
X7490839Y-13798134D01*
X7643220Y-13998134D02*
X7643220Y-13864801D01*
X7643220Y-13883849D02*
X7652743Y-13874325D01*
X7652743Y-13874325D02*
X7671791Y-13864801D01*
X7671791Y-13864801D02*
X7700363Y-13864801D01*
X7700363Y-13864801D02*
X7719410Y-13874325D01*
X7719410Y-13874325D02*
X7728934Y-13893373D01*
X7728934Y-13893373D02*
X7728934Y-13998134D01*
X7728934Y-13893373D02*
X7738458Y-13874325D01*
X7738458Y-13874325D02*
X7757505Y-13864801D01*
X7757505Y-13864801D02*
X7786077Y-13864801D01*
X7786077Y-13864801D02*
X7805124Y-13874325D01*
X7805124Y-13874325D02*
X7814648Y-13893373D01*
X7814648Y-13893373D02*
X7814648Y-13998134D01*
X7909886Y-13998134D02*
X7909886Y-13864801D01*
X7909886Y-13883849D02*
X7919410Y-13874325D01*
X7919410Y-13874325D02*
X7938458Y-13864801D01*
X7938458Y-13864801D02*
X7967029Y-13864801D01*
X7967029Y-13864801D02*
X7986077Y-13874325D01*
X7986077Y-13874325D02*
X7995601Y-13893373D01*
X7995601Y-13893373D02*
X7995601Y-13998134D01*
X7995601Y-13893373D02*
X8005124Y-13874325D01*
X8005124Y-13874325D02*
X8024172Y-13864801D01*
X8024172Y-13864801D02*
X8052743Y-13864801D01*
X8052743Y-13864801D02*
X8071791Y-13874325D01*
X8071791Y-13874325D02*
X8081315Y-13893373D01*
X8081315Y-13893373D02*
X8081315Y-13998134D01*
X8471791Y-13788611D02*
X8300363Y-14045753D01*
X8728934Y-13798134D02*
X8747982Y-13798134D01*
X8747982Y-13798134D02*
X8767029Y-13807658D01*
X8767029Y-13807658D02*
X8776553Y-13817182D01*
X8776553Y-13817182D02*
X8786077Y-13836230D01*
X8786077Y-13836230D02*
X8795601Y-13874325D01*
X8795601Y-13874325D02*
X8795601Y-13921944D01*
X8795601Y-13921944D02*
X8786077Y-13960039D01*
X8786077Y-13960039D02*
X8776553Y-13979087D01*
X8776553Y-13979087D02*
X8767029Y-13988611D01*
X8767029Y-13988611D02*
X8747982Y-13998134D01*
X8747982Y-13998134D02*
X8728934Y-13998134D01*
X8728934Y-13998134D02*
X8709887Y-13988611D01*
X8709887Y-13988611D02*
X8700363Y-13979087D01*
X8700363Y-13979087D02*
X8690839Y-13960039D01*
X8690839Y-13960039D02*
X8681315Y-13921944D01*
X8681315Y-13921944D02*
X8681315Y-13874325D01*
X8681315Y-13874325D02*
X8690839Y-13836230D01*
X8690839Y-13836230D02*
X8700363Y-13817182D01*
X8700363Y-13817182D02*
X8709887Y-13807658D01*
X8709887Y-13807658D02*
X8728934Y-13798134D01*
X8881315Y-13979087D02*
X8890839Y-13988611D01*
X8890839Y-13988611D02*
X8881315Y-13998134D01*
X8881315Y-13998134D02*
X8871791Y-13988611D01*
X8871791Y-13988611D02*
X8881315Y-13979087D01*
X8881315Y-13979087D02*
X8881315Y-13998134D01*
X9081315Y-13998134D02*
X8967029Y-13998134D01*
X9024172Y-13998134D02*
X9024172Y-13798134D01*
X9024172Y-13798134D02*
X9005125Y-13826706D01*
X9005125Y-13826706D02*
X8986077Y-13845753D01*
X8986077Y-13845753D02*
X8967029Y-13855277D01*
X9205125Y-13798134D02*
X9224172Y-13798134D01*
X9224172Y-13798134D02*
X9243220Y-13807658D01*
X9243220Y-13807658D02*
X9252744Y-13817182D01*
X9252744Y-13817182D02*
X9262268Y-13836230D01*
X9262268Y-13836230D02*
X9271791Y-13874325D01*
X9271791Y-13874325D02*
X9271791Y-13921944D01*
X9271791Y-13921944D02*
X9262268Y-13960039D01*
X9262268Y-13960039D02*
X9252744Y-13979087D01*
X9252744Y-13979087D02*
X9243220Y-13988611D01*
X9243220Y-13988611D02*
X9224172Y-13998134D01*
X9224172Y-13998134D02*
X9205125Y-13998134D01*
X9205125Y-13998134D02*
X9186077Y-13988611D01*
X9186077Y-13988611D02*
X9176553Y-13979087D01*
X9176553Y-13979087D02*
X9167029Y-13960039D01*
X9167029Y-13960039D02*
X9157506Y-13921944D01*
X9157506Y-13921944D02*
X9157506Y-13874325D01*
X9157506Y-13874325D02*
X9167029Y-13836230D01*
X9167029Y-13836230D02*
X9176553Y-13817182D01*
X9176553Y-13817182D02*
X9186077Y-13807658D01*
X9186077Y-13807658D02*
X9205125Y-13798134D01*
X9443220Y-13798134D02*
X9405125Y-13798134D01*
X9405125Y-13798134D02*
X9386077Y-13807658D01*
X9386077Y-13807658D02*
X9376553Y-13817182D01*
X9376553Y-13817182D02*
X9357506Y-13845753D01*
X9357506Y-13845753D02*
X9347982Y-13883849D01*
X9347982Y-13883849D02*
X9347982Y-13960039D01*
X9347982Y-13960039D02*
X9357506Y-13979087D01*
X9357506Y-13979087D02*
X9367029Y-13988611D01*
X9367029Y-13988611D02*
X9386077Y-13998134D01*
X9386077Y-13998134D02*
X9424172Y-13998134D01*
X9424172Y-13998134D02*
X9443220Y-13988611D01*
X9443220Y-13988611D02*
X9452744Y-13979087D01*
X9452744Y-13979087D02*
X9462268Y-13960039D01*
X9462268Y-13960039D02*
X9462268Y-13912420D01*
X9462268Y-13912420D02*
X9452744Y-13893373D01*
X9452744Y-13893373D02*
X9443220Y-13883849D01*
X9443220Y-13883849D02*
X9424172Y-13874325D01*
X9424172Y-13874325D02*
X9386077Y-13874325D01*
X9386077Y-13874325D02*
X9367029Y-13883849D01*
X9367029Y-13883849D02*
X9357506Y-13893373D01*
X9357506Y-13893373D02*
X9347982Y-13912420D01*
X9528934Y-13798134D02*
X9652744Y-13798134D01*
X9652744Y-13798134D02*
X9586077Y-13874325D01*
X9586077Y-13874325D02*
X9614649Y-13874325D01*
X9614649Y-13874325D02*
X9633696Y-13883849D01*
X9633696Y-13883849D02*
X9643220Y-13893373D01*
X9643220Y-13893373D02*
X9652744Y-13912420D01*
X9652744Y-13912420D02*
X9652744Y-13960039D01*
X9652744Y-13960039D02*
X9643220Y-13979087D01*
X9643220Y-13979087D02*
X9633696Y-13988611D01*
X9633696Y-13988611D02*
X9614649Y-13998134D01*
X9614649Y-13998134D02*
X9557506Y-13998134D01*
X9557506Y-13998134D02*
X9538458Y-13988611D01*
X9538458Y-13988611D02*
X9528934Y-13979087D01*
X9728934Y-13798134D02*
X9728934Y-13836230D01*
X9805125Y-13798134D02*
X9805125Y-13836230D01*
X10100363Y-14074325D02*
X10090839Y-14064801D01*
X10090839Y-14064801D02*
X10071791Y-14036230D01*
X10071791Y-14036230D02*
X10062268Y-14017182D01*
X10062268Y-14017182D02*
X10052744Y-13988611D01*
X10052744Y-13988611D02*
X10043220Y-13940992D01*
X10043220Y-13940992D02*
X10043220Y-13902896D01*
X10043220Y-13902896D02*
X10052744Y-13855277D01*
X10052744Y-13855277D02*
X10062268Y-13826706D01*
X10062268Y-13826706D02*
X10071791Y-13807658D01*
X10071791Y-13807658D02*
X10090839Y-13779087D01*
X10090839Y-13779087D02*
X10100363Y-13769563D01*
X10167030Y-13817182D02*
X10176553Y-13807658D01*
X10176553Y-13807658D02*
X10195601Y-13798134D01*
X10195601Y-13798134D02*
X10243220Y-13798134D01*
X10243220Y-13798134D02*
X10262268Y-13807658D01*
X10262268Y-13807658D02*
X10271791Y-13817182D01*
X10271791Y-13817182D02*
X10281315Y-13836230D01*
X10281315Y-13836230D02*
X10281315Y-13855277D01*
X10281315Y-13855277D02*
X10271791Y-13883849D01*
X10271791Y-13883849D02*
X10157506Y-13998134D01*
X10157506Y-13998134D02*
X10281315Y-13998134D01*
X10519411Y-13998134D02*
X10519411Y-13798134D01*
X10605125Y-13998134D02*
X10605125Y-13893373D01*
X10605125Y-13893373D02*
X10595601Y-13874325D01*
X10595601Y-13874325D02*
X10576553Y-13864801D01*
X10576553Y-13864801D02*
X10547982Y-13864801D01*
X10547982Y-13864801D02*
X10528934Y-13874325D01*
X10528934Y-13874325D02*
X10519411Y-13883849D01*
X10728934Y-13998134D02*
X10709887Y-13988611D01*
X10709887Y-13988611D02*
X10700363Y-13979087D01*
X10700363Y-13979087D02*
X10690839Y-13960039D01*
X10690839Y-13960039D02*
X10690839Y-13902896D01*
X10690839Y-13902896D02*
X10700363Y-13883849D01*
X10700363Y-13883849D02*
X10709887Y-13874325D01*
X10709887Y-13874325D02*
X10728934Y-13864801D01*
X10728934Y-13864801D02*
X10757506Y-13864801D01*
X10757506Y-13864801D02*
X10776553Y-13874325D01*
X10776553Y-13874325D02*
X10786077Y-13883849D01*
X10786077Y-13883849D02*
X10795601Y-13902896D01*
X10795601Y-13902896D02*
X10795601Y-13960039D01*
X10795601Y-13960039D02*
X10786077Y-13979087D01*
X10786077Y-13979087D02*
X10776553Y-13988611D01*
X10776553Y-13988611D02*
X10757506Y-13998134D01*
X10757506Y-13998134D02*
X10728934Y-13998134D01*
X10909887Y-13998134D02*
X10890839Y-13988611D01*
X10890839Y-13988611D02*
X10881315Y-13969563D01*
X10881315Y-13969563D02*
X10881315Y-13798134D01*
X11062268Y-13988611D02*
X11043220Y-13998134D01*
X11043220Y-13998134D02*
X11005125Y-13998134D01*
X11005125Y-13998134D02*
X10986077Y-13988611D01*
X10986077Y-13988611D02*
X10976553Y-13969563D01*
X10976553Y-13969563D02*
X10976553Y-13893373D01*
X10976553Y-13893373D02*
X10986077Y-13874325D01*
X10986077Y-13874325D02*
X11005125Y-13864801D01*
X11005125Y-13864801D02*
X11043220Y-13864801D01*
X11043220Y-13864801D02*
X11062268Y-13874325D01*
X11062268Y-13874325D02*
X11071792Y-13893373D01*
X11071792Y-13893373D02*
X11071792Y-13912420D01*
X11071792Y-13912420D02*
X10976553Y-13931468D01*
X11147982Y-13988611D02*
X11167030Y-13998134D01*
X11167030Y-13998134D02*
X11205125Y-13998134D01*
X11205125Y-13998134D02*
X11224172Y-13988611D01*
X11224172Y-13988611D02*
X11233696Y-13969563D01*
X11233696Y-13969563D02*
X11233696Y-13960039D01*
X11233696Y-13960039D02*
X11224172Y-13940992D01*
X11224172Y-13940992D02*
X11205125Y-13931468D01*
X11205125Y-13931468D02*
X11176553Y-13931468D01*
X11176553Y-13931468D02*
X11157506Y-13921944D01*
X11157506Y-13921944D02*
X11147982Y-13902896D01*
X11147982Y-13902896D02*
X11147982Y-13893373D01*
X11147982Y-13893373D02*
X11157506Y-13874325D01*
X11157506Y-13874325D02*
X11176553Y-13864801D01*
X11176553Y-13864801D02*
X11205125Y-13864801D01*
X11205125Y-13864801D02*
X11224172Y-13874325D01*
X11300363Y-14074325D02*
X11309887Y-14064801D01*
X11309887Y-14064801D02*
X11328934Y-14036230D01*
X11328934Y-14036230D02*
X11338458Y-14017182D01*
X11338458Y-14017182D02*
X11347982Y-13988611D01*
X11347982Y-13988611D02*
X11357506Y-13940992D01*
X11357506Y-13940992D02*
X11357506Y-13902896D01*
X11357506Y-13902896D02*
X11347982Y-13855277D01*
X11347982Y-13855277D02*
X11338458Y-13826706D01*
X11338458Y-13826706D02*
X11328934Y-13807658D01*
X11328934Y-13807658D02*
X11309887Y-13779087D01*
X11309887Y-13779087D02*
X11300363Y-13769563D01*
M02*
