%TF.GenerationSoftware,KiCad,Pcbnew,8.0.1*%
%TF.CreationDate,2024-08-18T09:44:35+02:00*%
%TF.ProjectId,robal_power_board,726f6261-6c5f-4706-9f77-65725f626f61,rev?*%
%TF.SameCoordinates,Original*%
%TF.FileFunction,Drillmap*%
%TF.FilePolarity,Positive*%
%FSLAX45Y45*%
G04 Gerber Fmt 4.5, Leading zero omitted, Abs format (unit mm)*
G04 Created by KiCad (PCBNEW 8.0.1) date 2024-08-18 09:44:35*
%MOMM*%
%LPD*%
G01*
G04 APERTURE LIST*
%ADD10C,0.050000*%
%ADD11C,0.200000*%
G04 APERTURE END LIST*
D10*
X20380600Y-9322200D02*
G75*
G02*
X20060600Y-9322200I-160000J0D01*
G01*
X20060600Y-9322200D02*
G75*
G02*
X20380600Y-9322200I160000J0D01*
G01*
X20527800Y-10905585D02*
G75*
G02*
X20327800Y-11106151I-200000J-565D01*
G01*
X7660000Y-7200000D02*
G75*
G02*
X7340000Y-7200000I-160000J0D01*
G01*
X7340000Y-7200000D02*
G75*
G02*
X7660000Y-7200000I160000J0D01*
G01*
X6527800Y-8106150D02*
G75*
G02*
X6669284Y-7764791I482540J0D01*
G01*
X7184591Y-4965700D02*
X8225000Y-4965655D01*
X20527800Y-10905585D02*
X20527800Y-6905585D01*
X13106400Y-6705600D02*
X20327800Y-6705585D01*
X17160000Y-10807200D02*
G75*
G02*
X16840000Y-10807200I-160000J0D01*
G01*
X16840000Y-10807200D02*
G75*
G02*
X17160000Y-10807200I160000J0D01*
G01*
X20327800Y-11106151D02*
X6727800Y-11106151D01*
X6984591Y-5165700D02*
X6984591Y-7378639D01*
X6984780Y-7378639D02*
G75*
G02*
X6939726Y-7494621I-171810J-1D01*
G01*
X8225000Y-4965655D02*
G75*
G02*
X8905288Y-5092944I30970J-1716015D01*
G01*
X6984591Y-5165700D02*
G75*
G02*
X7184591Y-4965701I199999J0D01*
G01*
X20380600Y-7207200D02*
G75*
G02*
X20060600Y-7207200I-160000J0D01*
G01*
X20060600Y-7207200D02*
G75*
G02*
X20380600Y-7207200I160000J0D01*
G01*
X6527800Y-10906150D02*
X6527800Y-8106150D01*
X6975000Y-5125000D02*
X6975000Y-5125000D01*
X13106400Y-6705600D02*
X8905288Y-5092944D01*
X20327800Y-6705585D02*
G75*
G02*
X20527795Y-6905585I0J-199995D01*
G01*
X6669285Y-7764792D02*
X6939725Y-7494620D01*
X6727800Y-11106151D02*
G75*
G02*
X6527799Y-10906150I0J200001D01*
G01*
D11*
X6786077Y-11420134D02*
X6786077Y-11220134D01*
X6786077Y-11220134D02*
X6833696Y-11220134D01*
X6833696Y-11220134D02*
X6862267Y-11229658D01*
X6862267Y-11229658D02*
X6881315Y-11248706D01*
X6881315Y-11248706D02*
X6890839Y-11267753D01*
X6890839Y-11267753D02*
X6900362Y-11305849D01*
X6900362Y-11305849D02*
X6900362Y-11334420D01*
X6900362Y-11334420D02*
X6890839Y-11372515D01*
X6890839Y-11372515D02*
X6881315Y-11391563D01*
X6881315Y-11391563D02*
X6862267Y-11410611D01*
X6862267Y-11410611D02*
X6833696Y-11420134D01*
X6833696Y-11420134D02*
X6786077Y-11420134D01*
X6986077Y-11420134D02*
X6986077Y-11286801D01*
X6986077Y-11324896D02*
X6995601Y-11305849D01*
X6995601Y-11305849D02*
X7005124Y-11296325D01*
X7005124Y-11296325D02*
X7024172Y-11286801D01*
X7024172Y-11286801D02*
X7043220Y-11286801D01*
X7109886Y-11420134D02*
X7109886Y-11286801D01*
X7109886Y-11220134D02*
X7100362Y-11229658D01*
X7100362Y-11229658D02*
X7109886Y-11239182D01*
X7109886Y-11239182D02*
X7119410Y-11229658D01*
X7119410Y-11229658D02*
X7109886Y-11220134D01*
X7109886Y-11220134D02*
X7109886Y-11239182D01*
X7233696Y-11420134D02*
X7214648Y-11410611D01*
X7214648Y-11410611D02*
X7205124Y-11391563D01*
X7205124Y-11391563D02*
X7205124Y-11220134D01*
X7338458Y-11420134D02*
X7319410Y-11410611D01*
X7319410Y-11410611D02*
X7309886Y-11391563D01*
X7309886Y-11391563D02*
X7309886Y-11220134D01*
X7567029Y-11420134D02*
X7567029Y-11220134D01*
X7567029Y-11220134D02*
X7633696Y-11362992D01*
X7633696Y-11362992D02*
X7700362Y-11220134D01*
X7700362Y-11220134D02*
X7700362Y-11420134D01*
X7881315Y-11420134D02*
X7881315Y-11315373D01*
X7881315Y-11315373D02*
X7871791Y-11296325D01*
X7871791Y-11296325D02*
X7852743Y-11286801D01*
X7852743Y-11286801D02*
X7814648Y-11286801D01*
X7814648Y-11286801D02*
X7795601Y-11296325D01*
X7881315Y-11410611D02*
X7862267Y-11420134D01*
X7862267Y-11420134D02*
X7814648Y-11420134D01*
X7814648Y-11420134D02*
X7795601Y-11410611D01*
X7795601Y-11410611D02*
X7786077Y-11391563D01*
X7786077Y-11391563D02*
X7786077Y-11372515D01*
X7786077Y-11372515D02*
X7795601Y-11353468D01*
X7795601Y-11353468D02*
X7814648Y-11343944D01*
X7814648Y-11343944D02*
X7862267Y-11343944D01*
X7862267Y-11343944D02*
X7881315Y-11334420D01*
X7976553Y-11286801D02*
X7976553Y-11486801D01*
X7976553Y-11296325D02*
X7995601Y-11286801D01*
X7995601Y-11286801D02*
X8033696Y-11286801D01*
X8033696Y-11286801D02*
X8052743Y-11296325D01*
X8052743Y-11296325D02*
X8062267Y-11305849D01*
X8062267Y-11305849D02*
X8071791Y-11324896D01*
X8071791Y-11324896D02*
X8071791Y-11382039D01*
X8071791Y-11382039D02*
X8062267Y-11401087D01*
X8062267Y-11401087D02*
X8052743Y-11410611D01*
X8052743Y-11410611D02*
X8033696Y-11420134D01*
X8033696Y-11420134D02*
X7995601Y-11420134D01*
X7995601Y-11420134D02*
X7976553Y-11410611D01*
X8157505Y-11401087D02*
X8167029Y-11410611D01*
X8167029Y-11410611D02*
X8157505Y-11420134D01*
X8157505Y-11420134D02*
X8147982Y-11410611D01*
X8147982Y-11410611D02*
X8157505Y-11401087D01*
X8157505Y-11401087D02*
X8157505Y-11420134D01*
X8157505Y-11296325D02*
X8167029Y-11305849D01*
X8167029Y-11305849D02*
X8157505Y-11315373D01*
X8157505Y-11315373D02*
X8147982Y-11305849D01*
X8147982Y-11305849D02*
X8157505Y-11296325D01*
X8157505Y-11296325D02*
X8157505Y-11315373D01*
M02*
