%TF.GenerationSoftware,KiCad,Pcbnew,8.0.1*%
%TF.CreationDate,2024-08-17T14:40:07+02:00*%
%TF.ProjectId,robal_power_board,726f6261-6c5f-4706-9f77-65725f626f61,rev?*%
%TF.SameCoordinates,Original*%
%TF.FileFunction,Soldermask,Bot*%
%TF.FilePolarity,Negative*%
%FSLAX46Y46*%
G04 Gerber Fmt 4.6, Leading zero omitted, Abs format (unit mm)*
G04 Created by KiCad (PCBNEW 8.0.1) date 2024-08-17 14:40:07*
%MOMM*%
%LPD*%
G01*
G04 APERTURE LIST*
G04 Aperture macros list*
%AMRoundRect*
0 Rectangle with rounded corners*
0 $1 Rounding radius*
0 $2 $3 $4 $5 $6 $7 $8 $9 X,Y pos of 4 corners*
0 Add a 4 corners polygon primitive as box body*
4,1,4,$2,$3,$4,$5,$6,$7,$8,$9,$2,$3,0*
0 Add four circle primitives for the rounded corners*
1,1,$1+$1,$2,$3*
1,1,$1+$1,$4,$5*
1,1,$1+$1,$6,$7*
1,1,$1+$1,$8,$9*
0 Add four rect primitives between the rounded corners*
20,1,$1+$1,$2,$3,$4,$5,0*
20,1,$1+$1,$4,$5,$6,$7,0*
20,1,$1+$1,$6,$7,$8,$9,0*
20,1,$1+$1,$8,$9,$2,$3,0*%
G04 Aperture macros list end*
%ADD10C,1.400000*%
%ADD11R,3.500000X3.500000*%
%ADD12C,3.500000*%
%ADD13RoundRect,0.250000X0.625000X-0.350000X0.625000X0.350000X-0.625000X0.350000X-0.625000X-0.350000X0*%
%ADD14O,1.750000X1.200000*%
%ADD15RoundRect,0.900000X-3.100000X-2.100000X3.100000X-2.100000X3.100000X2.100000X-3.100000X2.100000X0*%
%ADD16RoundRect,0.900000X3.350000X-2.100000X3.350000X2.100000X-3.350000X2.100000X-3.350000X-2.100000X0*%
%ADD17RoundRect,0.250000X-0.625000X0.350000X-0.625000X-0.350000X0.625000X-0.350000X0.625000X0.350000X0*%
%ADD18R,2.000000X0.900000*%
%ADD19RoundRect,1.025000X1.025000X-1.025000X1.025000X1.025000X-1.025000X1.025000X-1.025000X-1.025000X0*%
%ADD20C,4.100000*%
%ADD21RoundRect,0.250000X-0.725000X0.600000X-0.725000X-0.600000X0.725000X-0.600000X0.725000X0.600000X0*%
%ADD22O,1.950000X1.700000*%
%ADD23R,3.000000X3.000000*%
%ADD24C,3.000000*%
G04 APERTURE END LIST*
D10*
%TO.C,J11*%
X154398000Y-76526000D03*
X165398000Y-76526000D03*
D11*
X157398000Y-81526000D03*
D12*
X162398000Y-81526000D03*
%TD*%
D13*
%TO.C,SWITCH*%
X141862326Y-94486718D03*
D14*
X141862326Y-92486718D03*
%TD*%
D15*
%TO.C,U1*%
X84324000Y-71461000D03*
D16*
X134824000Y-93136000D03*
%TD*%
D10*
%TO.C,SENSOR_BOARD*%
X195756000Y-98322000D03*
X195756000Y-109322000D03*
D11*
X190756000Y-101322000D03*
D12*
X190756000Y-106322000D03*
%TD*%
D17*
%TO.C,J13*%
X148886000Y-69866000D03*
D14*
X148886000Y-71866000D03*
%TD*%
D18*
%TO.C,J1*%
X80398000Y-65678000D03*
X80398000Y-52178000D03*
D19*
X86398000Y-62528000D03*
D20*
X86398000Y-55328000D03*
%TD*%
D17*
%TO.C,J6*%
X148336000Y-106172000D03*
D14*
X148336000Y-108172000D03*
%TD*%
D10*
%TO.C,J12*%
X165906000Y-101592000D03*
X154906000Y-101592000D03*
D11*
X162906000Y-96592000D03*
D12*
X157906000Y-96592000D03*
%TD*%
D21*
%TO.C,J2*%
X75000000Y-99500000D03*
D22*
X75000000Y-102000000D03*
X75000000Y-104500000D03*
X75000000Y-107000000D03*
%TD*%
D17*
%TO.C,J10*%
X142748000Y-106172000D03*
D14*
X142748000Y-108172000D03*
%TD*%
D17*
%TO.C,J8*%
X143256000Y-69850000D03*
D14*
X143256000Y-71850000D03*
%TD*%
D10*
%TO.C,CHARGER*%
X69476000Y-91750000D03*
X69476000Y-80750000D03*
D11*
X74476000Y-88750000D03*
D12*
X74476000Y-83750000D03*
%TD*%
D10*
%TO.C,J9*%
X195506000Y-75572000D03*
X195506000Y-88572000D03*
D23*
X190506000Y-85572000D03*
D24*
X190506000Y-82072000D03*
X190506000Y-78572000D03*
%TD*%
M02*
