%TF.GenerationSoftware,KiCad,Pcbnew,8.0.1*%
%TF.CreationDate,2024-08-18T09:44:37+02:00*%
%TF.ProjectId,robal_power_board,726f6261-6c5f-4706-9f77-65725f626f61,rev?*%
%TF.SameCoordinates,Original*%
%TF.FileFunction,Copper,L1,Top*%
%TF.FilePolarity,Positive*%
%FSLAX46Y46*%
G04 Gerber Fmt 4.6, Leading zero omitted, Abs format (unit mm)*
G04 Created by KiCad (PCBNEW 8.0.1) date 2024-08-18 09:44:37*
%MOMM*%
%LPD*%
G01*
G04 APERTURE LIST*
G04 Aperture macros list*
%AMRoundRect*
0 Rectangle with rounded corners*
0 $1 Rounding radius*
0 $2 $3 $4 $5 $6 $7 $8 $9 X,Y pos of 4 corners*
0 Add a 4 corners polygon primitive as box body*
4,1,4,$2,$3,$4,$5,$6,$7,$8,$9,$2,$3,0*
0 Add four circle primitives for the rounded corners*
1,1,$1+$1,$2,$3*
1,1,$1+$1,$4,$5*
1,1,$1+$1,$6,$7*
1,1,$1+$1,$8,$9*
0 Add four rect primitives between the rounded corners*
20,1,$1+$1,$2,$3,$4,$5,0*
20,1,$1+$1,$4,$5,$6,$7,0*
20,1,$1+$1,$6,$7,$8,$9,0*
20,1,$1+$1,$8,$9,$2,$3,0*%
G04 Aperture macros list end*
%TA.AperFunction,SMDPad,CuDef*%
%ADD10R,2.950000X3.500000*%
%TD*%
%TA.AperFunction,ComponentPad*%
%ADD11C,1.400000*%
%TD*%
%TA.AperFunction,ComponentPad*%
%ADD12R,3.500000X3.500000*%
%TD*%
%TA.AperFunction,ComponentPad*%
%ADD13C,3.500000*%
%TD*%
%TA.AperFunction,SMDPad,CuDef*%
%ADD14R,2.900000X5.400000*%
%TD*%
%TA.AperFunction,SMDPad,CuDef*%
%ADD15RoundRect,0.150000X-0.150000X0.512500X-0.150000X-0.512500X0.150000X-0.512500X0.150000X0.512500X0*%
%TD*%
%TA.AperFunction,SMDPad,CuDef*%
%ADD16R,1.075000X0.500000*%
%TD*%
%TA.AperFunction,SMDPad,CuDef*%
%ADD17R,4.120000X4.600000*%
%TD*%
%TA.AperFunction,SMDPad,CuDef*%
%ADD18R,0.975000X0.500000*%
%TD*%
%TA.AperFunction,SMDPad,CuDef*%
%ADD19RoundRect,0.250001X-0.924999X0.499999X-0.924999X-0.499999X0.924999X-0.499999X0.924999X0.499999X0*%
%TD*%
%TA.AperFunction,SMDPad,CuDef*%
%ADD20RoundRect,0.225000X-0.250000X0.225000X-0.250000X-0.225000X0.250000X-0.225000X0.250000X0.225000X0*%
%TD*%
%TA.AperFunction,SMDPad,CuDef*%
%ADD21RoundRect,0.225000X0.250000X-0.225000X0.250000X0.225000X-0.250000X0.225000X-0.250000X-0.225000X0*%
%TD*%
%TA.AperFunction,ComponentPad*%
%ADD22RoundRect,0.250000X0.625000X-0.350000X0.625000X0.350000X-0.625000X0.350000X-0.625000X-0.350000X0*%
%TD*%
%TA.AperFunction,ComponentPad*%
%ADD23O,1.750000X1.200000*%
%TD*%
%TA.AperFunction,SMDPad,CuDef*%
%ADD24RoundRect,0.250000X0.475000X-0.250000X0.475000X0.250000X-0.475000X0.250000X-0.475000X-0.250000X0*%
%TD*%
%TA.AperFunction,SMDPad,CuDef*%
%ADD25RoundRect,0.200000X0.275000X-0.200000X0.275000X0.200000X-0.275000X0.200000X-0.275000X-0.200000X0*%
%TD*%
%TA.AperFunction,SMDPad,CuDef*%
%ADD26RoundRect,0.250001X0.924999X-0.499999X0.924999X0.499999X-0.924999X0.499999X-0.924999X-0.499999X0*%
%TD*%
%TA.AperFunction,SMDPad,CuDef*%
%ADD27RoundRect,0.900000X3.100000X-2.100000X3.100000X2.100000X-3.100000X2.100000X-3.100000X-2.100000X0*%
%TD*%
%TA.AperFunction,SMDPad,CuDef*%
%ADD28RoundRect,0.900000X3.100000X2.100000X-3.100000X2.100000X-3.100000X-2.100000X3.100000X-2.100000X0*%
%TD*%
%TA.AperFunction,ComponentPad*%
%ADD29RoundRect,0.900000X-3.100000X-2.100000X3.100000X-2.100000X3.100000X2.100000X-3.100000X2.100000X0*%
%TD*%
%TA.AperFunction,SMDPad,CuDef*%
%ADD30RoundRect,0.900000X-3.100000X2.100000X-3.100000X-2.100000X3.100000X-2.100000X3.100000X2.100000X0*%
%TD*%
%TA.AperFunction,SMDPad,CuDef*%
%ADD31RoundRect,0.900000X-2.350000X2.100000X-2.350000X-2.100000X2.350000X-2.100000X2.350000X2.100000X0*%
%TD*%
%TA.AperFunction,SMDPad,CuDef*%
%ADD32RoundRect,0.900000X3.350000X-2.100000X3.350000X2.100000X-3.350000X2.100000X-3.350000X-2.100000X0*%
%TD*%
%TA.AperFunction,ComponentPad*%
%ADD33RoundRect,0.900000X3.350000X-2.100000X3.350000X2.100000X-3.350000X2.100000X-3.350000X-2.100000X0*%
%TD*%
%TA.AperFunction,SMDPad,CuDef*%
%ADD34RoundRect,0.200000X-0.200000X-0.275000X0.200000X-0.275000X0.200000X0.275000X-0.200000X0.275000X0*%
%TD*%
%TA.AperFunction,ComponentPad*%
%ADD35RoundRect,0.250000X-0.625000X0.350000X-0.625000X-0.350000X0.625000X-0.350000X0.625000X0.350000X0*%
%TD*%
%TA.AperFunction,ComponentPad*%
%ADD36R,2.000000X0.900000*%
%TD*%
%TA.AperFunction,ComponentPad*%
%ADD37RoundRect,1.025000X1.025000X-1.025000X1.025000X1.025000X-1.025000X1.025000X-1.025000X-1.025000X0*%
%TD*%
%TA.AperFunction,ComponentPad*%
%ADD38C,4.100000*%
%TD*%
%TA.AperFunction,SMDPad,CuDef*%
%ADD39RoundRect,0.200000X0.200000X0.275000X-0.200000X0.275000X-0.200000X-0.275000X0.200000X-0.275000X0*%
%TD*%
%TA.AperFunction,ComponentPad*%
%ADD40RoundRect,0.250000X-0.725000X0.600000X-0.725000X-0.600000X0.725000X-0.600000X0.725000X0.600000X0*%
%TD*%
%TA.AperFunction,ComponentPad*%
%ADD41O,1.950000X1.700000*%
%TD*%
%TA.AperFunction,SMDPad,CuDef*%
%ADD42RoundRect,0.250000X0.250000X0.475000X-0.250000X0.475000X-0.250000X-0.475000X0.250000X-0.475000X0*%
%TD*%
%TA.AperFunction,SMDPad,CuDef*%
%ADD43RoundRect,0.250000X-0.250000X-0.475000X0.250000X-0.475000X0.250000X0.475000X-0.250000X0.475000X0*%
%TD*%
%TA.AperFunction,ComponentPad*%
%ADD44R,3.000000X3.000000*%
%TD*%
%TA.AperFunction,ComponentPad*%
%ADD45C,3.000000*%
%TD*%
%TA.AperFunction,ViaPad*%
%ADD46C,0.600000*%
%TD*%
%TA.AperFunction,ViaPad*%
%ADD47C,0.800000*%
%TD*%
%TA.AperFunction,Conductor*%
%ADD48C,0.500000*%
%TD*%
%TA.AperFunction,Conductor*%
%ADD49C,2.000000*%
%TD*%
%TA.AperFunction,Conductor*%
%ADD50C,0.400000*%
%TD*%
%TA.AperFunction,Conductor*%
%ADD51C,4.000000*%
%TD*%
G04 APERTURE END LIST*
D10*
%TO.P,L1,1,1*%
%TO.N,+3.3V*%
X180567500Y-94705500D03*
%TO.P,L1,2,2*%
%TO.N,SW_3*%
X175117500Y-94705500D03*
%TD*%
D11*
%TO.P,J11,*%
%TO.N,*%
X154398000Y-76526000D03*
X165398000Y-76526000D03*
D12*
%TO.P,J11,1,Pin_1*%
%TO.N,GND*%
X157398000Y-81526000D03*
D13*
%TO.P,J11,2,Pin_2*%
%TO.N,VCC*%
X162398000Y-81526000D03*
%TD*%
D14*
%TO.P,L5,1,1*%
%TO.N,+5V*%
X181450000Y-74000000D03*
%TO.P,L5,2,2*%
%TO.N,SW_5*%
X171550000Y-74000000D03*
%TD*%
D15*
%TO.P,IC2,1,GND*%
%TO.N,GND*%
X173252000Y-82752000D03*
%TO.P,IC2,2,SW*%
%TO.N,SW_5*%
X172302000Y-82752000D03*
%TO.P,IC2,3,VIN*%
%TO.N,VCC*%
X171352000Y-82752000D03*
%TO.P,IC2,4,VFB*%
%TO.N,Net-(IC2-VFB)*%
X171352000Y-85027000D03*
%TO.P,IC2,5,EN*%
%TO.N,Net-(IC2-EN)*%
X172302000Y-85027000D03*
%TO.P,IC2,6,VBST*%
%TO.N,Net-(IC2-VBST)*%
X173252000Y-85027000D03*
%TD*%
D16*
%TO.P,Q2,1,G*%
%TO.N,Net-(Q1-G)*%
X140801500Y-87249000D03*
D17*
%TO.P,Q2,2,D*%
%TO.N,VCC*%
X144229000Y-85344000D03*
D18*
X146776500Y-83439000D03*
X146776500Y-84709000D03*
X146776500Y-85979000D03*
X146776500Y-87249000D03*
D16*
%TO.P,Q2,3,S*%
%TO.N,Net-(Q1-S)*%
X140801500Y-83439000D03*
X140801500Y-84709000D03*
X140801500Y-85979000D03*
%TD*%
D15*
%TO.P,IC1,1,GND*%
%TO.N,GND*%
X176792500Y-100568000D03*
%TO.P,IC1,2,SW*%
%TO.N,SW_3*%
X175842500Y-100568000D03*
%TO.P,IC1,3,VIN*%
%TO.N,VCC*%
X174892500Y-100568000D03*
%TO.P,IC1,4,VFB*%
%TO.N,Net-(IC1-VFB)*%
X174892500Y-102843000D03*
%TO.P,IC1,5,EN*%
%TO.N,Net-(IC1-EN)*%
X175842500Y-102843000D03*
%TO.P,IC1,6,VBST*%
%TO.N,Net-(IC1-VBST)*%
X176792500Y-102843000D03*
%TD*%
D19*
%TO.P,C8,1*%
%TO.N,+3.3V*%
X187250000Y-91665000D03*
%TO.P,C8,2*%
%TO.N,GND*%
X187250000Y-94915000D03*
%TD*%
D20*
%TO.P,C22,1*%
%TO.N,SW_5*%
X175302000Y-83027000D03*
%TO.P,C22,2*%
%TO.N,Net-(IC2-VBST)*%
X175302000Y-84577000D03*
%TD*%
D21*
%TO.P,C5,1*%
%TO.N,VCC*%
X168984500Y-99761500D03*
%TO.P,C5,2*%
%TO.N,GND*%
X168984500Y-98211500D03*
%TD*%
D20*
%TO.P,C6,1*%
%TO.N,SW_3*%
X178540251Y-100991374D03*
%TO.P,C6,2*%
%TO.N,Net-(IC1-VBST)*%
X178540251Y-102541374D03*
%TD*%
D22*
%TO.P,SWITCH,1,Pin_1*%
%TO.N,GND*%
X141862326Y-94486718D03*
D23*
%TO.P,SWITCH,2,Pin_2*%
%TO.N,Net-(J7-Pin_2)*%
X141862326Y-92486718D03*
%TD*%
D24*
%TO.P,C3,1*%
%TO.N,VCC*%
X170866356Y-100032673D03*
%TO.P,C3,2*%
%TO.N,GND*%
X170866356Y-98132673D03*
%TD*%
D19*
%TO.P,C11,1*%
%TO.N,+3.3V*%
X197000000Y-91619920D03*
%TO.P,C11,2*%
%TO.N,GND*%
X197000000Y-94869920D03*
%TD*%
D25*
%TO.P,R9,1*%
%TO.N,Net-(IC2-EN)*%
X169610383Y-84153766D03*
%TO.P,R9,2*%
%TO.N,VCC*%
X169610383Y-82503766D03*
%TD*%
D26*
%TO.P,C12,1*%
%TO.N,+5V*%
X187500000Y-72055000D03*
%TO.P,C12,2*%
%TO.N,GND*%
X187500000Y-68805000D03*
%TD*%
D27*
%TO.P,U1,1,0V*%
%TO.N,Net-(J1-Pin_1)*%
X84074000Y-106336000D03*
D28*
%TO.P,U1,2,4.2V*%
%TO.N,Net-(J2-Pin_3)*%
X135074000Y-106336000D03*
D29*
%TO.P,U1,3,8.4V*%
%TO.N,Net-(J2-Pin_2)*%
X84324000Y-71461000D03*
D30*
%TO.P,U1,4,12.6V*%
%TO.N,Net-(J1-Pin_2)*%
X135074000Y-71336000D03*
D31*
%TO.P,U1,5,CH+*%
%TO.N,Net-(J3-Pin_2)*%
X83324000Y-84836000D03*
%TO.P,U1,6,CH-*%
%TO.N,Net-(J3-Pin_1)*%
X83324000Y-92836000D03*
D32*
%TO.P,U1,7,LOAD+*%
%TO.N,Net-(Q1-S)*%
X134824000Y-85136000D03*
D33*
%TO.P,U1,8,LOAD-*%
%TO.N,GND*%
X134824000Y-93136000D03*
%TD*%
D34*
%TO.P,R1,1*%
%TO.N,Net-(Q1-S)*%
X140631859Y-75465502D03*
%TO.P,R1,2*%
%TO.N,Net-(Q1-G)*%
X142281859Y-75465502D03*
%TD*%
D11*
%TO.P,SENSOR_BOARD,*%
%TO.N,*%
X195756000Y-98322000D03*
X195756000Y-109322000D03*
D12*
%TO.P,SENSOR_BOARD,1,Pin_1*%
%TO.N,GND*%
X190756000Y-101322000D03*
D13*
%TO.P,SENSOR_BOARD,2,Pin_2*%
%TO.N,VCC*%
X190756000Y-106322000D03*
%TD*%
D24*
%TO.P,C18,1*%
%TO.N,GND*%
X181342324Y-84249687D03*
%TO.P,C18,2*%
%TO.N,+5V*%
X181342324Y-82349687D03*
%TD*%
D19*
%TO.P,C9,1*%
%TO.N,+3.3V*%
X192000000Y-91683563D03*
%TO.P,C9,2*%
%TO.N,GND*%
X192000000Y-94933563D03*
%TD*%
D35*
%TO.P,J13,1,Pin_1*%
%TO.N,GND*%
X148886000Y-69866000D03*
D23*
%TO.P,J13,2,Pin_2*%
%TO.N,VCC*%
X148886000Y-71866000D03*
%TD*%
D20*
%TO.P,C21,1*%
%TO.N,VCC*%
X167998377Y-82508287D03*
%TO.P,C21,2*%
%TO.N,GND*%
X167998377Y-84058287D03*
%TD*%
D26*
%TO.P,C10,1*%
%TO.N,+5V*%
X196750000Y-72036266D03*
%TO.P,C10,2*%
%TO.N,GND*%
X196750000Y-68786266D03*
%TD*%
D36*
%TO.P,J1,*%
%TO.N,*%
X80398000Y-65678000D03*
X80398000Y-52178000D03*
D37*
%TO.P,J1,1,Pin_1*%
%TO.N,Net-(J1-Pin_1)*%
X86398000Y-62528000D03*
D38*
%TO.P,J1,2,Pin_2*%
%TO.N,Net-(J1-Pin_2)*%
X86398000Y-55328000D03*
%TD*%
D34*
%TO.P,R5,1*%
%TO.N,Net-(Q1-G)*%
X141224000Y-89154000D03*
%TO.P,R5,2*%
%TO.N,Net-(J7-Pin_2)*%
X142874000Y-89154000D03*
%TD*%
D39*
%TO.P,R8,1*%
%TO.N,GND*%
X178895355Y-85974888D03*
%TO.P,R8,2*%
%TO.N,Net-(IC2-VFB)*%
X177245355Y-85974888D03*
%TD*%
D35*
%TO.P,J6,1,Pin_1*%
%TO.N,GND*%
X148336000Y-106172000D03*
D23*
%TO.P,J6,2,Pin_2*%
%TO.N,VCC*%
X148336000Y-108172000D03*
%TD*%
D11*
%TO.P,J12,*%
%TO.N,*%
X165906000Y-101592000D03*
X154906000Y-101592000D03*
D12*
%TO.P,J12,1,Pin_1*%
%TO.N,GND*%
X162906000Y-96592000D03*
D13*
%TO.P,J12,2,Pin_2*%
%TO.N,VCC*%
X157906000Y-96592000D03*
%TD*%
D16*
%TO.P,Q1,1,G*%
%TO.N,Net-(Q1-G)*%
X140764000Y-81344000D03*
D17*
%TO.P,Q1,2,D*%
%TO.N,VCC*%
X144191500Y-79439000D03*
D18*
X146739000Y-77534000D03*
X146739000Y-78804000D03*
X146739000Y-80074000D03*
X146739000Y-81344000D03*
D16*
%TO.P,Q1,3,S*%
%TO.N,Net-(Q1-S)*%
X140764000Y-77534000D03*
X140764000Y-78804000D03*
X140764000Y-80074000D03*
%TD*%
D40*
%TO.P,J2,1,Pin_1*%
%TO.N,unconnected-(J2-Pin_1-Pad1)*%
X75000000Y-99500000D03*
D41*
%TO.P,J2,2,Pin_2*%
%TO.N,Net-(J2-Pin_2)*%
X75000000Y-102000000D03*
%TO.P,J2,3,Pin_3*%
%TO.N,Net-(J2-Pin_3)*%
X75000000Y-104500000D03*
%TO.P,J2,4,Pin_4*%
%TO.N,unconnected-(J2-Pin_4-Pad4)*%
X75000000Y-107000000D03*
%TD*%
D35*
%TO.P,J10,1,Pin_1*%
%TO.N,GND*%
X142748000Y-106172000D03*
D23*
%TO.P,J10,2,Pin_2*%
%TO.N,VCC*%
X142748000Y-108172000D03*
%TD*%
D24*
%TO.P,C13,1*%
%TO.N,GND*%
X179106205Y-84248472D03*
%TO.P,C13,2*%
%TO.N,+5V*%
X179106205Y-82348472D03*
%TD*%
D42*
%TO.P,C1,1*%
%TO.N,GND*%
X184058440Y-101307482D03*
%TO.P,C1,2*%
%TO.N,+3.3V*%
X182158440Y-101307482D03*
%TD*%
D24*
%TO.P,C4,1*%
%TO.N,VCC*%
X172949000Y-100017307D03*
%TO.P,C4,2*%
%TO.N,GND*%
X172949000Y-98117307D03*
%TD*%
D35*
%TO.P,J8,1,Pin_1*%
%TO.N,GND*%
X143256000Y-69850000D03*
D23*
%TO.P,J8,2,Pin_2*%
%TO.N,VCC*%
X143256000Y-71850000D03*
%TD*%
D25*
%TO.P,R10,1*%
%TO.N,Net-(IC2-VFB)*%
X177206854Y-84383497D03*
%TO.P,R10,2*%
%TO.N,+5V*%
X177206854Y-82733497D03*
%TD*%
D43*
%TO.P,C20,1*%
%TO.N,VCC*%
X167734257Y-88166977D03*
%TO.P,C20,2*%
%TO.N,GND*%
X169634257Y-88166977D03*
%TD*%
D11*
%TO.P,CHARGER,*%
%TO.N,*%
X69476000Y-91750000D03*
X69476000Y-80750000D03*
D12*
%TO.P,CHARGER,1,Pin_1*%
%TO.N,Net-(J3-Pin_1)*%
X74476000Y-88750000D03*
D13*
%TO.P,CHARGER,2,Pin_2*%
%TO.N,Net-(J3-Pin_2)*%
X74476000Y-83750000D03*
%TD*%
D11*
%TO.P,J9,*%
%TO.N,*%
X195506000Y-75572000D03*
X195506000Y-88572000D03*
D44*
%TO.P,J9,1,Pin_1*%
%TO.N,GND*%
X190506000Y-85572000D03*
D45*
%TO.P,J9,2,Pin_2*%
%TO.N,+3.3V*%
X190506000Y-82072000D03*
%TO.P,J9,3,Pin_3*%
%TO.N,+5V*%
X190506000Y-78572000D03*
%TD*%
D25*
%TO.P,R3,1*%
%TO.N,Net-(IC1-EN)*%
X172540500Y-103304500D03*
%TO.P,R3,2*%
%TO.N,VCC*%
X172540500Y-101654500D03*
%TD*%
D42*
%TO.P,C2,1*%
%TO.N,GND*%
X184093739Y-99207168D03*
%TO.P,C2,2*%
%TO.N,+3.3V*%
X182193739Y-99207168D03*
%TD*%
D25*
%TO.P,R4,1*%
%TO.N,Net-(IC1-VFB)*%
X180181673Y-102609024D03*
%TO.P,R4,2*%
%TO.N,+3.3V*%
X180181673Y-100959024D03*
%TD*%
D43*
%TO.P,C19,1*%
%TO.N,VCC*%
X167760082Y-86009654D03*
%TO.P,C19,2*%
%TO.N,GND*%
X169660082Y-86009654D03*
%TD*%
D39*
%TO.P,R2,1*%
%TO.N,GND*%
X183480000Y-103196000D03*
%TO.P,R2,2*%
%TO.N,Net-(IC1-VFB)*%
X181830000Y-103196000D03*
%TD*%
D26*
%TO.P,C7,1*%
%TO.N,+5V*%
X192250000Y-72048614D03*
%TO.P,C7,2*%
%TO.N,GND*%
X192250000Y-68798614D03*
%TD*%
D46*
%TO.N,GND*%
X179750830Y-86324280D03*
X179738842Y-85509108D03*
X199200000Y-69000000D03*
X194659468Y-69240974D03*
X189816389Y-69300913D03*
X173656755Y-81456146D03*
X199373865Y-95815171D03*
X199361878Y-94976024D03*
X199349890Y-93921096D03*
X194506811Y-95731256D03*
X194530786Y-94892109D03*
X194542774Y-93945071D03*
X189603792Y-95527464D03*
X189687707Y-93705315D03*
X189663732Y-94532475D03*
X185060409Y-95803183D03*
X185048421Y-94880121D03*
X185036433Y-94052962D03*
X184739729Y-98173919D03*
X183924557Y-98078017D03*
X184595875Y-102369656D03*
X183840642Y-102489534D03*
X185027437Y-100283775D03*
X184248228Y-100295763D03*
X199576024Y-68223163D03*
X194916123Y-68303006D03*
X198800000Y-68200000D03*
X194200000Y-68300913D03*
X190262749Y-68246968D03*
X189525498Y-68211004D03*
X168016389Y-84047951D03*
X170498769Y-86309019D03*
X170872408Y-88619687D03*
X170875960Y-87660662D03*
X170339616Y-87060383D03*
X169636331Y-87071038D03*
X170817429Y-97333121D03*
X172967244Y-97309146D03*
X171944284Y-98180261D03*
X169800000Y-98200000D03*
D47*
X169861018Y-96302879D03*
X171914931Y-96230952D03*
X171930915Y-97285880D03*
X169800000Y-97200000D03*
X132588000Y-96012000D03*
X137668000Y-101092000D03*
X177270000Y-70000000D03*
X142748000Y-101092000D03*
X140208000Y-99822000D03*
X133858000Y-102362000D03*
X149098000Y-101092000D03*
X138938000Y-96012000D03*
X181490215Y-86467695D03*
X140208000Y-103378000D03*
X137668000Y-94742000D03*
X174730000Y-70000000D03*
X175988000Y-78812000D03*
X177270000Y-68730000D03*
X128778000Y-92202000D03*
X131318000Y-97282000D03*
X146558000Y-99822000D03*
X135128000Y-102362000D03*
X147828000Y-101092000D03*
X175988000Y-75002000D03*
X131318000Y-102362000D03*
X146558000Y-97282000D03*
X132588000Y-99822000D03*
X145288000Y-97282000D03*
X133858000Y-90932000D03*
X144018000Y-98552000D03*
X149098000Y-103378000D03*
X142748000Y-99822000D03*
X174718000Y-78812000D03*
X138938000Y-92202000D03*
X137668000Y-92202000D03*
X132588000Y-94742000D03*
X140208000Y-98552000D03*
X141478000Y-98552000D03*
X135128000Y-96012000D03*
X131318000Y-99822000D03*
X177258000Y-71192000D03*
X177766000Y-95068000D03*
X136398000Y-101092000D03*
X138938000Y-98552000D03*
X131318000Y-93472000D03*
X177258000Y-80082000D03*
X177258000Y-78812000D03*
X133858000Y-101092000D03*
X174718000Y-71192000D03*
X174730000Y-68730000D03*
X136398000Y-102362000D03*
X177766000Y-97608000D03*
X141478000Y-101092000D03*
X136398000Y-96012000D03*
X182863944Y-68110267D03*
X132588000Y-101092000D03*
X146558000Y-103378000D03*
X137668000Y-97282000D03*
X176000000Y-70000000D03*
X128778000Y-93472000D03*
X133858000Y-96012000D03*
X137668000Y-99822000D03*
X175988000Y-73732000D03*
X135128000Y-90932000D03*
X142748000Y-102362000D03*
X130048000Y-101092000D03*
X175988000Y-80082000D03*
X149098000Y-102362000D03*
X177258000Y-73732000D03*
X133858000Y-99822000D03*
X142748000Y-97282000D03*
X147828000Y-103378000D03*
X175988000Y-71192000D03*
X136398000Y-94742000D03*
X145288000Y-98552000D03*
X128778000Y-94742000D03*
X180547494Y-85552036D03*
X140208000Y-97282000D03*
X144018000Y-103378000D03*
X133858000Y-97282000D03*
X174718000Y-75002000D03*
X135128000Y-93472000D03*
X130048000Y-98552000D03*
X144018000Y-102362000D03*
X144018000Y-101092000D03*
X136398000Y-98552000D03*
X137668000Y-90932000D03*
X177766000Y-96338000D03*
X177766000Y-98878000D03*
X147828000Y-102362000D03*
X146558000Y-102362000D03*
X136398000Y-93472000D03*
X182823494Y-69108029D03*
X138938000Y-90932000D03*
X130048000Y-97282000D03*
X130048000Y-94742000D03*
X135128000Y-98552000D03*
X146558000Y-101092000D03*
X138938000Y-93472000D03*
X142748000Y-103378000D03*
X137668000Y-98552000D03*
X135128000Y-94742000D03*
X144018000Y-97282000D03*
X136398000Y-99822000D03*
X177258000Y-75002000D03*
X138938000Y-94742000D03*
X128778000Y-96012000D03*
X177258000Y-72462000D03*
X137668000Y-96012000D03*
X180560000Y-86432000D03*
X175988000Y-72462000D03*
X174718000Y-80082000D03*
X135128000Y-92202000D03*
X128778000Y-97282000D03*
X131318000Y-92202000D03*
X145288000Y-102362000D03*
X133858000Y-98552000D03*
X136398000Y-90932000D03*
X130048000Y-102362000D03*
X177258000Y-77542000D03*
X144018000Y-99822000D03*
X147828000Y-98552000D03*
X135128000Y-97282000D03*
X176000000Y-68730000D03*
X130048000Y-92202000D03*
X136398000Y-97282000D03*
X131318000Y-101092000D03*
X138938000Y-97282000D03*
X128778000Y-102362000D03*
X128778000Y-90932000D03*
X147828000Y-99822000D03*
X135128000Y-99822000D03*
X175988000Y-76272000D03*
X141478000Y-99822000D03*
X131318000Y-94742000D03*
X174718000Y-73732000D03*
X137668000Y-93472000D03*
X174718000Y-72462000D03*
X175988000Y-77542000D03*
X131318000Y-98552000D03*
X181785282Y-69161962D03*
X141478000Y-103378000D03*
X132588000Y-98552000D03*
X130048000Y-93472000D03*
X128778000Y-99822000D03*
X137668000Y-102362000D03*
X138938000Y-102362000D03*
X145288000Y-103378000D03*
X132588000Y-97282000D03*
X140208000Y-102362000D03*
X181436282Y-85541843D03*
X133858000Y-94742000D03*
X174718000Y-77542000D03*
X132588000Y-102362000D03*
X177258000Y-76272000D03*
X132588000Y-90932000D03*
X131318000Y-96012000D03*
X128778000Y-101092000D03*
X145288000Y-101092000D03*
X128778000Y-98552000D03*
X174718000Y-76272000D03*
X141478000Y-102362000D03*
X181812249Y-68137234D03*
X138938000Y-101092000D03*
X142748000Y-98552000D03*
X135128000Y-101092000D03*
X130048000Y-96012000D03*
X130048000Y-90932000D03*
X138938000Y-99822000D03*
X177766000Y-93798000D03*
X177766000Y-92528000D03*
X130048000Y-99822000D03*
X131318000Y-90932000D03*
X141478000Y-97282000D03*
X146558000Y-98552000D03*
X149098000Y-99822000D03*
X136398000Y-92202000D03*
X145288000Y-99822000D03*
X140208000Y-101092000D03*
%TO.N,Net-(J2-Pin_3)*%
X110490000Y-106426000D03*
X108966000Y-106426000D03*
X107442000Y-106426000D03*
D46*
%TO.N,Net-(Q1-G)*%
X142240000Y-82346647D03*
X142281859Y-75465502D03*
X141499036Y-87703556D03*
%TD*%
D48*
%TO.N,GND*%
X169660082Y-86009654D02*
X169660082Y-85719992D01*
X169660082Y-85719992D02*
X167998377Y-84058287D01*
D49*
%TO.N,+3.3V*%
X183862000Y-91411000D02*
X184116000Y-91665000D01*
X197278795Y-91619920D02*
X192307643Y-91619920D01*
X183862000Y-91411000D02*
X180567500Y-94705500D01*
X184116000Y-91665000D02*
X187418000Y-91665000D01*
X187436563Y-91683563D02*
X187418000Y-91665000D01*
X192244000Y-91683563D02*
X187436563Y-91683563D01*
X180567500Y-94980500D02*
X180567500Y-94705500D01*
X190506000Y-82072000D02*
X185617680Y-82072000D01*
X192307643Y-91619920D02*
X192244000Y-91683563D01*
X185617680Y-82072000D02*
X183862000Y-83827680D01*
X183862000Y-83827680D02*
X183862000Y-91411000D01*
D50*
%TO.N,Net-(IC1-VBST)*%
X178540251Y-102541374D02*
X177094126Y-102541374D01*
X177094126Y-102541374D02*
X176792500Y-102843000D01*
%TO.N,Net-(IC1-VFB)*%
X179688734Y-103955500D02*
X180181673Y-103462561D01*
X180181673Y-103462561D02*
X180181673Y-102609024D01*
X180768649Y-103196000D02*
X181830000Y-103196000D01*
X180181673Y-102609024D02*
X180768649Y-103196000D01*
X174892500Y-102843000D02*
X174892500Y-103505499D01*
X175342501Y-103955500D02*
X179688734Y-103955500D01*
X174892500Y-103505499D02*
X175342501Y-103955500D01*
D48*
%TO.N,Net-(IC1-EN)*%
X172540500Y-103304500D02*
X174114500Y-101730500D01*
X175842500Y-102277816D02*
X175842500Y-102843000D01*
X174114500Y-101730500D02*
X175295184Y-101730500D01*
X175295184Y-101730500D02*
X175842500Y-102277816D01*
D51*
%TO.N,Net-(J3-Pin_1)*%
X78562000Y-92836000D02*
X74476000Y-88750000D01*
X84074000Y-92836000D02*
X78562000Y-92836000D01*
D49*
%TO.N,Net-(J2-Pin_3)*%
X108966000Y-106426000D02*
X132984000Y-106426000D01*
X132984000Y-106426000D02*
X133574000Y-105836000D01*
X108966000Y-106426000D02*
X107442000Y-106426000D01*
D51*
%TO.N,Net-(J3-Pin_2)*%
X74476000Y-83750000D02*
X82988000Y-83750000D01*
X82988000Y-83750000D02*
X84074000Y-84836000D01*
D48*
%TO.N,Net-(Q1-G)*%
X141499036Y-87703556D02*
X141044480Y-87249000D01*
X141499036Y-88878964D02*
X141224000Y-89154000D01*
X142240000Y-82346647D02*
X141766647Y-82346647D01*
X141766647Y-82346647D02*
X140764000Y-81344000D01*
X141044480Y-87249000D02*
X140801500Y-87249000D01*
X141499036Y-87703556D02*
X141499036Y-88878964D01*
%TO.N,Net-(J7-Pin_2)*%
X141862326Y-90801674D02*
X141862326Y-92486718D01*
X142874000Y-89154000D02*
X142874000Y-89790000D01*
X142874000Y-89790000D02*
X141862326Y-90801674D01*
D50*
%TO.N,Net-(IC2-VBST)*%
X173752000Y-84527000D02*
X175252000Y-84527000D01*
X173252000Y-85027000D02*
X173752000Y-84527000D01*
X175252000Y-84527000D02*
X175302000Y-84577000D01*
%TO.N,Net-(IC2-EN)*%
X171583974Y-83814500D02*
X170477500Y-83814500D01*
X172302000Y-85027000D02*
X172302000Y-84532526D01*
X172302000Y-84532526D02*
X171583974Y-83814500D01*
X170477500Y-83814500D02*
X170138234Y-84153766D01*
X170138234Y-84153766D02*
X169610383Y-84153766D01*
%TO.N,Net-(IC2-VFB)*%
X177245355Y-85974888D02*
X177245355Y-85742355D01*
X171752001Y-86089500D02*
X177130743Y-86089500D01*
X177130743Y-86089500D02*
X177245355Y-85974888D01*
X177222260Y-84398903D02*
X177206854Y-84383497D01*
X177245355Y-85742355D02*
X177206854Y-85703854D01*
X171352000Y-85027000D02*
X171352000Y-85689499D01*
X171352000Y-85689499D02*
X171752001Y-86089500D01*
X177206854Y-85703854D02*
X177206854Y-84383497D01*
D48*
%TO.N,SW_3*%
X175842500Y-100568000D02*
X175842500Y-95430500D01*
X178540251Y-100991374D02*
X177851125Y-101680500D01*
X175842500Y-101230499D02*
X175842500Y-100568000D01*
X175842500Y-95430500D02*
X175117500Y-94705500D01*
X177851125Y-101680500D02*
X176292501Y-101680500D01*
X176292501Y-101680500D02*
X175842500Y-101230499D01*
D50*
%TO.N,SW_5*%
X171546000Y-74878000D02*
X172302000Y-75634000D01*
X174402000Y-83927000D02*
X172902000Y-83927000D01*
X172302000Y-75634000D02*
X172302000Y-82752000D01*
X171541146Y-74882854D02*
X171546000Y-74878000D01*
X172902000Y-83927000D02*
X172302000Y-83327000D01*
X175302000Y-83027000D02*
X174402000Y-83927000D01*
X172302000Y-83327000D02*
X172302000Y-82752000D01*
%TD*%
%TA.AperFunction,Conductor*%
%TO.N,GND*%
G36*
X178797388Y-92488043D02*
G01*
X178778298Y-92555254D01*
X178747708Y-92588405D01*
X178734958Y-92597950D01*
X178734951Y-92597957D01*
X178648706Y-92713164D01*
X178648702Y-92713171D01*
X178598408Y-92848017D01*
X178592001Y-92907616D01*
X178592001Y-92907623D01*
X178592000Y-92907635D01*
X178592000Y-96503370D01*
X178592001Y-96503376D01*
X178598408Y-96562983D01*
X178648702Y-96697828D01*
X178648706Y-96697835D01*
X178734951Y-96813042D01*
X178734958Y-96813050D01*
X178787210Y-96852165D01*
X178829082Y-96908098D01*
X178836895Y-96950334D01*
X178844413Y-97799444D01*
X178842521Y-97822147D01*
X178641024Y-98960928D01*
X178622095Y-99008106D01*
X178128500Y-99748498D01*
X178064969Y-100014838D01*
X178030267Y-100075481D01*
X177987948Y-100101005D01*
X177988096Y-100101321D01*
X177985140Y-100102698D01*
X177983365Y-100103770D01*
X177981562Y-100104367D01*
X177981548Y-100104373D01*
X177837207Y-100193405D01*
X177717283Y-100313329D01*
X177717280Y-100313333D01*
X177628252Y-100457668D01*
X177628247Y-100457679D01*
X177574902Y-100618664D01*
X177564751Y-100718021D01*
X177564751Y-100806000D01*
X177545066Y-100873039D01*
X177492262Y-100918794D01*
X177440751Y-100930000D01*
X176767000Y-100930000D01*
X176699961Y-100910315D01*
X176654206Y-100857511D01*
X176643000Y-100806000D01*
X176643000Y-100160121D01*
X176644149Y-100143279D01*
X176649484Y-100104367D01*
X176777210Y-99172693D01*
X176770218Y-97008545D01*
X176789684Y-96941448D01*
X176828304Y-96905378D01*
X176827731Y-96904612D01*
X176834760Y-96899349D01*
X176834803Y-96899310D01*
X176834820Y-96899300D01*
X176834831Y-96899296D01*
X176950046Y-96813046D01*
X177036296Y-96697831D01*
X177086591Y-96562983D01*
X177093000Y-96503373D01*
X177092999Y-92907628D01*
X177086591Y-92848017D01*
X177036296Y-92713169D01*
X177036295Y-92713168D01*
X177036293Y-92713164D01*
X176950047Y-92597955D01*
X176950044Y-92597952D01*
X176834834Y-92511705D01*
X176827051Y-92507456D01*
X176827828Y-92506031D01*
X176780045Y-92470255D01*
X176755632Y-92404789D01*
X176755319Y-92396378D01*
X176752462Y-91512000D01*
X178788747Y-91512000D01*
X178797388Y-92488043D01*
G37*
%TD.AperFunction*%
%TD*%
%TA.AperFunction,Conductor*%
%TO.N,GND*%
G36*
X182304539Y-83657685D02*
G01*
X182350294Y-83710489D01*
X182361500Y-83762000D01*
X182361500Y-90738110D01*
X182341815Y-90805149D01*
X182325181Y-90825791D01*
X181675291Y-91475681D01*
X181613968Y-91509166D01*
X181587610Y-91512000D01*
X173448000Y-91512000D01*
X173447999Y-91512000D01*
X172940000Y-92019999D01*
X172940000Y-96338000D01*
X173160822Y-96614028D01*
X173180176Y-96648156D01*
X173198703Y-96697830D01*
X173198706Y-96697835D01*
X173284952Y-96813044D01*
X173284953Y-96813044D01*
X173284954Y-96813046D01*
X173324109Y-96842357D01*
X173359769Y-96869053D01*
X173382285Y-96890857D01*
X173928828Y-97574035D01*
X173955336Y-97638681D01*
X173956000Y-97651497D01*
X173956000Y-98754000D01*
X173936315Y-98821039D01*
X173883511Y-98866794D01*
X173832000Y-98878000D01*
X169573778Y-98878000D01*
X169534774Y-98871706D01*
X169382209Y-98821151D01*
X169282846Y-98811000D01*
X168686162Y-98811000D01*
X168686144Y-98811001D01*
X168586792Y-98821150D01*
X168586789Y-98821151D01*
X168434226Y-98871706D01*
X168395222Y-98878000D01*
X168248461Y-98878000D01*
X168181422Y-98858315D01*
X168135667Y-98805511D01*
X168124867Y-98743979D01*
X168876000Y-89480003D01*
X168876000Y-85286000D01*
X168895685Y-85218961D01*
X168948489Y-85173206D01*
X169000000Y-85162000D01*
X170318235Y-85162000D01*
X170385274Y-85181685D01*
X170431029Y-85234489D01*
X170432209Y-85237154D01*
X170541474Y-85492106D01*
X170551500Y-85540952D01*
X170551500Y-85605201D01*
X170554401Y-85642067D01*
X170554402Y-85642073D01*
X170600254Y-85799893D01*
X170600255Y-85799896D01*
X170683917Y-85941362D01*
X170683923Y-85941370D01*
X170690703Y-85948150D01*
X170717582Y-85988376D01*
X170731222Y-86021304D01*
X170731228Y-86021316D01*
X170807885Y-86136042D01*
X170811751Y-86140752D01*
X170811282Y-86141136D01*
X170834023Y-86174720D01*
X171162000Y-86940000D01*
X176886535Y-86940000D01*
X176911503Y-86943800D01*
X176911724Y-86942694D01*
X176918155Y-86943972D01*
X176918159Y-86943974D01*
X176988739Y-86950388D01*
X176988742Y-86950388D01*
X177501968Y-86950388D01*
X177501971Y-86950388D01*
X177572551Y-86943974D01*
X177572556Y-86943972D01*
X177578986Y-86942694D01*
X177579206Y-86943800D01*
X177604175Y-86940000D01*
X178020000Y-86940000D01*
X178020000Y-86687924D01*
X178037882Y-86623776D01*
X178088833Y-86539494D01*
X178139441Y-86377084D01*
X178145855Y-86306504D01*
X178145855Y-85643272D01*
X178139441Y-85572692D01*
X178088833Y-85410282D01*
X178075968Y-85389000D01*
X178037883Y-85325999D01*
X178020000Y-85261850D01*
X178020000Y-85081909D01*
X178037882Y-85017761D01*
X178125332Y-84873103D01*
X178175940Y-84710693D01*
X178182354Y-84640113D01*
X178182354Y-84126881D01*
X178175940Y-84056301D01*
X178125332Y-83893891D01*
X178084380Y-83826149D01*
X178066544Y-83758596D01*
X178088061Y-83692122D01*
X178142101Y-83647834D01*
X178190497Y-83638000D01*
X182237500Y-83638000D01*
X182304539Y-83657685D01*
G37*
%TD.AperFunction*%
%TD*%
%TA.AperFunction,Conductor*%
%TO.N,SW_3*%
G36*
X176442300Y-96077246D02*
G01*
X176508285Y-96100217D01*
X176551377Y-96155216D01*
X176558833Y-96219301D01*
X176522829Y-96461866D01*
X176493515Y-96525289D01*
X176483467Y-96535519D01*
X176479177Y-96539409D01*
X176477082Y-96541266D01*
X176469215Y-96548082D01*
X176464666Y-96552571D01*
X176462326Y-96554693D01*
X176458402Y-96559169D01*
X176444643Y-96572020D01*
X176444642Y-96572021D01*
X176363548Y-96669530D01*
X176363548Y-96669531D01*
X176304203Y-96800596D01*
X176304202Y-96800598D01*
X176284738Y-96867689D01*
X176284735Y-96867704D01*
X176264720Y-97010183D01*
X176268454Y-98166055D01*
X176267111Y-98184662D01*
X176172388Y-98822821D01*
X176143074Y-98886244D01*
X176084124Y-98923750D01*
X176048219Y-98928606D01*
X175614989Y-98923318D01*
X175548194Y-98902816D01*
X175511920Y-98865950D01*
X175077911Y-98184662D01*
X173776261Y-96141391D01*
X173756845Y-96074277D01*
X173776797Y-96007316D01*
X173829783Y-95961772D01*
X173886966Y-95950922D01*
X176442300Y-96077246D01*
G37*
%TD.AperFunction*%
%TD*%
%TA.AperFunction,Conductor*%
%TO.N,GND*%
G36*
X199356000Y-96338000D02*
G01*
X192506000Y-103821999D01*
X192505996Y-103821999D01*
X183479842Y-103956129D01*
X183412518Y-103937443D01*
X183365983Y-103885325D01*
X183354000Y-103832143D01*
X183354000Y-98322000D01*
X194550357Y-98322000D01*
X194570884Y-98543535D01*
X194570885Y-98543537D01*
X194631769Y-98757523D01*
X194631775Y-98757538D01*
X194730938Y-98956683D01*
X194730943Y-98956691D01*
X194865020Y-99134238D01*
X195029437Y-99284123D01*
X195029439Y-99284125D01*
X195218595Y-99401245D01*
X195218596Y-99401245D01*
X195218599Y-99401247D01*
X195426060Y-99481618D01*
X195644757Y-99522500D01*
X195644759Y-99522500D01*
X195867241Y-99522500D01*
X195867243Y-99522500D01*
X196085940Y-99481618D01*
X196293401Y-99401247D01*
X196482562Y-99284124D01*
X196646981Y-99134236D01*
X196781058Y-98956689D01*
X196880229Y-98757528D01*
X196941115Y-98543536D01*
X196961643Y-98322000D01*
X196941115Y-98100464D01*
X196880229Y-97886472D01*
X196880224Y-97886461D01*
X196781061Y-97687316D01*
X196781056Y-97687308D01*
X196646979Y-97509761D01*
X196482562Y-97359876D01*
X196482560Y-97359874D01*
X196293404Y-97242754D01*
X196293398Y-97242752D01*
X196085940Y-97162382D01*
X195867243Y-97121500D01*
X195644757Y-97121500D01*
X195426060Y-97162382D01*
X195294864Y-97213207D01*
X195218601Y-97242752D01*
X195218595Y-97242754D01*
X195029439Y-97359874D01*
X195029437Y-97359876D01*
X194865020Y-97509761D01*
X194730943Y-97687308D01*
X194730938Y-97687316D01*
X194631775Y-97886461D01*
X194631769Y-97886476D01*
X194570885Y-98100462D01*
X194570884Y-98100464D01*
X194550357Y-98321999D01*
X194550357Y-98322000D01*
X183354000Y-98322000D01*
X183354000Y-94347333D01*
X183373685Y-94280294D01*
X183378800Y-94272933D01*
X184078800Y-93339600D01*
X184134771Y-93297779D01*
X184178000Y-93290000D01*
X199192279Y-93290000D01*
X199192280Y-93290000D01*
X199356000Y-96338000D01*
G37*
%TD.AperFunction*%
%TD*%
%TA.AperFunction,Conductor*%
%TO.N,Net-(Q1-S)*%
G36*
X141421039Y-74695685D02*
G01*
X141466794Y-74748489D01*
X141478000Y-74800000D01*
X141478000Y-74800790D01*
X141460118Y-74864939D01*
X141438381Y-74900896D01*
X141387772Y-75063309D01*
X141381359Y-75133888D01*
X141381359Y-75797115D01*
X141387772Y-75867694D01*
X141387772Y-75867696D01*
X141387773Y-75867698D01*
X141438381Y-76030108D01*
X141460116Y-76066062D01*
X141478000Y-76130212D01*
X141478000Y-80469570D01*
X141458315Y-80536609D01*
X141405511Y-80582364D01*
X141352694Y-80592380D01*
X141352694Y-80593500D01*
X140178629Y-80593500D01*
X140178623Y-80593501D01*
X140119016Y-80599908D01*
X139984171Y-80650202D01*
X139984164Y-80650206D01*
X139868955Y-80736452D01*
X139868952Y-80736455D01*
X139782706Y-80851664D01*
X139782702Y-80851671D01*
X139732410Y-80986513D01*
X139732409Y-80986517D01*
X139726000Y-81046127D01*
X139726000Y-81046134D01*
X139726000Y-81046135D01*
X139726000Y-81641870D01*
X139726001Y-81641876D01*
X139732408Y-81701483D01*
X139782702Y-81836328D01*
X139782706Y-81836335D01*
X139868952Y-81951544D01*
X139868955Y-81951547D01*
X139984164Y-82037793D01*
X139984171Y-82037797D01*
X140029118Y-82054561D01*
X140119017Y-82088091D01*
X140178627Y-82094500D01*
X140401768Y-82094499D01*
X140468808Y-82114183D01*
X140489450Y-82130818D01*
X141288233Y-82929601D01*
X141316286Y-82948344D01*
X141358370Y-82976463D01*
X141411152Y-83011731D01*
X141411160Y-83011734D01*
X141412436Y-83012417D01*
X141412983Y-83012954D01*
X141416218Y-83015116D01*
X141415808Y-83015728D01*
X141462288Y-83061371D01*
X141478000Y-83121784D01*
X141478000Y-86374500D01*
X141458315Y-86441539D01*
X141405511Y-86487294D01*
X141354000Y-86498500D01*
X140216129Y-86498500D01*
X140216123Y-86498501D01*
X140156516Y-86504908D01*
X140021671Y-86555202D01*
X140021664Y-86555206D01*
X139906455Y-86641452D01*
X139906452Y-86641455D01*
X139820206Y-86756664D01*
X139820202Y-86756671D01*
X139769910Y-86891513D01*
X139769909Y-86891517D01*
X139763500Y-86951127D01*
X139763500Y-86951134D01*
X139763500Y-86951135D01*
X139763500Y-87546870D01*
X139763501Y-87546876D01*
X139769908Y-87606483D01*
X139820202Y-87741328D01*
X139820206Y-87741335D01*
X139906452Y-87856544D01*
X139906455Y-87856547D01*
X140021664Y-87942793D01*
X140021671Y-87942797D01*
X140066618Y-87959561D01*
X140156517Y-87993091D01*
X140216127Y-87999500D01*
X140624536Y-87999499D01*
X140691575Y-88019183D01*
X140737330Y-88071987D01*
X140748536Y-88123499D01*
X140748536Y-88157037D01*
X140728851Y-88224076D01*
X140688687Y-88263152D01*
X140638824Y-88293295D01*
X140588811Y-88323530D01*
X140468530Y-88443811D01*
X140380522Y-88589393D01*
X140329913Y-88751807D01*
X140323500Y-88822386D01*
X140323500Y-89000000D01*
X140303815Y-89067039D01*
X140251011Y-89112794D01*
X140199500Y-89124000D01*
X127981500Y-89124000D01*
X127914461Y-89104315D01*
X127868706Y-89051511D01*
X127857500Y-89000000D01*
X127857500Y-76754024D01*
X127877185Y-76686985D01*
X127929989Y-76641230D01*
X127979507Y-76630040D01*
X138938000Y-76454000D01*
X139846035Y-74864939D01*
X139918298Y-74738479D01*
X139968650Y-74690039D01*
X140025960Y-74676000D01*
X141354000Y-74676000D01*
X141421039Y-74695685D01*
G37*
%TD.AperFunction*%
%TD*%
%TA.AperFunction,Conductor*%
%TO.N,GND*%
G36*
X139264025Y-89877338D02*
G01*
X139310105Y-89929859D01*
X139318877Y-89956082D01*
X140012553Y-93193237D01*
X140012554Y-93193238D01*
X140775863Y-93271024D01*
X140840558Y-93297403D01*
X140850969Y-93306703D01*
X140870398Y-93326132D01*
X141010538Y-93427950D01*
X141164881Y-93506591D01*
X141329625Y-93560120D01*
X141500715Y-93587218D01*
X141500716Y-93587218D01*
X142223936Y-93587218D01*
X142223937Y-93587218D01*
X142395027Y-93560120D01*
X142559771Y-93506591D01*
X142615180Y-93478358D01*
X142683846Y-93465462D01*
X142712104Y-93468341D01*
X142776328Y-93494347D01*
X147010924Y-96834871D01*
X150210033Y-99358536D01*
X150250475Y-99415511D01*
X150257218Y-99457881D01*
X150141052Y-106690802D01*
X150120293Y-106757517D01*
X150066761Y-106802418D01*
X150015472Y-106812801D01*
X139822404Y-106681575D01*
X139755623Y-106661029D01*
X139710552Y-106607640D01*
X139700000Y-106557585D01*
X139700000Y-102870000D01*
X138498455Y-102870000D01*
X138474910Y-102867744D01*
X138437592Y-102860526D01*
X138322901Y-102838345D01*
X138269368Y-102835501D01*
X138269345Y-102835500D01*
X138269338Y-102835500D01*
X131878662Y-102835500D01*
X131878654Y-102835500D01*
X131878631Y-102835501D01*
X131825098Y-102838345D01*
X131825097Y-102838345D01*
X131694359Y-102863630D01*
X131673089Y-102867744D01*
X131649545Y-102870000D01*
X127888455Y-102870000D01*
X127821416Y-102850315D01*
X127775661Y-102797511D01*
X127764479Y-102743569D01*
X127944015Y-93587218D01*
X128013616Y-90037568D01*
X128034611Y-89970928D01*
X128088302Y-89926217D01*
X128137592Y-89916000D01*
X129793943Y-89916000D01*
X129794000Y-89916000D01*
X139196867Y-89858066D01*
X139264025Y-89877338D01*
G37*
%TD.AperFunction*%
%TD*%
%TA.AperFunction,Conductor*%
%TO.N,SW_5*%
G36*
X172932959Y-76620217D02*
G01*
X172979132Y-76672656D01*
X172990435Y-76733896D01*
X172608226Y-82084835D01*
X172583815Y-82150301D01*
X172527885Y-82192178D01*
X172484541Y-82200000D01*
X172089514Y-82200000D01*
X172022475Y-82180315D01*
X171976720Y-82127511D01*
X171971819Y-82115037D01*
X171961802Y-82084835D01*
X170203708Y-76784297D01*
X170201288Y-76714473D01*
X170237002Y-76654421D01*
X170299514Y-76623210D01*
X170320419Y-76621267D01*
X172865767Y-76601065D01*
X172932959Y-76620217D01*
G37*
%TD.AperFunction*%
%TD*%
%TA.AperFunction,Conductor*%
%TO.N,+5V*%
G36*
X198537039Y-70701185D02*
G01*
X198582794Y-70753989D01*
X198594000Y-70805500D01*
X198594000Y-73442500D01*
X198574315Y-73509539D01*
X198521511Y-73555294D01*
X198470000Y-73566500D01*
X194852805Y-73566500D01*
X194806526Y-73568623D01*
X194783943Y-73570700D01*
X194783916Y-73570702D01*
X194783905Y-73570704D01*
X194747608Y-73575729D01*
X194737996Y-73577060D01*
X194737991Y-73577061D01*
X194601703Y-73623169D01*
X194539380Y-73654750D01*
X194461338Y-73709507D01*
X194395153Y-73731898D01*
X194390118Y-73732000D01*
X194256000Y-73732000D01*
X193239180Y-76955316D01*
X192283306Y-79985437D01*
X192244364Y-80043448D01*
X192180242Y-80071198D01*
X192165230Y-80072132D01*
X190622294Y-80074377D01*
X190613269Y-80074061D01*
X190506002Y-80066390D01*
X190505998Y-80066390D01*
X190393905Y-80074406D01*
X190385241Y-80074722D01*
X185386000Y-80081999D01*
X185385999Y-80082000D01*
X182136529Y-83099366D01*
X182074008Y-83130559D01*
X182052153Y-83132500D01*
X178190496Y-83132500D01*
X178089836Y-83142624D01*
X178041441Y-83152457D01*
X177944817Y-83182421D01*
X177944810Y-83182424D01*
X177821681Y-83256858D01*
X177767644Y-83301143D01*
X177767636Y-83301152D01*
X177728633Y-83343744D01*
X177668840Y-83379891D01*
X177637184Y-83384000D01*
X176401500Y-83384000D01*
X176334461Y-83364315D01*
X176288706Y-83311511D01*
X176277500Y-83260000D01*
X176277499Y-82753662D01*
X176277498Y-82753644D01*
X176267349Y-82654292D01*
X176267348Y-82654289D01*
X176248294Y-82596787D01*
X176242000Y-82557783D01*
X176242000Y-82220209D01*
X176261685Y-82153170D01*
X176298941Y-82115907D01*
X178744407Y-80543824D01*
X178828525Y-80476022D01*
X178865786Y-80438755D01*
X178933567Y-80354638D01*
X178941902Y-80336386D01*
X178985912Y-80284725D01*
X179290000Y-80082000D01*
X179290000Y-70805500D01*
X179309685Y-70738461D01*
X179362489Y-70692706D01*
X179414000Y-70681500D01*
X198470000Y-70681500D01*
X198537039Y-70701185D01*
G37*
%TD.AperFunction*%
%TD*%
%TA.AperFunction,Conductor*%
%TO.N,VCC*%
G36*
X169743039Y-67576101D02*
G01*
X169788794Y-67628905D01*
X169800000Y-67680417D01*
X169800000Y-70837305D01*
X169780315Y-70904344D01*
X169750315Y-70936569D01*
X169742453Y-70942454D01*
X169742452Y-70942455D01*
X169656206Y-71057664D01*
X169656202Y-71057671D01*
X169605908Y-71192517D01*
X169599501Y-71252116D01*
X169599500Y-71252135D01*
X169599500Y-76747870D01*
X169599501Y-76747876D01*
X169605908Y-76807483D01*
X169656202Y-76942328D01*
X169656206Y-76942335D01*
X169670582Y-76961538D01*
X169742454Y-77057546D01*
X169742457Y-77057548D01*
X169748728Y-77063820D01*
X169746452Y-77066095D01*
X169778864Y-77109385D01*
X169780380Y-77113690D01*
X170544830Y-79418455D01*
X171492022Y-82274177D01*
X171494094Y-82279901D01*
X171501500Y-82322111D01*
X171501500Y-82990000D01*
X171481815Y-83057039D01*
X171429011Y-83102794D01*
X171377500Y-83114000D01*
X170408504Y-83114000D01*
X170273177Y-83140918D01*
X170273167Y-83140921D01*
X170145690Y-83193723D01*
X170145688Y-83193724D01*
X170079310Y-83238076D01*
X170012632Y-83258953D01*
X169999199Y-83258464D01*
X169985671Y-83257234D01*
X169941999Y-83253266D01*
X169278767Y-83253266D01*
X169259528Y-83255014D01*
X169208190Y-83259679D01*
X169045774Y-83310289D01*
X168945439Y-83370943D01*
X168877884Y-83388779D01*
X168811411Y-83367261D01*
X168793609Y-83352507D01*
X168701421Y-83260319D01*
X168701417Y-83260316D01*
X168557082Y-83171288D01*
X168557076Y-83171285D01*
X168557074Y-83171284D01*
X168462076Y-83139805D01*
X168396086Y-83117938D01*
X168296723Y-83107787D01*
X167700039Y-83107787D01*
X167700021Y-83107788D01*
X167600669Y-83117937D01*
X167600666Y-83117938D01*
X167439682Y-83171283D01*
X167439671Y-83171288D01*
X167295336Y-83260316D01*
X167295332Y-83260319D01*
X167175409Y-83380242D01*
X167175406Y-83380246D01*
X167086378Y-83524581D01*
X167086373Y-83524592D01*
X167033028Y-83685577D01*
X167022877Y-83784934D01*
X167022877Y-84331624D01*
X167022878Y-84331642D01*
X167033027Y-84430994D01*
X167033028Y-84430997D01*
X167086373Y-84591981D01*
X167086378Y-84591992D01*
X167175406Y-84736327D01*
X167175409Y-84736331D01*
X167295332Y-84856254D01*
X167295336Y-84856257D01*
X167439671Y-84945285D01*
X167439674Y-84945286D01*
X167439680Y-84945290D01*
X167600669Y-84998636D01*
X167700032Y-85008787D01*
X167836145Y-85008786D01*
X167903185Y-85028470D01*
X167923827Y-85045105D01*
X168334181Y-85455459D01*
X168367666Y-85516782D01*
X168370500Y-85543140D01*
X168370500Y-89454524D01*
X168370094Y-89464545D01*
X167621020Y-98703113D01*
X167621019Y-98703137D01*
X167626977Y-98831367D01*
X167637779Y-98892904D01*
X167675847Y-99015501D01*
X167675849Y-99015507D01*
X167753632Y-99136537D01*
X167753640Y-99136548D01*
X167799384Y-99189340D01*
X167799387Y-99189343D01*
X167799391Y-99189347D01*
X167908125Y-99283567D01*
X167908128Y-99283568D01*
X167908129Y-99283569D01*
X168002386Y-99326616D01*
X168039002Y-99343338D01*
X168106041Y-99363023D01*
X168106045Y-99363024D01*
X168248461Y-99383500D01*
X168248464Y-99383500D01*
X168395230Y-99383500D01*
X168446644Y-99379377D01*
X168475752Y-99377044D01*
X168514756Y-99370750D01*
X168593232Y-99351547D01*
X168680000Y-99322793D01*
X168719005Y-99316500D01*
X169249993Y-99316500D01*
X169288996Y-99322793D01*
X169375770Y-99351548D01*
X169454244Y-99370750D01*
X169493248Y-99377044D01*
X169515927Y-99378862D01*
X169573769Y-99383500D01*
X169573778Y-99383500D01*
X173831990Y-99383500D01*
X173832000Y-99383500D01*
X173939456Y-99371947D01*
X173990967Y-99360741D01*
X174025197Y-99349347D01*
X174093497Y-99326616D01*
X174093501Y-99326613D01*
X174093504Y-99326613D01*
X174214543Y-99248825D01*
X174267347Y-99203070D01*
X174361567Y-99094336D01*
X174421338Y-98963459D01*
X174441023Y-98896420D01*
X174441024Y-98896416D01*
X174461500Y-98754000D01*
X174461500Y-98583333D01*
X174481185Y-98516294D01*
X174533989Y-98470539D01*
X174603147Y-98460595D01*
X174666703Y-98489620D01*
X174690079Y-98516707D01*
X175072582Y-99117142D01*
X175092000Y-99183765D01*
X175092000Y-99773170D01*
X175087076Y-99807765D01*
X175044902Y-99952926D01*
X175044901Y-99952932D01*
X175042000Y-99989798D01*
X175042000Y-100856000D01*
X175022315Y-100923039D01*
X174969511Y-100968794D01*
X174918000Y-100980000D01*
X174040580Y-100980000D01*
X173895592Y-101008840D01*
X173895582Y-101008843D01*
X173759011Y-101065412D01*
X173758998Y-101065419D01*
X173636084Y-101147548D01*
X173636080Y-101147551D01*
X172415951Y-102367681D01*
X172354628Y-102401166D01*
X172328270Y-102404000D01*
X172208884Y-102404000D01*
X172189645Y-102405748D01*
X172138307Y-102410413D01*
X171975893Y-102461022D01*
X171830311Y-102549030D01*
X171710030Y-102669311D01*
X171622022Y-102814893D01*
X171571413Y-102977307D01*
X171565000Y-103047886D01*
X171565000Y-103561113D01*
X171571413Y-103631692D01*
X171571413Y-103631694D01*
X171571414Y-103631696D01*
X171622022Y-103794106D01*
X171705877Y-103932819D01*
X171710030Y-103939688D01*
X171830311Y-104059969D01*
X171830313Y-104059970D01*
X171830315Y-104059972D01*
X171975894Y-104147978D01*
X172138304Y-104198586D01*
X172208884Y-104205000D01*
X172208887Y-104205000D01*
X172872113Y-104205000D01*
X172872116Y-104205000D01*
X172942696Y-104198586D01*
X173105106Y-104147978D01*
X173250685Y-104059972D01*
X173370972Y-103939685D01*
X173458978Y-103794106D01*
X173509586Y-103631696D01*
X173516000Y-103561116D01*
X173516000Y-103441729D01*
X173535685Y-103374690D01*
X173552319Y-103354048D01*
X173880319Y-103026048D01*
X173941642Y-102992563D01*
X174011334Y-102997547D01*
X174067267Y-103039419D01*
X174091684Y-103104883D01*
X174092000Y-103113729D01*
X174092000Y-103421201D01*
X174094901Y-103458067D01*
X174094902Y-103458073D01*
X174140754Y-103615893D01*
X174140755Y-103615896D01*
X174224417Y-103757362D01*
X174224423Y-103757370D01*
X174231203Y-103764150D01*
X174258082Y-103804376D01*
X174271722Y-103837304D01*
X174271728Y-103837316D01*
X174348385Y-103952042D01*
X174895955Y-104499612D01*
X175010693Y-104576277D01*
X175138168Y-104629078D01*
X175138173Y-104629080D01*
X175138177Y-104629080D01*
X175138178Y-104629081D01*
X175273505Y-104656000D01*
X175273508Y-104656000D01*
X179757730Y-104656000D01*
X179848774Y-104637889D01*
X179893062Y-104629080D01*
X179956803Y-104602677D01*
X180020541Y-104576277D01*
X180020542Y-104576276D01*
X180020545Y-104576275D01*
X180135277Y-104499614D01*
X180702072Y-103932819D01*
X180763395Y-103899334D01*
X180789753Y-103896500D01*
X181013480Y-103896500D01*
X181080519Y-103916185D01*
X181101161Y-103932819D01*
X181194811Y-104026469D01*
X181194813Y-104026470D01*
X181194815Y-104026472D01*
X181340394Y-104114478D01*
X181502804Y-104165086D01*
X181573384Y-104171500D01*
X181573387Y-104171500D01*
X182086613Y-104171500D01*
X182086616Y-104171500D01*
X182157196Y-104165086D01*
X182319606Y-104114478D01*
X182465185Y-104026472D01*
X182465189Y-104026468D01*
X182567319Y-103924339D01*
X182628642Y-103890854D01*
X182698334Y-103895838D01*
X182742681Y-103924339D01*
X182844810Y-104026468D01*
X182844812Y-104026469D01*
X182844815Y-104026472D01*
X182854931Y-104032587D01*
X182902119Y-104084113D01*
X182907992Y-104098235D01*
X182909335Y-104102125D01*
X182909340Y-104102136D01*
X182988911Y-104221995D01*
X182988913Y-104221997D01*
X182988915Y-104222000D01*
X183035450Y-104274118D01*
X183145574Y-104366711D01*
X183277326Y-104424529D01*
X183320246Y-104436441D01*
X183344642Y-104443213D01*
X183344643Y-104443213D01*
X183344650Y-104443215D01*
X183421119Y-104453052D01*
X183487348Y-104461573D01*
X183487352Y-104461572D01*
X183487353Y-104461573D01*
X192502696Y-104327603D01*
X192506875Y-104327612D01*
X204641158Y-104565540D01*
X204642053Y-104565457D01*
X204642272Y-104565500D01*
X204644643Y-104565414D01*
X204644663Y-104565967D01*
X204710623Y-104578870D01*
X204761057Y-104627225D01*
X204777499Y-104688928D01*
X204777499Y-108981996D01*
X204777298Y-108985129D01*
X204777315Y-108991368D01*
X204777315Y-108991370D01*
X204777404Y-109023233D01*
X204777488Y-109052826D01*
X204777196Y-109061673D01*
X204763396Y-109262234D01*
X204760920Y-109279772D01*
X204719606Y-109471943D01*
X204714652Y-109488960D01*
X204646363Y-109673278D01*
X204639034Y-109689415D01*
X204545163Y-109862119D01*
X204535607Y-109877047D01*
X204418074Y-110034600D01*
X204406488Y-110048013D01*
X204267696Y-110187197D01*
X204254317Y-110198820D01*
X204140641Y-110284123D01*
X204097100Y-110316796D01*
X204082199Y-110326394D01*
X203909760Y-110420754D01*
X203893643Y-110428129D01*
X203709521Y-110496937D01*
X203692518Y-110501939D01*
X203500464Y-110543795D01*
X203482922Y-110546322D01*
X203356518Y-110555380D01*
X203282403Y-110560690D01*
X203273554Y-110561007D01*
X196471195Y-110561007D01*
X196404156Y-110541322D01*
X196358401Y-110488518D01*
X196348457Y-110419360D01*
X196377482Y-110355804D01*
X196405918Y-110331580D01*
X196482560Y-110284125D01*
X196482559Y-110284125D01*
X196482562Y-110284124D01*
X196646981Y-110134236D01*
X196781058Y-109956689D01*
X196788689Y-109941365D01*
X196880224Y-109757538D01*
X196880223Y-109757538D01*
X196880229Y-109757528D01*
X196941115Y-109543536D01*
X196961643Y-109322000D01*
X196941115Y-109100464D01*
X196880229Y-108886472D01*
X196843509Y-108812728D01*
X196781061Y-108687316D01*
X196781056Y-108687308D01*
X196646979Y-108509761D01*
X196482562Y-108359876D01*
X196482560Y-108359874D01*
X196293404Y-108242754D01*
X196293398Y-108242752D01*
X196085940Y-108162382D01*
X195867243Y-108121500D01*
X195644757Y-108121500D01*
X195426060Y-108162382D01*
X195294864Y-108213207D01*
X195218601Y-108242752D01*
X195218595Y-108242754D01*
X195029439Y-108359874D01*
X195029437Y-108359876D01*
X194865020Y-108509761D01*
X194730943Y-108687308D01*
X194730938Y-108687316D01*
X194631775Y-108886461D01*
X194631769Y-108886476D01*
X194570885Y-109100462D01*
X194570884Y-109100464D01*
X194550357Y-109321999D01*
X194550357Y-109322000D01*
X194570884Y-109543535D01*
X194570885Y-109543537D01*
X194631769Y-109757523D01*
X194631775Y-109757538D01*
X194730938Y-109956683D01*
X194730943Y-109956691D01*
X194865020Y-110134238D01*
X195029437Y-110284123D01*
X195029439Y-110284125D01*
X195106082Y-110331580D01*
X195152718Y-110383608D01*
X195163822Y-110452589D01*
X195135869Y-110516624D01*
X195077734Y-110555380D01*
X195040805Y-110561007D01*
X139838840Y-110561007D01*
X139771801Y-110541322D01*
X139726046Y-110488518D01*
X139714860Y-110434753D01*
X139752584Y-108359876D01*
X139757818Y-108072000D01*
X167894592Y-108072000D01*
X167914201Y-108358680D01*
X167914201Y-108358684D01*
X167914202Y-108358686D01*
X167935984Y-108463509D01*
X167972666Y-108640034D01*
X167972667Y-108640037D01*
X168068894Y-108910793D01*
X168068893Y-108910793D01*
X168201098Y-109165935D01*
X168366812Y-109400700D01*
X168433349Y-109471943D01*
X168562947Y-109610708D01*
X168785853Y-109792055D01*
X168913902Y-109869924D01*
X169031382Y-109941365D01*
X169218237Y-110022526D01*
X169294942Y-110055844D01*
X169571642Y-110133371D01*
X169821920Y-110167771D01*
X169856321Y-110172500D01*
X169856322Y-110172500D01*
X170143679Y-110172500D01*
X170174370Y-110168281D01*
X170428358Y-110133371D01*
X170705058Y-110055844D01*
X170818015Y-110006779D01*
X170968617Y-109941365D01*
X170968620Y-109941363D01*
X170968625Y-109941361D01*
X171214147Y-109792055D01*
X171437053Y-109610708D01*
X171633189Y-109400698D01*
X171798901Y-109165936D01*
X171931104Y-108910797D01*
X172027334Y-108640032D01*
X172085798Y-108358686D01*
X172105408Y-108072000D01*
X172085798Y-107785314D01*
X172027334Y-107503968D01*
X171931105Y-107233206D01*
X171931106Y-107233206D01*
X171798901Y-106978064D01*
X171633187Y-106743299D01*
X171554554Y-106659105D01*
X171437053Y-106533292D01*
X171214147Y-106351945D01*
X171214146Y-106351944D01*
X170968617Y-106202634D01*
X170705063Y-106088158D01*
X170705061Y-106088157D01*
X170705058Y-106088156D01*
X170575578Y-106051877D01*
X170428364Y-106010630D01*
X170428359Y-106010629D01*
X170428358Y-106010629D01*
X170286018Y-105991064D01*
X170143679Y-105971500D01*
X170143678Y-105971500D01*
X169856322Y-105971500D01*
X169856321Y-105971500D01*
X169571642Y-106010629D01*
X169571635Y-106010630D01*
X169363861Y-106068845D01*
X169294942Y-106088156D01*
X169294939Y-106088156D01*
X169294936Y-106088158D01*
X169294935Y-106088158D01*
X169031382Y-106202634D01*
X168785853Y-106351944D01*
X168562950Y-106533289D01*
X168366812Y-106743299D01*
X168201098Y-106978064D01*
X168068894Y-107233206D01*
X167972667Y-107503962D01*
X167972666Y-107503965D01*
X167914201Y-107785319D01*
X167894592Y-108072000D01*
X139757818Y-108072000D01*
X139771676Y-107309814D01*
X139792576Y-107243145D01*
X139846203Y-107198358D01*
X139897250Y-107188080D01*
X141802722Y-107212611D01*
X141840118Y-107218893D01*
X141970203Y-107261999D01*
X142072991Y-107272500D01*
X143423008Y-107272499D01*
X143525797Y-107261999D01*
X143585053Y-107242362D01*
X143625651Y-107236079D01*
X150008965Y-107318259D01*
X150008976Y-107318258D01*
X150008978Y-107318258D01*
X150115764Y-107308252D01*
X150115767Y-107308251D01*
X150115771Y-107308251D01*
X150167060Y-107297868D01*
X150269342Y-107265550D01*
X150391615Y-107189716D01*
X150445147Y-107144815D01*
X150541102Y-107037607D01*
X150590575Y-106933724D01*
X150602960Y-106907719D01*
X150602962Y-106907712D01*
X150602966Y-106907705D01*
X150623562Y-106841512D01*
X150623722Y-106841006D01*
X150623725Y-106840990D01*
X150623726Y-106840988D01*
X150646487Y-106698920D01*
X150728508Y-101592000D01*
X153700357Y-101592000D01*
X153720884Y-101813535D01*
X153720885Y-101813537D01*
X153781769Y-102027523D01*
X153781775Y-102027538D01*
X153880938Y-102226683D01*
X153880943Y-102226691D01*
X154015020Y-102404238D01*
X154179437Y-102554123D01*
X154179439Y-102554125D01*
X154368595Y-102671245D01*
X154368596Y-102671245D01*
X154368599Y-102671247D01*
X154576060Y-102751618D01*
X154794757Y-102792500D01*
X154794759Y-102792500D01*
X155017241Y-102792500D01*
X155017243Y-102792500D01*
X155235940Y-102751618D01*
X155443401Y-102671247D01*
X155632562Y-102554124D01*
X155796981Y-102404236D01*
X155931058Y-102226689D01*
X156030229Y-102027528D01*
X156091115Y-101813536D01*
X156111643Y-101592000D01*
X164700357Y-101592000D01*
X164720884Y-101813535D01*
X164720885Y-101813537D01*
X164781769Y-102027523D01*
X164781775Y-102027538D01*
X164880938Y-102226683D01*
X164880943Y-102226691D01*
X165015020Y-102404238D01*
X165179437Y-102554123D01*
X165179439Y-102554125D01*
X165368595Y-102671245D01*
X165368596Y-102671245D01*
X165368599Y-102671247D01*
X165576060Y-102751618D01*
X165794757Y-102792500D01*
X165794759Y-102792500D01*
X166017241Y-102792500D01*
X166017243Y-102792500D01*
X166235940Y-102751618D01*
X166443401Y-102671247D01*
X166632562Y-102554124D01*
X166796981Y-102404236D01*
X166931058Y-102226689D01*
X167030229Y-102027528D01*
X167091115Y-101813536D01*
X167111643Y-101592000D01*
X167091115Y-101370464D01*
X167030229Y-101156472D01*
X167025786Y-101147549D01*
X166931061Y-100957316D01*
X166931056Y-100957308D01*
X166796979Y-100779761D01*
X166632562Y-100629876D01*
X166632560Y-100629874D01*
X166443404Y-100512754D01*
X166443398Y-100512752D01*
X166235940Y-100432382D01*
X166017243Y-100391500D01*
X165794757Y-100391500D01*
X165576060Y-100432382D01*
X165444864Y-100483207D01*
X165368601Y-100512752D01*
X165368595Y-100512754D01*
X165179439Y-100629874D01*
X165179437Y-100629876D01*
X165015020Y-100779761D01*
X164880943Y-100957308D01*
X164880938Y-100957316D01*
X164781775Y-101156461D01*
X164781769Y-101156476D01*
X164720885Y-101370462D01*
X164720884Y-101370464D01*
X164700357Y-101591999D01*
X164700357Y-101592000D01*
X156111643Y-101592000D01*
X156091115Y-101370464D01*
X156030229Y-101156472D01*
X156025786Y-101147549D01*
X155931061Y-100957316D01*
X155931056Y-100957308D01*
X155796979Y-100779761D01*
X155632562Y-100629876D01*
X155632560Y-100629874D01*
X155443404Y-100512754D01*
X155443398Y-100512752D01*
X155235940Y-100432382D01*
X155017243Y-100391500D01*
X154794757Y-100391500D01*
X154576060Y-100432382D01*
X154444864Y-100483207D01*
X154368601Y-100512752D01*
X154368595Y-100512754D01*
X154179439Y-100629874D01*
X154179437Y-100629876D01*
X154015020Y-100779761D01*
X153880943Y-100957308D01*
X153880938Y-100957316D01*
X153781775Y-101156461D01*
X153781769Y-101156476D01*
X153720885Y-101370462D01*
X153720884Y-101370464D01*
X153700357Y-101591999D01*
X153700357Y-101592000D01*
X150728508Y-101592000D01*
X150762653Y-99465999D01*
X150756436Y-99378433D01*
X150749693Y-99336063D01*
X150736581Y-99283566D01*
X150728423Y-99250903D01*
X150728421Y-99250898D01*
X150692866Y-99181676D01*
X150662686Y-99122915D01*
X150662684Y-99122912D01*
X150662683Y-99122910D01*
X150622249Y-99065945D01*
X150622242Y-99065937D01*
X150523121Y-98961667D01*
X150523118Y-98961664D01*
X150523114Y-98961660D01*
X149798287Y-98389870D01*
X160655500Y-98389870D01*
X160655501Y-98389876D01*
X160661908Y-98449483D01*
X160712202Y-98584328D01*
X160712206Y-98584335D01*
X160798452Y-98699544D01*
X160798455Y-98699547D01*
X160913664Y-98785793D01*
X160913671Y-98785797D01*
X161048517Y-98836091D01*
X161048516Y-98836091D01*
X161055444Y-98836835D01*
X161108127Y-98842500D01*
X164703872Y-98842499D01*
X164763483Y-98836091D01*
X164898331Y-98785796D01*
X165013546Y-98699546D01*
X165099796Y-98584331D01*
X165150091Y-98449483D01*
X165156500Y-98389873D01*
X165156499Y-94794128D01*
X165150091Y-94734517D01*
X165099796Y-94599669D01*
X165099795Y-94599668D01*
X165099793Y-94599664D01*
X165013547Y-94484455D01*
X165013544Y-94484452D01*
X164898335Y-94398206D01*
X164898328Y-94398202D01*
X164763482Y-94347908D01*
X164763483Y-94347908D01*
X164703883Y-94341501D01*
X164703881Y-94341500D01*
X164703873Y-94341500D01*
X164703864Y-94341500D01*
X161108129Y-94341500D01*
X161108123Y-94341501D01*
X161048516Y-94347908D01*
X160913671Y-94398202D01*
X160913664Y-94398206D01*
X160798455Y-94484452D01*
X160798452Y-94484455D01*
X160712206Y-94599664D01*
X160712202Y-94599671D01*
X160661908Y-94734517D01*
X160655501Y-94794116D01*
X160655501Y-94794123D01*
X160655500Y-94794135D01*
X160655500Y-98389870D01*
X149798287Y-98389870D01*
X149504223Y-98157893D01*
X143149195Y-93144633D01*
X143108753Y-93087658D01*
X143105534Y-93017862D01*
X143115509Y-92990984D01*
X143157199Y-92909163D01*
X143210728Y-92744419D01*
X143237826Y-92573329D01*
X143237826Y-92400107D01*
X143210728Y-92229017D01*
X143157199Y-92064273D01*
X143078558Y-91909930D01*
X142976740Y-91769790D01*
X142854254Y-91647304D01*
X142714114Y-91545486D01*
X142680529Y-91528373D01*
X142629734Y-91480398D01*
X142612826Y-91417889D01*
X142612826Y-91163903D01*
X142632511Y-91096864D01*
X142649145Y-91076222D01*
X143456949Y-90268418D01*
X143456951Y-90268416D01*
X143481617Y-90231500D01*
X143539084Y-90145495D01*
X143595658Y-90008913D01*
X143617737Y-89897911D01*
X143633233Y-89857962D01*
X143717478Y-89718606D01*
X143768086Y-89556196D01*
X143774500Y-89485616D01*
X143774500Y-88822384D01*
X143768086Y-88751804D01*
X143717478Y-88589394D01*
X143629472Y-88443815D01*
X143629470Y-88443813D01*
X143629469Y-88443811D01*
X143509188Y-88323530D01*
X143498462Y-88317046D01*
X143363606Y-88235522D01*
X143201196Y-88184914D01*
X143201194Y-88184913D01*
X143201192Y-88184913D01*
X143151778Y-88180423D01*
X143130616Y-88178500D01*
X142617384Y-88178500D01*
X142546804Y-88184914D01*
X142498768Y-88199882D01*
X142410425Y-88227410D01*
X142340565Y-88228560D01*
X142281173Y-88191759D01*
X142251105Y-88128689D01*
X142249536Y-88109024D01*
X142249536Y-88003528D01*
X142256494Y-87962573D01*
X142284404Y-87882810D01*
X142284405Y-87882805D01*
X142304601Y-87703559D01*
X142304601Y-87703552D01*
X142284405Y-87524306D01*
X142284403Y-87524298D01*
X142246958Y-87417285D01*
X142240000Y-87376331D01*
X142240000Y-83323870D01*
X155147500Y-83323870D01*
X155147501Y-83323876D01*
X155153908Y-83383483D01*
X155204202Y-83518328D01*
X155204206Y-83518335D01*
X155290452Y-83633544D01*
X155290455Y-83633547D01*
X155405664Y-83719793D01*
X155405671Y-83719797D01*
X155540517Y-83770091D01*
X155540516Y-83770091D01*
X155547444Y-83770835D01*
X155600127Y-83776500D01*
X159195872Y-83776499D01*
X159255483Y-83770091D01*
X159390331Y-83719796D01*
X159505546Y-83633546D01*
X159591796Y-83518331D01*
X159642091Y-83383483D01*
X159648500Y-83323873D01*
X159648499Y-79728128D01*
X159642091Y-79668517D01*
X159591796Y-79533669D01*
X159591795Y-79533668D01*
X159591793Y-79533664D01*
X159505547Y-79418455D01*
X159505544Y-79418452D01*
X159390335Y-79332206D01*
X159390328Y-79332202D01*
X159255482Y-79281908D01*
X159255483Y-79281908D01*
X159195883Y-79275501D01*
X159195881Y-79275500D01*
X159195873Y-79275500D01*
X159195864Y-79275500D01*
X155600129Y-79275500D01*
X155600123Y-79275501D01*
X155540516Y-79281908D01*
X155405671Y-79332202D01*
X155405664Y-79332206D01*
X155290455Y-79418452D01*
X155290452Y-79418455D01*
X155204206Y-79533664D01*
X155204202Y-79533671D01*
X155153908Y-79668517D01*
X155147501Y-79728116D01*
X155147501Y-79728123D01*
X155147500Y-79728135D01*
X155147500Y-83323870D01*
X142240000Y-83323870D01*
X142240000Y-83263025D01*
X142259685Y-83195986D01*
X142312489Y-83150231D01*
X142350117Y-83139805D01*
X142419250Y-83132016D01*
X142419253Y-83132015D01*
X142419255Y-83132015D01*
X142589522Y-83072436D01*
X142742262Y-82976463D01*
X142869816Y-82848909D01*
X142965789Y-82696169D01*
X143025368Y-82525902D01*
X143045565Y-82346647D01*
X143042800Y-82322111D01*
X143025369Y-82167397D01*
X143025368Y-82167392D01*
X142965788Y-81997123D01*
X142869815Y-81844384D01*
X142742262Y-81716831D01*
X142589523Y-81620858D01*
X142419254Y-81561278D01*
X142419250Y-81561277D01*
X142350116Y-81553488D01*
X142285702Y-81526421D01*
X142246147Y-81468826D01*
X142240000Y-81430268D01*
X142240000Y-76565002D01*
X142251452Y-76526000D01*
X153192357Y-76526000D01*
X153212884Y-76747535D01*
X153212885Y-76747537D01*
X153273769Y-76961523D01*
X153273775Y-76961538D01*
X153372938Y-77160683D01*
X153372943Y-77160691D01*
X153507020Y-77338238D01*
X153671437Y-77488123D01*
X153671439Y-77488125D01*
X153860595Y-77605245D01*
X153860596Y-77605245D01*
X153860599Y-77605247D01*
X154068060Y-77685618D01*
X154286757Y-77726500D01*
X154286759Y-77726500D01*
X154509241Y-77726500D01*
X154509243Y-77726500D01*
X154727940Y-77685618D01*
X154935401Y-77605247D01*
X155124562Y-77488124D01*
X155288981Y-77338236D01*
X155423058Y-77160689D01*
X155522229Y-76961528D01*
X155583115Y-76747536D01*
X155603643Y-76526000D01*
X164192357Y-76526000D01*
X164212884Y-76747535D01*
X164212885Y-76747537D01*
X164273769Y-76961523D01*
X164273775Y-76961538D01*
X164372938Y-77160683D01*
X164372943Y-77160691D01*
X164507020Y-77338238D01*
X164671437Y-77488123D01*
X164671439Y-77488125D01*
X164860595Y-77605245D01*
X164860596Y-77605245D01*
X164860599Y-77605247D01*
X165068060Y-77685618D01*
X165286757Y-77726500D01*
X165286759Y-77726500D01*
X165509241Y-77726500D01*
X165509243Y-77726500D01*
X165727940Y-77685618D01*
X165935401Y-77605247D01*
X166124562Y-77488124D01*
X166288981Y-77338236D01*
X166423058Y-77160689D01*
X166522229Y-76961528D01*
X166583115Y-76747536D01*
X166603643Y-76526000D01*
X166583115Y-76304464D01*
X166522229Y-76090472D01*
X166522224Y-76090461D01*
X166423061Y-75891316D01*
X166423056Y-75891308D01*
X166288979Y-75713761D01*
X166124562Y-75563876D01*
X166124560Y-75563874D01*
X165935404Y-75446754D01*
X165935398Y-75446752D01*
X165727940Y-75366382D01*
X165509243Y-75325500D01*
X165286757Y-75325500D01*
X165068060Y-75366382D01*
X165011659Y-75388232D01*
X164860601Y-75446752D01*
X164860595Y-75446754D01*
X164671439Y-75563874D01*
X164671437Y-75563876D01*
X164507020Y-75713761D01*
X164372943Y-75891308D01*
X164372938Y-75891316D01*
X164273775Y-76090461D01*
X164273769Y-76090476D01*
X164212885Y-76304462D01*
X164212884Y-76304464D01*
X164192357Y-76525999D01*
X164192357Y-76526000D01*
X155603643Y-76526000D01*
X155583115Y-76304464D01*
X155522229Y-76090472D01*
X155522224Y-76090461D01*
X155423061Y-75891316D01*
X155423056Y-75891308D01*
X155288979Y-75713761D01*
X155124562Y-75563876D01*
X155124560Y-75563874D01*
X154935404Y-75446754D01*
X154935398Y-75446752D01*
X154727940Y-75366382D01*
X154509243Y-75325500D01*
X154286757Y-75325500D01*
X154068060Y-75366382D01*
X154011659Y-75388232D01*
X153860601Y-75446752D01*
X153860595Y-75446754D01*
X153671439Y-75563874D01*
X153671437Y-75563876D01*
X153507020Y-75713761D01*
X153372943Y-75891308D01*
X153372938Y-75891316D01*
X153273775Y-76090461D01*
X153273769Y-76090476D01*
X153212885Y-76304462D01*
X153212884Y-76304464D01*
X153192357Y-76525999D01*
X153192357Y-76526000D01*
X142251452Y-76526000D01*
X142259685Y-76497963D01*
X142312489Y-76452208D01*
X142364000Y-76441002D01*
X142538472Y-76441002D01*
X142538475Y-76441002D01*
X142609055Y-76434588D01*
X142771465Y-76383980D01*
X142917044Y-76295974D01*
X142976700Y-76236317D01*
X143038021Y-76202834D01*
X143064380Y-76200000D01*
X143256000Y-76200000D01*
X143256000Y-73914000D01*
X140586000Y-73914000D01*
X140518961Y-73894315D01*
X140473206Y-73841511D01*
X140462000Y-73790000D01*
X140462000Y-70250001D01*
X141880500Y-70250001D01*
X141880501Y-70250019D01*
X141891000Y-70352796D01*
X141891001Y-70352799D01*
X141946185Y-70519331D01*
X141946186Y-70519334D01*
X142038288Y-70668656D01*
X142162344Y-70792712D01*
X142311666Y-70884814D01*
X142478203Y-70939999D01*
X142580991Y-70950500D01*
X143931008Y-70950499D01*
X144033797Y-70939999D01*
X144200334Y-70884814D01*
X144349656Y-70792712D01*
X144473712Y-70668656D01*
X144565814Y-70519334D01*
X144620999Y-70352797D01*
X144629866Y-70266001D01*
X147510500Y-70266001D01*
X147510501Y-70266019D01*
X147521000Y-70368796D01*
X147521001Y-70368799D01*
X147570883Y-70519331D01*
X147576186Y-70535334D01*
X147668288Y-70684656D01*
X147792344Y-70808712D01*
X147941666Y-70900814D01*
X148108203Y-70955999D01*
X148210991Y-70966500D01*
X149561008Y-70966499D01*
X149663797Y-70955999D01*
X149830334Y-70900814D01*
X149979656Y-70808712D01*
X150103712Y-70684656D01*
X150195814Y-70535334D01*
X150250999Y-70368797D01*
X150261500Y-70266009D01*
X150261499Y-69465992D01*
X150259864Y-69449991D01*
X150250999Y-69363203D01*
X150250998Y-69363200D01*
X150245696Y-69347200D01*
X150195814Y-69196666D01*
X150103712Y-69047344D01*
X149979656Y-68923288D01*
X149830334Y-68831186D01*
X149663797Y-68776001D01*
X149663795Y-68776000D01*
X149561010Y-68765500D01*
X148210998Y-68765500D01*
X148210981Y-68765501D01*
X148108203Y-68776000D01*
X148108200Y-68776001D01*
X147941668Y-68831185D01*
X147941663Y-68831187D01*
X147792342Y-68923289D01*
X147668289Y-69047342D01*
X147576187Y-69196663D01*
X147576186Y-69196666D01*
X147521001Y-69363203D01*
X147521001Y-69363204D01*
X147521000Y-69363204D01*
X147510500Y-69465983D01*
X147510500Y-70266001D01*
X144629866Y-70266001D01*
X144631500Y-70250009D01*
X144631499Y-69449992D01*
X144620999Y-69347203D01*
X144565814Y-69180666D01*
X144473712Y-69031344D01*
X144349656Y-68907288D01*
X144200334Y-68815186D01*
X144033797Y-68760001D01*
X144033795Y-68760000D01*
X143931010Y-68749500D01*
X142580998Y-68749500D01*
X142580981Y-68749501D01*
X142478203Y-68760000D01*
X142478200Y-68760001D01*
X142311668Y-68815185D01*
X142311663Y-68815187D01*
X142162342Y-68907289D01*
X142038289Y-69031342D01*
X141946187Y-69180663D01*
X141946186Y-69180666D01*
X141891001Y-69347203D01*
X141891001Y-69347204D01*
X141891000Y-69347204D01*
X141880500Y-69449983D01*
X141880500Y-70250001D01*
X140462000Y-70250001D01*
X140462000Y-67680478D01*
X140481685Y-67613439D01*
X140534489Y-67567684D01*
X140585994Y-67556479D01*
X169676000Y-67556417D01*
X169743039Y-67576101D01*
G37*
%TD.AperFunction*%
%TD*%
%TA.AperFunction,Conductor*%
%TO.N,GND*%
G36*
X199314236Y-70176000D02*
G01*
X178528000Y-70176000D01*
X178528000Y-80014302D01*
X178508315Y-80081341D01*
X178471054Y-80118608D01*
X175456077Y-82056806D01*
X175389040Y-82076500D01*
X175003662Y-82076500D01*
X175003644Y-82076501D01*
X174904292Y-82086650D01*
X174904289Y-82086651D01*
X174743305Y-82139996D01*
X174743294Y-82140001D01*
X174598959Y-82229029D01*
X174598955Y-82229032D01*
X174479032Y-82348955D01*
X174479029Y-82348959D01*
X174390001Y-82493294D01*
X174389996Y-82493305D01*
X174336651Y-82654290D01*
X174326500Y-82753647D01*
X174326500Y-82960480D01*
X174306815Y-83027519D01*
X174290185Y-83048156D01*
X174148160Y-83190182D01*
X174086840Y-83223666D01*
X174060481Y-83226500D01*
X173243519Y-83226500D01*
X173176480Y-83206815D01*
X173155838Y-83190181D01*
X173138819Y-83173162D01*
X173105334Y-83111839D01*
X173102500Y-83085481D01*
X173102500Y-82179889D01*
X173105332Y-82153540D01*
X173108277Y-82139997D01*
X173112441Y-82120850D01*
X173320912Y-79202240D01*
X173324963Y-79178467D01*
X173702000Y-77796000D01*
X173702000Y-67680408D01*
X173721685Y-67613369D01*
X173774489Y-67567614D01*
X173825994Y-67556409D01*
X199353393Y-67556355D01*
X199314236Y-70176000D01*
G37*
%TD.AperFunction*%
%TD*%
%TA.AperFunction,Conductor*%
%TO.N,GND*%
G36*
X203282418Y-67556663D02*
G01*
X203482555Y-67570977D01*
X203500060Y-67573494D01*
X203691788Y-67615202D01*
X203708747Y-67620181D01*
X203892600Y-67688755D01*
X203908689Y-67696104D01*
X204080893Y-67790138D01*
X204095775Y-67799702D01*
X204252848Y-67917286D01*
X204266211Y-67928865D01*
X204404956Y-68067614D01*
X204416536Y-68080979D01*
X204534117Y-68238053D01*
X204543682Y-68252937D01*
X204637711Y-68425144D01*
X204645057Y-68441229D01*
X204713623Y-68625070D01*
X204718607Y-68642046D01*
X204760310Y-68833774D01*
X204762827Y-68851286D01*
X204777182Y-69052063D01*
X204777498Y-69060908D01*
X204777497Y-69130350D01*
X204777499Y-69130379D01*
X204777499Y-103936161D01*
X204757814Y-104003200D01*
X204705010Y-104048955D01*
X204651068Y-104060137D01*
X192506000Y-103821999D01*
X199356000Y-96338000D01*
X199188627Y-93222000D01*
X200100592Y-93222000D01*
X200120201Y-93508680D01*
X200178666Y-93790034D01*
X200178667Y-93790037D01*
X200274894Y-94060793D01*
X200274893Y-94060793D01*
X200407098Y-94315935D01*
X200572812Y-94550700D01*
X200657923Y-94641831D01*
X200768947Y-94760708D01*
X200846242Y-94823592D01*
X200991853Y-94942055D01*
X201237382Y-95091365D01*
X201424237Y-95172526D01*
X201500942Y-95205844D01*
X201777642Y-95283371D01*
X202027920Y-95317771D01*
X202062321Y-95322500D01*
X202062322Y-95322500D01*
X202349679Y-95322500D01*
X202380370Y-95318281D01*
X202634358Y-95283371D01*
X202911058Y-95205844D01*
X203024015Y-95156779D01*
X203174617Y-95091365D01*
X203174620Y-95091363D01*
X203174625Y-95091361D01*
X203420147Y-94942055D01*
X203643053Y-94760708D01*
X203839189Y-94550698D01*
X204004901Y-94315936D01*
X204137104Y-94060797D01*
X204233334Y-93790032D01*
X204291798Y-93508686D01*
X204311408Y-93222000D01*
X204291798Y-92935314D01*
X204233334Y-92653968D01*
X204137105Y-92383206D01*
X204137106Y-92383206D01*
X204004901Y-92128064D01*
X203839187Y-91893299D01*
X203760554Y-91809105D01*
X203643053Y-91683292D01*
X203420147Y-91501945D01*
X203420146Y-91501944D01*
X203174617Y-91352634D01*
X202911063Y-91238158D01*
X202911061Y-91238157D01*
X202911058Y-91238156D01*
X202781578Y-91201877D01*
X202634364Y-91160630D01*
X202634359Y-91160629D01*
X202634358Y-91160629D01*
X202492018Y-91141064D01*
X202349679Y-91121500D01*
X202349678Y-91121500D01*
X202062322Y-91121500D01*
X202062321Y-91121500D01*
X201777642Y-91160629D01*
X201777635Y-91160630D01*
X201569861Y-91218845D01*
X201500942Y-91238156D01*
X201500939Y-91238156D01*
X201500936Y-91238158D01*
X201500935Y-91238158D01*
X201237382Y-91352634D01*
X200991853Y-91501944D01*
X200768950Y-91683289D01*
X200572812Y-91893299D01*
X200407098Y-92128064D01*
X200274894Y-92383206D01*
X200178667Y-92653962D01*
X200178666Y-92653965D01*
X200120201Y-92935319D01*
X200100592Y-93222000D01*
X199188627Y-93222000D01*
X199143572Y-92383206D01*
X199006000Y-89822000D01*
X196203441Y-89822000D01*
X196136402Y-89802315D01*
X196090647Y-89749511D01*
X196080703Y-89680353D01*
X196109728Y-89616797D01*
X196138164Y-89592573D01*
X196232560Y-89534125D01*
X196232559Y-89534125D01*
X196232562Y-89534124D01*
X196396981Y-89384236D01*
X196531058Y-89206689D01*
X196630229Y-89007528D01*
X196691115Y-88793536D01*
X196711643Y-88572000D01*
X196691115Y-88350464D01*
X196630229Y-88136472D01*
X196630224Y-88136461D01*
X196531061Y-87937316D01*
X196531056Y-87937308D01*
X196396979Y-87759761D01*
X196232562Y-87609876D01*
X196232560Y-87609874D01*
X196043404Y-87492754D01*
X196043398Y-87492752D01*
X195835940Y-87412382D01*
X195617243Y-87371500D01*
X195394757Y-87371500D01*
X195176060Y-87412382D01*
X195044864Y-87463207D01*
X194968601Y-87492752D01*
X194968595Y-87492754D01*
X194779439Y-87609874D01*
X194779437Y-87609876D01*
X194615020Y-87759761D01*
X194480943Y-87937308D01*
X194480938Y-87937316D01*
X194381775Y-88136461D01*
X194381769Y-88136476D01*
X194320885Y-88350462D01*
X194320884Y-88350464D01*
X194300357Y-88571999D01*
X194300357Y-88572000D01*
X194320884Y-88793535D01*
X194320885Y-88793537D01*
X194381769Y-89007523D01*
X194381775Y-89007538D01*
X194480938Y-89206683D01*
X194480943Y-89206691D01*
X194615020Y-89384238D01*
X194779437Y-89534123D01*
X194779439Y-89534125D01*
X194873836Y-89592573D01*
X194920472Y-89644601D01*
X194931576Y-89713582D01*
X194903623Y-89777617D01*
X194845488Y-89816373D01*
X194808559Y-89822000D01*
X185486500Y-89822000D01*
X185419461Y-89802315D01*
X185373706Y-89749511D01*
X185362500Y-89698000D01*
X185362500Y-84500569D01*
X185382185Y-84433530D01*
X185398819Y-84412888D01*
X186202888Y-83608819D01*
X186264211Y-83575334D01*
X186290569Y-83572500D01*
X189130977Y-83572500D01*
X189198016Y-83592185D01*
X189205287Y-83597233D01*
X189421682Y-83759224D01*
X189421690Y-83759229D01*
X189672833Y-83896364D01*
X189672832Y-83896364D01*
X189672836Y-83896365D01*
X189672839Y-83896367D01*
X189940954Y-83996369D01*
X189940960Y-83996370D01*
X189940962Y-83996371D01*
X190220566Y-84057195D01*
X190220568Y-84057195D01*
X190220572Y-84057196D01*
X190474220Y-84075337D01*
X190505999Y-84077610D01*
X190506000Y-84077610D01*
X190506001Y-84077610D01*
X190534595Y-84075564D01*
X190791428Y-84057196D01*
X191071046Y-83996369D01*
X191339161Y-83896367D01*
X191590315Y-83759226D01*
X191706130Y-83672527D01*
X191807381Y-83596733D01*
X191872845Y-83572316D01*
X191881691Y-83572000D01*
X192005999Y-83572000D01*
X192006000Y-83572000D01*
X192086169Y-83311449D01*
X192105410Y-83273622D01*
X192193226Y-83156315D01*
X192330367Y-82905161D01*
X192430369Y-82637046D01*
X192491196Y-82357428D01*
X192511610Y-82072000D01*
X192504952Y-81978916D01*
X192510118Y-81933616D01*
X194006000Y-77072000D01*
X194227265Y-76186937D01*
X194262620Y-76126678D01*
X194324944Y-76095096D01*
X194394449Y-76102223D01*
X194449068Y-76145796D01*
X194458561Y-76161743D01*
X194480941Y-76206687D01*
X194480943Y-76206691D01*
X194615020Y-76384238D01*
X194779437Y-76534123D01*
X194779439Y-76534125D01*
X194968595Y-76651245D01*
X194968596Y-76651245D01*
X194968599Y-76651247D01*
X195176060Y-76731618D01*
X195394757Y-76772500D01*
X195394759Y-76772500D01*
X195617241Y-76772500D01*
X195617243Y-76772500D01*
X195835940Y-76731618D01*
X196043401Y-76651247D01*
X196232562Y-76534124D01*
X196396981Y-76384236D01*
X196531058Y-76206689D01*
X196630229Y-76007528D01*
X196691115Y-75793536D01*
X196711643Y-75572000D01*
X196691115Y-75350464D01*
X196630229Y-75136472D01*
X196630224Y-75136461D01*
X196531061Y-74937316D01*
X196531056Y-74937308D01*
X196396979Y-74759761D01*
X196232562Y-74609876D01*
X196232560Y-74609874D01*
X196043404Y-74492754D01*
X196043398Y-74492752D01*
X195835940Y-74412382D01*
X195617243Y-74371500D01*
X195394757Y-74371500D01*
X195176060Y-74412382D01*
X195044864Y-74463207D01*
X194968601Y-74492752D01*
X194968595Y-74492754D01*
X194852252Y-74564791D01*
X194784891Y-74583346D01*
X194718192Y-74562538D01*
X194673331Y-74508973D01*
X194664551Y-74439657D01*
X194666674Y-74429301D01*
X194732518Y-74165924D01*
X194767875Y-74105662D01*
X194830199Y-74074080D01*
X194852816Y-74072000D01*
X199255999Y-74072000D01*
X199256000Y-74072000D01*
X199285896Y-72072000D01*
X200100592Y-72072000D01*
X200120201Y-72358680D01*
X200178666Y-72640034D01*
X200178667Y-72640037D01*
X200274894Y-72910793D01*
X200274893Y-72910793D01*
X200407098Y-73165935D01*
X200572812Y-73400700D01*
X200657923Y-73491831D01*
X200768947Y-73610708D01*
X200991853Y-73792055D01*
X201237382Y-73941365D01*
X201424237Y-74022526D01*
X201500942Y-74055844D01*
X201777642Y-74133371D01*
X202014479Y-74165924D01*
X202062321Y-74172500D01*
X202062322Y-74172500D01*
X202349679Y-74172500D01*
X202397521Y-74165924D01*
X202634358Y-74133371D01*
X202911058Y-74055844D01*
X203024015Y-74006779D01*
X203174617Y-73941365D01*
X203174620Y-73941363D01*
X203174625Y-73941361D01*
X203420147Y-73792055D01*
X203643053Y-73610708D01*
X203839189Y-73400698D01*
X204004901Y-73165936D01*
X204137104Y-72910797D01*
X204233334Y-72640032D01*
X204291798Y-72358686D01*
X204311408Y-72072000D01*
X204291798Y-71785314D01*
X204233334Y-71503968D01*
X204137105Y-71233206D01*
X204137106Y-71233206D01*
X204004901Y-70978064D01*
X203839187Y-70743299D01*
X203760554Y-70659105D01*
X203643053Y-70533292D01*
X203420147Y-70351945D01*
X203420146Y-70351944D01*
X203174617Y-70202634D01*
X202911063Y-70088158D01*
X202911061Y-70088157D01*
X202911058Y-70088156D01*
X202781578Y-70051877D01*
X202634364Y-70010630D01*
X202634359Y-70010629D01*
X202634358Y-70010629D01*
X202492018Y-69991064D01*
X202349679Y-69971500D01*
X202349678Y-69971500D01*
X202062322Y-69971500D01*
X202062321Y-69971500D01*
X201777642Y-70010629D01*
X201777635Y-70010630D01*
X201569861Y-70068845D01*
X201500942Y-70088156D01*
X201500939Y-70088156D01*
X201500936Y-70088158D01*
X201500935Y-70088158D01*
X201237382Y-70202634D01*
X200991853Y-70351944D01*
X200768950Y-70533289D01*
X200572812Y-70743299D01*
X200407098Y-70978064D01*
X200274894Y-71233206D01*
X200178667Y-71503962D01*
X200178666Y-71503965D01*
X200120201Y-71785319D01*
X200100592Y-72072000D01*
X199285896Y-72072000D01*
X199301452Y-71031276D01*
X199353392Y-67556355D01*
X203273572Y-67556347D01*
X203282418Y-67556663D01*
G37*
%TD.AperFunction*%
%TD*%
%TA.AperFunction,Conductor*%
%TO.N,+3.3V*%
G36*
X183151539Y-92910185D02*
G01*
X183197294Y-92962989D01*
X183208500Y-93014500D01*
X183208500Y-93616165D01*
X183188815Y-93683204D01*
X183183700Y-93690565D01*
X182974384Y-93969654D01*
X182963696Y-93984456D01*
X182958565Y-93991838D01*
X182948437Y-94006990D01*
X182948435Y-94006993D01*
X182888663Y-94137870D01*
X182868976Y-94204915D01*
X182848500Y-94347334D01*
X182848500Y-102164500D01*
X182828815Y-102231539D01*
X182776011Y-102277294D01*
X182724500Y-102288500D01*
X182370616Y-102288500D01*
X182326961Y-102279129D01*
X182326767Y-102279754D01*
X182319893Y-102277612D01*
X182319725Y-102277576D01*
X182319607Y-102277522D01*
X182172038Y-102231539D01*
X182157196Y-102226914D01*
X182157194Y-102226913D01*
X182157192Y-102226913D01*
X182107778Y-102222423D01*
X182086616Y-102220500D01*
X181729470Y-102220500D01*
X181693915Y-102215293D01*
X181631593Y-102196639D01*
X181586288Y-102183079D01*
X181566391Y-102175195D01*
X180560001Y-101672000D01*
X180560000Y-101672000D01*
X179658436Y-101672000D01*
X179591397Y-101652315D01*
X179545642Y-101599511D01*
X179534834Y-101557933D01*
X179531492Y-101516353D01*
X179514149Y-101300526D01*
X179514393Y-101278003D01*
X179515751Y-101264719D01*
X179515750Y-100718030D01*
X179505600Y-100618666D01*
X179452254Y-100457677D01*
X179452252Y-100457675D01*
X179449982Y-100450822D01*
X179451358Y-100450366D01*
X179443417Y-100420319D01*
X179273772Y-98309203D01*
X179275270Y-98277681D01*
X179340289Y-97910223D01*
X179346275Y-97864128D01*
X179348167Y-97841425D01*
X179349893Y-97794968D01*
X179342375Y-96945858D01*
X179333962Y-96858384D01*
X179326149Y-96816148D01*
X179326146Y-96816140D01*
X179326143Y-96816124D01*
X179314597Y-96774403D01*
X179302708Y-96731438D01*
X179233752Y-96605158D01*
X179220975Y-96588091D01*
X179191887Y-96549234D01*
X179191884Y-96549231D01*
X179191880Y-96549225D01*
X179191875Y-96549220D01*
X179191869Y-96549213D01*
X179180819Y-96538163D01*
X179147334Y-96476840D01*
X179144500Y-96450482D01*
X179144500Y-93014500D01*
X179164185Y-92947461D01*
X179216989Y-92901706D01*
X179268500Y-92890500D01*
X183084500Y-92890500D01*
X183151539Y-92910185D01*
G37*
%TD.AperFunction*%
%TD*%
%TA.AperFunction,Conductor*%
%TO.N,Net-(J1-Pin_1)*%
G36*
X88161105Y-59699311D02*
G01*
X88315262Y-59761434D01*
X105078888Y-66516925D01*
X105133710Y-66560239D01*
X105156412Y-66626318D01*
X105156536Y-66631136D01*
X105409562Y-105850189D01*
X105390311Y-105917354D01*
X105353144Y-105954956D01*
X100360113Y-109200425D01*
X100294084Y-109220448D01*
X80135550Y-109472430D01*
X80068270Y-109453585D01*
X80021858Y-109401357D01*
X80010000Y-109348440D01*
X80010000Y-100672571D01*
X80029685Y-100605532D01*
X80082489Y-100559777D01*
X80093784Y-100555274D01*
X88900000Y-97536000D01*
X88900000Y-68072000D01*
X88900000Y-68071999D01*
X88319428Y-67636571D01*
X87884000Y-67310000D01*
X87883999Y-67310000D01*
X83178104Y-67310000D01*
X83111065Y-67290315D01*
X83065310Y-67237511D01*
X83054167Y-67189958D01*
X82820988Y-59887685D01*
X82838523Y-59820051D01*
X82889840Y-59772634D01*
X82943258Y-59759738D01*
X88113093Y-59690334D01*
X88161105Y-59699311D01*
G37*
%TD.AperFunction*%
%TD*%
%TA.AperFunction,Conductor*%
%TO.N,Net-(J1-Pin_2)*%
G36*
X83007917Y-50160350D02*
G01*
X83013470Y-50160501D01*
X83758642Y-50197512D01*
X83764158Y-50197910D01*
X84506957Y-50268495D01*
X84512442Y-50269141D01*
X85251260Y-50373149D01*
X85256737Y-50374046D01*
X85918344Y-50497839D01*
X85990114Y-50511268D01*
X85995588Y-50512421D01*
X86721977Y-50682566D01*
X86727393Y-50683964D01*
X87445406Y-50886705D01*
X87450718Y-50888335D01*
X88158867Y-51123256D01*
X88164104Y-51125125D01*
X88803970Y-51369947D01*
X88804699Y-51370282D01*
X88867261Y-51394297D01*
X88869671Y-51395251D01*
X88914775Y-51413686D01*
X88924525Y-51417671D01*
X88929453Y-51418966D01*
X88942363Y-51423125D01*
X130838760Y-67505647D01*
X130856314Y-67514020D01*
X130870815Y-67522392D01*
X130902840Y-67530972D01*
X130915180Y-67534982D01*
X130946151Y-67546871D01*
X130946155Y-67546872D01*
X130962804Y-67548621D01*
X130981934Y-67552165D01*
X130998109Y-67556500D01*
X131031271Y-67556499D01*
X131044234Y-67557178D01*
X131077215Y-67560646D01*
X131093758Y-67558025D01*
X131113142Y-67556498D01*
X139576003Y-67556481D01*
X139643039Y-67576164D01*
X139688794Y-67628968D01*
X139700000Y-67680480D01*
X139700000Y-74203362D01*
X139680315Y-74270401D01*
X139648377Y-74304048D01*
X139618187Y-74325749D01*
X139567875Y-74374150D01*
X139567835Y-74374190D01*
X139479404Y-74487676D01*
X139479398Y-74487685D01*
X139262349Y-74867521D01*
X139211997Y-74915962D01*
X139154687Y-74930000D01*
X126516490Y-74930000D01*
X126469348Y-74920689D01*
X105622502Y-66351740D01*
X105567980Y-66308047D01*
X105559304Y-66293628D01*
X105546142Y-66267954D01*
X105447089Y-66163599D01*
X105392272Y-66120288D01*
X105392267Y-66120285D01*
X105267832Y-66048064D01*
X105267829Y-66048062D01*
X105267826Y-66048061D01*
X88350064Y-59230455D01*
X88350043Y-59230448D01*
X88254020Y-59202424D01*
X88253987Y-59202417D01*
X88221381Y-59196320D01*
X88197031Y-59189122D01*
X85090001Y-57912000D01*
X85090000Y-57912000D01*
X82928000Y-57912000D01*
X82860961Y-57892315D01*
X82815206Y-57839511D01*
X82804000Y-57788000D01*
X82804000Y-50283991D01*
X82823685Y-50216952D01*
X82876489Y-50171197D01*
X82928557Y-50159992D01*
X83007917Y-50160350D01*
G37*
%TD.AperFunction*%
%TD*%
M02*
